<svg width="360" height="384" viewBox="0 0 360 384" fill="none" xmlns="http://www.w3.org/2000/svg">
<rect x="21" width="328" height="356" rx="16" fill="white"/>
<rect x="60.0024" y="162.014" width="300" height="173.99" rx="16" fill="white"/>
<g clip-path="url(#clip0_44_7548)">
<rect x="76.0024" y="178.014" width="268" height="41.9965" rx="8" fill="white"/>
<rect x="91.0029" y="189.009" width="20.0031" height="20.0031" rx="4" fill="#6F2268"/>
<g clip-path="url(#clip1_44_7548)">
<g clip-path="url(#clip2_44_7548)">
<path d="M96.6362 198.92L99.3446 201.63L104.762 196.212" stroke="white" stroke-width="1.5" stroke-linecap="round" stroke-linejoin="round"/>
</g>
</g>
<rect x="125.008" y="189.009" width="139.001" height="20.0031" rx="6" fill="#F3F4F6"/>
<rect x="76.5024" y="178.514" width="267" height="40.9965" rx="7.5" stroke="#F3F4F6"/>
</g>
<g clip-path="url(#clip3_44_7548)">
<rect x="76.0024" y="228.011" width="268" height="41.9965" rx="8" fill="white"/>
<rect x="91.0029" y="239.006" width="20.0031" height="20.0031" rx="4" fill="#6F2268"/>
<g clip-path="url(#clip4_44_7548)">
<g clip-path="url(#clip5_44_7548)">
<path d="M96.6362 248.918L99.3446 251.628L104.762 246.21" stroke="white" stroke-width="1.5" stroke-linecap="round" stroke-linejoin="round"/>
</g>
</g>
<rect x="125.008" y="239.006" width="204.99" height="20.0031" rx="6" fill="#F3F4F6"/>
<rect x="76.5024" y="228.511" width="267" height="40.9965" rx="7.5" stroke="#F3F4F6"/>
</g>
<g clip-path="url(#clip6_44_7548)">
<rect x="76.0024" y="278.007" width="268" height="41.9965" rx="8" fill="white"/>
<rect x="90.5024" y="289.505" width="19.0031" height="19.0031" rx="3.5" fill="#F8F9FB" stroke="#F0F0F2"/>
<rect x="124.008" y="289.005" width="140.001" height="20.0031" rx="6" fill="#F3F4F6"/>
<rect x="76.5024" y="278.507" width="267" height="40.9965" rx="7.5" stroke="#F3F4F6"/>
</g>
<rect x="0.402181" y="297.933" width="199.333" height="85.3333" rx="7.66667" fill="white"/>
<rect x="0.402181" y="297.933" width="199.333" height="85.3333" rx="7.66667" stroke="#F0F0F2" stroke-width="0.666667"/>
<g filter="url(#filter0_d_44_7548)">
<rect x="12.0688" y="309.6" width="176" height="30" rx="5" fill="white"/>
<rect x="12.4022" y="309.933" width="175.333" height="29.3333" rx="4.66667" stroke="#F0F0F2" stroke-width="0.666667"/>
<g style="mix-blend-mode:multiply">
<rect x="20.0688" y="316.6" width="43.3333" height="16" rx="8" fill="#F0F0F2"/>
<path d="M27.459 325.7L28.969 327.21C29.589 327.83 30.5956 327.83 31.219 327.21L32.6823 325.746C33.3023 325.126 33.3023 324.12 32.6823 323.496L31.169 321.99C30.8523 321.673 30.4156 321.503 29.969 321.526L28.3023 321.606C27.6356 321.636 27.1056 322.166 27.0723 322.83L26.9923 324.496C26.9723 324.946 27.1423 325.383 27.459 325.7Z" stroke="#979797" stroke-width="0.5" stroke-linecap="round" stroke-linejoin="round"/>
<path d="M29.2357 324.6C29.6959 324.6 30.069 324.227 30.069 323.766C30.069 323.306 29.6959 322.933 29.2357 322.933C28.7754 322.933 28.4023 323.306 28.4023 323.766C28.4023 324.227 28.7754 324.6 29.2357 324.6Z" stroke="#979797" stroke-width="0.5" stroke-linecap="round"/>
<path d="M39.0622 323.781V324.378H36.9767V323.781H39.0622ZM37.536 322.867H38.2792V326.479C38.2792 326.623 38.3008 326.731 38.3438 326.804C38.3869 326.875 38.4424 326.924 38.5104 326.951C38.58 326.976 38.6554 326.988 38.7366 326.988C38.7963 326.988 38.8485 326.984 38.8932 326.976C38.9379 326.967 38.9727 326.961 38.9976 326.956L39.1318 327.57C39.0887 327.586 39.0274 327.603 38.9479 327.619C38.8683 327.638 38.7689 327.648 38.6496 327.649C38.454 327.653 38.2718 327.618 38.1027 327.545C37.9337 327.472 37.797 327.359 37.6926 327.207C37.5882 327.054 37.536 326.863 37.536 326.633V322.867ZM40.9956 327.684C40.7536 327.684 40.5349 327.639 40.3393 327.55C40.1438 327.459 39.9888 327.327 39.8745 327.155C39.7618 326.982 39.7054 326.771 39.7054 326.521C39.7054 326.305 39.7469 326.128 39.8297 325.989C39.9126 325.85 40.0244 325.739 40.1653 325.658C40.3062 325.577 40.4636 325.516 40.6376 325.474C40.8116 325.433 40.9889 325.401 41.1696 325.38C41.3983 325.353 41.5839 325.332 41.7264 325.315C41.8689 325.297 41.9725 325.268 42.0371 325.228C42.1017 325.188 42.1341 325.124 42.1341 325.034V325.017C42.1341 324.8 42.0727 324.632 41.9501 324.512C41.8291 324.393 41.6485 324.333 41.4082 324.333C41.158 324.333 40.9608 324.389 40.8166 324.5C40.6741 324.609 40.5755 324.731 40.5208 324.865L39.8223 324.706C39.9051 324.474 40.0261 324.287 40.1852 324.144C40.3459 324 40.5307 323.896 40.7395 323.831C40.9483 323.765 41.1679 323.732 41.3983 323.732C41.5507 323.732 41.7123 323.75 41.883 323.786C42.0553 323.821 42.2161 323.886 42.3652 323.98C42.516 324.075 42.6395 324.21 42.7356 324.385C42.8317 324.559 42.8798 324.786 42.8798 325.064V327.6H42.1539V327.078H42.1241C42.0761 327.174 42.004 327.268 41.9078 327.361C41.8117 327.454 41.6883 327.531 41.5375 327.592C41.3867 327.653 41.206 327.684 40.9956 327.684ZM41.1571 327.088C41.3626 327.088 41.5383 327.047 41.6841 326.966C41.8316 326.885 41.9435 326.778 42.0197 326.648C42.0976 326.515 42.1365 326.373 42.1365 326.222V325.73C42.11 325.757 42.0587 325.782 41.9824 325.805C41.9078 325.826 41.8225 325.845 41.7264 325.862C41.6303 325.877 41.5366 325.891 41.4455 325.904C41.3543 325.916 41.2781 325.926 41.2168 325.934C41.0726 325.952 40.9409 325.983 40.8216 326.026C40.7039 326.069 40.6094 326.131 40.5382 326.213C40.4686 326.292 40.4338 326.398 40.4338 326.531C40.4338 326.715 40.5017 326.854 40.6376 326.948C40.7735 327.041 40.9467 327.088 41.1571 327.088ZM45.4706 329.111C45.1673 329.111 44.9063 329.071 44.6876 328.992C44.4705 328.912 44.2932 328.807 44.1556 328.676C44.0181 328.545 43.9153 328.402 43.8474 328.246L44.4862 327.982C44.531 328.055 44.5906 328.132 44.6652 328.214C44.7414 328.296 44.8442 328.367 44.9735 328.425C45.1044 328.483 45.2726 328.512 45.4781 328.512C45.7598 328.512 45.9926 328.443 46.1766 328.306C46.3605 328.17 46.4525 327.953 46.4525 327.654V326.904H46.4053C46.3605 326.985 46.2959 327.075 46.2114 327.175C46.1285 327.274 46.0142 327.36 45.8683 327.433C45.7225 327.506 45.5328 327.542 45.2991 327.542C44.9975 327.542 44.7257 327.472 44.4838 327.331C44.2435 327.189 44.0529 326.979 43.912 326.702C43.7728 326.424 43.7032 326.082 43.7032 325.676C43.7032 325.27 43.772 324.922 43.9095 324.632C44.0487 324.342 44.2393 324.119 44.4813 323.965C44.7232 323.81 44.9975 323.732 45.3041 323.732C45.541 323.732 45.7325 323.771 45.8783 323.851C46.0241 323.929 46.1376 324.02 46.2188 324.124C46.3017 324.229 46.3655 324.321 46.4102 324.4H46.4649V323.781H47.1933V327.684C47.1933 328.012 47.117 328.282 46.9646 328.492C46.8121 328.702 46.6058 328.858 46.3456 328.959C46.0871 329.06 45.7954 329.111 45.4706 329.111ZM45.4632 326.926C45.6769 326.926 45.8576 326.876 46.0051 326.777C46.1542 326.676 46.2669 326.532 46.3431 326.344C46.421 326.155 46.46 325.929 46.46 325.666C46.46 325.409 46.4218 325.183 46.3456 324.987C46.2694 324.791 46.1575 324.639 46.01 324.53C45.8625 324.419 45.6802 324.363 45.4632 324.363C45.2394 324.363 45.053 324.421 44.9039 324.537C44.7547 324.651 44.642 324.807 44.5658 325.004C44.4912 325.202 44.4539 325.422 44.4539 325.666C44.4539 325.916 44.492 326.135 44.5683 326.324C44.6445 326.513 44.7572 326.661 44.9063 326.767C45.0571 326.873 45.2427 326.926 45.4632 326.926Z" fill="#979797"/>
<path d="M56.4048 322.6L52.4048 326.6M52.4048 322.6L56.4048 326.6" stroke="#979797" stroke-linecap="round" stroke-linejoin="round"/>
</g>
</g>
<g filter="url(#filter1_d_44_7548)">
<rect x="12.0688" y="347.6" width="176" height="24" rx="5" fill="#6F2268"/>
<rect x="12.3188" y="347.85" width="175.5" height="23.5" rx="4.75" stroke="#6F2268" stroke-width="0.5"/>
<path d="M91.7201 363.6H90.3139L92.8742 356.327H94.5007L97.0646 363.6H95.6583L93.7159 357.818H93.659L91.7201 363.6ZM91.7663 360.748H95.6015V361.806H91.7663V360.748ZM99.8238 363.695C99.3953 363.695 99.0118 363.585 98.6733 363.365C98.3347 363.145 98.0672 362.825 97.8707 362.406C97.6742 361.987 97.5759 361.478 97.5759 360.879C97.5759 360.273 97.6754 359.762 97.8742 359.345C98.0755 358.926 98.3465 358.61 98.6875 358.397C99.0284 358.182 99.4083 358.074 99.8274 358.074C100.147 358.074 100.41 358.128 100.616 358.237C100.822 358.344 100.985 358.473 101.106 358.624C101.227 358.774 101.32 358.914 101.386 359.047H101.44V356.327H102.729V363.6H101.464V362.74H101.386C101.32 362.873 101.224 363.014 101.099 363.163C100.973 363.31 100.807 363.435 100.602 363.539C100.396 363.643 100.136 363.695 99.8238 363.695ZM100.182 362.641C100.455 362.641 100.687 362.567 100.879 362.421C101.07 362.271 101.216 362.064 101.315 361.799C101.415 361.534 101.464 361.225 101.464 360.872C101.464 360.52 101.415 360.213 101.315 359.953C101.218 359.692 101.074 359.49 100.882 359.345C100.693 359.201 100.459 359.129 100.182 359.129C99.896 359.129 99.6569 359.203 99.4652 359.352C99.2734 359.502 99.129 359.708 99.0319 359.97C98.9349 360.233 98.8863 360.534 98.8863 360.872C98.8863 361.213 98.9349 361.517 99.0319 361.785C99.1313 362.05 99.2769 362.26 99.4687 362.414C99.6628 362.565 99.9008 362.641 100.182 362.641ZM106.123 363.695C105.694 363.695 105.311 363.585 104.972 363.365C104.634 363.145 104.366 362.825 104.17 362.406C103.973 361.987 103.875 361.478 103.875 360.879C103.875 360.273 103.974 359.762 104.173 359.345C104.374 358.926 104.645 358.61 104.986 358.397C105.327 358.182 105.707 358.074 106.126 358.074C106.446 358.074 106.709 358.128 106.915 358.237C107.121 358.344 107.284 358.473 107.405 358.624C107.525 358.774 107.619 358.914 107.685 359.047H107.738V356.327H109.027V363.6H107.763V362.74H107.685C107.619 362.873 107.523 363.014 107.398 363.163C107.272 363.31 107.106 363.435 106.9 363.539C106.694 363.643 106.435 363.695 106.123 363.695ZM106.481 362.641C106.754 362.641 106.986 362.567 107.177 362.421C107.369 362.271 107.515 362.064 107.614 361.799C107.714 361.534 107.763 361.225 107.763 360.872C107.763 360.52 107.714 360.213 107.614 359.953C107.517 359.692 107.373 359.49 107.181 359.345C106.991 359.201 106.758 359.129 106.481 359.129C106.195 359.129 105.956 359.203 105.764 359.352C105.572 359.502 105.428 359.708 105.331 359.97C105.234 360.233 105.185 360.534 105.185 360.872C105.185 361.213 105.234 361.517 105.331 361.785C105.43 362.05 105.576 362.26 105.768 362.414C105.962 362.565 106.2 362.641 106.481 362.641Z" fill="white"/>
</g>
<rect width="280" height="24" transform="translate(45 12.0002)" fill="white"/>
<rect x="45" y="19.0002" width="10" height="10" rx="5" fill="#FA85A4"/>
<rect x="65" y="19.0002" width="10" height="10" rx="5" fill="#FFE56E"/>
<rect x="85" y="19.0002" width="10" height="10" rx="5" fill="#52E282"/>
<rect x="131.83" y="12.0002" width="128.01" height="24" rx="12" fill="#F7F9FC"/>
<path d="M148.596 22.6379C148.558 22.3018 148.402 22.0413 148.127 21.8567C147.852 21.6697 147.507 21.5761 147.09 21.5761C146.792 21.5761 146.534 21.6235 146.316 21.7182C146.098 21.8105 145.929 21.9384 145.808 22.1017C145.69 22.2627 145.631 22.4462 145.631 22.6521C145.631 22.825 145.671 22.9741 145.751 23.0996C145.834 23.2251 145.942 23.3304 146.074 23.4156C146.209 23.4985 146.354 23.5683 146.508 23.6252C146.662 23.6796 146.809 23.7246 146.952 23.7601L147.662 23.9448C147.894 24.0016 148.132 24.0785 148.376 24.1756C148.619 24.2726 148.845 24.4005 149.054 24.5591C149.262 24.7177 149.43 24.9142 149.558 25.1486C149.688 25.383 149.753 25.6635 149.753 25.9902C149.753 26.4021 149.647 26.7679 149.434 27.0875C149.223 27.4071 148.916 27.6592 148.514 27.8439C148.114 28.0286 147.63 28.1209 147.062 28.1209C146.517 28.1209 146.046 28.0345 145.648 27.8617C145.251 27.6888 144.939 27.4438 144.714 27.1266C144.489 26.807 144.365 26.4282 144.341 25.9902H145.442C145.464 26.253 145.549 26.472 145.698 26.6472C145.849 26.82 146.042 26.949 146.277 27.0342C146.514 27.1171 146.773 27.1585 147.055 27.1585C147.365 27.1585 147.64 27.11 147.882 27.0129C148.126 26.9135 148.318 26.7762 148.457 26.601C148.597 26.4234 148.667 26.2163 148.667 25.9796C148.667 25.7641 148.605 25.5877 148.482 25.4504C148.361 25.3131 148.197 25.1995 147.988 25.1095C147.782 25.0196 147.549 24.9403 147.289 24.8716L146.43 24.6372C145.847 24.4786 145.385 24.2454 145.045 23.9377C144.706 23.6299 144.537 23.2227 144.537 22.7161C144.537 22.297 144.65 21.9313 144.878 21.6188C145.105 21.3063 145.413 21.0636 145.801 20.8908C146.189 20.7156 146.627 20.628 147.115 20.628C147.607 20.628 148.042 20.7144 148.418 20.8872C148.797 21.06 149.095 21.298 149.313 21.601C149.531 21.9017 149.644 22.2473 149.654 22.6379H148.596ZM154.435 25.7381V22.5456H155.5V28.0002H154.456V27.0556H154.399C154.274 27.3467 154.072 27.5894 153.795 27.7835C153.521 27.9753 153.179 28.0712 152.769 28.0712C152.419 28.0712 152.109 27.9942 151.839 27.8404C151.571 27.6841 151.361 27.4533 151.207 27.1479C151.055 26.8425 150.979 26.4649 150.979 26.0151V22.5456H152.041V25.8872C152.041 26.2589 152.144 26.5548 152.35 26.775C152.556 26.9952 152.824 27.1053 153.153 27.1053C153.352 27.1053 153.549 27.0556 153.746 26.9561C153.945 26.8567 154.109 26.7064 154.239 26.5051C154.372 26.3039 154.437 26.0482 154.435 25.7381ZM161.014 23.8773L160.052 24.0477C160.011 23.9246 159.948 23.8074 159.86 23.6962C159.775 23.5849 159.659 23.4938 159.512 23.4227C159.365 23.3517 159.182 23.3162 158.961 23.3162C158.661 23.3162 158.41 23.3837 158.209 23.5186C158.007 23.6512 157.907 23.8228 157.907 24.0335C157.907 24.2158 157.974 24.3626 158.109 24.4739C158.244 24.5851 158.462 24.6763 158.763 24.7473L159.629 24.9462C160.131 25.0622 160.505 25.2409 160.751 25.4824C160.997 25.7239 161.121 26.0376 161.121 26.4234C161.121 26.7502 161.026 27.0413 160.836 27.297C160.649 27.5503 160.388 27.7492 160.052 27.8936C159.718 28.038 159.331 28.1102 158.89 28.1102C158.28 28.1102 157.781 27.98 157.395 27.7196C157.01 27.4568 156.773 27.084 156.685 26.601L157.711 26.4448C157.775 26.7123 157.907 26.9147 158.106 27.052C158.305 27.1869 158.564 27.2544 158.883 27.2544C159.231 27.2544 159.51 27.1822 159.718 27.0378C159.926 26.891 160.03 26.7123 160.03 26.5016C160.03 26.3311 159.966 26.1879 159.839 26.0719C159.713 25.9559 159.52 25.8683 159.26 25.8091L158.336 25.6067C157.827 25.4907 157.451 25.306 157.207 25.0527C156.966 24.7994 156.845 24.4786 156.845 24.0904C156.845 23.7684 156.935 23.4867 157.115 23.2452C157.295 23.0037 157.543 22.8155 157.861 22.6806C158.178 22.5432 158.541 22.4746 158.951 22.4746C159.54 22.4746 160.004 22.6024 160.343 22.8581C160.681 23.1114 160.905 23.4511 161.014 23.8773ZM164.834 22.5456V23.3979H161.855V22.5456H164.834ZM162.654 21.2388H163.716V26.3986C163.716 26.6046 163.746 26.7596 163.808 26.8638C163.869 26.9656 163.949 27.0354 164.046 27.0733C164.145 27.1088 164.253 27.1266 164.369 27.1266C164.454 27.1266 164.529 27.1207 164.593 27.1088C164.657 27.097 164.706 27.0875 164.742 27.0804L164.934 27.9575C164.872 27.9812 164.784 28.0049 164.671 28.0286C164.557 28.0546 164.415 28.0688 164.245 28.0712C163.965 28.0759 163.705 28.0262 163.463 27.922C163.222 27.8179 163.027 27.6569 162.877 27.4391C162.728 27.2213 162.654 26.9478 162.654 26.6188V21.2388ZM167.596 28.1209C167.25 28.1209 166.938 28.057 166.659 27.9291C166.379 27.7989 166.158 27.6107 165.994 27.3645C165.834 27.1183 165.753 26.8164 165.753 26.459C165.753 26.1512 165.812 25.8979 165.931 25.699C166.049 25.5002 166.209 25.3427 166.41 25.2267C166.611 25.1107 166.836 25.0231 167.085 24.9639C167.333 24.9047 167.587 24.8598 167.845 24.829C168.171 24.7911 168.436 24.7603 168.64 24.7367C168.844 24.7106 168.992 24.6692 169.084 24.6124C169.176 24.5556 169.222 24.4632 169.222 24.3354V24.3105C169.222 24.0004 169.135 23.7601 168.96 23.5896C168.787 23.4192 168.529 23.334 168.186 23.334C167.828 23.334 167.546 23.4133 167.34 23.5719C167.137 23.7281 166.996 23.9021 166.918 24.0939L165.92 23.8666C166.038 23.5352 166.211 23.2677 166.438 23.0641C166.668 22.8581 166.932 22.709 167.23 22.6166C167.529 22.5219 167.842 22.4746 168.171 22.4746C168.389 22.4746 168.62 22.5006 168.864 22.5527C169.11 22.6024 169.34 22.6948 169.553 22.8297C169.768 22.9646 169.945 23.1576 170.082 23.4085C170.219 23.6571 170.288 23.9803 170.288 24.378V28.0002H169.251V27.2544H169.208C169.14 27.3917 169.037 27.5267 168.899 27.6592C168.762 27.7918 168.586 27.9019 168.37 27.9895C168.155 28.0771 167.897 28.1209 167.596 28.1209ZM167.827 27.2686C168.12 27.2686 168.371 27.2106 168.58 27.0946C168.79 26.9786 168.95 26.8271 169.059 26.6401C169.17 26.4507 169.226 26.2483 169.226 26.0328V25.3297C169.188 25.3676 169.115 25.4031 169.006 25.4362C168.899 25.467 168.777 25.4942 168.64 25.5179C168.503 25.5392 168.369 25.5593 168.239 25.5783C168.109 25.5948 168 25.6091 167.912 25.6209C167.706 25.6469 167.518 25.6907 167.347 25.7523C167.179 25.8138 167.044 25.9026 166.943 26.0186C166.843 26.1323 166.794 26.2838 166.794 26.4732C166.794 26.7359 166.891 26.9348 167.085 27.0698C167.279 27.2023 167.526 27.2686 167.827 27.2686ZM171.702 28.0002V22.5456H172.764V28.0002H171.702ZM172.238 21.704C172.054 21.704 171.895 21.6424 171.762 21.5193C171.632 21.3939 171.567 21.2447 171.567 21.0719C171.567 20.8967 171.632 20.7475 171.762 20.6244C171.895 20.499 172.054 20.4362 172.238 20.4362C172.423 20.4362 172.58 20.499 172.711 20.6244C172.843 20.7475 172.909 20.8967 172.909 21.0719C172.909 21.2447 172.843 21.3939 172.711 21.5193C172.58 21.6424 172.423 21.704 172.238 21.704ZM175.254 24.7615V28.0002H174.192V22.5456H175.211V23.4334H175.279C175.404 23.1446 175.601 22.9126 175.868 22.7374C176.138 22.5622 176.478 22.4746 176.888 22.4746C177.259 22.4746 177.585 22.5527 177.864 22.709C178.144 22.8628 178.36 23.0925 178.514 23.3979C178.668 23.7033 178.745 24.0809 178.745 24.5307V28.0002H177.683V24.6585C177.683 24.2632 177.58 23.9542 177.374 23.7317C177.168 23.5068 176.885 23.3943 176.525 23.3943C176.279 23.3943 176.06 23.4476 175.868 23.5541C175.679 23.6607 175.529 23.8169 175.417 24.0229C175.309 24.2265 175.254 24.4727 175.254 24.7615ZM181.756 28.1209C181.411 28.1209 181.098 28.057 180.819 27.9291C180.539 27.7989 180.318 27.6107 180.155 27.3645C179.994 27.1183 179.913 26.8164 179.913 26.459C179.913 26.1512 179.972 25.8979 180.091 25.699C180.209 25.5002 180.369 25.3427 180.57 25.2267C180.771 25.1107 180.996 25.0231 181.245 24.9639C181.493 24.9047 181.747 24.8598 182.005 24.829C182.331 24.7911 182.597 24.7603 182.8 24.7367C183.004 24.7106 183.152 24.6692 183.244 24.6124C183.336 24.5556 183.383 24.4632 183.383 24.3354V24.3105C183.383 24.0004 183.295 23.7601 183.12 23.5896C182.947 23.4192 182.689 23.334 182.346 23.334C181.988 23.334 181.706 23.4133 181.501 23.5719C181.297 23.7281 181.156 23.9021 181.078 24.0939L180.08 23.8666C180.198 23.5352 180.371 23.2677 180.599 23.0641C180.828 22.8581 181.092 22.709 181.39 22.6166C181.689 22.5219 182.002 22.4746 182.331 22.4746C182.549 22.4746 182.78 22.5006 183.024 22.5527C183.27 22.6024 183.5 22.6948 183.713 22.8297C183.928 22.9646 184.105 23.1576 184.242 23.4085C184.379 23.6571 184.448 23.9803 184.448 24.378V28.0002H183.411V27.2544H183.368C183.3 27.3917 183.197 27.5267 183.059 27.6592C182.922 27.7918 182.746 27.9019 182.53 27.9895C182.315 28.0771 182.057 28.1209 181.756 28.1209ZM181.987 27.2686C182.281 27.2686 182.532 27.2106 182.74 27.0946C182.951 26.9786 183.11 26.8271 183.219 26.6401C183.331 26.4507 183.386 26.2483 183.386 26.0328V25.3297C183.348 25.3676 183.275 25.4031 183.166 25.4362C183.059 25.467 182.938 25.4942 182.8 25.5179C182.663 25.5392 182.529 25.5593 182.399 25.5783C182.269 25.5948 182.16 25.6091 182.072 25.6209C181.866 25.6469 181.678 25.6907 181.508 25.7523C181.34 25.8138 181.205 25.9026 181.103 26.0186C181.003 26.1323 180.954 26.2838 180.954 26.4732C180.954 26.7359 181.051 26.9348 181.245 27.0698C181.439 27.2023 181.686 27.2686 181.987 27.2686ZM185.947 28.0002V20.7274H187.009V23.4298H187.073C187.135 23.3162 187.223 23.1848 187.339 23.0357C187.455 22.8865 187.616 22.7563 187.822 22.645C188.028 22.5314 188.301 22.4746 188.639 22.4746C189.08 22.4746 189.473 22.5859 189.818 22.8084C190.164 23.0309 190.435 23.3517 190.631 23.7707C190.83 24.1898 190.93 24.694 190.93 25.2835C190.93 25.873 190.831 26.3785 190.635 26.7999C190.438 27.2189 190.169 27.5421 189.825 27.7693C189.482 27.9942 189.09 28.1067 188.65 28.1067C188.318 28.1067 188.047 28.0511 187.837 27.9398C187.628 27.8285 187.465 27.6983 187.347 27.5492C187.228 27.4 187.137 27.2674 187.073 27.1514H186.984V28.0002H185.947ZM186.988 25.2729C186.988 25.6564 187.044 25.9926 187.155 26.2814C187.266 26.5702 187.427 26.7963 187.638 26.9597C187.848 27.1207 188.107 27.2011 188.412 27.2011C188.729 27.2011 188.994 27.1171 189.207 26.949C189.42 26.7786 189.581 26.5477 189.69 26.2565C189.802 25.9654 189.857 25.6375 189.857 25.2729C189.857 24.913 189.803 24.5899 189.694 24.3034C189.587 24.017 189.426 23.7909 189.211 23.6252C188.998 23.4594 188.732 23.3766 188.412 23.3766C188.104 23.3766 187.844 23.4559 187.631 23.6145C187.42 23.7731 187.26 23.9945 187.151 24.2786C187.042 24.5627 186.988 24.8941 186.988 25.2729ZM193.184 20.7274V28.0002H192.122V20.7274H193.184ZM196.963 28.1102C196.426 28.1102 195.963 27.9954 195.575 27.7658C195.189 27.5338 194.89 27.2082 194.68 26.7892C194.471 26.3678 194.367 25.8742 194.367 25.3084C194.367 24.7497 194.471 24.2573 194.68 23.8311C194.89 23.405 195.184 23.0724 195.56 22.8332C195.939 22.5941 196.382 22.4746 196.888 22.4746C197.196 22.4746 197.495 22.5255 197.783 22.6273C198.072 22.7291 198.331 22.8889 198.561 23.1067C198.791 23.3245 198.972 23.6074 199.104 23.9554C199.237 24.3011 199.303 24.7213 199.303 25.2161V25.5925H194.967V24.797H198.263C198.263 24.5177 198.206 24.2703 198.092 24.0548C197.979 23.837 197.819 23.6654 197.613 23.5399C197.409 23.4145 197.17 23.3517 196.896 23.3517C196.597 23.3517 196.337 23.4251 196.114 23.5719C195.894 23.7163 195.724 23.9057 195.603 24.1401C195.485 24.3721 195.425 24.6242 195.425 24.8965V25.5179C195.425 25.8825 195.489 26.1926 195.617 26.4483C195.747 26.704 195.929 26.8993 196.161 27.0342C196.393 27.1668 196.664 27.2331 196.974 27.2331C197.175 27.2331 197.358 27.2047 197.524 27.1479C197.69 27.0887 197.833 27.0011 197.954 26.8851C198.075 26.7691 198.167 26.6259 198.231 26.4554L199.236 26.6365C199.155 26.9324 199.011 27.1917 198.803 27.4142C198.597 27.6344 198.337 27.806 198.025 27.9291C197.715 28.0499 197.361 28.1102 196.963 28.1102ZM200.567 28.0002V20.7274H205.077V21.672H201.664V23.8879H204.753V24.829H201.664V28.0002H200.567ZM206.272 28.0002V22.5456H207.299V23.4121H207.355C207.455 23.1185 207.63 22.8877 207.881 22.7196C208.134 22.5492 208.421 22.4639 208.74 22.4639C208.807 22.4639 208.885 22.4663 208.975 22.471C209.067 22.4758 209.139 22.4817 209.191 22.4888V23.5044C209.149 23.4926 209.073 23.4796 208.964 23.4654C208.855 23.4488 208.746 23.4405 208.637 23.4405C208.386 23.4405 208.163 23.4938 207.966 23.6003C207.772 23.7045 207.618 23.8501 207.505 24.0371C207.391 24.2217 207.334 24.4324 207.334 24.6692V28.0002H206.272ZM212.213 28.1102C211.701 28.1102 211.255 27.9931 210.874 27.7587C210.493 27.5243 210.197 27.1964 209.986 26.775C209.775 26.3536 209.67 25.8612 209.67 25.2977C209.67 24.7319 209.775 24.2371 209.986 23.8134C210.197 23.3896 210.493 23.0605 210.874 22.8261C211.255 22.5918 211.701 22.4746 212.213 22.4746C212.724 22.4746 213.17 22.5918 213.551 22.8261C213.932 23.0605 214.228 23.3896 214.439 23.8134C214.65 24.2371 214.755 24.7319 214.755 25.2977C214.755 25.8612 214.65 26.3536 214.439 26.775C214.228 27.1964 213.932 27.5243 213.551 27.7587C213.17 27.9931 212.724 28.1102 212.213 28.1102ZM212.216 27.2189C212.548 27.2189 212.822 27.1313 213.04 26.9561C213.258 26.7809 213.419 26.5477 213.523 26.2565C213.629 25.9654 213.683 25.6446 213.683 25.2942C213.683 24.9462 213.629 24.6266 213.523 24.3354C213.419 24.0418 213.258 23.8063 213.04 23.6287C212.822 23.4511 212.548 23.3624 212.216 23.3624C211.882 23.3624 211.605 23.4511 211.385 23.6287C211.167 23.8063 211.005 24.0418 210.899 24.3354C210.794 24.6266 210.742 24.9462 210.742 25.2942C210.742 25.6446 210.794 25.9654 210.899 26.2565C211.005 26.5477 211.167 26.7809 211.385 26.9561C211.605 27.1313 211.882 27.2189 212.216 27.2189ZM215.94 28.0002V22.5456H216.96V23.4334H217.027C217.141 23.1327 217.326 22.8984 217.585 22.7303C217.843 22.5598 218.152 22.4746 218.511 22.4746C218.876 22.4746 219.181 22.5598 219.428 22.7303C219.676 22.9007 219.86 23.1351 219.978 23.4334H220.035C220.165 23.1422 220.372 22.9102 220.656 22.7374C220.94 22.5622 221.279 22.4746 221.672 22.4746C222.167 22.4746 222.57 22.6297 222.883 22.9398C223.198 23.2499 223.355 23.7175 223.355 24.3425V28.0002H222.293V24.4419C222.293 24.0726 222.193 23.8051 221.991 23.6394C221.79 23.4736 221.55 23.3908 221.271 23.3908C220.925 23.3908 220.656 23.4973 220.464 23.7104C220.273 23.9211 220.177 24.1922 220.177 24.5236V28.0002H219.119V24.3744C219.119 24.0785 219.026 23.8406 218.842 23.6607C218.657 23.4807 218.417 23.3908 218.121 23.3908C217.92 23.3908 217.734 23.444 217.563 23.5506C217.395 23.6547 217.259 23.8003 217.155 23.9874C217.053 24.1744 217.002 24.391 217.002 24.6372V28.0002H215.94ZM225.478 28.0676C225.284 28.0676 225.117 27.999 224.977 27.8617C224.837 27.722 224.768 27.5539 224.768 27.3574C224.768 27.1633 224.837 26.9975 224.977 26.8602C225.117 26.7206 225.284 26.6507 225.478 26.6507C225.672 26.6507 225.839 26.7206 225.979 26.8602C226.118 26.9975 226.188 27.1633 226.188 27.3574C226.188 27.4876 226.155 27.6072 226.089 27.7161C226.025 27.8226 225.939 27.9078 225.833 27.9717C225.726 28.0357 225.608 28.0676 225.478 28.0676ZM229.908 28.1102C229.38 28.1102 228.925 27.9907 228.544 27.7516C228.165 27.5101 227.874 27.1775 227.671 26.7537C227.467 26.3299 227.365 25.8446 227.365 25.2977C227.365 24.7438 227.469 24.2549 227.678 23.8311C227.886 23.405 228.18 23.0724 228.558 22.8332C228.937 22.5941 229.383 22.4746 229.897 22.4746C230.311 22.4746 230.681 22.5515 231.005 22.7054C231.329 22.8569 231.591 23.07 231.79 23.3446C231.991 23.6192 232.111 23.94 232.149 24.307H231.115C231.058 24.0513 230.928 23.8311 230.725 23.6465C230.523 23.4618 230.253 23.3695 229.915 23.3695C229.619 23.3695 229.36 23.4476 229.137 23.6038C228.917 23.7577 228.745 23.9779 228.622 24.2644C228.499 24.5484 228.438 24.8846 228.438 25.2729C228.438 25.6706 228.498 26.0139 228.619 26.3027C228.74 26.5915 228.91 26.8153 229.13 26.9739C229.353 27.1325 229.614 27.2118 229.915 27.2118C230.116 27.2118 230.298 27.1751 230.462 27.1017C230.628 27.026 230.766 26.9182 230.877 26.7786C230.991 26.6389 231.07 26.4708 231.115 26.2743H232.149C232.111 26.627 231.996 26.9419 231.804 27.2189C231.612 27.4959 231.356 27.7137 231.034 27.8723C230.714 28.0309 230.339 28.1102 229.908 28.1102ZM235.582 28.1102C235.07 28.1102 234.624 27.9931 234.243 27.7587C233.862 27.5243 233.566 27.1964 233.355 26.775C233.144 26.3536 233.039 25.8612 233.039 25.2977C233.039 24.7319 233.144 24.2371 233.355 23.8134C233.566 23.3896 233.862 23.0605 234.243 22.8261C234.624 22.5918 235.07 22.4746 235.582 22.4746C236.093 22.4746 236.539 22.5918 236.92 22.8261C237.302 23.0605 237.598 23.3896 237.808 23.8134C238.019 24.2371 238.124 24.7319 238.124 25.2977C238.124 25.8612 238.019 26.3536 237.808 26.775C237.598 27.1964 237.302 27.5243 236.92 27.7587C236.539 27.9931 236.093 28.1102 235.582 28.1102ZM235.585 27.2189C235.917 27.2189 236.191 27.1313 236.409 26.9561C236.627 26.7809 236.788 26.5477 236.892 26.2565C236.999 25.9654 237.052 25.6446 237.052 25.2942C237.052 24.9462 236.999 24.6266 236.892 24.3354C236.788 24.0418 236.627 23.8063 236.409 23.6287C236.191 23.4511 235.917 23.3624 235.585 23.3624C235.251 23.3624 234.974 23.4511 234.754 23.6287C234.536 23.8063 234.374 24.0418 234.268 24.3354C234.164 24.6266 234.112 24.9462 234.112 25.2942C234.112 25.6446 234.164 25.9654 234.268 26.2565C234.374 26.5477 234.536 26.7809 234.754 26.9561C234.974 27.1313 235.251 27.2189 235.585 27.2189ZM239.309 28.0002V22.5456H240.329V23.4334H240.396C240.51 23.1327 240.696 22.8984 240.954 22.7303C241.212 22.5598 241.521 22.4746 241.881 22.4746C242.245 22.4746 242.55 22.5598 242.797 22.7303C243.045 22.9007 243.229 23.1351 243.347 23.4334H243.404C243.534 23.1422 243.741 22.9102 244.025 22.7374C244.309 22.5622 244.648 22.4746 245.041 22.4746C245.536 22.4746 245.939 22.6297 246.252 22.9398C246.567 23.2499 246.724 23.7175 246.724 24.3425V28.0002H245.662V24.4419C245.662 24.0726 245.562 23.8051 245.361 23.6394C245.159 23.4736 244.919 23.3908 244.64 23.3908C244.294 23.3908 244.025 23.4973 243.834 23.7104C243.642 23.9211 243.546 24.1922 243.546 24.5236V28.0002H242.488V24.3744C242.488 24.0785 242.395 23.8406 242.211 23.6607C242.026 23.4807 241.786 23.3908 241.49 23.3908C241.289 23.3908 241.103 23.444 240.932 23.5506C240.764 23.6547 240.628 23.8003 240.524 23.9874C240.422 24.1744 240.371 24.391 240.371 24.6372V28.0002H239.309Z" fill="#6C6F93"/>
<path d="M46.0568 76V67.2727H51.2898V68.2102H47.1136V71.1591H50.8977V72.0966H47.1136V76H46.0568ZM56.5583 73.3239V69.4545H57.5639V76H56.5583V74.892H56.4901C56.3367 75.2244 56.098 75.5071 55.7742 75.7401C55.4503 75.9702 55.0412 76.0852 54.5469 76.0852C54.1378 76.0852 53.7742 75.9957 53.456 75.8168C53.1378 75.6349 52.8878 75.3622 52.706 74.9986C52.5242 74.6321 52.4333 74.1705 52.4333 73.6136V69.4545H53.4389V73.5455C53.4389 74.0227 53.5725 74.4034 53.8395 74.6875C54.1094 74.9716 54.4532 75.1136 54.8708 75.1136C55.1208 75.1136 55.375 75.0497 55.6336 74.9219C55.8949 74.794 56.1137 74.598 56.2898 74.3338C56.4688 74.0696 56.5583 73.733 56.5583 73.3239ZM60.2916 67.2727V76H59.2859V67.2727H60.2916ZM63.0193 67.2727V76H62.0136V67.2727H63.0193ZM75.0531 67.2727V76H74.0303L69.2746 69.1477H69.1894V76H68.1326V67.2727H69.1553L73.9281 74.142H74.0133V67.2727H75.0531ZM78.8375 76.1534C78.4228 76.1534 78.0463 76.0753 77.7083 75.919C77.3702 75.7599 77.1017 75.5312 76.9029 75.233C76.704 74.9318 76.6046 74.5682 76.6046 74.142C76.6046 73.767 76.6784 73.4631 76.8262 73.2301C76.9739 72.9943 77.1713 72.8097 77.4185 72.6761C77.6657 72.5426 77.9384 72.4432 78.2367 72.3778C78.5378 72.3097 78.8404 72.2557 79.1443 72.2159C79.5421 72.1648 79.8645 72.1264 80.1117 72.1009C80.3617 72.0724 80.5435 72.0256 80.6571 71.9602C80.7736 71.8949 80.8318 71.7812 80.8318 71.6193V71.5852C80.8318 71.1648 80.7168 70.8381 80.4867 70.6051C80.2594 70.3722 79.9142 70.2557 79.4512 70.2557C78.9711 70.2557 78.5946 70.3608 78.3219 70.571C78.0492 70.7812 77.8574 71.0057 77.7466 71.2443L76.7921 70.9034C76.9625 70.5057 77.1898 70.196 77.4739 69.9744C77.7608 69.75 78.0733 69.5937 78.4114 69.5057C78.7523 69.4148 79.0875 69.3693 79.4171 69.3693C79.6273 69.3693 79.8688 69.3949 80.1415 69.446C80.4171 69.4943 80.6827 69.5952 80.9384 69.7486C81.1969 69.902 81.4114 70.1335 81.5818 70.4432C81.7523 70.7528 81.8375 71.1676 81.8375 71.6875V76H80.8318V75.1136H80.7807C80.7125 75.2557 80.5989 75.4077 80.4398 75.5696C80.2807 75.7315 80.0691 75.8693 79.8049 75.983C79.5407 76.0966 79.2182 76.1534 78.8375 76.1534ZM78.9909 75.25C79.3887 75.25 79.7239 75.1719 79.9966 75.0156C80.2722 74.8594 80.4796 74.6577 80.6188 74.4105C80.7608 74.1634 80.8318 73.9034 80.8318 73.6307V72.7102C80.7892 72.7614 80.6955 72.8082 80.5506 72.8509C80.4086 72.8906 80.2438 72.9261 80.0563 72.9574C79.8716 72.9858 79.6912 73.0114 79.5151 73.0341C79.3418 73.054 79.2012 73.071 79.0932 73.0852C78.8318 73.1193 78.5875 73.1747 78.3603 73.2514C78.1358 73.3253 77.954 73.4375 77.8148 73.5881C77.6784 73.7358 77.6103 73.9375 77.6103 74.1932C77.6103 74.5426 77.7395 74.8068 77.998 74.9858C78.2594 75.1619 78.5904 75.25 78.9909 75.25ZM83.5531 76V69.4545H84.5247V70.4773H84.6099C84.7463 70.1278 84.9665 69.8565 85.2704 69.6634C85.5744 69.4673 85.9395 69.3693 86.3656 69.3693C86.7974 69.3693 87.1568 69.4673 87.4437 69.6634C87.7335 69.8565 87.9594 70.1278 88.1213 70.4773H88.1895C88.3571 70.1392 88.6085 69.8707 88.9437 69.6719C89.279 69.4702 89.681 69.3693 90.1497 69.3693C90.7349 69.3693 91.2136 69.5526 91.5858 69.919C91.9579 70.2827 92.144 70.8494 92.144 71.6193V76H91.1383V71.6193C91.1383 71.1364 91.0062 70.7912 90.742 70.5838C90.4778 70.3764 90.1667 70.2727 89.8088 70.2727C89.3486 70.2727 88.992 70.4119 88.7392 70.6903C88.4863 70.9659 88.3599 71.3153 88.3599 71.7386V76H87.3372V71.517C87.3372 71.1449 87.2165 70.8452 86.975 70.6179C86.7335 70.3878 86.4224 70.2727 86.0417 70.2727C85.7804 70.2727 85.5361 70.3423 85.3088 70.4815C85.0844 70.6207 84.9025 70.8139 84.7633 71.0611C84.627 71.3054 84.5588 71.5881 84.5588 71.9091V76H83.5531ZM96.6071 76.1364C95.9764 76.1364 95.4324 75.9972 94.975 75.7188C94.5205 75.4375 94.1696 75.0455 93.9225 74.5426C93.6781 74.0369 93.556 73.4489 93.556 72.7784C93.556 72.108 93.6781 71.517 93.9225 71.0057C94.1696 70.4915 94.5134 70.0909 94.9537 69.804C95.3969 69.5142 95.9139 69.3693 96.5048 69.3693C96.8458 69.3693 97.1824 69.4261 97.5148 69.5398C97.8472 69.6534 98.1497 69.8381 98.4225 70.0938C98.6952 70.3466 98.9125 70.6818 99.0744 71.0994C99.2364 71.517 99.3173 72.0312 99.3173 72.642V73.0682H94.2719V72.1989H98.2946C98.2946 71.8295 98.2208 71.5 98.073 71.2102C97.9281 70.9205 97.7208 70.6918 97.4509 70.5241C97.1838 70.3565 96.8685 70.2727 96.5048 70.2727C96.1043 70.2727 95.7577 70.3722 95.4651 70.571C95.1753 70.767 94.9523 71.0227 94.796 71.3381C94.6398 71.6534 94.5617 71.9915 94.5617 72.3523V72.9318C94.5617 73.4261 94.6469 73.8452 94.8173 74.1889C94.9906 74.5298 95.2307 74.7898 95.5375 74.9688C95.8443 75.1449 96.2009 75.233 96.6071 75.233C96.8713 75.233 97.11 75.196 97.323 75.1222C97.5389 75.0455 97.725 74.9318 97.8813 74.7812C98.0375 74.6278 98.1583 74.4375 98.2435 74.2102L99.2151 74.483C99.1128 74.8125 98.9409 75.1023 98.6994 75.3523C98.458 75.5994 98.1597 75.7926 97.8046 75.9318C97.4494 76.0682 97.0503 76.1364 96.6071 76.1364Z" fill="#0E0B3D"/>
<rect x="45.5" y="84.75" width="279" height="31.5" rx="5.5" stroke="#F0F0F2"/>
<path d="M46.0568 155.75V147.023H51.3239V147.96H47.1136V150.909H51.0511V151.847H47.1136V154.812H51.392V155.75H46.0568ZM52.9723 155.75V149.205H53.9439V150.227H54.0291C54.1655 149.878 54.3857 149.607 54.6897 149.413C54.9936 149.217 55.3587 149.119 55.7848 149.119C56.2166 149.119 56.576 149.217 56.863 149.413C57.1527 149.607 57.3786 149.878 57.5405 150.227H57.6087C57.7763 149.889 58.0277 149.621 58.363 149.422C58.6982 149.22 59.1002 149.119 59.5689 149.119C60.1541 149.119 60.6328 149.303 61.005 149.669C61.3772 150.033 61.5632 150.599 61.5632 151.369V155.75H60.5576V151.369C60.5576 150.886 60.4255 150.541 60.1613 150.334C59.897 150.126 59.586 150.023 59.228 150.023C58.7678 150.023 58.4113 150.162 58.1584 150.44C57.9056 150.716 57.7791 151.065 57.7791 151.489V155.75H56.7564V151.267C56.7564 150.895 56.6357 150.595 56.3942 150.368C56.1527 150.138 55.8416 150.023 55.461 150.023C55.1996 150.023 54.9553 150.092 54.728 150.232C54.5036 150.371 54.3218 150.564 54.1826 150.811C54.0462 151.055 53.978 151.338 53.978 151.659V155.75H52.9723ZM65.2082 155.903C64.7934 155.903 64.417 155.825 64.0789 155.669C63.7408 155.51 63.4724 155.281 63.2735 154.983C63.0746 154.682 62.9752 154.318 62.9752 153.892C62.9752 153.517 63.0491 153.213 63.1968 152.98C63.3445 152.744 63.542 152.56 63.7891 152.426C64.0363 152.293 64.309 152.193 64.6073 152.128C64.9084 152.06 65.211 152.006 65.515 151.966C65.9127 151.915 66.2351 151.876 66.4823 151.851C66.7323 151.822 66.9141 151.776 67.0278 151.71C67.1442 151.645 67.2025 151.531 67.2025 151.369V151.335C67.2025 150.915 67.0874 150.588 66.8573 150.355C66.63 150.122 66.2849 150.006 65.8218 150.006C65.3417 150.006 64.9653 150.111 64.6925 150.321C64.4198 150.531 64.228 150.756 64.1172 150.994L63.1627 150.653C63.3332 150.256 63.5604 149.946 63.8445 149.724C64.1314 149.5 64.4439 149.344 64.782 149.256C65.1229 149.165 65.4582 149.119 65.7877 149.119C65.9979 149.119 66.2394 149.145 66.5121 149.196C66.7877 149.244 67.0533 149.345 67.309 149.499C67.5675 149.652 67.782 149.884 67.9525 150.193C68.1229 150.503 68.2082 150.918 68.2082 151.438V155.75H67.2025V154.864H67.1513C67.0832 155.006 66.9695 155.158 66.8104 155.32C66.6513 155.482 66.4397 155.619 66.1755 155.733C65.9113 155.847 65.5888 155.903 65.2082 155.903ZM65.3616 155C65.7593 155 66.0945 154.922 66.3672 154.766C66.6428 154.609 66.8502 154.408 66.9894 154.161C67.1314 153.913 67.2025 153.653 67.2025 153.381V152.46C67.1599 152.511 67.0661 152.558 66.9212 152.601C66.7792 152.641 66.6144 152.676 66.4269 152.707C66.2422 152.736 66.0618 152.761 65.8857 152.784C65.7124 152.804 65.5718 152.821 65.4638 152.835C65.2025 152.869 64.9582 152.925 64.7309 153.001C64.5064 153.075 64.3246 153.187 64.1854 153.338C64.0491 153.486 63.9809 153.687 63.9809 153.943C63.9809 154.293 64.1101 154.557 64.3687 154.736C64.63 154.912 64.961 155 65.3616 155ZM69.9237 155.75V149.205H70.9294V155.75H69.9237ZM70.4351 148.114C70.2391 148.114 70.07 148.047 69.928 147.913C69.7888 147.78 69.7192 147.619 69.7192 147.432C69.7192 147.244 69.7888 147.084 69.928 146.95C70.07 146.817 70.2391 146.75 70.4351 146.75C70.6311 146.75 70.7987 146.817 70.9379 146.95C71.08 147.084 71.151 147.244 71.151 147.432C71.151 147.619 71.08 147.78 70.9379 147.913C70.7987 148.047 70.6311 148.114 70.4351 148.114ZM73.6571 147.023V155.75H72.6514V147.023H73.6571Z" fill="#0E0B3D"/>
<rect x="45.5" y="164.5" width="271.9" height="31.5" rx="5.5" stroke="#F0F0F2"/>
<g clip-path="url(#clip7_44_7548)">
<path d="M54.9261 180.812V184.75H53.9205V178.205H54.892V179.227H54.9773C55.1307 178.895 55.3636 178.628 55.6761 178.426C55.9886 178.222 56.392 178.119 56.8864 178.119C57.3295 178.119 57.7173 178.21 58.0497 178.392C58.3821 178.571 58.6406 178.844 58.8253 179.21C59.0099 179.574 59.1023 180.034 59.1023 180.591V184.75H58.0966V180.659C58.0966 180.145 57.9631 179.744 57.696 179.457C57.429 179.168 57.0625 179.023 56.5966 179.023C56.2756 179.023 55.9886 179.092 55.7358 179.232C55.4858 179.371 55.2884 179.574 55.1435 179.841C54.9986 180.108 54.9261 180.432 54.9261 180.812ZM62.7461 184.903C62.3313 184.903 61.9549 184.825 61.6169 184.669C61.2788 184.51 61.0103 184.281 60.8115 183.983C60.6126 183.682 60.5132 183.318 60.5132 182.892C60.5132 182.517 60.587 182.213 60.7348 181.98C60.8825 181.744 61.0799 181.56 61.3271 181.426C61.5742 181.293 61.847 181.193 62.1453 181.128C62.4464 181.06 62.749 181.006 63.0529 180.966C63.4507 180.915 63.7731 180.876 64.0203 180.851C64.2703 180.822 64.4521 180.776 64.5657 180.71C64.6822 180.645 64.7404 180.531 64.7404 180.369V180.335C64.7404 179.915 64.6254 179.588 64.3953 179.355C64.168 179.122 63.8228 179.006 63.3598 179.006C62.8796 179.006 62.5032 179.111 62.2305 179.321C61.9578 179.531 61.766 179.756 61.6552 179.994L60.7007 179.653C60.8711 179.256 61.0984 178.946 61.3825 178.724C61.6694 178.5 61.9819 178.344 62.32 178.256C62.6609 178.165 62.9961 178.119 63.3257 178.119C63.5359 178.119 63.7774 178.145 64.0501 178.196C64.3257 178.244 64.5913 178.345 64.847 178.499C65.1055 178.652 65.32 178.884 65.4904 179.193C65.6609 179.503 65.7461 179.918 65.7461 180.438V184.75H64.7404V183.864H64.6893C64.6211 184.006 64.5075 184.158 64.3484 184.32C64.1893 184.482 63.9777 184.619 63.7135 184.733C63.4492 184.847 63.1268 184.903 62.7461 184.903ZM62.8995 184C63.2973 184 63.6325 183.922 63.9052 183.766C64.1808 183.609 64.3882 183.408 64.5274 183.161C64.6694 182.913 64.7404 182.653 64.7404 182.381V181.46C64.6978 181.511 64.6041 181.558 64.4592 181.601C64.3171 181.641 64.1524 181.676 63.9649 181.707C63.7802 181.736 63.5998 181.761 63.4237 181.784C63.2504 181.804 63.1098 181.821 63.0018 181.835C62.7404 181.869 62.4961 181.925 62.2688 182.001C62.0444 182.075 61.8626 182.187 61.7234 182.338C61.587 182.486 61.5188 182.687 61.5188 182.943C61.5188 183.293 61.6481 183.557 61.9066 183.736C62.168 183.912 62.499 184 62.8995 184ZM67.4617 184.75V178.205H68.4333V179.227H68.5185C68.6549 178.878 68.8751 178.607 69.179 178.413C69.483 178.217 69.8481 178.119 70.2742 178.119C70.706 178.119 71.0654 178.217 71.3523 178.413C71.6421 178.607 71.868 178.878 72.0299 179.227H72.0981C72.2657 178.889 72.5171 178.621 72.8523 178.422C73.1876 178.22 73.5895 178.119 74.0583 178.119C74.6435 178.119 75.1222 178.303 75.4944 178.669C75.8665 179.033 76.0526 179.599 76.0526 180.369V184.75H75.0469V180.369C75.0469 179.886 74.9148 179.541 74.6506 179.334C74.3864 179.126 74.0753 179.023 73.7174 179.023C73.2572 179.023 72.9006 179.162 72.6478 179.44C72.3949 179.716 72.2685 180.065 72.2685 180.489V184.75H71.2458V180.267C71.2458 179.895 71.1251 179.595 70.8836 179.368C70.6421 179.138 70.331 179.023 69.9503 179.023C69.689 179.023 69.4447 179.092 69.2174 179.232C68.993 179.371 68.8111 179.564 68.6719 179.811C68.5356 180.055 68.4674 180.338 68.4674 180.659V184.75H67.4617ZM80.5157 184.886C79.885 184.886 79.341 184.747 78.8836 184.469C78.4291 184.188 78.0782 183.795 77.8311 183.293C77.5867 182.787 77.4646 182.199 77.4646 181.528C77.4646 180.858 77.5867 180.267 77.8311 179.756C78.0782 179.241 78.422 178.841 78.8623 178.554C79.3055 178.264 79.8225 178.119 80.4134 178.119C80.7543 178.119 81.091 178.176 81.4234 178.29C81.7558 178.403 82.0583 178.588 82.3311 178.844C82.6038 179.097 82.8211 179.432 82.983 179.849C83.145 180.267 83.2259 180.781 83.2259 181.392V181.818H78.1805V180.949H82.2032C82.2032 180.58 82.1293 180.25 81.9816 179.96C81.8367 179.67 81.6293 179.442 81.3595 179.274C81.0924 179.107 80.7771 179.023 80.4134 179.023C80.0129 179.023 79.6663 179.122 79.3737 179.321C79.0839 179.517 78.8609 179.773 78.7046 180.088C78.5484 180.403 78.4703 180.741 78.4703 181.102V181.682C78.4703 182.176 78.5555 182.595 78.7259 182.939C78.8992 183.28 79.1393 183.54 79.4461 183.719C79.7529 183.895 80.1095 183.983 80.5157 183.983C80.7799 183.983 81.0186 183.946 81.2316 183.872C81.4475 183.795 81.6336 183.682 81.7899 183.531C81.9461 183.378 82.0668 183.187 82.1521 182.96L83.1237 183.233C83.0214 183.562 82.8495 183.852 82.608 184.102C82.3666 184.349 82.0683 184.543 81.7132 184.682C81.358 184.818 80.9589 184.886 80.5157 184.886ZM89.6642 187.051C88.7949 187.051 88.0264 186.932 87.3588 186.693C86.6912 186.457 86.1301 186.109 85.6755 185.649C85.221 185.189 84.8772 184.625 84.6443 183.957C84.4113 183.29 84.2949 182.526 84.2949 181.665C84.2949 180.832 84.4128 180.088 84.6486 179.432C84.8872 178.776 85.2324 178.219 85.6841 177.761C86.1386 177.301 86.6897 176.95 87.3375 176.709C87.988 176.467 88.7238 176.347 89.5449 176.347C90.3432 176.347 91.042 176.477 91.6414 176.739C92.2437 176.997 92.7466 177.348 93.15 177.791C93.5562 178.232 93.8602 178.727 94.0619 179.278C94.2664 179.83 94.3687 180.398 94.3687 180.983C94.3687 181.395 94.3488 181.812 94.3091 182.236C94.2693 182.659 94.1855 183.048 94.0576 183.403C93.9298 183.756 93.7324 184.04 93.4653 184.256C93.2011 184.472 92.8432 184.58 92.3914 184.58C92.1926 184.58 91.9738 184.548 91.7352 184.486C91.4966 184.423 91.2849 184.32 91.1003 184.175C90.9156 184.03 90.8062 183.835 90.7721 183.591H90.721C90.6528 183.756 90.5477 183.912 90.4057 184.06C90.2664 184.207 90.0832 184.325 89.8559 184.413C89.6315 184.501 89.3574 184.54 89.0335 184.528C88.6642 184.514 88.3389 184.432 88.0576 184.281C87.7764 184.128 87.5406 183.92 87.3503 183.659C87.1628 183.395 87.0207 183.089 86.9241 182.743C86.8304 182.393 86.7835 182.017 86.7835 181.614C86.7835 181.23 86.8403 180.879 86.9539 180.561C87.0676 180.243 87.2253 179.964 87.427 179.726C87.6315 179.487 87.8701 179.297 88.1429 179.155C88.4184 179.01 88.7153 178.92 89.0335 178.886C89.3176 178.858 89.5761 178.871 89.8091 178.925C90.042 178.976 90.2338 179.054 90.3843 179.159C90.5349 179.261 90.6301 179.375 90.6699 179.5H90.721V179.023H91.6244V182.875C91.6244 183.114 91.6912 183.324 91.8247 183.506C91.9582 183.687 92.1528 183.778 92.4085 183.778C92.6983 183.778 92.9199 183.679 93.0733 183.48C93.2295 183.281 93.3361 182.974 93.3929 182.56C93.4525 182.145 93.4824 181.614 93.4824 180.966C93.4824 180.585 93.4298 180.21 93.3247 179.841C93.2224 179.469 93.0662 179.121 92.8559 178.797C92.6486 178.473 92.3858 178.187 92.0676 177.94C91.7494 177.693 91.3758 177.5 90.9468 177.361C90.5207 177.219 90.0363 177.148 89.4937 177.148C88.8261 177.148 88.2281 177.251 87.6997 177.459C87.1741 177.663 86.7267 177.963 86.3574 178.358C85.9909 178.75 85.7111 179.227 85.5179 179.79C85.3275 180.349 85.2324 180.986 85.2324 181.699C85.2324 182.423 85.3275 183.067 85.5179 183.629C85.7111 184.192 85.9951 184.666 86.3701 185.053C86.748 185.439 87.2153 185.732 87.7721 185.93C88.3289 186.132 88.971 186.233 89.6983 186.233C90.0108 186.233 90.319 186.203 90.623 186.143C90.927 186.084 91.1954 186.018 91.4284 185.947C91.6613 185.876 91.8289 185.824 91.9312 185.79L92.1699 186.574C91.9937 186.648 91.7636 186.722 91.4795 186.795C91.1983 186.869 90.8971 186.93 90.5761 186.979C90.2579 187.027 89.9539 187.051 89.6642 187.051ZM89.1699 183.659C89.5505 183.659 89.8588 183.582 90.0946 183.429C90.3304 183.276 90.5022 183.044 90.6102 182.734C90.7182 182.425 90.7721 182.034 90.7721 181.562C90.7721 181.085 90.7125 180.713 90.5932 180.446C90.4738 180.179 90.2977 179.991 90.0647 179.884C89.8318 179.776 89.5449 179.722 89.2039 179.722C88.8801 179.722 88.6031 179.807 88.373 179.977C88.1457 180.145 87.971 180.369 87.8488 180.651C87.7295 180.929 87.6699 181.233 87.6699 181.562C87.6699 181.926 87.7182 182.268 87.8147 182.589C87.9113 182.908 88.069 183.166 88.2878 183.365C88.5065 183.561 88.8005 183.659 89.1699 183.659ZM98.2256 184.886C97.6802 184.886 97.1987 184.749 96.781 184.473C96.3634 184.195 96.0367 183.803 95.8009 183.297C95.5651 182.788 95.4472 182.188 95.4472 181.494C95.4472 180.807 95.5651 180.21 95.8009 179.705C96.0367 179.199 96.3648 178.808 96.7853 178.533C97.2058 178.257 97.6915 178.119 98.2427 178.119C98.6688 178.119 99.0055 178.19 99.2526 178.332C99.5026 178.472 99.693 178.631 99.8237 178.81C99.9572 178.986 100.061 179.131 100.135 179.244H100.22V176.023H101.226V184.75H100.254V183.744H100.135C100.061 183.864 99.9558 184.014 99.8194 184.196C99.683 184.375 99.4884 184.536 99.2356 184.678C98.9827 184.817 98.6461 184.886 98.2256 184.886ZM98.362 183.983C98.7654 183.983 99.1063 183.878 99.3847 183.668C99.6631 183.455 99.8748 183.161 100.02 182.786C100.165 182.408 100.237 181.972 100.237 181.477C100.237 180.989 100.166 180.561 100.024 180.195C99.8819 179.825 99.6717 179.538 99.3933 179.334C99.1148 179.126 98.7711 179.023 98.362 179.023C97.9359 179.023 97.5808 179.132 97.2967 179.351C97.0154 179.567 96.8038 179.861 96.6617 180.233C96.5225 180.602 96.4529 181.017 96.4529 181.477C96.4529 181.943 96.5239 182.366 96.666 182.747C96.8109 183.125 97.0239 183.426 97.3052 183.651C97.5893 183.872 97.9415 183.983 98.362 183.983ZM105.746 184.886C105.155 184.886 104.637 184.746 104.191 184.464C103.748 184.183 103.401 183.79 103.151 183.284C102.904 182.778 102.78 182.187 102.78 181.511C102.78 180.83 102.904 180.234 103.151 179.726C103.401 179.217 103.748 178.822 104.191 178.541C104.637 178.26 105.155 178.119 105.746 178.119C106.337 178.119 106.854 178.26 107.297 178.541C107.743 178.822 108.09 179.217 108.337 179.726C108.587 180.234 108.712 180.83 108.712 181.511C108.712 182.187 108.587 182.778 108.337 183.284C108.09 183.79 107.743 184.183 107.297 184.464C106.854 184.746 106.337 184.886 105.746 184.886ZM105.746 183.983C106.195 183.983 106.564 183.868 106.854 183.638C107.144 183.408 107.358 183.105 107.498 182.73C107.637 182.355 107.706 181.949 107.706 181.511C107.706 181.074 107.637 180.666 107.498 180.288C107.358 179.911 107.144 179.605 106.854 179.372C106.564 179.139 106.195 179.023 105.746 179.023C105.297 179.023 104.928 179.139 104.638 179.372C104.349 179.605 104.134 179.911 103.995 180.288C103.856 180.666 103.786 181.074 103.786 181.511C103.786 181.949 103.856 182.355 103.995 182.73C104.134 183.105 104.349 183.408 104.638 183.638C104.928 183.868 105.297 183.983 105.746 183.983ZM110.127 184.75V178.205H111.099V179.227H111.184C111.321 178.878 111.541 178.607 111.845 178.413C112.149 178.217 112.514 178.119 112.94 178.119C113.372 178.119 113.731 178.217 114.018 178.413C114.308 178.607 114.534 178.878 114.696 179.227H114.764C114.931 178.889 115.183 178.621 115.518 178.422C115.853 178.22 116.255 178.119 116.724 178.119C117.309 178.119 117.788 178.303 118.16 178.669C118.532 179.033 118.718 179.599 118.718 180.369V184.75H117.713V180.369C117.713 179.886 117.58 179.541 117.316 179.334C117.052 179.126 116.741 179.023 116.383 179.023C115.923 179.023 115.566 179.162 115.313 179.44C115.061 179.716 114.934 180.065 114.934 180.489V184.75H113.911V180.267C113.911 179.895 113.791 179.595 113.549 179.368C113.308 179.138 112.997 179.023 112.616 179.023C112.355 179.023 112.11 179.092 111.883 179.232C111.659 179.371 111.477 179.564 111.338 179.811C111.201 180.055 111.133 180.338 111.133 180.659V184.75H110.127ZM122.363 184.903C121.948 184.903 121.572 184.825 121.234 184.669C120.896 184.51 120.627 184.281 120.428 183.983C120.23 183.682 120.13 183.318 120.13 182.892C120.13 182.517 120.204 182.213 120.352 181.98C120.5 181.744 120.697 181.56 120.944 181.426C121.191 181.293 121.464 181.193 121.762 181.128C122.063 181.06 122.366 181.006 122.67 180.966C123.068 180.915 123.39 180.876 123.637 180.851C123.887 180.822 124.069 180.776 124.183 180.71C124.299 180.645 124.357 180.531 124.357 180.369V180.335C124.357 179.915 124.242 179.588 124.012 179.355C123.785 179.122 123.44 179.006 122.977 179.006C122.497 179.006 122.12 179.111 121.848 179.321C121.575 179.531 121.383 179.756 121.272 179.994L120.318 179.653C120.488 179.256 120.715 178.946 121 178.724C121.286 178.5 121.599 178.344 121.937 178.256C122.278 178.165 122.613 178.119 122.943 178.119C123.153 178.119 123.394 178.145 123.667 178.196C123.943 178.244 124.208 178.345 124.464 178.499C124.723 178.652 124.937 178.884 125.107 179.193C125.278 179.503 125.363 179.918 125.363 180.438V184.75H124.357V183.864H124.306C124.238 184.006 124.125 184.158 123.965 184.32C123.806 184.482 123.595 184.619 123.33 184.733C123.066 184.847 122.744 184.903 122.363 184.903ZM122.517 184C122.914 184 123.25 183.922 123.522 183.766C123.798 183.609 124.005 183.408 124.144 183.161C124.286 182.913 124.357 182.653 124.357 182.381V181.46C124.315 181.511 124.221 181.558 124.076 181.601C123.934 181.641 123.769 181.676 123.582 181.707C123.397 181.736 123.217 181.761 123.041 181.784C122.867 181.804 122.727 181.821 122.619 181.835C122.357 181.869 122.113 181.925 121.886 182.001C121.661 182.075 121.48 182.187 121.34 182.338C121.204 182.486 121.136 182.687 121.136 182.943C121.136 183.293 121.265 183.557 121.524 183.736C121.785 183.912 122.116 184 122.517 184ZM127.079 184.75V178.205H128.084V184.75H127.079ZM127.59 177.114C127.394 177.114 127.225 177.047 127.083 176.913C126.944 176.78 126.874 176.619 126.874 176.432C126.874 176.244 126.944 176.084 127.083 175.95C127.225 175.817 127.394 175.75 127.59 175.75C127.786 175.75 127.954 175.817 128.093 175.95C128.235 176.084 128.306 176.244 128.306 176.432C128.306 176.619 128.235 176.78 128.093 176.913C127.954 177.047 127.786 177.114 127.59 177.114ZM130.812 180.812V184.75H129.806V178.205H130.778V179.227H130.863C131.017 178.895 131.25 178.628 131.562 178.426C131.875 178.222 132.278 178.119 132.772 178.119C133.215 178.119 133.603 178.21 133.936 178.392C134.268 178.571 134.527 178.844 134.711 179.21C134.896 179.574 134.988 180.034 134.988 180.591V184.75H133.983V180.659C133.983 180.145 133.849 179.744 133.582 179.457C133.315 179.168 132.948 179.023 132.483 179.023C132.162 179.023 131.875 179.092 131.622 179.232C131.372 179.371 131.174 179.574 131.029 179.841C130.885 180.108 130.812 180.432 130.812 180.812ZM137.439 184.818C137.229 184.818 137.048 184.743 136.898 184.592C136.747 184.442 136.672 184.261 136.672 184.051C136.672 183.841 136.747 183.661 136.898 183.51C137.048 183.359 137.229 183.284 137.439 183.284C137.649 183.284 137.83 183.359 137.98 183.51C138.131 183.661 138.206 183.841 138.206 184.051C138.206 184.19 138.17 184.318 138.099 184.435C138.031 184.551 137.939 184.645 137.822 184.716C137.709 184.784 137.581 184.818 137.439 184.818ZM142.55 184.886C141.936 184.886 141.408 184.741 140.964 184.452C140.521 184.162 140.18 183.763 139.942 183.254C139.703 182.746 139.584 182.165 139.584 181.511C139.584 180.847 139.706 180.26 139.95 179.751C140.197 179.24 140.541 178.841 140.982 178.554C141.425 178.264 141.942 178.119 142.533 178.119C142.993 178.119 143.408 178.205 143.777 178.375C144.146 178.545 144.449 178.784 144.685 179.091C144.92 179.398 145.067 179.756 145.124 180.165H144.118C144.041 179.866 143.871 179.602 143.607 179.372C143.345 179.139 142.993 179.023 142.55 179.023C142.158 179.023 141.814 179.125 141.518 179.33C141.226 179.531 140.997 179.817 140.832 180.186C140.67 180.553 140.589 180.983 140.589 181.477C140.589 181.983 140.669 182.423 140.828 182.798C140.99 183.173 141.217 183.464 141.51 183.672C141.805 183.879 142.152 183.983 142.55 183.983C142.811 183.983 143.048 183.938 143.261 183.847C143.474 183.756 143.655 183.625 143.803 183.455C143.95 183.284 144.055 183.08 144.118 182.841H145.124C145.067 183.227 144.926 183.575 144.702 183.885C144.48 184.192 144.186 184.436 143.82 184.618C143.456 184.797 143.033 184.886 142.55 184.886ZM149.133 184.886C148.542 184.886 148.023 184.746 147.577 184.464C147.134 184.183 146.788 183.79 146.538 183.284C146.29 182.778 146.167 182.187 146.167 181.511C146.167 180.83 146.29 180.234 146.538 179.726C146.788 179.217 147.134 178.822 147.577 178.541C148.023 178.26 148.542 178.119 149.133 178.119C149.724 178.119 150.241 178.26 150.684 178.541C151.13 178.822 151.477 179.217 151.724 179.726C151.974 180.234 152.099 180.83 152.099 181.511C152.099 182.187 151.974 182.778 151.724 183.284C151.477 183.79 151.13 184.183 150.684 184.464C150.241 184.746 149.724 184.886 149.133 184.886ZM149.133 183.983C149.582 183.983 149.951 183.868 150.241 183.638C150.531 183.408 150.745 183.105 150.884 182.73C151.023 182.355 151.093 181.949 151.093 181.511C151.093 181.074 151.023 180.666 150.884 180.288C150.745 179.911 150.531 179.605 150.241 179.372C149.951 179.139 149.582 179.023 149.133 179.023C148.684 179.023 148.315 179.139 148.025 179.372C147.735 179.605 147.521 179.911 147.381 180.288C147.242 180.666 147.173 181.074 147.173 181.511C147.173 181.949 147.242 182.355 147.381 182.73C147.521 183.105 147.735 183.408 148.025 183.638C148.315 183.868 148.684 183.983 149.133 183.983ZM153.514 184.75V178.205H154.485V179.227H154.571C154.707 178.878 154.927 178.607 155.231 178.413C155.535 178.217 155.9 178.119 156.326 178.119C156.758 178.119 157.118 178.217 157.405 178.413C157.694 178.607 157.92 178.878 158.082 179.227H158.15C158.318 178.889 158.569 178.621 158.905 178.422C159.24 178.22 159.642 178.119 160.11 178.119C160.696 178.119 161.174 178.303 161.547 178.669C161.919 179.033 162.105 179.599 162.105 180.369V184.75H161.099V180.369C161.099 179.886 160.967 179.541 160.703 179.334C160.439 179.126 160.128 179.023 159.77 179.023C159.309 179.023 158.953 179.162 158.7 179.44C158.447 179.716 158.321 180.065 158.321 180.489V184.75H157.298V180.267C157.298 179.895 157.177 179.595 156.936 179.368C156.694 179.138 156.383 179.023 156.003 179.023C155.741 179.023 155.497 179.092 155.27 179.232C155.045 179.371 154.863 179.564 154.724 179.811C154.588 180.055 154.52 180.338 154.52 180.659V184.75H153.514Z" fill="#F0F0F2"/>
</g>
<path d="M51.7841 226.773H52.8409V232.551C52.8409 233.148 52.7003 233.68 52.419 234.149C52.1406 234.615 51.7472 234.983 51.2386 235.253C50.7301 235.52 50.1335 235.653 49.4489 235.653C48.7642 235.653 48.1676 235.52 47.6591 235.253C47.1506 234.983 46.7557 234.615 46.4744 234.149C46.196 233.68 46.0568 233.148 46.0568 232.551V226.773H47.1136V232.466C47.1136 232.892 47.2074 233.271 47.3949 233.604C47.5824 233.933 47.8494 234.193 48.196 234.384C48.5455 234.571 48.9631 234.665 49.4489 234.665C49.9347 234.665 50.3523 234.571 50.7017 234.384C51.0511 234.193 51.3182 233.933 51.5028 233.604C51.6903 233.271 51.7841 232.892 51.7841 232.466V226.773ZM54.695 237.955V228.955H55.6666V229.994H55.7859C55.8598 229.881 55.962 229.736 56.0927 229.56C56.2262 229.381 56.4166 229.222 56.6637 229.082C56.9137 228.94 57.2518 228.869 57.6779 228.869C58.2291 228.869 58.7149 229.007 59.1353 229.283C59.5558 229.558 59.8839 229.949 60.1197 230.455C60.3555 230.96 60.4734 231.557 60.4734 232.244C60.4734 232.938 60.3555 233.538 60.1197 234.047C59.8839 234.553 59.5572 234.945 59.1396 235.223C58.722 235.499 58.2404 235.636 57.695 235.636C57.2745 235.636 56.9379 235.567 56.685 235.428C56.4322 235.286 56.2376 235.125 56.1012 234.946C55.9649 234.764 55.8598 234.614 55.7859 234.494H55.7007V237.955H54.695ZM55.6836 232.227C55.6836 232.722 55.7561 233.158 55.901 233.536C56.0458 233.911 56.2575 234.205 56.5359 234.418C56.8143 234.628 57.1552 234.733 57.5586 234.733C57.9791 234.733 58.3299 234.622 58.6112 234.401C58.8953 234.176 59.1083 233.875 59.2504 233.497C59.3953 233.116 59.4677 232.693 59.4677 232.227C59.4677 231.767 59.3967 231.352 59.2546 230.983C59.1154 230.611 58.9038 230.317 58.6197 230.101C58.3385 229.882 57.9848 229.773 57.5586 229.773C57.1495 229.773 56.8058 229.876 56.5274 230.084C56.249 230.288 56.0387 230.575 55.8967 230.945C55.7546 231.311 55.6836 231.739 55.6836 232.227ZM62.8932 226.773V235.5H61.8875V226.773H62.8932ZM67.2742 235.636C66.6833 235.636 66.1649 235.496 65.7188 235.214C65.2757 234.933 64.9291 234.54 64.6791 234.034C64.4319 233.528 64.3083 232.937 64.3083 232.261C64.3083 231.58 64.4319 230.984 64.6791 230.476C64.9291 229.967 65.2757 229.572 65.7188 229.291C66.1649 229.01 66.6833 228.869 67.2742 228.869C67.8651 228.869 68.3822 229.01 68.8254 229.291C69.2714 229.572 69.618 229.967 69.8651 230.476C70.1151 230.984 70.2401 231.58 70.2401 232.261C70.2401 232.937 70.1151 233.528 69.8651 234.034C69.618 234.54 69.2714 234.933 68.8254 235.214C68.3822 235.496 67.8651 235.636 67.2742 235.636ZM67.2742 234.733C67.7231 234.733 68.0924 234.618 68.3822 234.388C68.672 234.158 68.8864 233.855 69.0257 233.48C69.1649 233.105 69.2345 232.699 69.2345 232.261C69.2345 231.824 69.1649 231.416 69.0257 231.038C68.8864 230.661 68.672 230.355 68.3822 230.122C68.0924 229.889 67.7231 229.773 67.2742 229.773C66.8254 229.773 66.4561 229.889 66.1663 230.122C65.8765 230.355 65.662 230.661 65.5228 231.038C65.3836 231.416 65.314 231.824 65.314 232.261C65.314 232.699 65.3836 233.105 65.5228 233.48C65.662 233.855 65.8765 234.158 66.1663 234.388C66.4561 234.618 66.8254 234.733 67.2742 234.733ZM73.5814 235.653C73.1667 235.653 72.7902 235.575 72.4522 235.419C72.1141 235.26 71.8456 235.031 71.6468 234.733C71.4479 234.432 71.3485 234.068 71.3485 233.642C71.3485 233.267 71.4223 232.963 71.5701 232.73C71.7178 232.494 71.9152 232.31 72.1624 232.176C72.4096 232.043 72.6823 231.943 72.9806 231.878C73.2817 231.81 73.5843 231.756 73.8883 231.716C74.286 231.665 74.6084 231.626 74.8556 231.601C75.1056 231.572 75.2874 231.526 75.401 231.46C75.5175 231.395 75.5758 231.281 75.5758 231.119V231.085C75.5758 230.665 75.4607 230.338 75.2306 230.105C75.0033 229.872 74.6581 229.756 74.1951 229.756C73.715 229.756 73.3385 229.861 73.0658 230.071C72.7931 230.281 72.6013 230.506 72.4905 230.744L71.536 230.403C71.7064 230.006 71.9337 229.696 72.2178 229.474C72.5047 229.25 72.8172 229.094 73.1553 229.006C73.4962 228.915 73.8314 228.869 74.161 228.869C74.3712 228.869 74.6127 228.895 74.8854 228.946C75.161 228.994 75.4266 229.095 75.6823 229.249C75.9408 229.402 76.1553 229.634 76.3258 229.943C76.4962 230.253 76.5814 230.668 76.5814 231.188V235.5H75.5758V234.614H75.5246C75.4564 234.756 75.3428 234.908 75.1837 235.07C75.0246 235.232 74.813 235.369 74.5488 235.483C74.2846 235.597 73.9621 235.653 73.5814 235.653ZM73.7348 234.75C74.1326 234.75 74.4678 234.672 74.7405 234.516C75.0161 234.359 75.2235 234.158 75.3627 233.911C75.5047 233.663 75.5758 233.403 75.5758 233.131V232.21C75.5331 232.261 75.4394 232.308 75.2945 232.351C75.1525 232.391 74.9877 232.426 74.8002 232.457C74.6155 232.486 74.4351 232.511 74.259 232.534C74.0857 232.554 73.9451 232.571 73.8371 232.585C73.5758 232.619 73.3314 232.675 73.1042 232.751C72.8797 232.825 72.6979 232.937 72.5587 233.088C72.4223 233.236 72.3542 233.437 72.3542 233.693C72.3542 234.043 72.4834 234.307 72.7419 234.486C73.0033 234.662 73.3343 234.75 73.7348 234.75ZM80.7686 235.636C80.2232 235.636 79.7416 235.499 79.324 235.223C78.9064 234.945 78.5797 234.553 78.3439 234.047C78.1081 233.538 77.9902 232.938 77.9902 232.244C77.9902 231.557 78.1081 230.96 78.3439 230.455C78.5797 229.949 78.9078 229.558 79.3283 229.283C79.7487 229.007 80.2345 228.869 80.7857 228.869C81.2118 228.869 81.5484 228.94 81.7956 229.082C82.0456 229.222 82.2359 229.381 82.3666 229.56C82.5001 229.736 82.6038 229.881 82.6777 229.994H82.7629V226.773H83.7686V235.5H82.797V234.494H82.6777C82.6038 234.614 82.4987 234.764 82.3624 234.946C82.226 235.125 82.0314 235.286 81.7786 235.428C81.5257 235.567 81.1891 235.636 80.7686 235.636ZM80.905 234.733C81.3084 234.733 81.6493 234.628 81.9277 234.418C82.2061 234.205 82.4178 233.911 82.5626 233.536C82.7075 233.158 82.78 232.722 82.78 232.227C82.78 231.739 82.709 231.311 82.5669 230.945C82.4249 230.575 82.2146 230.288 81.9362 230.084C81.6578 229.876 81.3141 229.773 80.905 229.773C80.4788 229.773 80.1237 229.882 79.8396 230.101C79.5584 230.317 79.3467 230.611 79.2047 230.983C79.0655 231.352 78.9959 231.767 78.9959 232.227C78.9959 232.693 79.0669 233.116 79.209 233.497C79.3538 233.875 79.5669 234.176 79.8482 234.401C80.1322 234.622 80.4845 234.733 80.905 234.733ZM89.0215 226.773H90.2829L93.2488 234.017H93.3511L96.317 226.773H97.5783V235.5H96.5897V228.869H96.5045L93.7772 235.5H92.8226L90.0954 228.869H90.0101V235.5H89.0215V226.773ZM102.185 235.636C101.555 235.636 101.011 235.497 100.553 235.219C100.099 234.938 99.7477 234.545 99.5006 234.043C99.2563 233.537 99.1341 232.949 99.1341 232.278C99.1341 231.608 99.2563 231.017 99.5006 230.506C99.7477 229.991 100.091 229.591 100.532 229.304C100.975 229.014 101.492 228.869 102.083 228.869C102.424 228.869 102.761 228.926 103.093 229.04C103.425 229.153 103.728 229.338 104.001 229.594C104.273 229.847 104.491 230.182 104.653 230.599C104.815 231.017 104.895 231.531 104.895 232.142V232.568H99.85V231.699H103.873C103.873 231.33 103.799 231 103.651 230.71C103.506 230.42 103.299 230.192 103.029 230.024C102.762 229.857 102.447 229.773 102.083 229.773C101.682 229.773 101.336 229.872 101.043 230.071C100.753 230.267 100.53 230.523 100.374 230.838C100.218 231.153 100.14 231.491 100.14 231.852V232.432C100.14 232.926 100.225 233.345 100.395 233.689C100.569 234.03 100.809 234.29 101.116 234.469C101.422 234.645 101.779 234.733 102.185 234.733C102.449 234.733 102.688 234.696 102.901 234.622C103.117 234.545 103.303 234.432 103.459 234.281C103.616 234.128 103.736 233.937 103.822 233.71L104.793 233.983C104.691 234.312 104.519 234.602 104.278 234.852C104.036 235.099 103.738 235.293 103.383 235.432C103.028 235.568 102.628 235.636 102.185 235.636ZM108.777 235.636C108.231 235.636 107.75 235.499 107.332 235.223C106.915 234.945 106.588 234.553 106.352 234.047C106.116 233.538 105.998 232.938 105.998 232.244C105.998 231.557 106.116 230.96 106.352 230.455C106.588 229.949 106.916 229.558 107.337 229.283C107.757 229.007 108.243 228.869 108.794 228.869C109.22 228.869 109.557 228.94 109.804 229.082C110.054 229.222 110.244 229.381 110.375 229.56C110.508 229.736 110.612 229.881 110.686 229.994H110.771V226.773H111.777V235.5H110.805V234.494H110.686C110.612 234.614 110.507 234.764 110.371 234.946C110.234 235.125 110.04 235.286 109.787 235.428C109.534 235.567 109.197 235.636 108.777 235.636ZM108.913 234.733C109.317 234.733 109.658 234.628 109.936 234.418C110.214 234.205 110.426 233.911 110.571 233.536C110.716 233.158 110.788 232.722 110.788 232.227C110.788 231.739 110.717 231.311 110.575 230.945C110.433 230.575 110.223 230.288 109.945 230.084C109.666 229.876 109.322 229.773 108.913 229.773C108.487 229.773 108.132 229.882 107.848 230.101C107.567 230.317 107.355 230.611 107.213 230.983C107.074 231.352 107.004 231.767 107.004 232.227C107.004 232.693 107.075 233.116 107.217 233.497C107.362 233.875 107.575 234.176 107.856 234.401C108.141 234.622 108.493 234.733 108.913 234.733ZM113.638 235.5V228.955H114.644V235.5H113.638ZM114.15 227.864C113.954 227.864 113.785 227.797 113.643 227.663C113.503 227.53 113.434 227.369 113.434 227.182C113.434 226.994 113.503 226.834 113.643 226.7C113.785 226.567 113.954 226.5 114.15 226.5C114.346 226.5 114.513 226.567 114.653 226.7C114.795 226.834 114.866 226.994 114.866 227.182C114.866 227.369 114.795 227.53 114.653 227.663C114.513 227.797 114.346 227.864 114.15 227.864ZM118.292 235.653C117.877 235.653 117.501 235.575 117.163 235.419C116.825 235.26 116.556 235.031 116.358 234.733C116.159 234.432 116.059 234.068 116.059 233.642C116.059 233.267 116.133 232.963 116.281 232.73C116.429 232.494 116.626 232.31 116.873 232.176C117.12 232.043 117.393 231.943 117.691 231.878C117.993 231.81 118.295 231.756 118.599 231.716C118.997 231.665 119.319 231.626 119.566 231.601C119.816 231.572 119.998 231.526 120.112 231.46C120.228 231.395 120.287 231.281 120.287 231.119V231.085C120.287 230.665 120.171 230.338 119.941 230.105C119.714 229.872 119.369 229.756 118.906 229.756C118.426 229.756 118.049 229.861 117.777 230.071C117.504 230.281 117.312 230.506 117.201 230.744L116.247 230.403C116.417 230.006 116.644 229.696 116.929 229.474C117.216 229.25 117.528 229.094 117.866 229.006C118.207 228.915 118.542 228.869 118.872 228.869C119.082 228.869 119.323 228.895 119.596 228.946C119.872 228.994 120.137 229.095 120.393 229.249C120.652 229.402 120.866 229.634 121.037 229.943C121.207 230.253 121.292 230.668 121.292 231.188V235.5H120.287V234.614H120.235C120.167 234.756 120.054 234.908 119.894 235.07C119.735 235.232 119.524 235.369 119.26 235.483C118.995 235.597 118.673 235.653 118.292 235.653ZM118.446 234.75C118.843 234.75 119.179 234.672 119.451 234.516C119.727 234.359 119.934 234.158 120.073 233.911C120.216 233.663 120.287 233.403 120.287 233.131V232.21C120.244 232.261 120.15 232.308 120.005 232.351C119.863 232.391 119.698 232.426 119.511 232.457C119.326 232.486 119.146 232.511 118.97 232.534C118.796 232.554 118.656 232.571 118.548 232.585C118.287 232.619 118.042 232.675 117.815 232.751C117.591 232.825 117.409 232.937 117.269 233.088C117.133 233.236 117.065 233.437 117.065 233.693C117.065 234.043 117.194 234.307 117.453 234.486C117.714 234.662 118.045 234.75 118.446 234.75Z" fill="#0E0B3D"/>
<rect x="45.5" y="244.25" width="279" height="79" rx="5.5" stroke="#B3B8D0" stroke-dasharray="3 2"/>
<path d="M116.334 281.08C116.283 280.648 116.076 280.312 115.712 280.074C115.349 279.835 114.903 279.716 114.374 279.716C113.988 279.716 113.65 279.778 113.36 279.903C113.073 280.028 112.849 280.2 112.687 280.419C112.528 280.638 112.448 280.886 112.448 281.165C112.448 281.398 112.503 281.598 112.614 281.766C112.728 281.93 112.873 282.068 113.049 282.179C113.225 282.287 113.41 282.376 113.603 282.447C113.796 282.516 113.974 282.571 114.136 282.614L115.022 282.852C115.249 282.912 115.502 282.994 115.78 283.099C116.062 283.205 116.33 283.348 116.586 283.53C116.844 283.709 117.057 283.939 117.225 284.22C117.393 284.501 117.476 284.847 117.476 285.256C117.476 285.727 117.353 286.153 117.106 286.534C116.861 286.915 116.503 287.217 116.032 287.442C115.563 287.666 114.994 287.778 114.323 287.778C113.698 287.778 113.157 287.678 112.699 287.476C112.245 287.274 111.887 286.993 111.626 286.632C111.367 286.271 111.221 285.852 111.187 285.375H112.278C112.306 285.705 112.417 285.977 112.61 286.193C112.806 286.406 113.053 286.565 113.351 286.67C113.653 286.773 113.976 286.824 114.323 286.824C114.726 286.824 115.089 286.759 115.41 286.628C115.731 286.494 115.985 286.31 116.172 286.074C116.36 285.835 116.454 285.557 116.454 285.239C116.454 284.949 116.373 284.713 116.211 284.531C116.049 284.349 115.836 284.202 115.572 284.088C115.307 283.974 115.022 283.875 114.715 283.79L113.641 283.483C112.959 283.287 112.42 283.007 112.022 282.643C111.624 282.28 111.425 281.804 111.425 281.216C111.425 280.727 111.557 280.301 111.822 279.938C112.089 279.571 112.447 279.287 112.896 279.085C113.347 278.881 113.851 278.778 114.408 278.778C114.971 278.778 115.471 278.879 115.908 279.081C116.346 279.28 116.692 279.553 116.948 279.899C117.207 280.246 117.343 280.639 117.357 281.08H116.334ZM123.083 284.949V281.08H124.088V287.625H123.083V286.517H123.014C122.861 286.849 122.622 287.132 122.299 287.365C121.975 287.595 121.566 287.71 121.071 287.71C120.662 287.71 120.299 287.621 119.98 287.442C119.662 287.26 119.412 286.987 119.23 286.624C119.049 286.257 118.958 285.795 118.958 285.239V281.08H119.963V285.17C119.963 285.648 120.097 286.028 120.364 286.312C120.634 286.597 120.978 286.739 121.395 286.739C121.645 286.739 121.899 286.675 122.158 286.547C122.419 286.419 122.638 286.223 122.814 285.959C122.993 285.695 123.083 285.358 123.083 284.949ZM125.81 290.08V281.08H126.782V282.119H126.901C126.975 282.006 127.077 281.861 127.208 281.685C127.342 281.506 127.532 281.347 127.779 281.207C128.029 281.065 128.367 280.994 128.793 280.994C129.344 280.994 129.83 281.132 130.251 281.408C130.671 281.683 130.999 282.074 131.235 282.58C131.471 283.085 131.589 283.682 131.589 284.369C131.589 285.062 131.471 285.663 131.235 286.172C130.999 286.678 130.673 287.07 130.255 287.348C129.837 287.624 129.356 287.761 128.81 287.761C128.39 287.761 128.053 287.692 127.8 287.553C127.548 287.411 127.353 287.25 127.217 287.071C127.08 286.889 126.975 286.739 126.901 286.619H126.816V290.08H125.81ZM126.799 284.352C126.799 284.847 126.871 285.283 127.016 285.661C127.161 286.036 127.373 286.33 127.651 286.543C127.93 286.753 128.271 286.858 128.674 286.858C129.094 286.858 129.445 286.747 129.727 286.526C130.011 286.301 130.224 286 130.366 285.622C130.511 285.241 130.583 284.818 130.583 284.352C130.583 283.892 130.512 283.477 130.37 283.108C130.231 282.736 130.019 282.442 129.735 282.226C129.454 282.007 129.1 281.898 128.674 281.898C128.265 281.898 127.921 282.001 127.643 282.209C127.364 282.413 127.154 282.7 127.012 283.07C126.87 283.436 126.799 283.864 126.799 284.352ZM133.003 290.08V281.08H133.974V282.119H134.094C134.168 282.006 134.27 281.861 134.401 281.685C134.534 281.506 134.724 281.347 134.972 281.207C135.222 281.065 135.56 280.994 135.986 280.994C136.537 280.994 137.023 281.132 137.443 281.408C137.864 281.683 138.192 282.074 138.428 282.58C138.663 283.085 138.781 283.682 138.781 284.369C138.781 285.062 138.663 285.663 138.428 286.172C138.192 286.678 137.865 287.07 137.447 287.348C137.03 287.624 136.548 287.761 136.003 287.761C135.582 287.761 135.246 287.692 134.993 287.553C134.74 287.411 134.545 287.25 134.409 287.071C134.273 286.889 134.168 286.739 134.094 286.619H134.009V290.08H133.003ZM133.991 284.352C133.991 284.847 134.064 285.283 134.209 285.661C134.354 286.036 134.565 286.33 134.844 286.543C135.122 286.753 135.463 286.858 135.866 286.858C136.287 286.858 136.638 286.747 136.919 286.526C137.203 286.301 137.416 286 137.558 285.622C137.703 285.241 137.776 284.818 137.776 284.352C137.776 283.892 137.705 283.477 137.562 283.108C137.423 282.736 137.212 282.442 136.928 282.226C136.646 282.007 136.293 281.898 135.866 281.898C135.457 281.898 135.114 282.001 134.835 282.209C134.557 282.413 134.347 282.7 134.205 283.07C134.062 283.436 133.991 283.864 133.991 284.352ZM142.854 287.761C142.264 287.761 141.745 287.621 141.299 287.339C140.856 287.058 140.509 286.665 140.259 286.159C140.012 285.653 139.889 285.062 139.889 284.386C139.889 283.705 140.012 283.109 140.259 282.601C140.509 282.092 140.856 281.697 141.299 281.416C141.745 281.135 142.264 280.994 142.854 280.994C143.445 280.994 143.962 281.135 144.406 281.416C144.852 281.697 145.198 282.092 145.445 282.601C145.695 283.109 145.82 283.705 145.82 284.386C145.82 285.062 145.695 285.653 145.445 286.159C145.198 286.665 144.852 287.058 144.406 287.339C143.962 287.621 143.445 287.761 142.854 287.761ZM142.854 286.858C143.303 286.858 143.673 286.743 143.962 286.513C144.252 286.283 144.467 285.98 144.606 285.605C144.745 285.23 144.815 284.824 144.815 284.386C144.815 283.949 144.745 283.541 144.606 283.163C144.467 282.786 144.252 282.48 143.962 282.247C143.673 282.014 143.303 281.898 142.854 281.898C142.406 281.898 142.036 282.014 141.746 282.247C141.457 282.48 141.242 282.786 141.103 283.163C140.964 283.541 140.894 283.949 140.894 284.386C140.894 284.824 140.964 285.23 141.103 285.605C141.242 285.98 141.457 286.283 141.746 286.513C142.036 286.743 142.406 286.858 142.854 286.858ZM147.235 287.625V281.08H148.207V282.068H148.275C148.395 281.744 148.61 281.482 148.923 281.28C149.235 281.078 149.588 280.977 149.98 280.977C150.054 280.977 150.146 280.979 150.257 280.982C150.368 280.984 150.451 280.989 150.508 280.994V282.017C150.474 282.009 150.396 281.996 150.274 281.979C150.155 281.959 150.028 281.949 149.895 281.949C149.576 281.949 149.292 282.016 149.042 282.149C148.795 282.28 148.599 282.462 148.454 282.695C148.312 282.925 148.241 283.187 148.241 283.483V287.625H147.235ZM154.837 281.08V281.932H151.445V281.08H154.837ZM152.434 279.511H153.439V285.75C153.439 286.034 153.481 286.247 153.563 286.389C153.648 286.528 153.756 286.622 153.887 286.67C154.02 286.716 154.161 286.739 154.309 286.739C154.419 286.739 154.51 286.733 154.581 286.722C154.652 286.707 154.709 286.696 154.752 286.688L154.956 287.591C154.888 287.616 154.793 287.642 154.671 287.668C154.549 287.696 154.394 287.71 154.206 287.71C153.922 287.71 153.644 287.649 153.371 287.527C153.101 287.405 152.877 287.219 152.698 286.969C152.522 286.719 152.434 286.403 152.434 286.023V279.511ZM160.749 282.545L159.846 282.801C159.789 282.651 159.705 282.504 159.594 282.362C159.486 282.217 159.339 282.098 159.151 282.004C158.964 281.911 158.723 281.864 158.431 281.864C158.03 281.864 157.696 281.956 157.429 282.141C157.165 282.322 157.033 282.554 157.033 282.835C157.033 283.085 157.124 283.283 157.306 283.428C157.488 283.572 157.772 283.693 158.158 283.79L159.13 284.028C159.715 284.17 160.151 284.388 160.438 284.68C160.725 284.97 160.868 285.344 160.868 285.801C160.868 286.176 160.76 286.511 160.544 286.807C160.331 287.102 160.033 287.335 159.65 287.506C159.266 287.676 158.82 287.761 158.312 287.761C157.644 287.761 157.091 287.616 156.654 287.327C156.216 287.037 155.939 286.614 155.823 286.057L156.777 285.818C156.868 286.17 157.04 286.435 157.293 286.611C157.549 286.787 157.883 286.875 158.294 286.875C158.763 286.875 159.135 286.776 159.411 286.577C159.689 286.375 159.829 286.134 159.829 285.852C159.829 285.625 159.749 285.435 159.59 285.281C159.431 285.125 159.187 285.009 158.857 284.932L157.766 284.676C157.167 284.534 156.726 284.314 156.445 284.016C156.167 283.714 156.027 283.338 156.027 282.886C156.027 282.517 156.131 282.19 156.339 281.906C156.549 281.622 156.834 281.399 157.195 281.237C157.559 281.075 157.971 280.994 158.431 280.994C159.079 280.994 159.587 281.136 159.956 281.42C160.329 281.705 160.593 282.08 160.749 282.545ZM162.995 287.693C162.785 287.693 162.605 287.618 162.454 287.467C162.303 287.317 162.228 287.136 162.228 286.926C162.228 286.716 162.303 286.536 162.454 286.385C162.605 286.234 162.785 286.159 162.995 286.159C163.205 286.159 163.386 286.234 163.536 286.385C163.687 286.536 163.762 286.716 163.762 286.926C163.762 287.065 163.727 287.193 163.656 287.31C163.587 287.426 163.495 287.52 163.379 287.591C163.265 287.659 163.137 287.693 162.995 287.693ZM162.995 282.835C162.785 282.835 162.605 282.76 162.454 282.609C162.303 282.459 162.228 282.278 162.228 282.068C162.228 281.858 162.303 281.678 162.454 281.527C162.605 281.376 162.785 281.301 162.995 281.301C163.205 281.301 163.386 281.376 163.536 281.527C163.687 281.678 163.762 281.858 163.762 282.068C163.762 282.207 163.727 282.335 163.656 282.452C163.587 282.568 163.495 282.662 163.379 282.733C163.265 282.801 163.137 282.835 162.995 282.835ZM172.179 278.898H173.236V285.136C173.236 285.693 173.134 286.166 172.929 286.555C172.725 286.945 172.436 287.24 172.064 287.442C171.692 287.643 171.253 287.744 170.747 287.744C170.27 287.744 169.845 287.658 169.473 287.484C169.101 287.308 168.808 287.058 168.595 286.734C168.382 286.411 168.276 286.026 168.276 285.58H169.316C169.316 285.827 169.377 286.043 169.499 286.227C169.624 286.409 169.794 286.551 170.01 286.653C170.226 286.756 170.472 286.807 170.747 286.807C171.051 286.807 171.31 286.743 171.523 286.615C171.736 286.487 171.898 286.3 172.009 286.053C172.122 285.803 172.179 285.497 172.179 285.136V278.898ZM175.234 287.625V278.898H178.183C178.867 278.898 179.427 279.021 179.862 279.268C180.299 279.513 180.623 279.844 180.833 280.261C181.044 280.679 181.149 281.145 181.149 281.659C181.149 282.173 181.044 282.641 180.833 283.061C180.626 283.482 180.305 283.817 179.87 284.067C179.436 284.314 178.879 284.438 178.2 284.438H176.086V283.5H178.166C178.634 283.5 179.011 283.419 179.295 283.257C179.579 283.095 179.785 282.876 179.913 282.601C180.044 282.322 180.109 282.009 180.109 281.659C180.109 281.31 180.044 280.997 179.913 280.722C179.785 280.446 179.578 280.23 179.291 280.074C179.004 279.915 178.623 279.835 178.149 279.835H176.291V287.625H175.234ZM188.697 281.625C188.603 281.338 188.48 281.081 188.326 280.854C188.176 280.624 187.995 280.428 187.785 280.266C187.578 280.104 187.342 279.98 187.078 279.895C186.813 279.81 186.524 279.767 186.208 279.767C185.691 279.767 185.221 279.901 184.798 280.168C184.375 280.435 184.038 280.828 183.788 281.348C183.538 281.868 183.413 282.506 183.413 283.261C183.413 284.017 183.539 284.655 183.792 285.175C184.045 285.695 184.387 286.088 184.819 286.355C185.251 286.622 185.737 286.756 186.277 286.756C186.777 286.756 187.217 286.649 187.598 286.436C187.981 286.22 188.279 285.916 188.492 285.524C188.708 285.129 188.816 284.665 188.816 284.131L189.14 284.199H186.515V283.261H189.839V284.199C189.839 284.918 189.686 285.543 189.379 286.074C189.075 286.605 188.654 287.017 188.117 287.31C187.583 287.599 186.97 287.744 186.277 287.744C185.504 287.744 184.825 287.562 184.24 287.199C183.657 286.835 183.203 286.318 182.876 285.648C182.552 284.977 182.39 284.182 182.39 283.261C182.39 282.571 182.482 281.95 182.667 281.399C182.855 280.845 183.119 280.374 183.46 279.984C183.801 279.595 184.204 279.297 184.67 279.089C185.136 278.882 185.649 278.778 186.208 278.778C186.669 278.778 187.098 278.848 187.495 278.987C187.896 279.124 188.252 279.318 188.565 279.571C188.88 279.821 189.143 280.121 189.353 280.47C189.563 280.817 189.708 281.202 189.788 281.625H188.697ZM192.893 286.432L192.825 286.892C192.776 287.216 192.702 287.562 192.603 287.932C192.506 288.301 192.405 288.649 192.3 288.976C192.195 289.303 192.109 289.563 192.04 289.756H191.273C191.31 289.574 191.359 289.334 191.418 289.036C191.478 288.737 191.538 288.403 191.597 288.034C191.66 287.668 191.711 287.293 191.751 286.909L191.802 286.432H192.893ZM201.368 278.898H202.425V285.136C202.425 285.693 202.323 286.166 202.118 286.555C201.914 286.945 201.625 287.24 201.253 287.442C200.881 287.643 200.442 287.744 199.936 287.744C199.459 287.744 199.034 287.658 198.662 287.484C198.29 287.308 197.997 287.058 197.784 286.734C197.571 286.411 197.465 286.026 197.465 285.58H198.505C198.505 285.827 198.566 286.043 198.688 286.227C198.813 286.409 198.983 286.551 199.199 286.653C199.415 286.756 199.661 286.807 199.936 286.807C200.24 286.807 200.499 286.743 200.712 286.615C200.925 286.487 201.087 286.3 201.198 286.053C201.311 285.803 201.368 285.497 201.368 285.136V278.898ZM204.423 287.625V278.898H207.372C208.056 278.898 208.616 279.021 209.051 279.268C209.488 279.513 209.812 279.844 210.022 280.261C210.233 280.679 210.338 281.145 210.338 281.659C210.338 282.173 210.233 282.641 210.022 283.061C209.815 283.482 209.494 283.817 209.059 284.067C208.625 284.314 208.068 284.438 207.389 284.438H205.275V283.5H207.355C207.824 283.5 208.2 283.419 208.484 283.257C208.768 283.095 208.974 282.876 209.102 282.601C209.233 282.322 209.298 282.009 209.298 281.659C209.298 281.31 209.233 280.997 209.102 280.722C208.974 280.446 208.767 280.23 208.48 280.074C208.193 279.915 207.812 279.835 207.338 279.835H205.48V287.625H204.423ZM211.92 287.625V278.898H217.187V279.835H212.977V282.784H216.914V283.722H212.977V286.688H217.255V287.625H211.92ZM224.938 281.625C224.844 281.338 224.721 281.081 224.567 280.854C224.417 280.624 224.236 280.428 224.026 280.266C223.819 280.104 223.583 279.98 223.319 279.895C223.054 279.81 222.765 279.767 222.449 279.767C221.932 279.767 221.462 279.901 221.039 280.168C220.615 280.435 220.279 280.828 220.029 281.348C219.779 281.868 219.654 282.506 219.654 283.261C219.654 284.017 219.78 284.655 220.033 285.175C220.286 285.695 220.628 286.088 221.06 286.355C221.492 286.622 221.978 286.756 222.517 286.756C223.017 286.756 223.458 286.649 223.838 286.436C224.222 286.22 224.52 285.916 224.733 285.524C224.949 285.129 225.057 284.665 225.057 284.131L225.381 284.199H222.756V283.261H226.08V284.199C226.08 284.918 225.927 285.543 225.62 286.074C225.316 286.605 224.895 287.017 224.358 287.31C223.824 287.599 223.211 287.744 222.517 287.744C221.745 287.744 221.066 287.562 220.481 287.199C219.898 286.835 219.444 286.318 219.117 285.648C218.793 284.977 218.631 284.182 218.631 283.261C218.631 282.571 218.723 281.95 218.908 281.399C219.096 280.845 219.36 280.374 219.701 279.984C220.042 279.595 220.445 279.297 220.911 279.089C221.377 278.882 221.89 278.778 222.449 278.778C222.91 278.778 223.338 278.848 223.736 278.987C224.137 279.124 224.493 279.318 224.806 279.571C225.121 279.821 225.384 280.121 225.594 280.47C225.804 280.817 225.949 281.202 226.029 281.625H224.938ZM229.134 286.432L229.065 286.892C229.017 287.216 228.943 287.562 228.844 287.932C228.747 288.301 228.646 288.649 228.541 288.976C228.436 289.303 228.35 289.563 228.281 289.756H227.514C227.551 289.574 227.6 289.334 227.659 289.036C227.719 288.737 227.779 288.403 227.838 288.034C227.901 287.668 227.952 287.293 227.992 286.909L228.043 286.432H229.134ZM234.268 287.625V278.898H237.217C237.902 278.898 238.461 279.021 238.896 279.268C239.334 279.513 239.657 279.844 239.868 280.261C240.078 280.679 240.183 281.145 240.183 281.659C240.183 282.173 240.078 282.641 239.868 283.061C239.66 283.482 239.339 283.817 238.905 284.067C238.47 284.314 237.913 284.438 237.234 284.438H235.121V283.5H237.2C237.669 283.5 238.045 283.419 238.329 283.257C238.613 283.095 238.819 282.876 238.947 282.601C239.078 282.322 239.143 282.009 239.143 281.659C239.143 281.31 239.078 280.997 238.947 280.722C238.819 280.446 238.612 280.23 238.325 280.074C238.038 279.915 237.657 279.835 237.183 279.835H235.325V287.625H234.268ZM248.686 278.898V287.625H247.663L242.907 280.773H242.822V287.625H241.765V278.898H242.788L247.561 285.767H247.646V278.898H248.686ZM256.647 281.625C256.553 281.338 256.429 281.081 256.276 280.854C256.125 280.624 255.945 280.428 255.735 280.266C255.527 280.104 255.291 279.98 255.027 279.895C254.763 279.81 254.473 279.767 254.158 279.767C253.641 279.767 253.171 279.901 252.747 280.168C252.324 280.435 251.987 280.828 251.737 281.348C251.487 281.868 251.362 282.506 251.362 283.261C251.362 284.017 251.489 284.655 251.742 285.175C251.995 285.695 252.337 286.088 252.769 286.355C253.2 286.622 253.686 286.756 254.226 286.756C254.726 286.756 255.166 286.649 255.547 286.436C255.931 286.22 256.229 285.916 256.442 285.524C256.658 285.129 256.766 284.665 256.766 284.131L257.09 284.199H254.465V283.261H257.789V284.199C257.789 284.918 257.635 285.543 257.328 286.074C257.024 286.605 256.604 287.017 256.067 287.31C255.533 287.599 254.919 287.744 254.226 287.744C253.453 287.744 252.774 287.562 252.189 287.199C251.607 286.835 251.152 286.318 250.825 285.648C250.502 284.977 250.34 284.182 250.34 283.261C250.34 282.571 250.432 281.95 250.617 281.399C250.804 280.845 251.068 280.374 251.409 279.984C251.75 279.595 252.154 279.297 252.62 279.089C253.085 278.882 253.598 278.778 254.158 278.778C254.618 278.778 255.047 278.848 255.445 278.987C255.845 279.124 256.202 279.318 256.514 279.571C256.83 279.821 257.093 280.121 257.303 280.47C257.513 280.817 257.658 281.202 257.737 281.625H256.647Z" fill="#6C6F93"/>
<defs>
<filter id="filter0_d_44_7548" x="10.7355" y="308.933" width="178.667" height="32.6667" filterUnits="userSpaceOnUse" color-interpolation-filters="sRGB">
<feFlood flood-opacity="0" result="BackgroundImageFix"/>
<feColorMatrix in="SourceAlpha" type="matrix" values="0 0 0 0 0 0 0 0 0 0 0 0 0 0 0 0 0 0 127 0" result="hardAlpha"/>
<feOffset dy="0.666667"/>
<feGaussianBlur stdDeviation="0.666667"/>
<feColorMatrix type="matrix" values="0 0 0 0 0.0627451 0 0 0 0 0.0941176 0 0 0 0 0.156863 0 0 0 0.05 0"/>
<feBlend mode="normal" in2="BackgroundImageFix" result="effect1_dropShadow_44_7548"/>
<feBlend mode="normal" in="SourceGraphic" in2="effect1_dropShadow_44_7548" result="shape"/>
</filter>
<filter id="filter1_d_44_7548" x="10.7355" y="346.933" width="178.667" height="26.6667" filterUnits="userSpaceOnUse" color-interpolation-filters="sRGB">
<feFlood flood-opacity="0" result="BackgroundImageFix"/>
<feColorMatrix in="SourceAlpha" type="matrix" values="0 0 0 0 0 0 0 0 0 0 0 0 0 0 0 0 0 0 127 0" result="hardAlpha"/>
<feOffset dy="0.666667"/>
<feGaussianBlur stdDeviation="0.666667"/>
<feColorMatrix type="matrix" values="0 0 0 0 0.0627451 0 0 0 0 0.0941176 0 0 0 0 0.156863 0 0 0 0.05 0"/>
<feBlend mode="normal" in2="BackgroundImageFix" result="effect1_dropShadow_44_7548"/>
<feBlend mode="normal" in="SourceGraphic" in2="effect1_dropShadow_44_7548" result="shape"/>
</filter>
<clipPath id="clip0_44_7548">
<rect x="76.0024" y="178.014" width="268" height="41.9965" rx="8" fill="white"/>
</clipPath>
<clipPath id="clip1_44_7548">
<rect width="11.0016" height="9.00142" fill="white" transform="translate(95.5078 194.509)"/>
</clipPath>
<clipPath id="clip2_44_7548">
<rect width="11.0016" height="9.00142" fill="white" transform="translate(95.5073 194.509)"/>
</clipPath>
<clipPath id="clip3_44_7548">
<rect x="76.0024" y="228.011" width="268" height="41.9965" rx="8" fill="white"/>
</clipPath>
<clipPath id="clip4_44_7548">
<rect width="11.0016" height="9.00142" fill="white" transform="translate(95.5078 244.505)"/>
</clipPath>
<clipPath id="clip5_44_7548">
<rect width="11.0016" height="9.00142" fill="white" transform="translate(95.5073 244.506)"/>
</clipPath>
<clipPath id="clip6_44_7548">
<rect x="76.0024" y="278.007" width="268" height="41.9965" rx="8" fill="white"/>
</clipPath>
<clipPath id="clip7_44_7548">
<rect width="256.9" height="15" fill="white" transform="translate(53 172.75)"/>
</clipPath>
</defs>
</svg>
