<svg width="220" height="49" viewBox="0 0 220 49" fill="none" xmlns="http://www.w3.org/2000/svg">
<g clip-path="url(#clip0_32_14061)">
<rect y="0.5" width="220" height="48" rx="6" fill="white"/>
<g filter="url(#filter0_d_32_14061)">
<circle cx="24" cy="24.5" r="12" fill="#6F2268"/>
</g>
<path d="M44.642 29L42.2557 20.2727H43.3295L45.1534 27.3807H45.2386L47.0966 20.2727H48.2898L50.1477 27.3807H50.233L52.0568 20.2727H53.1307L50.7443 29H49.6534L47.7273 22.0455H47.6591L45.733 29H44.642ZM56.2008 29.1364C55.6099 29.1364 55.0914 28.9957 54.6454 28.7145C54.2022 28.4332 53.8556 28.0398 53.6056 27.5341C53.3585 27.0284 53.2349 26.4375 53.2349 25.7614C53.2349 25.0795 53.3585 24.4844 53.6056 23.9759C53.8556 23.4673 54.2022 23.0724 54.6454 22.7912C55.0914 22.5099 55.6099 22.3693 56.2008 22.3693C56.7917 22.3693 57.3088 22.5099 57.7519 22.7912C58.198 23.0724 58.5445 23.4673 58.7917 23.9759C59.0417 24.4844 59.1667 25.0795 59.1667 25.7614C59.1667 26.4375 59.0417 27.0284 58.7917 27.5341C58.5445 28.0398 58.198 28.4332 57.7519 28.7145C57.3088 28.9957 56.7917 29.1364 56.2008 29.1364ZM56.2008 28.233C56.6497 28.233 57.019 28.1179 57.3088 27.8878C57.5985 27.6577 57.813 27.3551 57.9522 26.9801C58.0914 26.6051 58.161 26.1989 58.161 25.7614C58.161 25.3239 58.0914 24.9162 57.9522 24.5384C57.813 24.1605 57.5985 23.8551 57.3088 23.6222C57.019 23.3892 56.6497 23.2727 56.2008 23.2727C55.7519 23.2727 55.3826 23.3892 55.0928 23.6222C54.8031 23.8551 54.5886 24.1605 54.4494 24.5384C54.3102 24.9162 54.2406 25.3239 54.2406 25.7614C54.2406 26.1989 54.3102 26.6051 54.4494 26.9801C54.5886 27.3551 54.8031 27.6577 55.0928 27.8878C55.3826 28.1179 55.7519 28.233 56.2008 28.233ZM60.5419 29V22.4545H61.5135V23.4432H61.5816C61.701 23.1193 61.9169 22.8565 62.2294 22.6548C62.5419 22.4531 62.8941 22.3523 63.2862 22.3523C63.36 22.3523 63.4524 22.3537 63.5632 22.3565C63.674 22.3594 63.7578 22.3636 63.8146 22.3693V23.392C63.7805 23.3835 63.7024 23.3707 63.5802 23.3537C63.4609 23.3338 63.3345 23.3239 63.201 23.3239C62.8828 23.3239 62.5987 23.3906 62.3487 23.5241C62.1015 23.6548 61.9055 23.8366 61.7606 24.0696C61.6186 24.2997 61.5475 24.5625 61.5475 24.858V29H60.5419ZM65.7842 26.6136L65.7672 25.3693H65.9717L68.8353 22.4545H70.0797L67.0285 25.5398H66.9433L65.7842 26.6136ZM64.8467 29V20.2727H65.8524V29H64.8467ZM69.0058 29L66.449 25.7614L67.1649 25.0625L70.2842 29H69.0058ZM76.1231 22.4545C76.072 22.0227 75.8646 21.6875 75.501 21.4489C75.1373 21.2102 74.6913 21.0909 74.1629 21.0909C73.7765 21.0909 73.4385 21.1534 73.1487 21.2784C72.8618 21.4034 72.6373 21.5753 72.4754 21.794C72.3163 22.0128 72.2368 22.2614 72.2368 22.5398C72.2368 22.7727 72.2922 22.973 72.403 23.1406C72.5166 23.3054 72.6615 23.4432 72.8376 23.554C73.0138 23.6619 73.1984 23.7514 73.3916 23.8224C73.5848 23.8906 73.7623 23.946 73.9243 23.9886L74.8106 24.2273C75.0379 24.2869 75.2908 24.3693 75.5692 24.4744C75.8504 24.5795 76.1189 24.723 76.3746 24.9048C76.6331 25.0838 76.8462 25.3139 77.0138 25.5952C77.1814 25.8764 77.2652 26.2216 77.2652 26.6307C77.2652 27.1023 77.1416 27.5284 76.8944 27.9091C76.6501 28.2898 76.2922 28.5923 75.8206 28.8168C75.3518 29.0412 74.7822 29.1534 74.1118 29.1534C73.4868 29.1534 72.9456 29.0526 72.4882 28.8509C72.0337 28.6491 71.6757 28.3679 71.4143 28.0071C71.1558 27.6463 71.0095 27.2273 70.9754 26.75H72.0663C72.0947 27.0795 72.2055 27.3523 72.3987 27.5682C72.5947 27.7812 72.8419 27.9403 73.1402 28.0455C73.4413 28.1477 73.7652 28.1989 74.1118 28.1989C74.5152 28.1989 74.8774 28.1335 75.1984 28.0028C75.5194 27.8693 75.7737 27.6847 75.9612 27.4489C76.1487 27.2102 76.2425 26.9318 76.2425 26.6136C76.2425 26.3239 76.1615 26.0881 75.9996 25.9062C75.8376 25.7244 75.6246 25.5767 75.3604 25.4631C75.0962 25.3494 74.8106 25.25 74.5038 25.1648L73.43 24.858C72.7481 24.6619 72.2084 24.3821 71.8106 24.0185C71.4129 23.6548 71.214 23.179 71.214 22.5909C71.214 22.1023 71.3462 21.6761 71.6104 21.3125C71.8774 20.946 72.2354 20.6619 72.6842 20.4602C73.1359 20.2557 73.6402 20.1534 74.197 20.1534C74.7595 20.1534 75.2595 20.2543 75.697 20.456C76.1345 20.6548 76.4811 20.9276 76.7368 21.2741C76.9953 21.6207 77.1317 22.0142 77.1459 22.4545H76.1231ZM78.7064 31.4545V22.4545H79.678V23.4943H79.7973C79.8712 23.3807 79.9734 23.2358 80.1041 23.0597C80.2376 22.8807 80.428 22.7216 80.6751 22.5824C80.9251 22.4403 81.2632 22.3693 81.6893 22.3693C82.2405 22.3693 82.7263 22.5071 83.1467 22.7827C83.5672 23.0582 83.8953 23.4489 84.1311 23.9545C84.3669 24.4602 84.4848 25.0568 84.4848 25.7443C84.4848 26.4375 84.3669 27.0384 84.1311 27.5469C83.8953 28.0526 83.5686 28.4446 83.151 28.723C82.7334 28.9986 82.2518 29.1364 81.7064 29.1364C81.2859 29.1364 80.9493 29.0668 80.6964 28.9276C80.4436 28.7855 80.249 28.625 80.1126 28.446C79.9763 28.2642 79.8712 28.1136 79.7973 27.9943H79.7121V31.4545H78.7064ZM79.695 25.7273C79.695 26.2216 79.7675 26.6577 79.9124 27.0355C80.0572 27.4105 80.2689 27.7045 80.5473 27.9176C80.8257 28.1278 81.1666 28.233 81.57 28.233C81.9905 28.233 82.3413 28.1222 82.6226 27.9006C82.9067 27.6761 83.1197 27.375 83.2618 26.9972C83.4067 26.6165 83.4791 26.1932 83.4791 25.7273C83.4791 25.267 83.4081 24.8523 83.2661 24.483C83.1268 24.1108 82.9152 23.8168 82.6311 23.6009C82.3499 23.3821 81.9962 23.2727 81.57 23.2727C81.1609 23.2727 80.8172 23.3764 80.5388 23.5838C80.2604 23.7884 80.0501 24.0753 79.9081 24.4446C79.7661 24.8111 79.695 25.2386 79.695 25.7273ZM87.785 29.1534C87.3703 29.1534 86.9938 29.0753 86.6558 28.919C86.3177 28.7599 86.0492 28.5312 85.8504 28.233C85.6515 27.9318 85.5521 27.5682 85.5521 27.142C85.5521 26.767 85.6259 26.4631 85.7737 26.2301C85.9214 25.9943 86.1188 25.8097 86.366 25.6761C86.6132 25.5426 86.8859 25.4432 87.1842 25.3778C87.4853 25.3097 87.7879 25.2557 88.0918 25.2159C88.4896 25.1648 88.812 25.1264 89.0592 25.1009C89.3092 25.0724 89.491 25.0256 89.6046 24.9602C89.7211 24.8949 89.7793 24.7812 89.7793 24.6193V24.5852C89.7793 24.1648 89.6643 23.8381 89.4342 23.6051C89.2069 23.3722 88.8617 23.2557 88.3987 23.2557C87.9186 23.2557 87.5421 23.3608 87.2694 23.571C86.9967 23.7812 86.8049 24.0057 86.6941 24.2443L85.7396 23.9034C85.91 23.5057 86.1373 23.196 86.4214 22.9744C86.7083 22.75 87.0208 22.5937 87.3589 22.5057C87.6998 22.4148 88.035 22.3693 88.3646 22.3693C88.5748 22.3693 88.8163 22.3949 89.089 22.446C89.3646 22.4943 89.6302 22.5952 89.8859 22.7486C90.1444 22.902 90.3589 23.1335 90.5293 23.4432C90.6998 23.7528 90.785 24.1676 90.785 24.6875V29H89.7793V28.1136H89.7282C89.66 28.2557 89.5464 28.4077 89.3873 28.5696C89.2282 28.7315 89.0166 28.8693 88.7524 28.983C88.4882 29.0966 88.1657 29.1534 87.785 29.1534ZM87.9384 28.25C88.3362 28.25 88.6714 28.1719 88.9441 28.0156C89.2197 27.8594 89.4271 27.6577 89.5663 27.4105C89.7083 27.1634 89.7793 26.9034 89.7793 26.6307V25.7102C89.7367 25.7614 89.643 25.8082 89.4981 25.8509C89.3561 25.8906 89.1913 25.9261 89.0038 25.9574C88.8191 25.9858 88.6387 26.0114 88.4626 26.0341C88.2893 26.054 88.1487 26.071 88.0407 26.0852C87.7793 26.1193 87.535 26.1747 87.3078 26.2514C87.0833 26.3253 86.9015 26.4375 86.7623 26.5881C86.6259 26.7358 86.5578 26.9375 86.5578 27.1932C86.5578 27.5426 86.687 27.8068 86.9455 27.9858C87.2069 28.1619 87.5379 28.25 87.9384 28.25ZM95.1197 29.1364C94.5061 29.1364 93.9777 28.9915 93.5345 28.7017C93.0913 28.4119 92.7504 28.0128 92.5117 27.5043C92.2731 26.9957 92.1538 26.4148 92.1538 25.7614C92.1538 25.0966 92.276 24.5099 92.5203 24.0014C92.7674 23.4901 93.1112 23.0909 93.5515 22.804C93.9947 22.5142 94.5117 22.3693 95.1027 22.3693C95.5629 22.3693 95.9777 22.4545 96.347 22.625C96.7163 22.7955 97.0189 23.0341 97.2546 23.3409C97.4904 23.6477 97.6367 24.0057 97.6936 24.4148H96.6879C96.6112 24.1165 96.4407 23.8523 96.1765 23.6222C95.9152 23.3892 95.5629 23.2727 95.1197 23.2727C94.7277 23.2727 94.3839 23.375 94.0885 23.5795C93.7958 23.7812 93.5671 24.0668 93.4024 24.4361C93.2404 24.8026 93.1595 25.233 93.1595 25.7273C93.1595 26.233 93.239 26.6733 93.3981 27.0483C93.56 27.4233 93.7873 27.7145 94.0799 27.9219C94.3754 28.1293 94.722 28.233 95.1197 28.233C95.3811 28.233 95.6183 28.1875 95.8314 28.0966C96.0444 28.0057 96.2248 27.875 96.3725 27.7045C96.5203 27.5341 96.6254 27.3295 96.6879 27.0909H97.6936C97.6367 27.4773 97.4961 27.8253 97.2717 28.1349C97.0501 28.4418 96.7561 28.6861 96.3896 28.8679C96.026 29.0469 95.6027 29.1364 95.1197 29.1364ZM101.748 29.1364C101.117 29.1364 100.573 28.9972 100.116 28.7188C99.6614 28.4375 99.3106 28.0455 99.0634 27.5426C98.8191 27.0369 98.6969 26.4489 98.6969 25.7784C98.6969 25.108 98.8191 24.517 99.0634 24.0057C99.3106 23.4915 99.6543 23.0909 100.095 22.804C100.538 22.5142 101.055 22.3693 101.646 22.3693C101.987 22.3693 102.323 22.4261 102.656 22.5398C102.988 22.6534 103.291 22.8381 103.563 23.0938C103.836 23.3466 104.053 23.6818 104.215 24.0994C104.377 24.517 104.458 25.0312 104.458 25.642V26.0682H99.4128V25.1989H103.436C103.436 24.8295 103.362 24.5 103.214 24.2102C103.069 23.9205 102.862 23.6918 102.592 23.5241C102.325 23.3565 102.009 23.2727 101.646 23.2727C101.245 23.2727 100.899 23.3722 100.606 23.571C100.316 23.767 100.093 24.0227 99.937 24.3381C99.7807 24.6534 99.7026 24.9915 99.7026 25.3523V25.9318C99.7026 26.4261 99.7878 26.8452 99.9583 27.1889C100.132 27.5298 100.372 27.7898 100.678 27.9688C100.985 28.1449 101.342 28.233 101.748 28.233C102.012 28.233 102.251 28.196 102.464 28.1222C102.68 28.0455 102.866 27.9318 103.022 27.7812C103.178 27.6278 103.299 27.4375 103.384 27.2102L104.356 27.483C104.254 27.8125 104.082 28.1023 103.84 28.3523C103.599 28.5994 103.301 28.7926 102.945 28.9318C102.59 29.0682 102.191 29.1364 101.748 29.1364ZM116.1 20.2727V29H115.077L110.322 22.1477H110.236V29H109.179V20.2727H110.202L114.975 27.142H115.06V20.2727H116.1ZM119.844 29.1534C119.43 29.1534 119.053 29.0753 118.715 28.919C118.377 28.7599 118.109 28.5312 117.91 28.233C117.711 27.9318 117.611 27.5682 117.611 27.142C117.611 26.767 117.685 26.4631 117.833 26.2301C117.981 25.9943 118.178 25.8097 118.425 25.6761C118.673 25.5426 118.945 25.4432 119.244 25.3778C119.545 25.3097 119.847 25.2557 120.151 25.2159C120.549 25.1648 120.871 25.1264 121.119 25.1009C121.369 25.0724 121.55 25.0256 121.664 24.9602C121.78 24.8949 121.839 24.7812 121.839 24.6193V24.5852C121.839 24.1648 121.724 23.8381 121.494 23.6051C121.266 23.3722 120.921 23.2557 120.458 23.2557C119.978 23.2557 119.602 23.3608 119.329 23.571C119.056 23.7812 118.864 24.0057 118.753 24.2443L117.799 23.9034C117.969 23.5057 118.197 23.196 118.481 22.9744C118.768 22.75 119.08 22.5937 119.418 22.5057C119.759 22.4148 120.094 22.3693 120.424 22.3693C120.634 22.3693 120.876 22.3949 121.148 22.446C121.424 22.4943 121.69 22.5952 121.945 22.7486C122.204 22.902 122.418 23.1335 122.589 23.4432C122.759 23.7528 122.844 24.1676 122.844 24.6875V29H121.839V28.1136H121.788C121.719 28.2557 121.606 28.4077 121.447 28.5696C121.288 28.7315 121.076 28.8693 120.812 28.983C120.548 29.0966 120.225 29.1534 119.844 29.1534ZM119.998 28.25C120.396 28.25 120.731 28.1719 121.003 28.0156C121.279 27.8594 121.486 27.6577 121.626 27.4105C121.768 27.1634 121.839 26.9034 121.839 26.6307V25.7102C121.796 25.7614 121.702 25.8082 121.557 25.8509C121.415 25.8906 121.251 25.9261 121.063 25.9574C120.878 25.9858 120.698 26.0114 120.522 26.0341C120.349 26.054 120.208 26.071 120.1 26.0852C119.839 26.1193 119.594 26.1747 119.367 26.2514C119.143 26.3253 118.961 26.4375 118.822 26.5881C118.685 26.7358 118.617 26.9375 118.617 27.1932C118.617 27.5426 118.746 27.8068 119.005 27.9858C119.266 28.1619 119.597 28.25 119.998 28.25ZM124.52 29V22.4545H125.492V23.4773H125.577C125.713 23.1278 125.933 22.8565 126.237 22.6634C126.541 22.4673 126.906 22.3693 127.332 22.3693C127.764 22.3693 128.124 22.4673 128.411 22.6634C128.7 22.8565 128.926 23.1278 129.088 23.4773H129.156C129.324 23.1392 129.575 22.8707 129.911 22.6719C130.246 22.4702 130.648 22.3693 131.117 22.3693C131.702 22.3693 132.18 22.5526 132.553 22.919C132.925 23.2827 133.111 23.8494 133.111 24.6193V29H132.105V24.6193C132.105 24.1364 131.973 23.7912 131.709 23.5838C131.445 23.3764 131.134 23.2727 130.776 23.2727C130.315 23.2727 129.959 23.4119 129.706 23.6903C129.453 23.9659 129.327 24.3153 129.327 24.7386V29H128.304V24.517C128.304 24.1449 128.183 23.8452 127.942 23.6179C127.7 23.3878 127.389 23.2727 127.009 23.2727C126.747 23.2727 126.503 23.3423 126.276 23.4815C126.051 23.6207 125.869 23.8139 125.73 24.0611C125.594 24.3054 125.526 24.5881 125.526 24.9091V29H124.52ZM137.534 29.1364C136.903 29.1364 136.359 28.9972 135.902 28.7188C135.447 28.4375 135.096 28.0455 134.849 27.5426C134.605 27.0369 134.483 26.4489 134.483 25.7784C134.483 25.108 134.605 24.517 134.849 24.0057C135.096 23.4915 135.44 23.0909 135.881 22.804C136.324 22.5142 136.841 22.3693 137.432 22.3693C137.773 22.3693 138.109 22.4261 138.442 22.5398C138.774 22.6534 139.077 22.8381 139.349 23.0938C139.622 23.3466 139.839 23.6818 140.001 24.0994C140.163 24.517 140.244 25.0312 140.244 25.642V26.0682H135.199V25.1989H139.221C139.221 24.8295 139.148 24.5 139 24.2102C138.855 23.9205 138.648 23.6918 138.378 23.5241C138.111 23.3565 137.795 23.2727 137.432 23.2727C137.031 23.2727 136.685 23.3722 136.392 23.571C136.102 23.767 135.879 24.0227 135.723 24.3381C135.567 24.6534 135.489 24.9915 135.489 25.3523V25.9318C135.489 26.4261 135.574 26.8452 135.744 27.1889C135.918 27.5298 136.158 27.7898 136.464 27.9688C136.771 28.1449 137.128 28.233 137.534 28.233C137.798 28.233 138.037 28.196 138.25 28.1222C138.466 28.0455 138.652 27.9318 138.808 27.7812C138.964 27.6278 139.085 27.4375 139.17 27.2102L140.142 27.483C140.04 27.8125 139.868 28.1023 139.626 28.3523C139.385 28.5994 139.087 28.7926 138.731 28.9318C138.376 29.0682 137.977 29.1364 137.534 29.1364Z" fill="black"/>
<path d="M200.97 21.24L204.47 18.24L207.97 21.24" stroke="#292D32" stroke-width="1.5" stroke-linecap="round" stroke-linejoin="round"/>
<path d="M200.94 27.24L204.47 30.76L208 27.24" stroke="#292D32" stroke-width="1.5" stroke-linecap="round" stroke-linejoin="round"/>
<g filter="url(#filter1_d_32_14061)">
<path d="M213.923 45.5296C214.098 45.9505 213.93 47.5447 213 47.9142C212.07 48.2837 210.882 47.9142 210.882 47.9142L208.726 43.6024L205 47.3284V30.5L216.414 41.9142H212.162C212.37 42.3144 213.7 44.9948 213.923 45.5296Z" fill="white"/>
<path fill-rule="evenodd" clip-rule="evenodd" d="M206 32.9143V44.9143L209 41.9143L211.5 46.9143C211.5 46.9143 212.176 47.1301 212.5 46.9143C212.824 46.6985 213.146 46.2639 213 45.9143C212.312 44.2639 210.5 40.9143 210.5 40.9143H214L206 32.9143Z" fill="black"/>
</g>
</g>
<rect x="0.5" y="1" width="219" height="47" rx="5.5" stroke="#F0F0F2"/>
<defs>
<filter id="filter0_d_32_14061" x="-8" y="-3.5" width="64" height="64" filterUnits="userSpaceOnUse" color-interpolation-filters="sRGB">
<feFlood flood-opacity="0" result="BackgroundImageFix"/>
<feColorMatrix in="SourceAlpha" type="matrix" values="0 0 0 0 0 0 0 0 0 0 0 0 0 0 0 0 0 0 127 0" result="hardAlpha"/>
<feOffset dy="4"/>
<feGaussianBlur stdDeviation="10"/>
<feComposite in2="hardAlpha" operator="out"/>
<feColorMatrix type="matrix" values="0 0 0 0 0 0 0 0 0 0 0 0 0 0 0 0 0 0 0.08 0"/>
<feBlend mode="normal" in2="BackgroundImageFix" result="effect1_dropShadow_32_14061"/>
<feBlend mode="normal" in="SourceGraphic" in2="effect1_dropShadow_32_14061" result="shape"/>
</filter>
<filter id="filter1_d_32_14061" x="196.2" y="26.7" width="27.6" height="27.6" filterUnits="userSpaceOnUse" color-interpolation-filters="sRGB">
<feFlood flood-opacity="0" result="BackgroundImageFix"/>
<feColorMatrix in="SourceAlpha" type="matrix" values="0 0 0 0 0 0 0 0 0 0 0 0 0 0 0 0 0 0 127 0" result="hardAlpha"/>
<feOffset dy="1"/>
<feGaussianBlur stdDeviation="0.9"/>
<feColorMatrix type="matrix" values="0 0 0 0 0 0 0 0 0 0 0 0 0 0 0 0 0 0 0.65 0"/>
<feBlend mode="normal" in2="BackgroundImageFix" result="effect1_dropShadow_32_14061"/>
<feBlend mode="normal" in="SourceGraphic" in2="effect1_dropShadow_32_14061" result="shape"/>
</filter>
<clipPath id="clip0_32_14061">
<rect y="0.5" width="220" height="48" rx="6" fill="white"/>
</clipPath>
</defs>
</svg>
