<svg width="132" height="24" viewBox="0 0 132 24" fill="none" xmlns="http://www.w3.org/2000/svg">
<g clip-path="url(#clip0_44_880)">
<path d="M11.9993 24C18.6269 24 23.9993 18.6276 23.9993 12V3.6C23.9993 2.64522 23.62 1.72955 22.9449 1.05442C22.2697 0.379285 21.3541 0 20.3993 0L12.5993 0V5.2644C12.5993 6.4656 12.6725 7.71 13.3025 8.7324C13.7535 9.46513 14.3568 10.0923 15.0716 10.5713C15.7863 11.0503 16.5957 11.37 17.4449 11.5086L17.6747 11.5458C17.7694 11.5782 17.8517 11.6394 17.9099 11.7208C17.9681 11.8023 17.9994 11.8999 17.9994 12C17.9994 12.1001 17.9681 12.1977 17.9099 12.2792C17.8517 12.3606 17.7694 12.4218 17.6747 12.4542L17.4449 12.4914C16.2042 12.6941 15.0585 13.2813 14.1695 14.1703C13.2806 15.0592 12.6933 16.2049 12.4907 17.4456L12.4535 17.6754C12.4211 17.7701 12.3599 17.8524 12.2785 17.9106C12.197 17.9688 12.0994 18.0002 11.9993 18.0002C11.8992 18.0002 11.8015 17.9688 11.7201 17.9106C11.6387 17.8524 11.5775 17.7701 11.5451 17.6754L11.5079 17.4456C11.3692 16.5965 11.0495 15.7871 10.5705 15.0723C10.0915 14.3576 9.46437 13.7542 8.73167 13.3032C7.70927 12.6732 6.46487 12.6 5.26367 12.6H0.0136719C0.327472 18.9486 5.57327 24 11.9993 24Z" fill="#B2B7BE"/>
<path d="M-0.00195312 11.4H5.26245C6.46365 11.4 7.70805 11.3268 8.73045 10.6968C9.52966 10.2044 10.2024 9.53161 10.6948 8.7324C11.3248 7.71 11.398 6.4656 11.398 5.2644V0H3.59805C2.64327 0 1.72759 0.379285 1.05246 1.05442C0.377331 1.72955 -0.00195312 2.64522 -0.00195312 3.6L-0.00195312 11.4ZM27.871 1.2C27.871 1.51826 27.7446 1.82348 27.5196 2.04853C27.2945 2.27357 26.9893 2.4 26.671 2.4C26.3528 2.4 26.0476 2.27357 25.8225 2.04853C25.5975 1.82348 25.471 1.51826 25.471 1.2C25.471 0.88174 25.5975 0.576516 25.8225 0.351472C26.0476 0.126428 26.3528 0 26.671 0C26.9893 0 27.2945 0.126428 27.5196 0.351472C27.7446 0.576516 27.871 0.88174 27.871 1.2ZM127.025 7.2624C130.379 7.2624 131.998 9.6054 131.998 12.3192V17.4162H128.487V12.924C128.487 11.694 128.039 10.6788 126.752 10.6788C125.465 10.6788 125.036 11.694 125.036 12.924V17.4156H121.525V12.924C121.525 11.694 121.096 10.6788 119.808 10.6788C118.521 10.6788 118.073 11.694 118.073 12.924V17.4156H114.563V12.3186C114.563 9.6048 116.181 7.2618 119.535 7.2618C121.369 7.2618 122.695 7.9842 123.3 9.1752C123.943 7.9842 125.348 7.2612 127.025 7.2612V7.2624ZM108.254 14.292C109.385 14.292 109.873 13.257 109.873 12.0264V7.6524H113.383V12.456C113.383 15.3264 111.706 17.709 108.254 17.709C104.802 17.709 103.125 15.327 103.125 12.456V7.6524H106.635V12.0264C106.635 13.2564 107.123 14.292 108.254 14.292ZM97.9631 17.7282C95.7592 17.7282 94.3354 16.9668 93.4966 15.483L96.0323 14.0574C96.3833 14.682 96.9094 14.9946 97.7872 14.9946C98.509 14.9946 98.8402 14.7408 98.8402 14.4282C98.8402 13.2372 93.6917 14.448 93.6917 10.6602C93.6917 8.8242 95.2517 7.3404 97.9043 7.3404C100.225 7.3404 101.493 8.4726 102.059 9.5664L99.523 11.0112C99.3089 10.4256 98.6453 10.074 97.9823 10.074C97.4753 10.074 97.2023 10.2888 97.2023 10.5816C97.2023 11.7924 102.351 10.6794 102.351 14.3502C102.351 16.4004 100.342 17.7282 97.9631 17.7282ZM85.6978 21.9072H82.1872V12.5148C82.1872 9.5268 84.4301 7.3596 87.5507 7.3596C90.5933 7.3596 92.914 9.6834 92.914 12.5148C92.914 15.639 90.8465 17.709 87.7457 17.709C87.0238 17.709 86.3026 17.4942 85.6978 17.1618V21.9072ZM87.5507 14.409C88.6625 14.409 89.4035 13.5498 89.4035 12.534C89.4035 11.4996 88.6625 10.6596 87.5507 10.6596C86.4389 10.6596 85.6978 11.4996 85.6978 12.5346C85.6978 13.5498 86.4389 14.409 87.5507 14.409ZM78.6707 6.618C77.5199 6.618 76.5647 5.661 76.5647 4.509C76.5647 3.357 77.5199 2.4 78.6707 2.4C79.8214 2.4 80.7773 3.357 80.7773 4.509C80.7773 5.661 79.8214 6.618 78.6707 6.618ZM76.9156 7.6524H80.4262V17.4162H76.9156V7.6524ZM70.1801 17.709C67.1375 17.709 64.8167 15.366 64.8167 12.5148C64.8167 9.6834 67.1375 7.3404 70.1801 7.3404C73.2226 7.3404 75.5434 9.6834 75.5434 12.5148C75.5434 15.366 73.2226 17.709 70.1801 17.709ZM70.1801 14.409C71.2918 14.409 72.0329 13.5498 72.0329 12.534C72.0329 11.4996 71.2918 10.6404 70.1801 10.6404C69.0683 10.6404 68.3273 11.4996 68.3273 12.534C68.3273 13.5498 69.0683 14.409 70.1801 14.409ZM58.1879 22.2C55.7699 22.2 54.0142 21.126 53.1172 19.212L56.023 17.6502C56.335 18.3144 56.9201 18.9978 58.1291 18.9978C59.3974 18.9978 60.2356 18.1968 60.3334 16.791C59.8654 17.2014 59.1239 17.5134 58.0126 17.5134C55.3013 17.5134 53.1166 15.4242 53.1166 12.495C53.1166 9.6642 55.438 7.3596 58.4806 7.3596C61.6012 7.3596 63.8441 9.5274 63.8441 12.5148V16.3812C63.8441 19.896 61.4057 22.2 58.1879 22.2ZM58.4218 14.214C59.4748 14.214 60.2746 13.491 60.2746 12.417C60.2746 11.3628 59.4754 10.6596 58.4218 10.6596C57.3881 10.6596 56.569 11.3628 56.569 12.4176C56.569 13.4916 57.3881 14.2134 58.4218 14.2134V14.214ZM47.1623 17.709C44.1197 17.709 41.7982 15.366 41.7982 12.5148C41.7982 9.6834 44.1197 7.3404 47.1623 7.3404C50.2043 7.3404 52.5256 9.6834 52.5256 12.5148C52.5256 15.366 50.2048 17.709 47.1623 17.709ZM47.1623 14.409C48.2741 14.409 49.015 13.5498 49.015 12.534C49.015 11.4996 48.2741 10.6404 47.1623 10.6404C46.0504 10.6404 45.3094 11.4996 45.3094 12.534C45.3094 13.5498 46.0504 14.409 47.1623 14.409ZM35.4058 4.236V14.0964H41.218V17.4162H34.918C32.695 17.4162 31.798 16.2444 31.798 14.3892V4.236H35.4058Z" fill="#B2B7BE"/>
</g>
<defs>
<clipPath id="clip0_44_880">
<rect width="132" height="24" fill="white"/>
</clipPath>
</defs>
</svg>
