<svg width="458" height="436" viewBox="0 0 458 436" fill="none" xmlns="http://www.w3.org/2000/svg">
<rect x="39" y="34.9988" width="328" height="356" rx="16" fill="white"/>
<path d="M0.931377 56.6407L57.385 76.9629L77.7071 20.5093L21.2535 0.187083L0.931377 56.6407Z" fill="black"/>
<rect x="63" y="53.9988" width="10" height="10" rx="5" fill="#FA85A4"/>
<rect x="83" y="53.9988" width="10" height="10" rx="5" fill="#FFE56E"/>
<rect x="103" y="53.9988" width="10" height="10" rx="5" fill="#52E282"/>
<rect x="149.83" y="46.9988" width="128.01" height="24" rx="12" fill="#F7F9FC"/>
<path d="M166.596 57.6366C166.558 57.3004 166.402 57.04 166.127 56.8553C165.852 56.6683 165.507 56.5748 165.09 56.5748C164.792 56.5748 164.534 56.6221 164.316 56.7168C164.098 56.8091 163.929 56.937 163.808 57.1003C163.69 57.2613 163.631 57.4448 163.631 57.6508C163.631 57.8236 163.671 57.9727 163.751 58.0982C163.834 58.2237 163.942 58.329 164.074 58.4143C164.209 58.4971 164.354 58.567 164.508 58.6238C164.662 58.6782 164.809 58.7232 164.952 58.7587L165.662 58.9434C165.894 59.0002 166.132 59.0771 166.376 59.1742C166.619 59.2713 166.845 59.3991 167.054 59.5577C167.262 59.7163 167.43 59.9128 167.558 60.1472C167.688 60.3816 167.753 60.6621 167.753 60.9888C167.753 61.4008 167.647 61.7665 167.434 62.0861C167.223 62.4057 166.916 62.6579 166.514 62.8425C166.114 63.0272 165.63 63.1195 165.062 63.1195C164.517 63.1195 164.046 63.0331 163.648 62.8603C163.251 62.6875 162.939 62.4424 162.714 62.1252C162.489 61.8056 162.365 61.4268 162.341 60.9888H163.442C163.464 61.2516 163.549 61.4706 163.698 61.6458C163.849 61.8186 164.042 61.9476 164.277 62.0329C164.514 62.1157 164.773 62.1572 165.055 62.1572C165.365 62.1572 165.64 62.1086 165.882 62.0116C166.126 61.9121 166.318 61.7748 166.457 61.5996C166.597 61.4221 166.667 61.2149 166.667 60.9782C166.667 60.7627 166.605 60.5864 166.482 60.4491C166.361 60.3118 166.197 60.1981 165.988 60.1082C165.782 60.0182 165.549 59.9389 165.289 59.8702L164.43 59.6359C163.847 59.4772 163.385 59.244 163.045 58.9363C162.706 58.6285 162.537 58.2213 162.537 57.7147C162.537 57.2957 162.65 56.9299 162.878 56.6174C163.105 56.3049 163.413 56.0622 163.801 55.8894C164.189 55.7142 164.627 55.6266 165.115 55.6266C165.607 55.6266 166.042 55.713 166.418 55.8859C166.797 56.0587 167.095 56.2966 167.313 56.5996C167.531 56.9003 167.644 57.2459 167.654 57.6366H166.596ZM172.435 60.7367V57.5442H173.5V62.9988H172.456V62.0542H172.399C172.274 62.3454 172.072 62.588 171.795 62.7822C171.521 62.9739 171.179 63.0698 170.769 63.0698C170.419 63.0698 170.109 62.9929 169.839 62.839C169.571 62.6827 169.361 62.4519 169.207 62.1465C169.055 61.8411 168.979 61.4635 168.979 61.0137V57.5442H170.041V60.8859C170.041 61.2575 170.144 61.5535 170.35 61.7736C170.556 61.9938 170.824 62.1039 171.153 62.1039C171.352 62.1039 171.549 62.0542 171.746 61.9547C171.945 61.8553 172.109 61.705 172.239 61.5038C172.372 61.3025 172.437 61.0468 172.435 60.7367ZM179.014 58.8759L178.052 59.0464C178.011 58.9233 177.948 58.8061 177.86 58.6948C177.775 58.5835 177.659 58.4924 177.512 58.4214C177.365 58.3503 177.182 58.3148 176.961 58.3148C176.661 58.3148 176.41 58.3823 176.209 58.5172C176.007 58.6498 175.907 58.8215 175.907 59.0322C175.907 59.2145 175.974 59.3612 176.109 59.4725C176.244 59.5838 176.462 59.6749 176.763 59.7459L177.629 59.9448C178.131 60.0608 178.505 60.2395 178.751 60.481C178.997 60.7225 179.121 61.0362 179.121 61.4221C179.121 61.7488 179.026 62.04 178.836 62.2957C178.649 62.549 178.388 62.7478 178.052 62.8922C177.718 63.0367 177.331 63.1089 176.89 63.1089C176.28 63.1089 175.781 62.9787 175.395 62.7182C175.01 62.4555 174.773 62.0826 174.685 61.5996L175.711 61.4434C175.775 61.7109 175.907 61.9133 176.106 62.0506C176.305 62.1856 176.564 62.253 176.883 62.253C177.231 62.253 177.51 62.1808 177.718 62.0364C177.926 61.8896 178.03 61.7109 178.03 61.5002C178.03 61.3297 177.966 61.1865 177.839 61.0705C177.713 60.9545 177.52 60.8669 177.26 60.8077L176.336 60.6053C175.827 60.4893 175.451 60.3047 175.207 60.0513C174.966 59.798 174.845 59.4772 174.845 59.089C174.845 58.767 174.935 58.4853 175.115 58.2438C175.295 58.0023 175.543 57.8141 175.861 57.6792C176.178 57.5419 176.541 57.4732 176.951 57.4732C177.54 57.4732 178.004 57.6011 178.343 57.8567C178.681 58.11 178.905 58.4498 179.014 58.8759ZM182.834 57.5442V58.3965H179.855V57.5442H182.834ZM180.654 56.2374H181.716V61.3972C181.716 61.6032 181.746 61.7582 181.808 61.8624C181.869 61.9642 181.949 62.0341 182.046 62.0719C182.145 62.1074 182.253 62.1252 182.369 62.1252C182.454 62.1252 182.529 62.1193 182.593 62.1074C182.657 62.0956 182.706 62.0861 182.742 62.079L182.934 62.9562C182.872 62.9798 182.784 63.0035 182.671 63.0272C182.557 63.0532 182.415 63.0674 182.245 63.0698C181.965 63.0745 181.705 63.0248 181.463 62.9207C181.222 62.8165 181.027 62.6555 180.877 62.4377C180.728 62.2199 180.654 61.9465 180.654 61.6174V56.2374ZM185.596 63.1195C185.25 63.1195 184.938 63.0556 184.659 62.9278C184.379 62.7975 184.158 62.6093 183.994 62.3631C183.834 62.1169 183.753 61.8151 183.753 61.4576C183.753 61.1498 183.812 60.8965 183.931 60.6976C184.049 60.4988 184.209 60.3413 184.41 60.2253C184.611 60.1093 184.836 60.0217 185.085 59.9626C185.333 59.9034 185.587 59.8584 185.845 59.8276C186.171 59.7897 186.436 59.759 186.64 59.7353C186.844 59.7092 186.992 59.6678 187.084 59.611C187.176 59.5542 187.222 59.4618 187.222 59.334V59.3091C187.222 58.999 187.135 58.7587 186.96 58.5883C186.787 58.4178 186.529 58.3326 186.186 58.3326C185.828 58.3326 185.546 58.4119 185.34 58.5705C185.137 58.7268 184.996 58.9008 184.918 59.0925L183.92 58.8653C184.038 58.5338 184.211 58.2663 184.438 58.0627C184.668 57.8567 184.932 57.7076 185.23 57.6153C185.529 57.5206 185.842 57.4732 186.171 57.4732C186.389 57.4732 186.62 57.4993 186.864 57.5513C187.11 57.6011 187.34 57.6934 187.553 57.8283C187.768 57.9633 187.945 58.1562 188.082 58.4072C188.219 58.6557 188.288 58.9789 188.288 59.3766V62.9988H187.251V62.253H187.208C187.14 62.3904 187.037 62.5253 186.899 62.6579C186.762 62.7904 186.586 62.9005 186.37 62.9881C186.155 63.0757 185.897 63.1195 185.596 63.1195ZM185.827 62.2672C186.12 62.2672 186.371 62.2092 186.58 62.0932C186.79 61.9772 186.95 61.8257 187.059 61.6387C187.17 61.4493 187.226 61.2469 187.226 61.0314V60.3283C187.188 60.3662 187.115 60.4017 187.006 60.4349C186.899 60.4656 186.777 60.4929 186.64 60.5165C186.503 60.5378 186.369 60.558 186.239 60.5769C186.109 60.5935 186 60.6077 185.912 60.6195C185.706 60.6456 185.518 60.6894 185.347 60.7509C185.179 60.8125 185.044 60.9012 184.943 61.0172C184.843 61.1309 184.794 61.2824 184.794 61.4718C184.794 61.7346 184.891 61.9334 185.085 62.0684C185.279 62.201 185.526 62.2672 185.827 62.2672ZM189.702 62.9988V57.5442H190.764V62.9988H189.702ZM190.238 56.7026C190.054 56.7026 189.895 56.6411 189.762 56.518C189.632 56.3925 189.567 56.2433 189.567 56.0705C189.567 55.8953 189.632 55.7462 189.762 55.6231C189.895 55.4976 190.054 55.4349 190.238 55.4349C190.423 55.4349 190.58 55.4976 190.711 55.6231C190.843 55.7462 190.909 55.8953 190.909 56.0705C190.909 56.2433 190.843 56.3925 190.711 56.518C190.58 56.6411 190.423 56.7026 190.238 56.7026ZM193.254 59.7601V62.9988H192.192V57.5442H193.211V58.432H193.279C193.404 58.1432 193.601 57.9112 193.868 57.736C194.138 57.5608 194.478 57.4732 194.888 57.4732C195.259 57.4732 195.585 57.5513 195.864 57.7076C196.144 57.8615 196.36 58.0911 196.514 58.3965C196.668 58.7019 196.745 59.0795 196.745 59.5293V62.9988H195.683V59.6572C195.683 59.2618 195.58 58.9529 195.374 58.7303C195.168 58.5054 194.885 58.393 194.525 58.393C194.279 58.393 194.06 58.4462 193.868 58.5528C193.679 58.6593 193.529 58.8155 193.417 59.0215C193.309 59.2251 193.254 59.4713 193.254 59.7601ZM199.756 63.1195C199.411 63.1195 199.098 63.0556 198.819 62.9278C198.539 62.7975 198.318 62.6093 198.155 62.3631C197.994 62.1169 197.913 61.8151 197.913 61.4576C197.913 61.1498 197.972 60.8965 198.091 60.6976C198.209 60.4988 198.369 60.3413 198.57 60.2253C198.771 60.1093 198.996 60.0217 199.245 59.9626C199.493 59.9034 199.747 59.8584 200.005 59.8276C200.331 59.7897 200.597 59.759 200.8 59.7353C201.004 59.7092 201.152 59.6678 201.244 59.611C201.336 59.5542 201.383 59.4618 201.383 59.334V59.3091C201.383 58.999 201.295 58.7587 201.12 58.5883C200.947 58.4178 200.689 58.3326 200.346 58.3326C199.988 58.3326 199.706 58.4119 199.501 58.5705C199.297 58.7268 199.156 58.9008 199.078 59.0925L198.08 58.8653C198.198 58.5338 198.371 58.2663 198.599 58.0627C198.828 57.8567 199.092 57.7076 199.39 57.6153C199.689 57.5206 200.002 57.4732 200.331 57.4732C200.549 57.4732 200.78 57.4993 201.024 57.5513C201.27 57.6011 201.5 57.6934 201.713 57.8283C201.928 57.9633 202.105 58.1562 202.242 58.4072C202.379 58.6557 202.448 58.9789 202.448 59.3766V62.9988H201.411V62.253H201.368C201.3 62.3904 201.197 62.5253 201.059 62.6579C200.922 62.7904 200.746 62.9005 200.53 62.9881C200.315 63.0757 200.057 63.1195 199.756 63.1195ZM199.987 62.2672C200.281 62.2672 200.532 62.2092 200.74 62.0932C200.951 61.9772 201.11 61.8257 201.219 61.6387C201.331 61.4493 201.386 61.2469 201.386 61.0314V60.3283C201.348 60.3662 201.275 60.4017 201.166 60.4349C201.059 60.4656 200.938 60.4929 200.8 60.5165C200.663 60.5378 200.529 60.558 200.399 60.5769C200.269 60.5935 200.16 60.6077 200.072 60.6195C199.866 60.6456 199.678 60.6894 199.508 60.7509C199.34 60.8125 199.205 60.9012 199.103 61.0172C199.003 61.1309 198.954 61.2824 198.954 61.4718C198.954 61.7346 199.051 61.9334 199.245 62.0684C199.439 62.201 199.686 62.2672 199.987 62.2672ZM203.947 62.9988V55.7261H205.009V58.4285H205.073C205.135 58.3148 205.223 58.1834 205.339 58.0343C205.455 57.8851 205.616 57.7549 205.822 57.6437C206.028 57.53 206.301 57.4732 206.639 57.4732C207.08 57.4732 207.473 57.5845 207.818 57.807C208.164 58.0296 208.435 58.3503 208.631 58.7694C208.83 59.1884 208.93 59.6927 208.93 60.2822C208.93 60.8716 208.831 61.3771 208.635 61.7985C208.438 62.2175 208.169 62.5407 207.825 62.768C207.482 62.9929 207.09 63.1053 206.65 63.1053C206.318 63.1053 206.047 63.0497 205.837 62.9384C205.628 62.8271 205.465 62.6969 205.347 62.5478C205.228 62.3986 205.137 62.2661 205.073 62.1501H204.984V62.9988H203.947ZM204.988 60.2715C204.988 60.655 205.044 60.9912 205.155 61.28C205.266 61.5689 205.427 61.7949 205.638 61.9583C205.848 62.1193 206.107 62.1998 206.412 62.1998C206.729 62.1998 206.994 62.1157 207.207 61.9476C207.42 61.7772 207.581 61.5464 207.69 61.2552C207.802 60.964 207.857 60.6361 207.857 60.2715C207.857 59.9117 207.803 59.5885 207.694 59.302C207.587 59.0156 207.426 58.7895 207.211 58.6238C206.998 58.4581 206.732 58.3752 206.412 58.3752C206.104 58.3752 205.844 58.4545 205.631 58.6131C205.42 58.7717 205.26 58.9931 205.151 59.2772C205.042 59.5613 204.988 59.8927 204.988 60.2715ZM211.184 55.7261V62.9988H210.122V55.7261H211.184ZM214.963 63.1089C214.426 63.1089 213.963 62.994 213.575 62.7644C213.189 62.5324 212.89 62.2069 212.68 61.7878C212.471 61.3664 212.367 60.8728 212.367 60.307C212.367 59.7483 212.471 59.2559 212.68 58.8297C212.89 58.4036 213.184 58.071 213.56 57.8319C213.939 57.5928 214.382 57.4732 214.888 57.4732C215.196 57.4732 215.495 57.5241 215.783 57.6259C216.072 57.7277 216.331 57.8875 216.561 58.1053C216.791 58.3231 216.972 58.606 217.104 58.954C217.237 59.2997 217.303 59.7199 217.303 60.2147V60.5911H212.967V59.7957H216.263C216.263 59.5163 216.206 59.2689 216.092 59.0535C215.979 58.8357 215.819 58.664 215.613 58.5386C215.409 58.4131 215.17 58.3503 214.896 58.3503C214.597 58.3503 214.337 58.4237 214.114 58.5705C213.894 58.7149 213.724 58.9043 213.603 59.1387C213.485 59.3707 213.425 59.6228 213.425 59.8951V60.5165C213.425 60.8811 213.489 61.1913 213.617 61.4469C213.747 61.7026 213.929 61.8979 214.161 62.0329C214.393 62.1654 214.664 62.2317 214.974 62.2317C215.175 62.2317 215.358 62.2033 215.524 62.1465C215.69 62.0873 215.833 61.9997 215.954 61.8837C216.075 61.7677 216.167 61.6245 216.231 61.454L217.236 61.6351C217.155 61.9311 217.011 62.1903 216.803 62.4128C216.597 62.633 216.337 62.8047 216.025 62.9278C215.715 63.0485 215.361 63.1089 214.963 63.1089ZM218.567 62.9988V55.7261H223.077V56.6707H219.664V58.8866H222.753V59.8276H219.664V62.9988H218.567ZM224.272 62.9988V57.5442H225.299V58.4107H225.355C225.455 58.1172 225.63 57.8863 225.881 57.7182C226.134 57.5478 226.421 57.4626 226.74 57.4626C226.807 57.4626 226.885 57.4649 226.975 57.4697C227.067 57.4744 227.139 57.4803 227.191 57.4874V58.503C227.149 58.4912 227.073 58.4782 226.964 58.464C226.855 58.4474 226.746 58.4391 226.637 58.4391C226.386 58.4391 226.163 58.4924 225.966 58.5989C225.772 58.7031 225.618 58.8487 225.505 59.0357C225.391 59.2204 225.334 59.4311 225.334 59.6678V62.9988H224.272ZM230.213 63.1089C229.701 63.1089 229.255 62.9917 228.874 62.7573C228.493 62.5229 228.197 62.195 227.986 61.7736C227.775 61.3522 227.67 60.8598 227.67 60.2964C227.67 59.7305 227.775 59.2358 227.986 58.812C228.197 58.3882 228.493 58.0591 228.874 57.8248C229.255 57.5904 229.701 57.4732 230.213 57.4732C230.724 57.4732 231.17 57.5904 231.551 57.8248C231.932 58.0591 232.228 58.3882 232.439 58.812C232.65 59.2358 232.755 59.7305 232.755 60.2964C232.755 60.8598 232.65 61.3522 232.439 61.7736C232.228 62.195 231.932 62.5229 231.551 62.7573C231.17 62.9917 230.724 63.1089 230.213 63.1089ZM230.216 62.2175C230.548 62.2175 230.822 62.1299 231.04 61.9547C231.258 61.7796 231.419 61.5464 231.523 61.2552C231.629 60.964 231.683 60.6432 231.683 60.2928C231.683 59.9448 231.629 59.6252 231.523 59.334C231.419 59.0404 231.258 58.8049 231.04 58.6273C230.822 58.4498 230.548 58.361 230.216 58.361C229.882 58.361 229.605 58.4498 229.385 58.6273C229.167 58.8049 229.005 59.0404 228.899 59.334C228.794 59.6252 228.742 59.9448 228.742 60.2928C228.742 60.6432 228.794 60.964 228.899 61.2552C229.005 61.5464 229.167 61.7796 229.385 61.9547C229.605 62.1299 229.882 62.2175 230.216 62.2175ZM233.94 62.9988V57.5442H234.96V58.432H235.027C235.141 58.1314 235.326 57.897 235.585 57.7289C235.843 57.5584 236.152 57.4732 236.511 57.4732C236.876 57.4732 237.181 57.5584 237.428 57.7289C237.676 57.8993 237.86 58.1337 237.978 58.432H238.035C238.165 58.1408 238.372 57.9088 238.656 57.736C238.94 57.5608 239.279 57.4732 239.672 57.4732C240.167 57.4732 240.57 57.6283 240.883 57.9384C241.198 58.2485 241.355 58.7161 241.355 59.3411V62.9988H240.293V59.4405C240.293 59.0712 240.193 58.8037 239.991 58.638C239.79 58.4723 239.55 58.3894 239.271 58.3894C238.925 58.3894 238.656 58.4959 238.464 58.709C238.273 58.9197 238.177 59.1908 238.177 59.5222V62.9988H237.119V59.3731C237.119 59.0771 237.026 58.8392 236.842 58.6593C236.657 58.4794 236.417 58.3894 236.121 58.3894C235.92 58.3894 235.734 58.4427 235.563 58.5492C235.395 58.6534 235.259 58.799 235.155 58.986C235.053 59.173 235.002 59.3896 235.002 59.6359V62.9988H233.94ZM243.478 63.0663C243.284 63.0663 243.117 62.9976 242.977 62.8603C242.837 62.7206 242.768 62.5525 242.768 62.356C242.768 62.1619 242.837 61.9962 242.977 61.8589C243.117 61.7192 243.284 61.6493 243.478 61.6493C243.672 61.6493 243.839 61.7192 243.979 61.8589C244.118 61.9962 244.188 62.1619 244.188 62.356C244.188 62.4862 244.155 62.6058 244.089 62.7147C244.025 62.8212 243.939 62.9064 243.833 62.9704C243.726 63.0343 243.608 63.0663 243.478 63.0663ZM247.908 63.1089C247.38 63.1089 246.925 62.9893 246.544 62.7502C246.165 62.5087 245.874 62.1761 245.671 61.7523C245.467 61.3286 245.365 60.8432 245.365 60.2964C245.365 59.7424 245.469 59.2535 245.678 58.8297C245.886 58.4036 246.18 58.071 246.558 57.8319C246.937 57.5928 247.383 57.4732 247.897 57.4732C248.311 57.4732 248.681 57.5502 249.005 57.704C249.329 57.8555 249.591 58.0686 249.79 58.3432C249.991 58.6179 250.111 58.9386 250.149 59.3056H249.115C249.058 59.0499 248.928 58.8297 248.725 58.6451C248.523 58.4604 248.253 58.3681 247.915 58.3681C247.619 58.3681 247.36 58.4462 247.137 58.6025C246.917 58.7564 246.745 58.9765 246.622 59.263C246.499 59.5471 246.438 59.8832 246.438 60.2715C246.438 60.6692 246.498 61.0125 246.619 61.3013C246.74 61.5902 246.91 61.8139 247.13 61.9725C247.353 62.1311 247.614 62.2104 247.915 62.2104C248.116 62.2104 248.298 62.1737 248.462 62.1003C248.628 62.0246 248.766 61.9169 248.877 61.7772C248.991 61.6375 249.07 61.4694 249.115 61.2729H250.149C250.111 61.6257 249.996 61.9405 249.804 62.2175C249.612 62.4945 249.356 62.7123 249.034 62.8709C248.714 63.0296 248.339 63.1089 247.908 63.1089ZM253.582 63.1089C253.07 63.1089 252.624 62.9917 252.243 62.7573C251.862 62.5229 251.566 62.195 251.355 61.7736C251.144 61.3522 251.039 60.8598 251.039 60.2964C251.039 59.7305 251.144 59.2358 251.355 58.812C251.566 58.3882 251.862 58.0591 252.243 57.8248C252.624 57.5904 253.07 57.4732 253.582 57.4732C254.093 57.4732 254.539 57.5904 254.92 57.8248C255.302 58.0591 255.598 58.3882 255.808 58.812C256.019 59.2358 256.124 59.7305 256.124 60.2964C256.124 60.8598 256.019 61.3522 255.808 61.7736C255.598 62.195 255.302 62.5229 254.92 62.7573C254.539 62.9917 254.093 63.1089 253.582 63.1089ZM253.585 62.2175C253.917 62.2175 254.191 62.1299 254.409 61.9547C254.627 61.7796 254.788 61.5464 254.892 61.2552C254.999 60.964 255.052 60.6432 255.052 60.2928C255.052 59.9448 254.999 59.6252 254.892 59.334C254.788 59.0404 254.627 58.8049 254.409 58.6273C254.191 58.4498 253.917 58.361 253.585 58.361C253.251 58.361 252.974 58.4498 252.754 58.6273C252.536 58.8049 252.374 59.0404 252.268 59.334C252.164 59.6252 252.112 59.9448 252.112 60.2928C252.112 60.6432 252.164 60.964 252.268 61.2552C252.374 61.5464 252.536 61.7796 252.754 61.9547C252.974 62.1299 253.251 62.2175 253.585 62.2175ZM257.309 62.9988V57.5442H258.329V58.432H258.396C258.51 58.1314 258.696 57.897 258.954 57.7289C259.212 57.5584 259.521 57.4732 259.881 57.4732C260.245 57.4732 260.55 57.5584 260.797 57.7289C261.045 57.8993 261.229 58.1337 261.347 58.432H261.404C261.534 58.1408 261.741 57.9088 262.025 57.736C262.309 57.5608 262.648 57.4732 263.041 57.4732C263.536 57.4732 263.939 57.6283 264.252 57.9384C264.567 58.2485 264.724 58.7161 264.724 59.3411V62.9988H263.662V59.4405C263.662 59.0712 263.562 58.8037 263.361 58.638C263.159 58.4723 262.919 58.3894 262.64 58.3894C262.294 58.3894 262.025 58.4959 261.834 58.709C261.642 58.9197 261.546 59.1908 261.546 59.5222V62.9988H260.488V59.3731C260.488 59.0771 260.395 58.8392 260.211 58.6593C260.026 58.4794 259.786 58.3894 259.49 58.3894C259.289 58.3894 259.103 58.4427 258.932 58.5492C258.764 58.6534 258.628 58.799 258.524 58.986C258.422 59.173 258.371 59.3896 258.371 59.6359V62.9988H257.309Z" fill="#6C6F93"/>
<path d="M64.0568 110.999V102.272H69.2898V103.209H65.1136V106.158H68.8977V107.095H65.1136V110.999H64.0568ZM74.5583 108.323V104.453H75.5639V110.999H74.5583V109.891H74.4901C74.3367 110.223 74.098 110.506 73.7742 110.739C73.4503 110.969 73.0412 111.084 72.5469 111.084C72.1378 111.084 71.7742 110.995 71.456 110.816C71.1378 110.634 70.8878 110.361 70.706 109.997C70.5242 109.631 70.4333 109.169 70.4333 108.612V104.453H71.4389V108.544C71.4389 109.022 71.5725 109.402 71.8395 109.686C72.1094 109.97 72.4532 110.112 72.8708 110.112C73.1208 110.112 73.375 110.048 73.6336 109.921C73.8949 109.793 74.1137 109.597 74.2898 109.333C74.4688 109.068 74.5583 108.732 74.5583 108.323ZM78.2916 102.272V110.999H77.2859V102.272H78.2916ZM81.0193 102.272V110.999H80.0136V102.272H81.0193ZM93.0531 102.272V110.999H92.0303L87.2746 104.147H87.1894V110.999H86.1326V102.272H87.1553L91.9281 109.141H92.0133V102.272H93.0531ZM96.8375 111.152C96.4228 111.152 96.0463 111.074 95.7083 110.918C95.3702 110.759 95.1017 110.53 94.9029 110.232C94.704 109.931 94.6046 109.567 94.6046 109.141C94.6046 108.766 94.6784 108.462 94.8262 108.229C94.9739 107.993 95.1713 107.808 95.4185 107.675C95.6657 107.541 95.9384 107.442 96.2367 107.377C96.5378 107.308 96.8404 107.254 97.1443 107.215C97.5421 107.164 97.8645 107.125 98.1117 107.1C98.3617 107.071 98.5435 107.024 98.6571 106.959C98.7736 106.894 98.8318 106.78 98.8318 106.618V106.584C98.8318 106.164 98.7168 105.837 98.4867 105.604C98.2594 105.371 97.9142 105.254 97.4512 105.254C96.9711 105.254 96.5946 105.36 96.3219 105.57C96.0492 105.78 95.8574 106.004 95.7466 106.243L94.7921 105.902C94.9625 105.504 95.1898 105.195 95.4739 104.973C95.7608 104.749 96.0733 104.593 96.4114 104.504C96.7523 104.414 97.0875 104.368 97.4171 104.368C97.6273 104.368 97.8688 104.394 98.1415 104.445C98.4171 104.493 98.6827 104.594 98.9384 104.747C99.1969 104.901 99.4114 105.132 99.5818 105.442C99.7523 105.752 99.8375 106.166 99.8375 106.686V110.999H98.8318V110.112H98.7807C98.7125 110.254 98.5989 110.406 98.4398 110.568C98.2807 110.73 98.0691 110.868 97.8049 110.982C97.5407 111.095 97.2182 111.152 96.8375 111.152ZM96.9909 110.249C97.3887 110.249 97.7239 110.171 97.9966 110.014C98.2722 109.858 98.4796 109.656 98.6188 109.409C98.7608 109.162 98.8318 108.902 98.8318 108.629V107.709C98.7892 107.76 98.6955 107.807 98.5506 107.85C98.4086 107.889 98.2438 107.925 98.0563 107.956C97.8716 107.985 97.6912 108.01 97.5151 108.033C97.3418 108.053 97.2012 108.07 97.0932 108.084C96.8318 108.118 96.5875 108.173 96.3603 108.25C96.1358 108.324 95.954 108.436 95.8148 108.587C95.6784 108.735 95.6103 108.936 95.6103 109.192C95.6103 109.541 95.7395 109.806 95.998 109.985C96.2594 110.161 96.5904 110.249 96.9909 110.249ZM101.553 110.999V104.453H102.525V105.476H102.61C102.746 105.127 102.966 104.855 103.27 104.662C103.574 104.466 103.939 104.368 104.366 104.368C104.797 104.368 105.157 104.466 105.444 104.662C105.734 104.855 105.959 105.127 106.121 105.476H106.189C106.357 105.138 106.609 104.87 106.944 104.671C107.279 104.469 107.681 104.368 108.15 104.368C108.735 104.368 109.214 104.551 109.586 104.918C109.958 105.281 110.144 105.848 110.144 106.618V110.999H109.138V106.618C109.138 106.135 109.006 105.79 108.742 105.583C108.478 105.375 108.167 105.272 107.809 105.272C107.349 105.272 106.992 105.411 106.739 105.689C106.486 105.965 106.36 106.314 106.36 106.737V110.999H105.337V106.516C105.337 106.144 105.216 105.844 104.975 105.617C104.734 105.387 104.422 105.272 104.042 105.272C103.78 105.272 103.536 105.341 103.309 105.48C103.084 105.62 102.903 105.813 102.763 106.06C102.627 106.304 102.559 106.587 102.559 106.908V110.999H101.553ZM114.607 111.135C113.976 111.135 113.432 110.996 112.975 110.718C112.52 110.436 112.17 110.044 111.922 109.541C111.678 109.036 111.556 108.448 111.556 107.777C111.556 107.107 111.678 106.516 111.922 106.004C112.17 105.49 112.513 105.09 112.954 104.803C113.397 104.513 113.914 104.368 114.505 104.368C114.846 104.368 115.182 104.425 115.515 104.539C115.847 104.652 116.15 104.837 116.422 105.093C116.695 105.345 116.913 105.681 117.074 106.098C117.236 106.516 117.317 107.03 117.317 107.641V108.067H112.272V107.198H116.295C116.295 106.828 116.221 106.499 116.073 106.209C115.928 105.919 115.721 105.691 115.451 105.523C115.184 105.355 114.868 105.272 114.505 105.272C114.104 105.272 113.758 105.371 113.465 105.57C113.175 105.766 112.952 106.022 112.796 106.337C112.64 106.652 112.562 106.99 112.562 107.351V107.931C112.562 108.425 112.647 108.844 112.817 109.188C112.991 109.529 113.231 109.789 113.538 109.968C113.844 110.144 114.201 110.232 114.607 110.232C114.871 110.232 115.11 110.195 115.323 110.121C115.539 110.044 115.725 109.931 115.881 109.78C116.038 109.627 116.158 109.436 116.243 109.209L117.215 109.482C117.113 109.811 116.941 110.101 116.699 110.351C116.458 110.598 116.16 110.791 115.805 110.931C115.449 111.067 115.05 111.135 114.607 111.135Z" fill="#0E0B3D"/>
<rect x="63.5" y="119.749" width="279" height="31.5" rx="5.5" stroke="#F0F0F2"/>
<path d="M64.0568 190.749V182.022H69.3239V182.959H65.1136V185.908H69.0511V186.845H65.1136V189.811H69.392V190.749H64.0568ZM70.9723 190.749V184.203H71.9439V185.226H72.0291C72.1655 184.877 72.3857 184.605 72.6897 184.412C72.9936 184.216 73.3587 184.118 73.7848 184.118C74.2166 184.118 74.576 184.216 74.863 184.412C75.1527 184.605 75.3786 184.877 75.5405 185.226H75.6087C75.7763 184.888 76.0277 184.62 76.363 184.421C76.6982 184.219 77.1002 184.118 77.5689 184.118C78.1541 184.118 78.6328 184.301 79.005 184.668C79.3772 185.031 79.5632 185.598 79.5632 186.368V190.749H78.5576V186.368C78.5576 185.885 78.4255 185.54 78.1613 185.333C77.897 185.125 77.586 185.022 77.228 185.022C76.7678 185.022 76.4113 185.161 76.1584 185.439C75.9056 185.715 75.7791 186.064 75.7791 186.487V190.749H74.7564V186.266C74.7564 185.894 74.6357 185.594 74.3942 185.367C74.1527 185.137 73.8416 185.022 73.461 185.022C73.1996 185.022 72.9553 185.091 72.728 185.23C72.5036 185.37 72.3218 185.563 72.1826 185.81C72.0462 186.054 71.978 186.337 71.978 186.658V190.749H70.9723ZM83.2082 190.902C82.7934 190.902 82.417 190.824 82.0789 190.668C81.7408 190.509 81.4724 190.28 81.2735 189.982C81.0746 189.681 80.9752 189.317 80.9752 188.891C80.9752 188.516 81.0491 188.212 81.1968 187.979C81.3445 187.743 81.542 187.558 81.7891 187.425C82.0363 187.291 82.309 187.192 82.6073 187.127C82.9084 187.058 83.211 187.004 83.515 186.965C83.9127 186.914 84.2351 186.875 84.4823 186.85C84.7323 186.821 84.9141 186.774 85.0278 186.709C85.1442 186.644 85.2025 186.53 85.2025 186.368V186.334C85.2025 185.914 85.0874 185.587 84.8573 185.354C84.63 185.121 84.2849 185.004 83.8218 185.004C83.3417 185.004 82.9653 185.11 82.6925 185.32C82.4198 185.53 82.228 185.754 82.1172 185.993L81.1627 185.652C81.3332 185.254 81.5604 184.945 81.8445 184.723C82.1314 184.499 82.4439 184.343 82.782 184.254C83.1229 184.164 83.4582 184.118 83.7877 184.118C83.9979 184.118 84.2394 184.144 84.5121 184.195C84.7877 184.243 85.0533 184.344 85.309 184.497C85.5675 184.651 85.782 184.882 85.9525 185.192C86.1229 185.502 86.2082 185.916 86.2082 186.436V190.749H85.2025V189.862H85.1513C85.0832 190.004 84.9695 190.156 84.8104 190.318C84.6513 190.48 84.4397 190.618 84.1755 190.732C83.9113 190.845 83.5888 190.902 83.2082 190.902ZM83.3616 189.999C83.7593 189.999 84.0945 189.921 84.3672 189.764C84.6428 189.608 84.8502 189.406 84.9894 189.159C85.1314 188.912 85.2025 188.652 85.2025 188.379V187.459C85.1599 187.51 85.0661 187.557 84.9212 187.6C84.7792 187.639 84.6144 187.675 84.4269 187.706C84.2422 187.735 84.0618 187.76 83.8857 187.783C83.7124 187.803 83.5718 187.82 83.4638 187.834C83.2025 187.868 82.9582 187.923 82.7309 188C82.5064 188.074 82.3246 188.186 82.1854 188.337C82.0491 188.485 81.9809 188.686 81.9809 188.942C81.9809 189.291 82.1101 189.556 82.3687 189.735C82.63 189.911 82.961 189.999 83.3616 189.999ZM87.9237 190.749V184.203H88.9294V190.749H87.9237ZM88.4351 183.112C88.2391 183.112 88.07 183.046 87.928 182.912C87.7888 182.779 87.7192 182.618 87.7192 182.431C87.7192 182.243 87.7888 182.083 87.928 181.949C88.07 181.816 88.2391 181.749 88.4351 181.749C88.6311 181.749 88.7987 181.816 88.9379 181.949C89.08 182.083 89.151 182.243 89.151 182.431C89.151 182.618 89.08 182.779 88.9379 182.912C88.7987 183.046 88.6311 183.112 88.4351 183.112ZM91.6571 182.022V190.749H90.6514V182.022H91.6571Z" fill="#0E0B3D"/>
<rect x="63.5" y="199.499" width="271.9" height="31.5" rx="5.5" stroke="#F0F0F2"/>
<g clip-path="url(#clip0_44_7344)">
<path d="M72.9261 215.811V219.749H71.9205V213.203H72.892V214.226H72.9773C73.1307 213.894 73.3636 213.627 73.6761 213.425C73.9886 213.22 74.392 213.118 74.8864 213.118C75.3295 213.118 75.7173 213.209 76.0497 213.391C76.3821 213.57 76.6406 213.843 76.8253 214.209C77.0099 214.573 77.1023 215.033 77.1023 215.59V219.749H76.0966V215.658C76.0966 215.144 75.9631 214.743 75.696 214.456C75.429 214.166 75.0625 214.022 74.5966 214.022C74.2756 214.022 73.9886 214.091 73.7358 214.23C73.4858 214.37 73.2884 214.573 73.1435 214.84C72.9986 215.107 72.9261 215.431 72.9261 215.811ZM80.7461 219.902C80.3313 219.902 79.9549 219.824 79.6169 219.668C79.2788 219.509 79.0103 219.28 78.8115 218.982C78.6126 218.681 78.5132 218.317 78.5132 217.891C78.5132 217.516 78.587 217.212 78.7348 216.979C78.8825 216.743 79.0799 216.558 79.3271 216.425C79.5742 216.291 79.847 216.192 80.1453 216.127C80.4464 216.058 80.749 216.004 81.0529 215.965C81.4507 215.914 81.7731 215.875 82.0203 215.85C82.2703 215.821 82.4521 215.774 82.5657 215.709C82.6822 215.644 82.7404 215.53 82.7404 215.368V215.334C82.7404 214.914 82.6254 214.587 82.3953 214.354C82.168 214.121 81.8228 214.004 81.3598 214.004C80.8796 214.004 80.5032 214.11 80.2305 214.32C79.9578 214.53 79.766 214.754 79.6552 214.993L78.7007 214.652C78.8711 214.254 79.0984 213.945 79.3825 213.723C79.6694 213.499 79.9819 213.343 80.32 213.254C80.6609 213.164 80.9961 213.118 81.3257 213.118C81.5359 213.118 81.7774 213.144 82.0501 213.195C82.3257 213.243 82.5913 213.344 82.847 213.497C83.1055 213.651 83.32 213.882 83.4904 214.192C83.6609 214.502 83.7461 214.916 83.7461 215.436V219.749H82.7404V218.862H82.6893C82.6211 219.004 82.5075 219.156 82.3484 219.318C82.1893 219.48 81.9777 219.618 81.7135 219.732C81.4492 219.845 81.1268 219.902 80.7461 219.902ZM80.8995 218.999C81.2973 218.999 81.6325 218.921 81.9052 218.764C82.1808 218.608 82.3882 218.406 82.5274 218.159C82.6694 217.912 82.7404 217.652 82.7404 217.379V216.459C82.6978 216.51 82.6041 216.557 82.4592 216.6C82.3171 216.639 82.1524 216.675 81.9649 216.706C81.7802 216.735 81.5998 216.76 81.4237 216.783C81.2504 216.803 81.1098 216.82 81.0018 216.834C80.7404 216.868 80.4961 216.923 80.2688 217C80.0444 217.074 79.8626 217.186 79.7234 217.337C79.587 217.485 79.5188 217.686 79.5188 217.942C79.5188 218.291 79.6481 218.556 79.9066 218.735C80.168 218.911 80.499 218.999 80.8995 218.999ZM85.4617 219.749V213.203H86.4333V214.226H86.5185C86.6549 213.877 86.8751 213.605 87.179 213.412C87.483 213.216 87.8481 213.118 88.2742 213.118C88.706 213.118 89.0654 213.216 89.3523 213.412C89.6421 213.605 89.868 213.877 90.0299 214.226H90.0981C90.2657 213.888 90.5171 213.62 90.8523 213.421C91.1876 213.219 91.5895 213.118 92.0583 213.118C92.6435 213.118 93.1222 213.301 93.4944 213.668C93.8665 214.031 94.0526 214.598 94.0526 215.368V219.749H93.0469V215.368C93.0469 214.885 92.9148 214.54 92.6506 214.333C92.3864 214.125 92.0753 214.022 91.7174 214.022C91.2572 214.022 90.9006 214.161 90.6478 214.439C90.3949 214.715 90.2685 215.064 90.2685 215.487V219.749H89.2458V215.266C89.2458 214.894 89.1251 214.594 88.8836 214.367C88.6421 214.137 88.331 214.022 87.9503 214.022C87.689 214.022 87.4447 214.091 87.2174 214.23C86.993 214.37 86.8111 214.563 86.6719 214.81C86.5356 215.054 86.4674 215.337 86.4674 215.658V219.749H85.4617ZM98.5157 219.885C97.885 219.885 97.341 219.746 96.8836 219.468C96.4291 219.186 96.0782 218.794 95.8311 218.291C95.5867 217.786 95.4646 217.198 95.4646 216.527C95.4646 215.857 95.5867 215.266 95.8311 214.754C96.0782 214.24 96.422 213.84 96.8623 213.553C97.3055 213.263 97.8225 213.118 98.4134 213.118C98.7543 213.118 99.091 213.175 99.4234 213.289C99.7558 213.402 100.058 213.587 100.331 213.843C100.604 214.095 100.821 214.431 100.983 214.848C101.145 215.266 101.226 215.78 101.226 216.391V216.817H96.1805V215.948H100.203C100.203 215.578 100.129 215.249 99.9816 214.959C99.8367 214.669 99.6293 214.441 99.3595 214.273C99.0924 214.105 98.7771 214.022 98.4134 214.022C98.0129 214.022 97.6663 214.121 97.3737 214.32C97.0839 214.516 96.8609 214.772 96.7046 215.087C96.5484 215.402 96.4703 215.74 96.4703 216.101V216.681C96.4703 217.175 96.5555 217.594 96.7259 217.938C96.8992 218.279 97.1393 218.539 97.4461 218.718C97.7529 218.894 98.1095 218.982 98.5157 218.982C98.7799 218.982 99.0186 218.945 99.2316 218.871C99.4475 218.794 99.6336 218.681 99.7899 218.53C99.9461 218.377 100.067 218.186 100.152 217.959L101.124 218.232C101.021 218.561 100.85 218.851 100.608 219.101C100.367 219.348 100.068 219.541 99.7132 219.681C99.358 219.817 98.9589 219.885 98.5157 219.885ZM107.664 222.05C106.795 222.05 106.026 221.931 105.359 221.692C104.691 221.456 104.13 221.108 103.676 220.648C103.221 220.188 102.877 219.624 102.644 218.956C102.411 218.289 102.295 217.524 102.295 216.664C102.295 215.831 102.413 215.087 102.649 214.431C102.887 213.774 103.232 213.218 103.684 212.76C104.139 212.3 104.69 211.949 105.337 211.708C105.988 211.466 106.724 211.345 107.545 211.345C108.343 211.345 109.042 211.476 109.641 211.737C110.244 211.996 110.747 212.347 111.15 212.79C111.556 213.23 111.86 213.726 112.062 214.277C112.266 214.828 112.369 215.397 112.369 215.982C112.369 216.394 112.349 216.811 112.309 217.235C112.269 217.658 112.185 218.047 112.058 218.402C111.93 218.754 111.732 219.039 111.465 219.254C111.201 219.47 110.843 219.578 110.391 219.578C110.193 219.578 109.974 219.547 109.735 219.485C109.497 219.422 109.285 219.318 109.1 219.173C108.916 219.029 108.806 218.834 108.772 218.59H108.721C108.653 218.754 108.548 218.911 108.406 219.058C108.266 219.206 108.083 219.324 107.856 219.412C107.632 219.5 107.357 219.539 107.033 219.527C106.664 219.513 106.339 219.431 106.058 219.28C105.776 219.127 105.541 218.919 105.35 218.658C105.163 218.394 105.021 218.088 104.924 217.742C104.83 217.392 104.783 217.016 104.783 216.612C104.783 216.229 104.84 215.878 104.954 215.56C105.068 215.242 105.225 214.963 105.427 214.725C105.632 214.486 105.87 214.296 106.143 214.154C106.418 214.009 106.715 213.919 107.033 213.885C107.318 213.857 107.576 213.87 107.809 213.923C108.042 213.975 108.234 214.053 108.384 214.158C108.535 214.26 108.63 214.374 108.67 214.499H108.721V214.022H109.624V217.874C109.624 218.112 109.691 218.323 109.825 218.504C109.958 218.686 110.153 218.777 110.408 218.777C110.698 218.777 110.92 218.678 111.073 218.479C111.23 218.28 111.336 217.973 111.393 217.558C111.453 217.144 111.482 216.612 111.482 215.965C111.482 215.584 111.43 215.209 111.325 214.84C111.222 214.468 111.066 214.12 110.856 213.796C110.649 213.472 110.386 213.186 110.068 212.939C109.749 212.692 109.376 212.499 108.947 212.36C108.521 212.218 108.036 212.147 107.494 212.147C106.826 212.147 106.228 212.25 105.7 212.458C105.174 212.662 104.727 212.962 104.357 213.357C103.991 213.749 103.711 214.226 103.518 214.789C103.328 215.348 103.232 215.985 103.232 216.698C103.232 217.422 103.328 218.066 103.518 218.628C103.711 219.191 103.995 219.665 104.37 220.051C104.748 220.438 105.215 220.73 105.772 220.929C106.329 221.131 106.971 221.232 107.698 221.232C108.011 221.232 108.319 221.202 108.623 221.142C108.927 221.083 109.195 221.017 109.428 220.946C109.661 220.875 109.829 220.823 109.931 220.789L110.17 221.573C109.994 221.647 109.764 221.72 109.48 221.794C109.198 221.868 108.897 221.929 108.576 221.977C108.258 222.026 107.954 222.05 107.664 222.05ZM107.17 218.658C107.551 218.658 107.859 218.581 108.095 218.428C108.33 218.274 108.502 218.043 108.61 217.733C108.718 217.423 108.772 217.033 108.772 216.561C108.772 216.084 108.712 215.712 108.593 215.445C108.474 215.178 108.298 214.99 108.065 214.882C107.832 214.774 107.545 214.72 107.204 214.72C106.88 214.72 106.603 214.806 106.373 214.976C106.146 215.144 105.971 215.368 105.849 215.649C105.73 215.928 105.67 216.232 105.67 216.561C105.67 216.925 105.718 217.267 105.815 217.588C105.911 217.906 106.069 218.165 106.288 218.364C106.507 218.56 106.801 218.658 107.17 218.658ZM116.226 219.885C115.68 219.885 115.199 219.747 114.781 219.472C114.363 219.193 114.037 218.801 113.801 218.296C113.565 217.787 113.447 217.186 113.447 216.493C113.447 215.806 113.565 215.209 113.801 214.703C114.037 214.198 114.365 213.807 114.785 213.531C115.206 213.256 115.692 213.118 116.243 213.118C116.669 213.118 117.005 213.189 117.253 213.331C117.503 213.47 117.693 213.629 117.824 213.808C117.957 213.985 118.061 214.129 118.135 214.243H118.22V211.022H119.226V219.749H118.254V218.743H118.135C118.061 218.862 117.956 219.013 117.819 219.195C117.683 219.374 117.488 219.534 117.236 219.676C116.983 219.816 116.646 219.885 116.226 219.885ZM116.362 218.982C116.765 218.982 117.106 218.877 117.385 218.666C117.663 218.453 117.875 218.159 118.02 217.784C118.165 217.406 118.237 216.97 118.237 216.476C118.237 215.987 118.166 215.56 118.024 215.193C117.882 214.824 117.672 214.537 117.393 214.333C117.115 214.125 116.771 214.022 116.362 214.022C115.936 214.022 115.581 214.131 115.297 214.35C115.015 214.566 114.804 214.86 114.662 215.232C114.523 215.601 114.453 216.016 114.453 216.476C114.453 216.942 114.524 217.365 114.666 217.746C114.811 218.124 115.024 218.425 115.305 218.649C115.589 218.871 115.942 218.982 116.362 218.982ZM123.746 219.885C123.155 219.885 122.637 219.745 122.191 219.463C121.748 219.182 121.401 218.789 121.151 218.283C120.904 217.777 120.78 217.186 120.78 216.51C120.78 215.828 120.904 215.233 121.151 214.725C121.401 214.216 121.748 213.821 122.191 213.54C122.637 213.259 123.155 213.118 123.746 213.118C124.337 213.118 124.854 213.259 125.297 213.54C125.743 213.821 126.09 214.216 126.337 214.725C126.587 215.233 126.712 215.828 126.712 216.51C126.712 217.186 126.587 217.777 126.337 218.283C126.09 218.789 125.743 219.182 125.297 219.463C124.854 219.745 124.337 219.885 123.746 219.885ZM123.746 218.982C124.195 218.982 124.564 218.867 124.854 218.637C125.144 218.406 125.358 218.104 125.498 217.729C125.637 217.354 125.706 216.948 125.706 216.51C125.706 216.073 125.637 215.665 125.498 215.287C125.358 214.909 125.144 214.604 124.854 214.371C124.564 214.138 124.195 214.022 123.746 214.022C123.297 214.022 122.928 214.138 122.638 214.371C122.349 214.604 122.134 214.909 121.995 215.287C121.856 215.665 121.786 216.073 121.786 216.51C121.786 216.948 121.856 217.354 121.995 217.729C122.134 218.104 122.349 218.406 122.638 218.637C122.928 218.867 123.297 218.982 123.746 218.982ZM128.127 219.749V213.203H129.099V214.226H129.184C129.321 213.877 129.541 213.605 129.845 213.412C130.149 213.216 130.514 213.118 130.94 213.118C131.372 213.118 131.731 213.216 132.018 213.412C132.308 213.605 132.534 213.877 132.696 214.226H132.764C132.931 213.888 133.183 213.62 133.518 213.421C133.853 213.219 134.255 213.118 134.724 213.118C135.309 213.118 135.788 213.301 136.16 213.668C136.532 214.031 136.718 214.598 136.718 215.368V219.749H135.713V215.368C135.713 214.885 135.58 214.54 135.316 214.333C135.052 214.125 134.741 214.022 134.383 214.022C133.923 214.022 133.566 214.161 133.313 214.439C133.061 214.715 132.934 215.064 132.934 215.487V219.749H131.911V215.266C131.911 214.894 131.791 214.594 131.549 214.367C131.308 214.137 130.997 214.022 130.616 214.022C130.355 214.022 130.11 214.091 129.883 214.23C129.659 214.37 129.477 214.563 129.338 214.81C129.201 215.054 129.133 215.337 129.133 215.658V219.749H128.127ZM140.363 219.902C139.948 219.902 139.572 219.824 139.234 219.668C138.896 219.509 138.627 219.28 138.428 218.982C138.23 218.681 138.13 218.317 138.13 217.891C138.13 217.516 138.204 217.212 138.352 216.979C138.5 216.743 138.697 216.558 138.944 216.425C139.191 216.291 139.464 216.192 139.762 216.127C140.063 216.058 140.366 216.004 140.67 215.965C141.068 215.914 141.39 215.875 141.637 215.85C141.887 215.821 142.069 215.774 142.183 215.709C142.299 215.644 142.357 215.53 142.357 215.368V215.334C142.357 214.914 142.242 214.587 142.012 214.354C141.785 214.121 141.44 214.004 140.977 214.004C140.497 214.004 140.12 214.11 139.848 214.32C139.575 214.53 139.383 214.754 139.272 214.993L138.318 214.652C138.488 214.254 138.715 213.945 139 213.723C139.286 213.499 139.599 213.343 139.937 213.254C140.278 213.164 140.613 213.118 140.943 213.118C141.153 213.118 141.394 213.144 141.667 213.195C141.943 213.243 142.208 213.344 142.464 213.497C142.723 213.651 142.937 213.882 143.107 214.192C143.278 214.502 143.363 214.916 143.363 215.436V219.749H142.357V218.862H142.306C142.238 219.004 142.125 219.156 141.965 219.318C141.806 219.48 141.595 219.618 141.33 219.732C141.066 219.845 140.744 219.902 140.363 219.902ZM140.517 218.999C140.914 218.999 141.25 218.921 141.522 218.764C141.798 218.608 142.005 218.406 142.144 218.159C142.286 217.912 142.357 217.652 142.357 217.379V216.459C142.315 216.51 142.221 216.557 142.076 216.6C141.934 216.639 141.769 216.675 141.582 216.706C141.397 216.735 141.217 216.76 141.041 216.783C140.867 216.803 140.727 216.82 140.619 216.834C140.357 216.868 140.113 216.923 139.886 217C139.661 217.074 139.48 217.186 139.34 217.337C139.204 217.485 139.136 217.686 139.136 217.942C139.136 218.291 139.265 218.556 139.524 218.735C139.785 218.911 140.116 218.999 140.517 218.999ZM145.079 219.749V213.203H146.084V219.749H145.079ZM145.59 212.112C145.394 212.112 145.225 212.046 145.083 211.912C144.944 211.779 144.874 211.618 144.874 211.431C144.874 211.243 144.944 211.083 145.083 210.949C145.225 210.816 145.394 210.749 145.59 210.749C145.786 210.749 145.954 210.816 146.093 210.949C146.235 211.083 146.306 211.243 146.306 211.431C146.306 211.618 146.235 211.779 146.093 211.912C145.954 212.046 145.786 212.112 145.59 212.112ZM148.812 215.811V219.749H147.806V213.203H148.778V214.226H148.863C149.017 213.894 149.25 213.627 149.562 213.425C149.875 213.22 150.278 213.118 150.772 213.118C151.215 213.118 151.603 213.209 151.936 213.391C152.268 213.57 152.527 213.843 152.711 214.209C152.896 214.573 152.988 215.033 152.988 215.59V219.749H151.983V215.658C151.983 215.144 151.849 214.743 151.582 214.456C151.315 214.166 150.948 214.022 150.483 214.022C150.162 214.022 149.875 214.091 149.622 214.23C149.372 214.37 149.174 214.573 149.029 214.84C148.885 215.107 148.812 215.431 148.812 215.811ZM155.439 219.817C155.229 219.817 155.048 219.742 154.898 219.591C154.747 219.441 154.672 219.26 154.672 219.05C154.672 218.84 154.747 218.659 154.898 218.509C155.048 218.358 155.229 218.283 155.439 218.283C155.649 218.283 155.83 218.358 155.98 218.509C156.131 218.659 156.206 218.84 156.206 219.05C156.206 219.189 156.17 219.317 156.099 219.433C156.031 219.55 155.939 219.644 155.822 219.715C155.709 219.783 155.581 219.817 155.439 219.817ZM160.55 219.885C159.936 219.885 159.408 219.74 158.964 219.45C158.521 219.161 158.18 218.762 157.942 218.253C157.703 217.745 157.584 217.164 157.584 216.51C157.584 215.845 157.706 215.259 157.95 214.75C158.197 214.239 158.541 213.84 158.982 213.553C159.425 213.263 159.942 213.118 160.533 213.118C160.993 213.118 161.408 213.203 161.777 213.374C162.146 213.544 162.449 213.783 162.685 214.09C162.92 214.397 163.067 214.754 163.124 215.164H162.118C162.041 214.865 161.871 214.601 161.607 214.371C161.345 214.138 160.993 214.022 160.55 214.022C160.158 214.022 159.814 214.124 159.518 214.328C159.226 214.53 158.997 214.816 158.832 215.185C158.67 215.551 158.589 215.982 158.589 216.476C158.589 216.982 158.669 217.422 158.828 217.797C158.99 218.172 159.217 218.463 159.51 218.671C159.805 218.878 160.152 218.982 160.55 218.982C160.811 218.982 161.048 218.936 161.261 218.845C161.474 218.754 161.655 218.624 161.803 218.453C161.95 218.283 162.055 218.078 162.118 217.84H163.124C163.067 218.226 162.926 218.574 162.702 218.884C162.48 219.191 162.186 219.435 161.82 219.617C161.456 219.796 161.033 219.885 160.55 219.885ZM167.133 219.885C166.542 219.885 166.023 219.745 165.577 219.463C165.134 219.182 164.788 218.789 164.538 218.283C164.29 217.777 164.167 217.186 164.167 216.51C164.167 215.828 164.29 215.233 164.538 214.725C164.788 214.216 165.134 213.821 165.577 213.54C166.023 213.259 166.542 213.118 167.133 213.118C167.724 213.118 168.241 213.259 168.684 213.54C169.13 213.821 169.477 214.216 169.724 214.725C169.974 215.233 170.099 215.828 170.099 216.51C170.099 217.186 169.974 217.777 169.724 218.283C169.477 218.789 169.13 219.182 168.684 219.463C168.241 219.745 167.724 219.885 167.133 219.885ZM167.133 218.982C167.582 218.982 167.951 218.867 168.241 218.637C168.531 218.406 168.745 218.104 168.884 217.729C169.023 217.354 169.093 216.948 169.093 216.51C169.093 216.073 169.023 215.665 168.884 215.287C168.745 214.909 168.531 214.604 168.241 214.371C167.951 214.138 167.582 214.022 167.133 214.022C166.684 214.022 166.315 214.138 166.025 214.371C165.735 214.604 165.521 214.909 165.381 215.287C165.242 215.665 165.173 216.073 165.173 216.51C165.173 216.948 165.242 217.354 165.381 217.729C165.521 218.104 165.735 218.406 166.025 218.637C166.315 218.867 166.684 218.982 167.133 218.982ZM171.514 219.749V213.203H172.485V214.226H172.571C172.707 213.877 172.927 213.605 173.231 213.412C173.535 213.216 173.9 213.118 174.326 213.118C174.758 213.118 175.118 213.216 175.405 213.412C175.694 213.605 175.92 213.877 176.082 214.226H176.15C176.318 213.888 176.569 213.62 176.905 213.421C177.24 213.219 177.642 213.118 178.11 213.118C178.696 213.118 179.174 213.301 179.547 213.668C179.919 214.031 180.105 214.598 180.105 215.368V219.749H179.099V215.368C179.099 214.885 178.967 214.54 178.703 214.333C178.439 214.125 178.128 214.022 177.77 214.022C177.309 214.022 176.953 214.161 176.7 214.439C176.447 214.715 176.321 215.064 176.321 215.487V219.749H175.298V215.266C175.298 214.894 175.177 214.594 174.936 214.367C174.694 214.137 174.383 214.022 174.003 214.022C173.741 214.022 173.497 214.091 173.27 214.23C173.045 214.37 172.863 214.563 172.724 214.81C172.588 215.054 172.52 215.337 172.52 215.658V219.749H171.514Z" fill="#F0F0F2"/>
</g>
<path d="M69.7841 261.772H70.8409V267.55C70.8409 268.147 70.7003 268.679 70.419 269.148C70.1406 269.614 69.7472 269.982 69.2386 270.252C68.7301 270.519 68.1335 270.652 67.4489 270.652C66.7642 270.652 66.1676 270.519 65.6591 270.252C65.1506 269.982 64.7557 269.614 64.4744 269.148C64.196 268.679 64.0568 268.147 64.0568 267.55V261.772H65.1136V267.465C65.1136 267.891 65.2074 268.27 65.3949 268.602C65.5824 268.932 65.8494 269.192 66.196 269.382C66.5455 269.57 66.9631 269.664 67.4489 269.664C67.9347 269.664 68.3523 269.57 68.7017 269.382C69.0511 269.192 69.3182 268.932 69.5028 268.602C69.6903 268.27 69.7841 267.891 69.7841 267.465V261.772ZM72.695 272.953V263.953H73.6666V264.993H73.7859C73.8598 264.879 73.962 264.735 74.0927 264.558C74.2262 264.379 74.4166 264.22 74.6637 264.081C74.9137 263.939 75.2518 263.868 75.6779 263.868C76.2291 263.868 76.7149 264.006 77.1353 264.281C77.5558 264.557 77.8839 264.948 78.1197 265.453C78.3555 265.959 78.4734 266.556 78.4734 267.243C78.4734 267.936 78.3555 268.537 78.1197 269.046C77.8839 269.551 77.5572 269.943 77.1396 270.222C76.722 270.497 76.2404 270.635 75.695 270.635C75.2745 270.635 74.9379 270.566 74.685 270.426C74.4322 270.284 74.2376 270.124 74.1012 269.945C73.9649 269.763 73.8598 269.612 73.7859 269.493H73.7007V272.953H72.695ZM73.6836 267.226C73.6836 267.72 73.7561 268.156 73.901 268.534C74.0458 268.909 74.2575 269.203 74.5359 269.416C74.8143 269.627 75.1552 269.732 75.5586 269.732C75.9791 269.732 76.3299 269.621 76.6112 269.399C76.8953 269.175 77.1083 268.874 77.2504 268.496C77.3953 268.115 77.4677 267.692 77.4677 267.226C77.4677 266.766 77.3967 266.351 77.2546 265.982C77.1154 265.61 76.9038 265.316 76.6197 265.1C76.3385 264.881 75.9848 264.772 75.5586 264.772C75.1495 264.772 74.8058 264.875 74.5274 265.083C74.249 265.287 74.0387 265.574 73.8967 265.943C73.7546 266.31 73.6836 266.737 73.6836 267.226ZM80.8932 261.772V270.499H79.8875V261.772H80.8932ZM85.2742 270.635C84.6833 270.635 84.1649 270.495 83.7188 270.213C83.2757 269.932 82.9291 269.539 82.6791 269.033C82.4319 268.527 82.3083 267.936 82.3083 267.26C82.3083 266.578 82.4319 265.983 82.6791 265.475C82.9291 264.966 83.2757 264.571 83.7188 264.29C84.1649 264.009 84.6833 263.868 85.2742 263.868C85.8651 263.868 86.3822 264.009 86.8254 264.29C87.2714 264.571 87.618 264.966 87.8651 265.475C88.1151 265.983 88.2401 266.578 88.2401 267.26C88.2401 267.936 88.1151 268.527 87.8651 269.033C87.618 269.539 87.2714 269.932 86.8254 270.213C86.3822 270.495 85.8651 270.635 85.2742 270.635ZM85.2742 269.732C85.7231 269.732 86.0924 269.617 86.3822 269.387C86.672 269.156 86.8864 268.854 87.0257 268.479C87.1649 268.104 87.2345 267.698 87.2345 267.26C87.2345 266.823 87.1649 266.415 87.0257 266.037C86.8864 265.659 86.672 265.354 86.3822 265.121C86.0924 264.888 85.7231 264.772 85.2742 264.772C84.8254 264.772 84.4561 264.888 84.1663 265.121C83.8765 265.354 83.662 265.659 83.5228 266.037C83.3836 266.415 83.314 266.823 83.314 267.26C83.314 267.698 83.3836 268.104 83.5228 268.479C83.662 268.854 83.8765 269.156 84.1663 269.387C84.4561 269.617 84.8254 269.732 85.2742 269.732ZM91.5814 270.652C91.1667 270.652 90.7902 270.574 90.4522 270.418C90.1141 270.259 89.8456 270.03 89.6468 269.732C89.4479 269.431 89.3485 269.067 89.3485 268.641C89.3485 268.266 89.4223 267.962 89.5701 267.729C89.7178 267.493 89.9152 267.308 90.1624 267.175C90.4096 267.041 90.6823 266.942 90.9806 266.877C91.2817 266.808 91.5843 266.754 91.8883 266.715C92.286 266.664 92.6084 266.625 92.8556 266.6C93.1056 266.571 93.2874 266.524 93.401 266.459C93.5175 266.394 93.5758 266.28 93.5758 266.118V266.084C93.5758 265.664 93.4607 265.337 93.2306 265.104C93.0033 264.871 92.6581 264.754 92.1951 264.754C91.715 264.754 91.3385 264.86 91.0658 265.07C90.7931 265.28 90.6013 265.504 90.4905 265.743L89.536 265.402C89.7064 265.004 89.9337 264.695 90.2178 264.473C90.5047 264.249 90.8172 264.093 91.1553 264.004C91.4962 263.914 91.8314 263.868 92.161 263.868C92.3712 263.868 92.6127 263.894 92.8854 263.945C93.161 263.993 93.4266 264.094 93.6823 264.247C93.9408 264.401 94.1553 264.632 94.3258 264.942C94.4962 265.252 94.5814 265.666 94.5814 266.186V270.499H93.5758V269.612H93.5246C93.4564 269.754 93.3428 269.906 93.1837 270.068C93.0246 270.23 92.813 270.368 92.5488 270.482C92.2846 270.595 91.9621 270.652 91.5814 270.652ZM91.7348 269.749C92.1326 269.749 92.4678 269.671 92.7405 269.514C93.0161 269.358 93.2235 269.156 93.3627 268.909C93.5047 268.662 93.5758 268.402 93.5758 268.129V267.209C93.5331 267.26 93.4394 267.307 93.2945 267.35C93.1525 267.389 92.9877 267.425 92.8002 267.456C92.6155 267.485 92.4351 267.51 92.259 267.533C92.0857 267.553 91.9451 267.57 91.8371 267.584C91.5758 267.618 91.3314 267.673 91.1042 267.75C90.8797 267.824 90.6979 267.936 90.5587 268.087C90.4223 268.235 90.3542 268.436 90.3542 268.692C90.3542 269.041 90.4834 269.306 90.7419 269.485C91.0033 269.661 91.3343 269.749 91.7348 269.749ZM98.7686 270.635C98.2232 270.635 97.7416 270.497 97.324 270.222C96.9064 269.943 96.5797 269.551 96.3439 269.046C96.1081 268.537 95.9902 267.936 95.9902 267.243C95.9902 266.556 96.1081 265.959 96.3439 265.453C96.5797 264.948 96.9078 264.557 97.3283 264.281C97.7487 264.006 98.2345 263.868 98.7857 263.868C99.2118 263.868 99.5484 263.939 99.7956 264.081C100.046 264.22 100.236 264.379 100.367 264.558C100.5 264.735 100.604 264.879 100.678 264.993H100.763V261.772H101.769V270.499H100.797V269.493H100.678C100.604 269.612 100.499 269.763 100.362 269.945C100.226 270.124 100.031 270.284 99.7786 270.426C99.5257 270.566 99.1891 270.635 98.7686 270.635ZM98.905 269.732C99.3084 269.732 99.6493 269.627 99.9277 269.416C100.206 269.203 100.418 268.909 100.563 268.534C100.708 268.156 100.78 267.72 100.78 267.226C100.78 266.737 100.709 266.31 100.567 265.943C100.425 265.574 100.215 265.287 99.9362 265.083C99.6578 264.875 99.3141 264.772 98.905 264.772C98.4788 264.772 98.1237 264.881 97.8396 265.1C97.5584 265.316 97.3467 265.61 97.2047 265.982C97.0655 266.351 96.9959 266.766 96.9959 267.226C96.9959 267.692 97.0669 268.115 97.209 268.496C97.3538 268.874 97.5669 269.175 97.8482 269.399C98.1322 269.621 98.4845 269.732 98.905 269.732ZM107.022 261.772H108.283L111.249 269.016H111.351L114.317 261.772H115.578V270.499H114.59V263.868H114.504L111.777 270.499H110.823L108.095 263.868H108.01V270.499H107.022V261.772ZM120.185 270.635C119.555 270.635 119.011 270.496 118.553 270.218C118.099 269.936 117.748 269.544 117.501 269.041C117.256 268.536 117.134 267.948 117.134 267.277C117.134 266.607 117.256 266.016 117.501 265.504C117.748 264.99 118.091 264.59 118.532 264.303C118.975 264.013 119.492 263.868 120.083 263.868C120.424 263.868 120.761 263.925 121.093 264.039C121.425 264.152 121.728 264.337 122.001 264.593C122.273 264.845 122.491 265.181 122.653 265.598C122.815 266.016 122.895 266.53 122.895 267.141V267.567H117.85V266.698H121.873C121.873 266.328 121.799 265.999 121.651 265.709C121.506 265.419 121.299 265.191 121.029 265.023C120.762 264.855 120.447 264.772 120.083 264.772C119.682 264.772 119.336 264.871 119.043 265.07C118.753 265.266 118.53 265.522 118.374 265.837C118.218 266.152 118.14 266.49 118.14 266.851V267.431C118.14 267.925 118.225 268.344 118.395 268.688C118.569 269.029 118.809 269.289 119.116 269.468C119.422 269.644 119.779 269.732 120.185 269.732C120.449 269.732 120.688 269.695 120.901 269.621C121.117 269.544 121.303 269.431 121.459 269.28C121.616 269.127 121.736 268.936 121.822 268.709L122.793 268.982C122.691 269.311 122.519 269.601 122.278 269.851C122.036 270.098 121.738 270.291 121.383 270.431C121.028 270.567 120.628 270.635 120.185 270.635ZM126.777 270.635C126.231 270.635 125.75 270.497 125.332 270.222C124.915 269.943 124.588 269.551 124.352 269.046C124.116 268.537 123.998 267.936 123.998 267.243C123.998 266.556 124.116 265.959 124.352 265.453C124.588 264.948 124.916 264.557 125.337 264.281C125.757 264.006 126.243 263.868 126.794 263.868C127.22 263.868 127.557 263.939 127.804 264.081C128.054 264.22 128.244 264.379 128.375 264.558C128.508 264.735 128.612 264.879 128.686 264.993H128.771V261.772H129.777V270.499H128.805V269.493H128.686C128.612 269.612 128.507 269.763 128.371 269.945C128.234 270.124 128.04 270.284 127.787 270.426C127.534 270.566 127.197 270.635 126.777 270.635ZM126.913 269.732C127.317 269.732 127.658 269.627 127.936 269.416C128.214 269.203 128.426 268.909 128.571 268.534C128.716 268.156 128.788 267.72 128.788 267.226C128.788 266.737 128.717 266.31 128.575 265.943C128.433 265.574 128.223 265.287 127.945 265.083C127.666 264.875 127.322 264.772 126.913 264.772C126.487 264.772 126.132 264.881 125.848 265.1C125.567 265.316 125.355 265.61 125.213 265.982C125.074 266.351 125.004 266.766 125.004 267.226C125.004 267.692 125.075 268.115 125.217 268.496C125.362 268.874 125.575 269.175 125.856 269.399C126.141 269.621 126.493 269.732 126.913 269.732ZM131.638 270.499V263.953H132.644V270.499H131.638ZM132.15 262.862C131.954 262.862 131.785 262.796 131.643 262.662C131.503 262.529 131.434 262.368 131.434 262.181C131.434 261.993 131.503 261.833 131.643 261.699C131.785 261.566 131.954 261.499 132.15 261.499C132.346 261.499 132.513 261.566 132.653 261.699C132.795 261.833 132.866 261.993 132.866 262.181C132.866 262.368 132.795 262.529 132.653 262.662C132.513 262.796 132.346 262.862 132.15 262.862ZM136.292 270.652C135.877 270.652 135.501 270.574 135.163 270.418C134.825 270.259 134.556 270.03 134.358 269.732C134.159 269.431 134.059 269.067 134.059 268.641C134.059 268.266 134.133 267.962 134.281 267.729C134.429 267.493 134.626 267.308 134.873 267.175C135.12 267.041 135.393 266.942 135.691 266.877C135.993 266.808 136.295 266.754 136.599 266.715C136.997 266.664 137.319 266.625 137.566 266.6C137.816 266.571 137.998 266.524 138.112 266.459C138.228 266.394 138.287 266.28 138.287 266.118V266.084C138.287 265.664 138.171 265.337 137.941 265.104C137.714 264.871 137.369 264.754 136.906 264.754C136.426 264.754 136.049 264.86 135.777 265.07C135.504 265.28 135.312 265.504 135.201 265.743L134.247 265.402C134.417 265.004 134.644 264.695 134.929 264.473C135.216 264.249 135.528 264.093 135.866 264.004C136.207 263.914 136.542 263.868 136.872 263.868C137.082 263.868 137.323 263.894 137.596 263.945C137.872 263.993 138.137 264.094 138.393 264.247C138.652 264.401 138.866 264.632 139.037 264.942C139.207 265.252 139.292 265.666 139.292 266.186V270.499H138.287V269.612H138.235C138.167 269.754 138.054 269.906 137.894 270.068C137.735 270.23 137.524 270.368 137.26 270.482C136.995 270.595 136.673 270.652 136.292 270.652ZM136.446 269.749C136.843 269.749 137.179 269.671 137.451 269.514C137.727 269.358 137.934 269.156 138.073 268.909C138.216 268.662 138.287 268.402 138.287 268.129V267.209C138.244 267.26 138.15 267.307 138.005 267.35C137.863 267.389 137.698 267.425 137.511 267.456C137.326 267.485 137.146 267.51 136.97 267.533C136.796 267.553 136.656 267.57 136.548 267.584C136.287 267.618 136.042 267.673 135.815 267.75C135.591 267.824 135.409 267.936 135.269 268.087C135.133 268.235 135.065 268.436 135.065 268.692C135.065 269.041 135.194 269.306 135.453 269.485C135.714 269.661 136.045 269.749 136.446 269.749Z" fill="#0E0B3D"/>
<rect x="63.5" y="279.249" width="279" height="79" rx="5.5" stroke="#B3B8D0" stroke-dasharray="3 2"/>
<path d="M134.334 316.078C134.283 315.647 134.076 315.311 133.712 315.073C133.349 314.834 132.903 314.715 132.374 314.715C131.988 314.715 131.65 314.777 131.36 314.902C131.073 315.027 130.849 315.199 130.687 315.418C130.528 315.637 130.448 315.885 130.448 316.164C130.448 316.397 130.503 316.597 130.614 316.764C130.728 316.929 130.873 317.067 131.049 317.178C131.225 317.286 131.41 317.375 131.603 317.446C131.796 317.514 131.974 317.57 132.136 317.612L133.022 317.851C133.249 317.911 133.502 317.993 133.78 318.098C134.062 318.203 134.33 318.347 134.586 318.529C134.844 318.708 135.057 318.938 135.225 319.219C135.393 319.5 135.476 319.845 135.476 320.254C135.476 320.726 135.353 321.152 135.106 321.533C134.861 321.914 134.503 322.216 134.032 322.441C133.563 322.665 132.994 322.777 132.323 322.777C131.698 322.777 131.157 322.676 130.699 322.475C130.245 322.273 129.887 321.992 129.626 321.631C129.367 321.27 129.221 320.851 129.187 320.374H130.278C130.306 320.703 130.417 320.976 130.61 321.192C130.806 321.405 131.053 321.564 131.351 321.669C131.653 321.772 131.976 321.823 132.323 321.823C132.726 321.823 133.089 321.757 133.41 321.627C133.731 321.493 133.985 321.308 134.172 321.073C134.36 320.834 134.454 320.556 134.454 320.237C134.454 319.948 134.373 319.712 134.211 319.53C134.049 319.348 133.836 319.2 133.572 319.087C133.307 318.973 133.022 318.874 132.715 318.789L131.641 318.482C130.959 318.286 130.42 318.006 130.022 317.642C129.624 317.279 129.425 316.803 129.425 316.215C129.425 315.726 129.557 315.3 129.822 314.936C130.089 314.57 130.447 314.286 130.896 314.084C131.347 313.879 131.851 313.777 132.408 313.777C132.971 313.777 133.471 313.878 133.908 314.08C134.346 314.279 134.692 314.551 134.948 314.898C135.207 315.245 135.343 315.638 135.357 316.078H134.334ZM141.083 319.948V316.078H142.088V322.624H141.083V321.516H141.014C140.861 321.848 140.622 322.131 140.299 322.364C139.975 322.594 139.566 322.709 139.071 322.709C138.662 322.709 138.299 322.62 137.98 322.441C137.662 322.259 137.412 321.986 137.23 321.622C137.049 321.256 136.958 320.794 136.958 320.237V316.078H137.963V320.169C137.963 320.647 138.097 321.027 138.364 321.311C138.634 321.595 138.978 321.737 139.395 321.737C139.645 321.737 139.899 321.673 140.158 321.546C140.419 321.418 140.638 321.222 140.814 320.958C140.993 320.693 141.083 320.357 141.083 319.948ZM143.81 325.078V316.078H144.782V317.118H144.901C144.975 317.004 145.077 316.86 145.208 316.683C145.342 316.504 145.532 316.345 145.779 316.206C146.029 316.064 146.367 315.993 146.793 315.993C147.344 315.993 147.83 316.131 148.251 316.406C148.671 316.682 148.999 317.073 149.235 317.578C149.471 318.084 149.589 318.681 149.589 319.368C149.589 320.061 149.471 320.662 149.235 321.171C148.999 321.676 148.673 322.068 148.255 322.347C147.837 322.622 147.356 322.76 146.81 322.76C146.39 322.76 146.053 322.691 145.8 322.551C145.548 322.409 145.353 322.249 145.217 322.07C145.08 321.888 144.975 321.737 144.901 321.618H144.816V325.078H143.81ZM144.799 319.351C144.799 319.845 144.871 320.281 145.016 320.659C145.161 321.034 145.373 321.328 145.651 321.541C145.93 321.752 146.271 321.857 146.674 321.857C147.094 321.857 147.445 321.746 147.727 321.524C148.011 321.3 148.224 320.999 148.366 320.621C148.511 320.24 148.583 319.817 148.583 319.351C148.583 318.891 148.512 318.476 148.37 318.107C148.231 317.735 148.019 317.441 147.735 317.225C147.454 317.006 147.1 316.897 146.674 316.897C146.265 316.897 145.921 317 145.643 317.208C145.364 317.412 145.154 317.699 145.012 318.068C144.87 318.435 144.799 318.862 144.799 319.351ZM151.003 325.078V316.078H151.974V317.118H152.094C152.168 317.004 152.27 316.86 152.401 316.683C152.534 316.504 152.724 316.345 152.972 316.206C153.222 316.064 153.56 315.993 153.986 315.993C154.537 315.993 155.023 316.131 155.443 316.406C155.864 316.682 156.192 317.073 156.428 317.578C156.663 318.084 156.781 318.681 156.781 319.368C156.781 320.061 156.663 320.662 156.428 321.171C156.192 321.676 155.865 322.068 155.447 322.347C155.03 322.622 154.548 322.76 154.003 322.76C153.582 322.76 153.246 322.691 152.993 322.551C152.74 322.409 152.545 322.249 152.409 322.07C152.273 321.888 152.168 321.737 152.094 321.618H152.009V325.078H151.003ZM151.991 319.351C151.991 319.845 152.064 320.281 152.209 320.659C152.354 321.034 152.565 321.328 152.844 321.541C153.122 321.752 153.463 321.857 153.866 321.857C154.287 321.857 154.638 321.746 154.919 321.524C155.203 321.3 155.416 320.999 155.558 320.621C155.703 320.24 155.776 319.817 155.776 319.351C155.776 318.891 155.705 318.476 155.562 318.107C155.423 317.735 155.212 317.441 154.928 317.225C154.646 317.006 154.293 316.897 153.866 316.897C153.457 316.897 153.114 317 152.835 317.208C152.557 317.412 152.347 317.699 152.205 318.068C152.062 318.435 151.991 318.862 151.991 319.351ZM160.854 322.76C160.264 322.76 159.745 322.62 159.299 322.338C158.856 322.057 158.509 321.664 158.259 321.158C158.012 320.652 157.889 320.061 157.889 319.385C157.889 318.703 158.012 318.108 158.259 317.6C158.509 317.091 158.856 316.696 159.299 316.415C159.745 316.134 160.264 315.993 160.854 315.993C161.445 315.993 161.962 316.134 162.406 316.415C162.852 316.696 163.198 317.091 163.445 317.6C163.695 318.108 163.82 318.703 163.82 319.385C163.82 320.061 163.695 320.652 163.445 321.158C163.198 321.664 162.852 322.057 162.406 322.338C161.962 322.62 161.445 322.76 160.854 322.76ZM160.854 321.857C161.303 321.857 161.673 321.742 161.962 321.512C162.252 321.281 162.467 320.979 162.606 320.604C162.745 320.229 162.815 319.823 162.815 319.385C162.815 318.948 162.745 318.54 162.606 318.162C162.467 317.784 162.252 317.479 161.962 317.246C161.673 317.013 161.303 316.897 160.854 316.897C160.406 316.897 160.036 317.013 159.746 317.246C159.457 317.479 159.242 317.784 159.103 318.162C158.964 318.54 158.894 318.948 158.894 319.385C158.894 319.823 158.964 320.229 159.103 320.604C159.242 320.979 159.457 321.281 159.746 321.512C160.036 321.742 160.406 321.857 160.854 321.857ZM165.235 322.624V316.078H166.207V317.067H166.275C166.395 316.743 166.61 316.48 166.923 316.279C167.235 316.077 167.588 315.976 167.98 315.976C168.054 315.976 168.146 315.977 168.257 315.98C168.368 315.983 168.451 315.987 168.508 315.993V317.016C168.474 317.007 168.396 316.995 168.274 316.977C168.155 316.958 168.028 316.948 167.895 316.948C167.576 316.948 167.292 317.014 167.042 317.148C166.795 317.279 166.599 317.46 166.454 317.693C166.312 317.923 166.241 318.186 166.241 318.482V322.624H165.235ZM172.837 316.078V316.931H169.445V316.078H172.837ZM170.434 314.51H171.439V320.749C171.439 321.033 171.481 321.246 171.563 321.388C171.648 321.527 171.756 321.621 171.887 321.669C172.02 321.715 172.161 321.737 172.309 321.737C172.419 321.737 172.51 321.732 172.581 321.72C172.652 321.706 172.709 321.695 172.752 321.686L172.956 322.59C172.888 322.615 172.793 322.641 172.671 322.666C172.549 322.695 172.394 322.709 172.206 322.709C171.922 322.709 171.644 322.648 171.371 322.526C171.101 322.404 170.877 322.218 170.698 321.968C170.522 321.718 170.434 321.402 170.434 321.022V314.51ZM178.749 317.544L177.846 317.8C177.789 317.649 177.705 317.503 177.594 317.361C177.486 317.216 177.339 317.097 177.151 317.003C176.964 316.909 176.723 316.862 176.431 316.862C176.03 316.862 175.696 316.955 175.429 317.139C175.165 317.321 175.033 317.553 175.033 317.834C175.033 318.084 175.124 318.281 175.306 318.426C175.488 318.571 175.772 318.692 176.158 318.789L177.13 319.027C177.715 319.169 178.151 319.387 178.438 319.679C178.725 319.969 178.868 320.343 178.868 320.8C178.868 321.175 178.76 321.51 178.544 321.806C178.331 322.101 178.033 322.334 177.65 322.504C177.266 322.675 176.82 322.76 176.312 322.76C175.644 322.76 175.091 322.615 174.654 322.325C174.216 322.036 173.939 321.612 173.823 321.056L174.777 320.817C174.868 321.169 175.04 321.433 175.293 321.61C175.549 321.786 175.883 321.874 176.294 321.874C176.763 321.874 177.135 321.774 177.411 321.575C177.689 321.374 177.829 321.132 177.829 320.851C177.829 320.624 177.749 320.433 177.59 320.28C177.431 320.124 177.187 320.007 176.857 319.931L175.766 319.675C175.167 319.533 174.726 319.313 174.445 319.014C174.167 318.713 174.027 318.337 174.027 317.885C174.027 317.516 174.131 317.189 174.339 316.905C174.549 316.621 174.834 316.398 175.195 316.236C175.559 316.074 175.971 315.993 176.431 315.993C177.079 315.993 177.587 316.135 177.956 316.419C178.329 316.703 178.593 317.078 178.749 317.544ZM180.995 322.692C180.785 322.692 180.605 322.617 180.454 322.466C180.303 322.316 180.228 322.135 180.228 321.925C180.228 321.715 180.303 321.534 180.454 321.384C180.605 321.233 180.785 321.158 180.995 321.158C181.205 321.158 181.386 321.233 181.536 321.384C181.687 321.534 181.762 321.715 181.762 321.925C181.762 322.064 181.727 322.192 181.656 322.308C181.587 322.425 181.495 322.519 181.379 322.59C181.265 322.658 181.137 322.692 180.995 322.692ZM180.995 317.834C180.785 317.834 180.605 317.759 180.454 317.608C180.303 317.458 180.228 317.277 180.228 317.067C180.228 316.857 180.303 316.676 180.454 316.526C180.605 316.375 180.785 316.3 180.995 316.3C181.205 316.3 181.386 316.375 181.536 316.526C181.687 316.676 181.762 316.857 181.762 317.067C181.762 317.206 181.727 317.334 181.656 317.45C181.587 317.567 181.495 317.661 181.379 317.732C181.265 317.8 181.137 317.834 180.995 317.834ZM190.179 313.897H191.236V320.135C191.236 320.692 191.134 321.165 190.929 321.554C190.725 321.943 190.436 322.239 190.064 322.441C189.692 322.642 189.253 322.743 188.747 322.743C188.27 322.743 187.845 322.656 187.473 322.483C187.101 322.307 186.808 322.057 186.595 321.733C186.382 321.409 186.276 321.024 186.276 320.578H187.316C187.316 320.825 187.377 321.041 187.499 321.226C187.624 321.408 187.794 321.55 188.01 321.652C188.226 321.754 188.472 321.806 188.747 321.806C189.051 321.806 189.31 321.742 189.523 321.614C189.736 321.486 189.898 321.298 190.009 321.051C190.122 320.801 190.179 320.496 190.179 320.135V313.897ZM193.234 322.624V313.897H196.183C196.867 313.897 197.427 314.02 197.862 314.267C198.299 314.512 198.623 314.843 198.833 315.26C199.044 315.678 199.149 316.144 199.149 316.658C199.149 317.172 199.044 317.639 198.833 318.06C198.626 318.48 198.305 318.816 197.87 319.066C197.436 319.313 196.879 319.436 196.2 319.436H194.086V318.499H196.166C196.634 318.499 197.011 318.418 197.295 318.256C197.579 318.094 197.785 317.875 197.913 317.6C198.044 317.321 198.109 317.007 198.109 316.658C198.109 316.308 198.044 315.996 197.913 315.72C197.785 315.445 197.578 315.229 197.291 315.073C197.004 314.914 196.623 314.834 196.149 314.834H194.291V322.624H193.234ZM206.697 316.624C206.603 316.337 206.48 316.08 206.326 315.852C206.176 315.622 205.995 315.426 205.785 315.264C205.578 315.102 205.342 314.979 205.078 314.894C204.813 314.808 204.524 314.766 204.208 314.766C203.691 314.766 203.221 314.899 202.798 315.166C202.375 315.433 202.038 315.827 201.788 316.347C201.538 316.867 201.413 317.504 201.413 318.26C201.413 319.016 201.539 319.654 201.792 320.173C202.045 320.693 202.387 321.087 202.819 321.354C203.251 321.621 203.737 321.754 204.277 321.754C204.777 321.754 205.217 321.648 205.598 321.435C205.981 321.219 206.279 320.915 206.492 320.523C206.708 320.128 206.816 319.664 206.816 319.129L207.14 319.198H204.515V318.26H207.839V319.198C207.839 319.916 207.686 320.541 207.379 321.073C207.075 321.604 206.654 322.016 206.117 322.308C205.583 322.598 204.97 322.743 204.277 322.743C203.504 322.743 202.825 322.561 202.24 322.198C201.657 321.834 201.203 321.317 200.876 320.647C200.552 319.976 200.39 319.181 200.39 318.26C200.39 317.57 200.482 316.949 200.667 316.398C200.855 315.844 201.119 315.372 201.46 314.983C201.801 314.594 202.204 314.296 202.67 314.088C203.136 313.881 203.649 313.777 204.208 313.777C204.669 313.777 205.098 313.847 205.495 313.986C205.896 314.122 206.252 314.317 206.565 314.57C206.88 314.82 207.143 315.12 207.353 315.469C207.563 315.816 207.708 316.2 207.788 316.624H206.697ZM210.893 321.431L210.825 321.891C210.776 322.215 210.702 322.561 210.603 322.931C210.506 323.3 210.405 323.648 210.3 323.975C210.195 324.301 210.109 324.561 210.04 324.754H209.273C209.31 324.573 209.359 324.333 209.418 324.034C209.478 323.736 209.538 323.402 209.597 323.033C209.66 322.666 209.711 322.291 209.751 321.908L209.802 321.431H210.893ZM219.368 313.897H220.425V320.135C220.425 320.692 220.323 321.165 220.118 321.554C219.914 321.943 219.625 322.239 219.253 322.441C218.881 322.642 218.442 322.743 217.936 322.743C217.459 322.743 217.034 322.656 216.662 322.483C216.29 322.307 215.997 322.057 215.784 321.733C215.571 321.409 215.465 321.024 215.465 320.578H216.505C216.505 320.825 216.566 321.041 216.688 321.226C216.813 321.408 216.983 321.55 217.199 321.652C217.415 321.754 217.661 321.806 217.936 321.806C218.24 321.806 218.499 321.742 218.712 321.614C218.925 321.486 219.087 321.298 219.198 321.051C219.311 320.801 219.368 320.496 219.368 320.135V313.897ZM222.423 322.624V313.897H225.372C226.056 313.897 226.616 314.02 227.051 314.267C227.488 314.512 227.812 314.843 228.022 315.26C228.233 315.678 228.338 316.144 228.338 316.658C228.338 317.172 228.233 317.639 228.022 318.06C227.815 318.48 227.494 318.816 227.059 319.066C226.625 319.313 226.068 319.436 225.389 319.436H223.275V318.499H225.355C225.824 318.499 226.2 318.418 226.484 318.256C226.768 318.094 226.974 317.875 227.102 317.6C227.233 317.321 227.298 317.007 227.298 316.658C227.298 316.308 227.233 315.996 227.102 315.72C226.974 315.445 226.767 315.229 226.48 315.073C226.193 314.914 225.812 314.834 225.338 314.834H223.48V322.624H222.423ZM229.92 322.624V313.897H235.187V314.834H230.977V317.783H234.914V318.72H230.977V321.686H235.255V322.624H229.92ZM242.938 316.624C242.844 316.337 242.721 316.08 242.567 315.852C242.417 315.622 242.236 315.426 242.026 315.264C241.819 315.102 241.583 314.979 241.319 314.894C241.054 314.808 240.765 314.766 240.449 314.766C239.932 314.766 239.462 314.899 239.039 315.166C238.615 315.433 238.279 315.827 238.029 316.347C237.779 316.867 237.654 317.504 237.654 318.26C237.654 319.016 237.78 319.654 238.033 320.173C238.286 320.693 238.628 321.087 239.06 321.354C239.492 321.621 239.978 321.754 240.517 321.754C241.017 321.754 241.458 321.648 241.838 321.435C242.222 321.219 242.52 320.915 242.733 320.523C242.949 320.128 243.057 319.664 243.057 319.129L243.381 319.198H240.756V318.26H244.08V319.198C244.08 319.916 243.927 320.541 243.62 321.073C243.316 321.604 242.895 322.016 242.358 322.308C241.824 322.598 241.211 322.743 240.517 322.743C239.745 322.743 239.066 322.561 238.481 322.198C237.898 321.834 237.444 321.317 237.117 320.647C236.793 319.976 236.631 319.181 236.631 318.26C236.631 317.57 236.723 316.949 236.908 316.398C237.096 315.844 237.36 315.372 237.701 314.983C238.042 314.594 238.445 314.296 238.911 314.088C239.377 313.881 239.89 313.777 240.449 313.777C240.91 313.777 241.338 313.847 241.736 313.986C242.137 314.122 242.493 314.317 242.806 314.57C243.121 314.82 243.384 315.12 243.594 315.469C243.804 315.816 243.949 316.2 244.029 316.624H242.938ZM247.134 321.431L247.065 321.891C247.017 322.215 246.943 322.561 246.844 322.931C246.747 323.3 246.646 323.648 246.541 323.975C246.436 324.301 246.35 324.561 246.281 324.754H245.514C245.551 324.573 245.6 324.333 245.659 324.034C245.719 323.736 245.779 323.402 245.838 323.033C245.901 322.666 245.952 322.291 245.992 321.908L246.043 321.431H247.134ZM252.268 322.624V313.897H255.217C255.902 313.897 256.461 314.02 256.896 314.267C257.334 314.512 257.657 314.843 257.868 315.26C258.078 315.678 258.183 316.144 258.183 316.658C258.183 317.172 258.078 317.639 257.868 318.06C257.66 318.48 257.339 318.816 256.905 319.066C256.47 319.313 255.913 319.436 255.234 319.436H253.121V318.499H255.2C255.669 318.499 256.045 318.418 256.329 318.256C256.613 318.094 256.819 317.875 256.947 317.6C257.078 317.321 257.143 317.007 257.143 316.658C257.143 316.308 257.078 315.996 256.947 315.72C256.819 315.445 256.612 315.229 256.325 315.073C256.038 314.914 255.657 314.834 255.183 314.834H253.325V322.624H252.268ZM266.686 313.897V322.624H265.663L260.907 315.772H260.822V322.624H259.765V313.897H260.788L265.561 320.766H265.646V313.897H266.686ZM274.647 316.624C274.553 316.337 274.429 316.08 274.276 315.852C274.125 315.622 273.945 315.426 273.735 315.264C273.527 315.102 273.291 314.979 273.027 314.894C272.763 314.808 272.473 314.766 272.158 314.766C271.641 314.766 271.171 314.899 270.747 315.166C270.324 315.433 269.987 315.827 269.737 316.347C269.487 316.867 269.362 317.504 269.362 318.26C269.362 319.016 269.489 319.654 269.742 320.173C269.995 320.693 270.337 321.087 270.769 321.354C271.2 321.621 271.686 321.754 272.226 321.754C272.726 321.754 273.166 321.648 273.547 321.435C273.931 321.219 274.229 320.915 274.442 320.523C274.658 320.128 274.766 319.664 274.766 319.129L275.09 319.198H272.465V318.26H275.789V319.198C275.789 319.916 275.635 320.541 275.328 321.073C275.024 321.604 274.604 322.016 274.067 322.308C273.533 322.598 272.919 322.743 272.226 322.743C271.453 322.743 270.774 322.561 270.189 322.198C269.607 321.834 269.152 321.317 268.825 320.647C268.502 319.976 268.34 319.181 268.34 318.26C268.34 317.57 268.432 316.949 268.617 316.398C268.804 315.844 269.068 315.372 269.409 314.983C269.75 314.594 270.154 314.296 270.62 314.088C271.085 313.881 271.598 313.777 272.158 313.777C272.618 313.777 273.047 313.847 273.445 313.986C273.845 314.122 274.202 314.317 274.514 314.57C274.83 314.82 275.093 315.12 275.303 315.469C275.513 315.816 275.658 316.2 275.737 316.624H274.647Z" fill="#6C6F93"/>
<rect x="266" y="344.998" width="192" height="40" rx="20" fill="white"/>
<g filter="url(#filter0_dd_44_7344)">
<rect x="284" y="356.998" width="40" height="16" rx="1.6" fill="#F5F5F6" shape-rendering="crispEdges"/>
<rect x="307.2" y="358.598" width="13.6" height="12.8" rx="1.6" fill="#6F2268"/>
<path d="M310.4 365.158L312.8 367.398L317.6 362.598" stroke="#ECECEB" stroke-linecap="round" stroke-linejoin="round"/>
</g>
<path d="M341.336 360.316V370.498H339.924L334.749 363.031H334.654V370.498H333.118V360.316H334.54L339.72 367.794H339.815V360.316H341.336ZM346.569 370.652C345.817 370.652 345.169 370.492 344.625 370.17C344.085 369.845 343.667 369.39 343.372 368.803C343.081 368.213 342.935 367.522 342.935 366.73C342.935 365.948 343.081 365.258 343.372 364.662C343.667 364.065 344.078 363.599 344.605 363.265C345.136 362.93 345.755 362.762 346.465 362.762C346.895 362.762 347.313 362.834 347.717 362.976C348.122 363.119 348.485 363.343 348.806 363.647C349.128 363.952 349.381 364.348 349.567 364.836C349.752 365.32 349.845 365.908 349.845 366.601V367.128H343.775V366.014H348.389C348.389 365.623 348.309 365.276 348.15 364.975C347.991 364.67 347.767 364.43 347.479 364.254C347.194 364.078 346.859 363.99 346.475 363.99C346.057 363.99 345.692 364.093 345.381 364.299C345.073 364.501 344.834 364.766 344.665 365.094C344.499 365.419 344.416 365.772 344.416 366.153V367.023C344.416 367.534 344.506 367.968 344.685 368.326C344.867 368.684 345.121 368.957 345.445 369.146C345.77 369.332 346.15 369.424 346.584 369.424C346.866 369.424 347.122 369.385 347.354 369.305C347.586 369.222 347.787 369.1 347.956 368.937C348.125 368.775 348.254 368.574 348.344 368.336L349.751 368.589C349.638 369.003 349.436 369.366 349.144 369.678C348.856 369.986 348.493 370.227 348.055 370.399C347.621 370.568 347.126 370.652 346.569 370.652ZM352.956 370.498L350.709 362.862H352.246L353.742 368.47H353.817L355.318 362.862H356.854L358.346 368.445H358.42L359.907 362.862H361.443L359.201 370.498H357.684L356.133 364.985H356.019L354.468 370.498H352.956ZM371.921 364.726L370.574 364.965C370.517 364.793 370.428 364.628 370.305 364.473C370.186 364.317 370.024 364.189 369.818 364.09C369.613 363.99 369.356 363.941 369.047 363.941C368.627 363.941 368.275 364.035 367.993 364.224C367.712 364.41 367.571 364.65 367.571 364.945C367.571 365.2 367.665 365.406 367.854 365.562C368.043 365.717 368.348 365.845 368.769 365.944L369.982 366.223C370.685 366.385 371.208 366.635 371.553 366.973C371.898 367.312 372.07 367.751 372.07 368.291C372.07 368.748 371.938 369.156 371.672 369.514C371.411 369.869 371.044 370.147 370.574 370.349C370.106 370.551 369.564 370.652 368.948 370.652C368.093 370.652 367.395 370.47 366.855 370.106C366.315 369.738 365.983 369.216 365.861 368.539L367.297 368.321C367.387 368.695 367.571 368.979 367.849 369.171C368.128 369.36 368.491 369.454 368.938 369.454C369.425 369.454 369.815 369.353 370.106 369.151C370.398 368.945 370.544 368.695 370.544 368.4C370.544 368.162 370.454 367.961 370.275 367.799C370.1 367.636 369.83 367.514 369.465 367.431L368.172 367.147C367.46 366.985 366.933 366.727 366.591 366.372C366.253 366.017 366.084 365.568 366.084 365.025C366.084 364.574 366.21 364.179 366.462 363.841C366.714 363.503 367.062 363.24 367.506 363.051C367.95 362.859 368.459 362.762 369.033 362.762C369.858 362.762 370.507 362.941 370.981 363.299C371.455 363.654 371.769 364.13 371.921 364.726ZM378.362 367.331V362.862H379.853V370.498H378.392V369.176H378.312C378.137 369.584 377.855 369.923 377.467 370.195C377.083 370.463 376.604 370.598 376.03 370.598C375.54 370.598 375.106 370.49 374.728 370.275C374.353 370.056 374.058 369.733 373.843 369.305C373.631 368.878 373.525 368.349 373.525 367.719V362.862H375.011V367.54C375.011 368.061 375.155 368.475 375.444 368.783C375.732 369.091 376.106 369.245 376.567 369.245C376.846 369.245 377.122 369.176 377.397 369.037C377.676 368.897 377.906 368.687 378.089 368.405C378.274 368.124 378.365 367.766 378.362 367.331ZM381.79 370.498V360.316H383.277V364.1H383.366C383.452 363.941 383.577 363.757 383.739 363.548C383.901 363.339 384.127 363.157 384.415 363.001C384.703 362.842 385.085 362.762 385.559 362.762C386.175 362.762 386.725 362.918 387.209 363.23C387.693 363.541 388.073 363.99 388.348 364.577C388.626 365.164 388.765 365.87 388.765 366.695C388.765 367.52 388.628 368.228 388.353 368.818C388.077 369.405 387.7 369.857 387.219 370.175C386.738 370.49 386.19 370.647 385.573 370.647C385.109 370.647 384.73 370.57 384.435 370.414C384.143 370.258 383.915 370.076 383.749 369.867C383.583 369.658 383.456 369.472 383.366 369.31H383.242V370.498H381.79ZM383.247 366.68C383.247 367.217 383.325 367.688 383.48 368.092C383.636 368.496 383.862 368.813 384.157 369.042C384.452 369.267 384.813 369.38 385.24 369.38C385.684 369.38 386.056 369.262 386.354 369.027C386.652 368.788 386.878 368.465 387.03 368.057C387.186 367.65 387.264 367.191 387.264 366.68C387.264 366.176 387.188 365.724 387.035 365.323C386.886 364.922 386.661 364.605 386.359 364.373C386.061 364.141 385.688 364.025 385.24 364.025C384.809 364.025 384.445 364.136 384.147 364.358C383.852 364.58 383.628 364.89 383.475 365.288C383.323 365.686 383.247 366.15 383.247 366.68ZM390.254 370.498V362.862H391.681V364.105H391.776C391.935 363.684 392.195 363.356 392.556 363.12C392.918 362.882 393.35 362.762 393.854 362.762C394.364 362.762 394.792 362.882 395.137 363.12C395.485 363.359 395.741 363.687 395.907 364.105H395.987C396.169 363.697 396.459 363.372 396.857 363.13C397.254 362.885 397.728 362.762 398.279 362.762C398.971 362.762 399.536 362.98 399.974 363.414C400.415 363.848 400.635 364.503 400.635 365.378V370.498H399.149V365.517C399.149 365 399.008 364.625 398.726 364.393C398.444 364.161 398.108 364.045 397.717 364.045C397.233 364.045 396.857 364.194 396.588 364.493C396.32 364.788 396.186 365.167 396.186 365.631V370.498H394.704V365.422C394.704 365.008 394.575 364.675 394.316 364.423C394.058 364.171 393.721 364.045 393.307 364.045C393.025 364.045 392.765 364.12 392.526 364.269C392.291 364.415 392.101 364.619 391.955 364.88C391.812 365.142 391.741 365.445 391.741 365.79V370.498H390.254ZM402.447 370.498V362.862H403.934V370.498H402.447ZM403.198 361.684C402.94 361.684 402.718 361.597 402.532 361.425C402.35 361.249 402.259 361.041 402.259 360.799C402.259 360.553 402.35 360.345 402.532 360.172C402.718 359.997 402.94 359.909 403.198 359.909C403.457 359.909 403.677 359.997 403.859 360.172C404.045 360.345 404.138 360.553 404.138 360.799C404.138 361.041 404.045 361.249 403.859 361.425C403.677 361.597 403.457 361.684 403.198 361.684ZM411.476 364.726L410.129 364.965C410.072 364.793 409.983 364.628 409.86 364.473C409.741 364.317 409.579 364.189 409.373 364.09C409.168 363.99 408.911 363.941 408.603 363.941C408.182 363.941 407.83 364.035 407.549 364.224C407.267 364.41 407.126 364.65 407.126 364.945C407.126 365.2 407.22 365.406 407.409 365.562C407.598 365.717 407.903 365.845 408.324 365.944L409.537 366.223C410.24 366.385 410.764 366.635 411.108 366.973C411.453 367.312 411.625 367.751 411.625 368.291C411.625 368.748 411.493 369.156 411.228 369.514C410.966 369.869 410.599 370.147 410.129 370.349C409.661 370.551 409.12 370.652 408.503 370.652C407.648 370.652 406.95 370.47 406.41 370.106C405.87 369.738 405.538 369.216 405.416 368.539L406.853 368.321C406.942 368.695 407.126 368.979 407.404 369.171C407.683 369.36 408.046 369.454 408.493 369.454C408.98 369.454 409.37 369.353 409.661 369.151C409.953 368.945 410.099 368.695 410.099 368.4C410.099 368.162 410.009 367.961 409.831 367.799C409.655 367.636 409.385 367.514 409.02 367.431L407.728 367.147C407.015 366.985 406.488 366.727 406.147 366.372C405.808 366.017 405.639 365.568 405.639 365.025C405.639 364.574 405.765 364.179 406.017 363.841C406.269 363.503 406.617 363.24 407.061 363.051C407.505 362.859 408.014 362.762 408.588 362.762C409.413 362.762 410.063 362.941 410.536 363.299C411.01 363.654 411.324 364.13 411.476 364.726ZM418.802 364.726L417.455 364.965C417.398 364.793 417.309 364.628 417.186 364.473C417.067 364.317 416.904 364.189 416.699 364.09C416.493 363.99 416.237 363.941 415.928 363.941C415.507 363.941 415.156 364.035 414.874 364.224C414.593 364.41 414.452 364.65 414.452 364.945C414.452 365.2 414.546 365.406 414.735 365.562C414.924 365.717 415.229 365.845 415.65 365.944L416.863 366.223C417.566 366.385 418.089 366.635 418.434 366.973C418.779 367.312 418.951 367.751 418.951 368.291C418.951 368.748 418.819 369.156 418.553 369.514C418.292 369.869 417.925 370.147 417.455 370.349C416.987 370.551 416.445 370.652 415.829 370.652C414.974 370.652 414.276 370.47 413.736 370.106C413.196 369.738 412.864 369.216 412.742 368.539L414.178 368.321C414.268 368.695 414.452 368.979 414.73 369.171C415.009 369.36 415.372 369.454 415.819 369.454C416.306 369.454 416.696 369.353 416.987 369.151C417.279 368.945 417.425 368.695 417.425 368.4C417.425 368.162 417.335 367.961 417.156 367.799C416.981 367.636 416.711 367.514 416.346 367.431L415.053 367.147C414.341 366.985 413.814 366.727 413.472 366.372C413.134 366.017 412.965 365.568 412.965 365.025C412.965 364.574 413.091 364.179 413.343 363.841C413.595 363.503 413.943 363.24 414.387 363.051C414.831 362.859 415.34 362.762 415.913 362.762C416.739 362.762 417.388 362.941 417.862 363.299C418.336 363.654 418.649 364.13 418.802 364.726ZM420.406 370.498V362.862H421.892V370.498H420.406ZM421.156 361.684C420.898 361.684 420.676 361.597 420.49 361.425C420.308 361.249 420.217 361.041 420.217 360.799C420.217 360.553 420.308 360.345 420.49 360.172C420.676 359.997 420.898 359.909 421.156 359.909C421.415 359.909 421.635 359.997 421.817 360.172C422.003 360.345 422.096 360.553 422.096 360.799C422.096 361.041 422.003 361.249 421.817 361.425C421.635 361.597 421.415 361.684 421.156 361.684ZM426.928 370.652C426.213 370.652 425.588 370.488 425.054 370.16C424.521 369.832 424.106 369.373 423.811 368.783C423.516 368.193 423.369 367.504 423.369 366.715C423.369 365.923 423.516 365.23 423.811 364.637C424.106 364.044 424.521 363.583 425.054 363.255C425.588 362.927 426.213 362.762 426.928 362.762C427.644 362.762 428.269 362.927 428.803 363.255C429.336 363.583 429.751 364.044 430.046 364.637C430.341 365.23 430.488 365.923 430.488 366.715C430.488 367.504 430.341 368.193 430.046 368.783C429.751 369.373 429.336 369.832 428.803 370.16C428.269 370.488 427.644 370.652 426.928 370.652ZM426.933 369.405C427.397 369.405 427.782 369.282 428.087 369.037C428.392 368.791 428.617 368.465 428.763 368.057C428.912 367.65 428.987 367.2 428.987 366.71C428.987 366.223 428.912 365.775 428.763 365.368C428.617 364.957 428.392 364.627 428.087 364.378C427.782 364.13 427.397 364.005 426.933 364.005C426.466 364.005 426.078 364.13 425.77 364.378C425.465 364.627 425.238 364.957 425.089 365.368C424.943 365.775 424.87 366.223 424.87 366.71C424.87 367.2 424.943 367.65 425.089 368.057C425.238 368.465 425.465 368.791 425.77 369.037C426.078 369.282 426.466 369.405 426.933 369.405ZM433.454 365.964V370.498H431.967V362.862H433.394V364.105H433.489C433.664 363.7 433.939 363.376 434.314 363.13C434.692 362.885 435.167 362.762 435.741 362.762C436.261 362.762 436.717 362.872 437.108 363.091C437.499 363.306 437.802 363.628 438.018 364.055C438.233 364.483 438.341 365.011 438.341 365.641V370.498H436.854V365.82C436.854 365.267 436.71 364.834 436.422 364.522C436.134 364.208 435.738 364.05 435.234 364.05C434.889 364.05 434.582 364.125 434.314 364.274C434.049 364.423 433.838 364.642 433.683 364.93C433.53 365.215 433.454 365.56 433.454 365.964Z" fill="#242424"/>
<path d="M322.998 351.038H394.998V279.038H322.998V351.038Z" fill="#0E0B3D"/>
<defs>
<filter id="filter0_dd_44_7344" x="246" y="343.998" width="116" height="92" filterUnits="userSpaceOnUse" color-interpolation-filters="sRGB">
<feFlood flood-opacity="0" result="BackgroundImageFix"/>
<feColorMatrix in="SourceAlpha" type="matrix" values="0 0 0 0 0 0 0 0 0 0 0 0 0 0 0 0 0 0 127 0" result="hardAlpha"/>
<feMorphology radius="1" operator="dilate" in="SourceAlpha" result="effect1_dropShadow_44_7344"/>
<feOffset/>
<feComposite in2="hardAlpha" operator="out"/>
<feColorMatrix type="matrix" values="0 0 0 0 0.294118 0 0 0 0 0.333333 0 0 0 0 0.388235 0 0 0 0.1 0"/>
<feBlend mode="normal" in2="BackgroundImageFix" result="effect1_dropShadow_44_7344"/>
<feColorMatrix in="SourceAlpha" type="matrix" values="0 0 0 0 0 0 0 0 0 0 0 0 0 0 0 0 0 0 127 0" result="hardAlpha"/>
<feMorphology radius="12" operator="erode" in="SourceAlpha" result="effect2_dropShadow_44_7344"/>
<feOffset dy="25"/>
<feGaussianBlur stdDeviation="25"/>
<feComposite in2="hardAlpha" operator="out"/>
<feColorMatrix type="matrix" values="0 0 0 0 0 0 0 0 0 0 0 0 0 0 0 0 0 0 0.05 0"/>
<feBlend mode="normal" in2="effect1_dropShadow_44_7344" result="effect2_dropShadow_44_7344"/>
<feBlend mode="normal" in="SourceGraphic" in2="effect2_dropShadow_44_7344" result="shape"/>
</filter>
<clipPath id="clip0_44_7344">
<rect width="256.9" height="15" fill="white" transform="translate(71 207.749)"/>
</clipPath>
</defs>
</svg>
