<svg width="76" height="76" viewBox="0 0 76 76" fill="none" xmlns="http://www.w3.org/2000/svg">
<rect x="1" y="1" width="74" height="74" rx="37" stroke="#F0F0F2" stroke-width="2"/>
<path d="M50.2333 42.15L48.5667 39.3834C48.2167 38.7667 47.9 37.6 47.9 36.9167V32.7C47.9 28.7834 45.6 25.4 42.2833 23.8167C41.4167 22.2834 39.8167 21.3334 37.9833 21.3334C36.1667 21.3334 34.5333 22.3167 33.6667 23.8667C30.4167 25.4834 28.1667 28.8334 28.1667 32.7V36.9167C28.1667 37.6 27.85 38.7667 27.5 39.3667L25.8167 42.15C25.15 43.2667 25 44.5 25.4167 45.6334C25.8167 46.75 26.7667 47.6167 28 48.0334C31.2333 49.1334 34.6333 49.6667 38.0333 49.6667C41.4333 49.6667 44.8333 49.1334 48.0667 48.05C49.2333 47.6667 50.1333 46.7834 50.5667 45.6334C51 44.4834 50.8833 43.2167 50.2333 42.15Z" fill="#992479"/>
<path d="M42.7167 51.35C42.0167 53.2834 40.1667 54.6667 38 54.6667C36.6833 54.6667 35.3833 54.1334 34.4667 53.1834C33.9333 52.6834 33.5333 52.0167 33.3 51.3334C33.5167 51.3667 33.7333 51.3834 33.9667 51.4167C34.35 51.4667 34.75 51.5167 35.15 51.55C36.1 51.6334 37.0667 51.6834 38.0333 51.6834C38.9833 51.6834 39.9333 51.6334 40.8667 51.55C41.2167 51.5167 41.5667 51.5 41.9 51.45C42.1667 51.4167 42.4333 51.3834 42.7167 51.35Z" fill="#992479"/>
</svg>
