<svg width="76" height="76" viewBox="0 0 76 76" fill="none" xmlns="http://www.w3.org/2000/svg">
<rect x="1" y="1" width="74" height="74" rx="37" stroke="#F0F0F2" stroke-width="2"/>
<path d="M51.3411 29.2499C53.8725 29.2499 55.9245 27.1978 55.9245 24.6665C55.9245 22.1352 53.8725 20.0832 51.3411 20.0832C48.8098 20.0832 46.7578 22.1352 46.7578 24.6665C46.7578 27.1978 48.8098 29.2499 51.3411 29.2499Z" fill="#6F2268"/>
<path d="M49.7398 31.5832C47.1232 31.0165 44.9898 28.8832 44.4232 26.2665C44.2065 25.2499 44.1898 24.2665 44.3732 23.3332C44.5898 22.2999 43.8232 21.3332 42.7565 21.3332H29.6732C25.0732 21.3332 21.3398 25.0665 21.3398 29.6665V41.2499C21.3398 45.8499 25.0732 49.5832 29.6732 49.5832H32.1732C32.6398 49.5832 33.2398 49.8832 33.5065 50.2499L36.0065 53.5665C37.1065 55.0332 38.9065 55.0332 40.0065 53.5665L42.5065 50.2499C42.8232 49.8332 43.3065 49.5832 43.8398 49.5832H46.3565C50.9565 49.5832 54.6732 45.8665 54.6732 41.2665V33.2499C54.6732 32.1999 53.7065 31.4332 52.6732 31.6332C51.7398 31.7999 50.7565 31.7999 49.7398 31.5832ZM31.3398 37.9999C30.4065 37.9999 29.6732 37.2499 29.6732 36.3332C29.6732 35.4165 30.4065 34.6665 31.3398 34.6665C32.2565 34.6665 33.0065 35.4165 33.0065 36.3332C33.0065 37.2499 32.2732 37.9999 31.3398 37.9999ZM38.0065 37.9999C37.0732 37.9999 36.3398 37.2499 36.3398 36.3332C36.3398 35.4165 37.0732 34.6665 38.0065 34.6665C38.9232 34.6665 39.6732 35.4165 39.6732 36.3332C39.6732 37.2499 38.9398 37.9999 38.0065 37.9999ZM44.6732 37.9999C43.7398 37.9999 43.0065 37.2499 43.0065 36.3332C43.0065 35.4165 43.7398 34.6665 44.6732 34.6665C45.5898 34.6665 46.3398 35.4165 46.3398 36.3332C46.3398 37.2499 45.6065 37.9999 44.6732 37.9999Z" fill="#6F2268"/>
</svg>
