<svg width="76" height="76" viewBox="0 0 76 76" fill="none" xmlns="http://www.w3.org/2000/svg">
<rect x="1" y="1" width="74" height="74" rx="37" stroke="#171531" stroke-width="2"/>
<path d="M44.6667 21.3333H31.3334C24.6667 21.3333 21.3334 24.6666 21.3334 31.3333V53C21.3334 53.9166 22.0834 54.6666 23 54.6666H44.6667C51.3334 54.6666 54.6667 51.3333 54.6667 44.6666V31.3333C54.6667 24.6666 51.3334 21.3333 44.6667 21.3333ZM36.5167 45.7666C36.1 46.1833 35.3334 46.5666 34.7667 46.65L31.3 47.1333C31.1667 47.15 31.0334 47.1666 30.9167 47.1666C30.3334 47.1666 29.8 46.9666 29.4167 46.5833C28.95 46.1166 28.75 45.4333 28.8667 44.7L29.35 41.2333C29.4334 40.6666 29.8167 39.8833 30.2334 39.4833L36.5167 33.2C36.6167 33.5 36.75 33.8 36.9 34.1333C37.05 34.4333 37.2 34.7333 37.3667 35.0166C37.5 35.25 37.65 35.4833 37.7834 35.65C37.95 35.9 38.1167 36.1166 38.2334 36.2333C38.3 36.3333 38.3667 36.4 38.3834 36.4333C38.75 36.85 39.1334 37.25 39.5 37.55C39.6 37.65 39.6667 37.7 39.6834 37.7166C39.9 37.8833 40.1 38.0666 40.3 38.1833C40.5167 38.35 40.75 38.5 40.9834 38.6333C41.2667 38.8 41.5667 38.9666 41.8834 39.1166C42.2 39.2666 42.5 39.3833 42.8 39.4833L36.5167 45.7666ZM45.5834 36.7166L44.2834 38.0166C44.2 38.1 44.0834 38.15 43.9667 38.15C43.9334 38.15 43.8667 38.15 43.8334 38.1333C40.9667 37.3166 38.6834 35.0333 37.8667 32.1666C37.8167 32.0166 37.8667 31.85 37.9834 31.7333L39.3 30.4166C41.45 28.2666 43.4834 28.3166 45.5834 30.4166C46.65 31.4833 47.1834 32.5166 47.1667 33.5833C47.1667 34.6333 46.65 35.65 45.5834 36.7166Z" fill="#992479"/>
</svg>
