<svg width="76" height="76" viewBox="0 0 76 76" fill="none" xmlns="http://www.w3.org/2000/svg">
<rect x="1" y="1" width="74" height="74" rx="37" stroke="#F0F0F2" stroke-width="2"/>
<path d="M48.9001 24.8666L39.7334 21.4333C38.7834 21.0833 37.2334 21.0833 36.2834 21.4333L27.1167 24.8666C25.3501 25.5333 23.9167 27.5999 23.9167 29.4833V42.9833C23.9167 44.3333 24.8001 46.1166 25.8834 46.9166L35.0501 53.7666C36.6667 54.9833 39.3167 54.9833 40.9334 53.7666L50.1001 46.9166C51.1834 46.0999 52.0667 44.3333 52.0667 42.9833V29.4833C52.0834 27.5999 50.6501 25.5333 48.9001 24.8666ZM42.4667 41.2833C42.2167 41.5333 41.9001 41.6499 41.5834 41.6499C41.2667 41.6499 40.9501 41.5333 40.7001 41.2833L38.0501 38.6333L35.3167 41.3666C35.0667 41.6166 34.7501 41.7333 34.4334 41.7333C34.1167 41.7333 33.8001 41.6166 33.5501 41.3666C33.0667 40.8833 33.0667 40.0833 33.5501 39.5999L36.2834 36.8666L33.6167 34.1999C33.1334 33.7166 33.1334 32.9166 33.6167 32.4333C34.1001 31.9499 34.9001 31.9499 35.3834 32.4333L38.0334 35.0833L40.6167 32.4999C41.1001 32.0166 41.9001 32.0166 42.3834 32.4999C42.8667 32.9833 42.8667 33.7833 42.3834 34.2666L39.8001 36.8499L42.4501 39.4999C42.9501 39.9999 42.9501 40.7833 42.4667 41.2833Z" fill="#992479"/>
</svg>
