<svg width="76" height="76" viewBox="0 0 76 76" fill="none" xmlns="http://www.w3.org/2000/svg">
<rect x="1" y="1" width="74" height="74" rx="37" stroke="#171531" stroke-width="2"/>
<path d="M27.5834 44.85V31.15C29.7334 30.6 31.3334 28.6667 31.3334 26.3333C31.3334 23.5667 29.1 21.3333 26.3334 21.3333C23.5667 21.3333 21.3334 23.5667 21.3334 26.3333C21.3334 28.6667 22.9334 30.6 25.0834 31.15V44.8333C22.9334 45.4 21.3334 47.3333 21.3334 49.6667C21.3334 52.4333 23.5667 54.6667 26.3334 54.6667C29.1 54.6667 31.3334 52.4333 31.3334 49.6667C31.3334 47.3333 29.7334 45.4 27.5834 44.85Z" fill="#992479"/>
<path d="M50.9167 44.8501V28.8334C50.9167 26.3001 48.8667 24.2501 46.3333 24.2501H41.45L43.8 22.3001C44.3333 21.8501 44.4 21.0668 43.9667 20.5334C43.5167 20.0001 42.7333 19.9334 42.2 20.3668L37.2 24.5334C36.9167 24.7668 36.75 25.1168 36.75 25.5001C36.75 25.8834 36.9167 26.2168 37.2 26.4668L42.2 30.6334C42.4333 30.8334 42.7167 30.9168 43 30.9168C43.35 30.9168 43.7167 30.7668 43.9667 30.4668C44.4167 29.9334 44.3333 29.1501 43.8 28.7001L41.45 26.7501H46.3333C47.4833 26.7501 48.4167 27.6834 48.4167 28.8334V44.8501C46.2667 45.4001 44.6667 47.3334 44.6667 49.6668C44.6667 52.4334 46.9 54.6668 49.6667 54.6668C52.4333 54.6668 54.6667 52.4334 54.6667 49.6668C54.6667 47.3334 53.0667 45.4001 50.9167 44.8501Z" fill="#992479"/>
</svg>
