<svg width="76" height="76" viewBox="0 0 76 76" fill="none" xmlns="http://www.w3.org/2000/svg">
<rect x="1" y="1" width="74" height="74" rx="37" stroke="#171531" stroke-width="2"/>
<path d="M44.9834 21.3333H31.0167C24.95 21.3333 21.3334 24.9499 21.3334 31.0166V44.9666C21.3334 51.0499 24.95 54.6666 31.0167 54.6666H44.9667C51.0334 54.6666 54.65 51.0499 54.65 44.9833V31.0166C54.6667 24.9499 51.05 21.3333 44.9834 21.3333ZM45.9667 34.1666L36.5167 43.6166C36.2834 43.8499 35.9667 43.9833 35.6334 43.9833C35.3 43.9833 34.9834 43.8499 34.75 43.6166L30.0334 38.8999C29.55 38.4166 29.55 37.6166 30.0334 37.1333C30.5167 36.6499 31.3167 36.6499 31.8 37.1333L35.6334 40.9666L44.2 32.3999C44.6834 31.9166 45.4834 31.9166 45.9667 32.3999C46.45 32.8833 46.45 33.6666 45.9667 34.1666Z" fill="#992479"/>
</svg>
