<svg width="67" height="50" viewBox="0 0 67 50" fill="none" xmlns="http://www.w3.org/2000/svg">
<g filter="url(#filter0_dd_1_611)">
<path d="M6.564 30.038C6.004 30.038 5.47667 29.9727 4.982 29.842C4.49667 29.7113 4.072 29.52 3.708 29.268C3.35333 29.0067 3.07333 28.6847 2.868 28.302C2.66267 27.91 2.56 27.4527 2.56 26.93C2.56 26.3513 2.69067 25.838 2.952 25.39C3.21333 24.942 3.582 24.564 4.058 24.256C4.534 23.9387 5.08467 23.6867 5.71 23.5C6.34467 23.3133 7.03067 23.1827 7.768 23.108L7.908 24.844C7.46 24.8907 7.01667 24.9653 6.578 25.068C6.13933 25.1613 5.73333 25.2967 5.36 25.474C4.996 25.642 4.702 25.8473 4.478 26.09C4.26333 26.3327 4.156 26.6127 4.156 26.93C4.156 27.238 4.26333 27.4947 4.478 27.7C4.69267 27.9053 4.982 28.0547 5.346 28.148C5.71 28.2413 6.116 28.288 6.564 28.288C6.91867 28.288 7.24533 28.2647 7.544 28.218C7.84267 28.162 8.12267 28.0873 8.384 27.994L8.944 29.646C8.58 29.7767 8.19267 29.8747 7.782 29.94C7.38067 30.0053 6.97467 30.038 6.564 30.038ZM10.624 30.5C9.94267 30.5 9.38267 30.388 8.944 30.164C8.51467 29.94 8.19267 29.6087 7.978 29.17C7.76333 28.722 7.656 28.1667 7.656 27.504V22.716H9.252V27.504C9.252 27.8213 9.28467 28.064 9.35 28.232C9.41533 28.4 9.546 28.5167 9.742 28.582C9.94733 28.638 10.2413 28.666 10.624 28.666H11.184V30.5H10.624ZM11.184 30.5V28.666C11.2773 28.666 11.3473 28.75 11.394 28.918C11.4407 29.086 11.464 29.3053 11.464 29.576C11.464 29.856 11.4407 30.08 11.394 30.248C11.3473 30.416 11.2773 30.5 11.184 30.5ZM11.1875 30.5V28.666H11.9155C12.3075 28.666 12.6015 28.638 12.7975 28.582C12.9935 28.5167 13.1242 28.4 13.1895 28.232C13.2548 28.064 13.2875 27.8213 13.2875 27.504V23.64H14.8835V27.504C14.8835 28.1667 14.7762 28.722 14.5615 29.17C14.3468 29.6087 14.0202 29.94 13.5815 30.164C13.1522 30.388 12.5968 30.5 11.9155 30.5H11.1875ZM16.2555 30.5C15.5835 30.5 15.0282 30.388 14.5895 30.164C14.1508 29.94 13.8242 29.6087 13.6095 29.17C13.3948 28.722 13.2875 28.1667 13.2875 27.504H14.8835C14.8835 27.8213 14.9162 28.064 14.9815 28.232C15.0562 28.4 15.1915 28.5167 15.3875 28.582C15.5835 28.638 15.8728 28.666 16.2555 28.666H16.8155V30.5H16.2555ZM16.8155 30.5V28.666C16.9182 28.666 16.9882 28.75 17.0255 28.918C17.0722 29.086 17.0955 29.3053 17.0955 29.576C17.0955 29.856 17.0722 30.08 17.0255 30.248C16.9882 30.416 16.9182 30.5 16.8155 30.5ZM11.1875 30.5C11.0848 30.5 11.0148 30.416 10.9775 30.248C10.9308 30.08 10.9075 29.8513 10.9075 29.562C10.9075 29.2913 10.9308 29.0767 10.9775 28.918C11.0148 28.75 11.0848 28.666 11.1875 28.666V30.5ZM15.0935 33.902C14.8415 33.902 14.6315 33.8133 14.4635 33.636C14.2955 33.468 14.2115 33.258 14.2115 33.006C14.2115 32.7447 14.2955 32.53 14.4635 32.362C14.6315 32.2033 14.8415 32.124 15.0935 32.124C15.3548 32.124 15.5695 32.2033 15.7375 32.362C15.9055 32.53 15.9895 32.7447 15.9895 33.006C15.9895 33.258 15.9055 33.468 15.7375 33.636C15.5695 33.8133 15.3548 33.902 15.0935 33.902ZM13.0355 33.902C12.7742 33.902 12.5595 33.8133 12.3915 33.636C12.2235 33.468 12.1395 33.258 12.1395 33.006C12.1395 32.7447 12.2235 32.53 12.3915 32.362C12.5595 32.2033 12.7742 32.124 13.0355 32.124C13.2875 32.124 13.4975 32.2033 13.6655 32.362C13.8428 32.53 13.9315 32.7447 13.9315 33.006C13.9315 33.258 13.8428 33.468 13.6655 33.636C13.4975 33.8133 13.2875 33.902 13.0355 33.902ZM18.8223 23.64H20.4183V30.5H16.8203V28.666H18.8223V23.64ZM16.8203 30.5C16.7176 30.5 16.6476 30.416 16.6103 30.248C16.5636 30.08 16.5403 29.8513 16.5403 29.562C16.5403 29.2913 16.5636 29.0767 16.6103 28.918C16.6476 28.75 16.7176 28.666 16.8203 28.666V30.5ZM19.0183 34.336C18.7383 34.336 18.5003 34.238 18.3043 34.042C18.1083 33.8553 18.0103 33.6173 18.0103 33.328C18.0103 33.0387 18.1083 32.796 18.3043 32.6C18.5003 32.4133 18.7383 32.32 19.0183 32.32C19.317 32.32 19.5596 32.4133 19.7463 32.6C19.9423 32.796 20.0403 33.0387 20.0403 33.328C20.0403 33.6173 19.9423 33.8553 19.7463 34.042C19.5596 34.238 19.317 34.336 19.0183 34.336ZM24.274 30.5V28.666H26.36V30.5H24.274ZM21.25 32.53C21.7073 32.53 22.0713 32.4787 22.342 32.376C22.6127 32.2827 22.804 32.124 22.916 31.9C23.0373 31.676 23.098 31.396 23.098 31.06V23.64H24.694V31.06C24.694 31.7227 24.5633 32.292 24.302 32.768C24.05 33.244 23.6907 33.608 23.224 33.86C22.7667 34.1213 22.2067 34.2613 21.544 34.28L21.25 32.53ZM26.36 30.5V28.666C26.4533 28.666 26.5233 28.75 26.57 28.918C26.6167 29.086 26.64 29.3053 26.64 29.576C26.64 29.856 26.6167 30.08 26.57 30.248C26.5233 30.416 26.4533 30.5 26.36 30.5ZM26.3633 30.5V28.666H28.9113C29.3033 28.666 29.7279 28.6007 30.1853 28.47C30.6426 28.3393 31.0906 28.1713 31.5293 27.966C31.9773 27.7607 32.3833 27.5367 32.7473 27.294C33.1206 27.0513 33.4146 26.818 33.6293 26.594C33.8533 26.3607 33.9653 26.1553 33.9653 25.978C33.9653 25.81 33.8579 25.656 33.6433 25.516C33.4286 25.376 33.1299 25.2593 32.7473 25.166C32.3646 25.0727 31.9213 25.026 31.4173 25.026C30.9973 25.026 30.5959 25.0633 30.2133 25.138C29.8399 25.2033 29.4386 25.306 29.0093 25.446L28.4773 26.118L27.4833 25.754L28.7573 23.696C29.1306 23.5747 29.5366 23.4673 29.9753 23.374C30.4233 23.2807 30.9226 23.234 31.4733 23.234C32.2853 23.234 32.9993 23.3413 33.6153 23.556C34.2313 23.7707 34.7073 24.0693 35.0433 24.452C35.3886 24.8253 35.5613 25.2687 35.5613 25.782C35.5613 26.202 35.4446 26.6127 35.2113 27.014C34.9873 27.4153 34.6793 27.7933 34.2873 28.148C33.9046 28.4933 33.4659 28.8107 32.9713 29.1C32.4859 29.38 31.9819 29.6273 31.4593 29.842C30.9459 30.0567 30.4419 30.22 29.9473 30.332C29.4526 30.444 29.0093 30.5 28.6173 30.5H26.3633ZM33.9513 30.5C32.8593 30.5 31.8746 30.304 30.9973 29.912C30.1199 29.5107 29.3826 28.9553 28.7853 28.246C28.1879 27.5367 27.7539 26.706 27.4833 25.754L28.8273 24.928C28.9673 25.684 29.2519 26.3467 29.6813 26.916C30.1199 27.476 30.6753 27.91 31.3473 28.218C32.0193 28.5167 32.7753 28.666 33.6153 28.666H36.8213V30.5H33.9513ZM36.8213 30.5V28.666C36.9239 28.666 36.9939 28.75 37.0313 28.918C37.0779 29.086 37.1013 29.3053 37.1013 29.576C37.1013 29.856 37.0779 30.08 37.0313 30.248C36.9939 30.416 36.9239 30.5 36.8213 30.5ZM26.3633 30.5C26.2606 30.5 26.1906 30.416 26.1533 30.248C26.1066 30.08 26.0833 29.8513 26.0833 29.562C26.0833 29.2913 26.1066 29.0767 26.1533 28.918C26.1906 28.75 26.2606 28.666 26.3633 28.666V30.5ZM36.8223 30.5V28.666H38.6843V18.852H40.2803V30.5H36.8223ZM36.8223 30.5C36.7196 30.5 36.6496 30.416 36.6123 30.248C36.5656 30.08 36.5423 29.8513 36.5423 29.562C36.5423 29.2913 36.5656 29.0767 36.6123 28.918C36.6496 28.75 36.7196 28.666 36.8223 28.666V30.5ZM42.2076 30.5V18.852H43.8036V30.5H42.2076Z" fill="#6F2268"/>
<path d="M57.0007 31.6663C60.6825 31.6663 63.6673 28.6816 63.6673 24.9997C63.6673 21.3178 60.6825 18.333 57.0007 18.333C53.3188 18.333 50.334 21.3178 50.334 24.9997C50.334 28.6816 53.3188 31.6663 57.0007 31.6663Z" stroke="#6F2268" stroke-linecap="round" stroke-linejoin="round"/>
<path d="M54.3337 19H55.0004C53.7004 22.8933 53.7004 27.1067 55.0004 31H54.3337" stroke="#6F2268" stroke-linecap="round" stroke-linejoin="round"/>
<path d="M59 19C60.3 22.8933 60.3 27.1067 59 31" stroke="#6F2268" stroke-linecap="round" stroke-linejoin="round"/>
<path d="M51 27.6667V27C54.8933 28.3 59.1067 28.3 63 27V27.6667" stroke="#6F2268" stroke-linecap="round" stroke-linejoin="round"/>
<path d="M51 22.9994C54.8933 21.6994 59.1067 21.6994 63 22.9994" stroke="#6F2268" stroke-linecap="round" stroke-linejoin="round"/>
</g>
<defs>
<filter id="filter0_dd_1_611" x="0" y="-1" width="67" height="55" filterUnits="userSpaceOnUse" color-interpolation-filters="sRGB">
<feFlood flood-opacity="0" result="BackgroundImageFix"/>
<feColorMatrix in="SourceAlpha" type="matrix" values="0 0 0 0 0 0 0 0 0 0 0 0 0 0 0 0 0 0 127 0" result="hardAlpha"/>
<feOffset dy="2"/>
<feGaussianBlur stdDeviation="1"/>
<feComposite in2="hardAlpha" operator="out"/>
<feColorMatrix type="matrix" values="0 0 0 0 0 0 0 0 0 0 0 0 0 0 0 0 0 0 0.06 0"/>
<feBlend mode="normal" in2="BackgroundImageFix" result="effect1_dropShadow_1_611"/>
<feColorMatrix in="SourceAlpha" type="matrix" values="0 0 0 0 0 0 0 0 0 0 0 0 0 0 0 0 0 0 127 0" result="hardAlpha"/>
<feMorphology radius="1" operator="dilate" in="SourceAlpha" result="effect2_dropShadow_1_611"/>
<feOffset/>
<feComposite in2="hardAlpha" operator="out"/>
<feColorMatrix type="matrix" values="0 0 0 0 0.294118 0 0 0 0 0.333333 0 0 0 0 0.388235 0 0 0 0.2 0"/>
<feBlend mode="normal" in2="effect1_dropShadow_1_611" result="effect2_dropShadow_1_611"/>
<feBlend mode="normal" in="SourceGraphic" in2="effect2_dropShadow_1_611" result="shape"/>
</filter>
</defs>
</svg>
