<svg width="24" height="24" viewBox="0 0 24 24" fill="none" xmlns="http://www.w3.org/2000/svg">
<path d="M12 0C5.3725 0 0 5.3725 0 12C0 18.6275 5.3725 24 12 24C18.6275 24 24 18.6275 24 12C24 5.3725 18.6275 0 12 0ZM9.0625 16.9738H6.6325V9.15375H9.0625V16.9738ZM7.8325 8.19375C7.065 8.19375 6.56875 7.65 6.56875 6.9775C6.56875 6.29125 7.08 5.76375 7.86375 5.76375C8.6475 5.76375 9.1275 6.29125 9.1425 6.9775C9.1425 7.65 8.6475 8.19375 7.8325 8.19375ZM17.9375 16.9738H15.5075V12.64C15.5075 11.6313 15.155 10.9462 14.2763 10.9462C13.605 10.9462 13.2063 11.41 13.03 11.8563C12.965 12.015 12.9488 12.24 12.9488 12.4638V16.9725H10.5175V11.6475C10.5175 10.6713 10.4862 9.855 10.4537 9.1525H12.565L12.6763 10.2388H12.725C13.045 9.72875 13.8288 8.97625 15.14 8.97625C16.7388 8.97625 17.9375 10.0475 17.9375 12.35V16.9738Z" fill="#661D77"/>
</svg>
