<svg width="80" height="96" viewBox="0 0 80 96" fill="none" xmlns="http://www.w3.org/2000/svg">
<path d="M2.63677 49.6166C1.20241 49.6166 0.0390625 48.4532 0.0390625 47.0188C0.0390625 45.5844 1.20241 44.421 2.63677 44.421C4.07113 44.421 5.23449 45.5844 5.23449 47.0188C5.23449 48.4532 4.07113 49.6166 2.63677 49.6166Z" fill="#662978"/>
<path d="M2.63677 39.2061C1.20241 39.2061 0.0390625 38.0427 0.0390625 36.6083C0.0390625 35.1739 1.20241 34.0105 2.63677 34.0105C4.07113 34.0105 5.23449 35.1739 5.23449 36.6083C5.23449 38.0427 4.07113 39.2061 2.63677 39.2061Z" fill="#992479"/>
<path d="M10.4709 68.3336C9.10265 68.3336 7.99219 67.2231 7.99219 65.8548C7.99219 64.4865 9.10265 63.376 10.4709 63.376C11.8392 63.376 12.9496 64.4865 12.9496 65.8548C12.9496 67.2231 11.8392 68.3336 10.4709 68.3336Z" fill="#662978"/>
<path d="M10.4709 58.4078C9.10265 58.4078 7.99219 57.2973 7.99219 55.929C7.99219 54.5607 9.10265 53.4502 10.4709 53.4502C11.8392 53.4502 12.9496 54.5607 12.9496 55.929C12.9496 57.2973 11.8392 58.4078 10.4709 58.4078Z" fill="#662978"/>
<path d="M10.4709 48.4898C9.10265 48.4898 7.99219 47.3793 7.99219 46.011C7.99219 44.6427 9.10265 43.5322 10.4709 43.5322C11.8392 43.5322 12.9496 44.6427 12.9496 46.011C12.9496 47.3793 11.8392 48.4898 10.4709 48.4898Z" fill="#662978"/>
<path d="M10.4709 38.5641C9.10265 38.5641 7.99219 37.4535 7.99219 36.0852C7.99219 34.7169 9.10265 33.6064 10.4709 33.6064C11.8392 33.6064 12.9496 34.7169 12.9496 36.0852C12.9496 37.4535 11.8392 38.5641 10.4709 38.5641Z" fill="#662978"/>
<path d="M17.3285 75.8144C16.0263 75.8144 14.9688 74.7567 14.9688 73.4545C14.9688 72.1523 16.0263 71.0947 17.3285 71.0947C18.6307 71.0947 19.6883 72.1523 19.6883 73.4545C19.6883 74.7567 18.6307 75.8144 17.3285 75.8144Z" fill="#662978"/>
<path d="M17.3285 66.3671C16.0263 66.3671 14.9688 65.3095 14.9688 64.0073C14.9688 62.7051 16.0263 61.6475 17.3285 61.6475C18.6307 61.6475 19.6883 62.7051 19.6883 64.0073C19.6883 65.3095 18.6307 66.3671 17.3285 66.3671Z" fill="#662978"/>
<path d="M17.3285 56.9306C16.0263 56.9306 14.9688 55.873 14.9688 54.5708C14.9688 53.2686 16.0263 52.2109 17.3285 52.2109C18.6307 52.2109 19.6883 53.2686 19.6883 54.5708C19.6883 55.873 18.6307 56.9306 17.3285 56.9306Z" fill="#992479"/>
<path d="M17.3285 47.4872C16.0263 47.4872 14.9688 46.4296 14.9688 45.1274C14.9688 43.8252 16.0263 42.7676 17.3285 42.7676C18.6307 42.7676 19.6883 43.8252 19.6883 45.1274C19.6883 46.4296 18.6307 47.4872 17.3285 47.4872Z" fill="#662978"/>
<path d="M17.3285 38.0429C16.0263 38.0429 14.9688 36.9853 14.9688 35.6831C14.9688 34.3809 16.0263 33.3232 17.3285 33.3232C18.6307 33.3232 19.6883 34.3809 19.6883 35.6831C19.6883 36.9853 18.6307 38.0429 17.3285 38.0429Z" fill="#992479"/>
<path d="M23.7251 82.2971C22.4891 82.2971 21.4844 81.2924 21.4844 80.0563C21.4844 78.8202 22.4891 77.8154 23.7251 77.8154C24.9612 77.8154 25.9659 78.8202 25.9659 80.0563C25.9659 81.2924 24.9612 82.2971 23.7251 82.2971Z" fill="#992479"/>
<path d="M23.7251 73.3293C22.4891 73.3293 21.4844 72.3246 21.4844 71.0885C21.4844 69.8524 22.4891 68.8477 23.7251 68.8477C24.9612 68.8477 25.9659 69.8524 25.9659 71.0885C25.9659 72.3246 24.9612 73.3293 23.7251 73.3293Z" fill="#992479"/>
<path d="M23.7251 64.3635C22.4891 64.3635 21.4844 63.3588 21.4844 62.1227C21.4844 60.8866 22.4891 59.8818 23.7251 59.8818C24.9612 59.8818 25.9659 60.8866 25.9659 62.1227C25.9659 63.3588 24.9612 64.3635 23.7251 64.3635Z" fill="#662978"/>
<path d="M23.7251 55.4016C22.4891 55.4016 21.4844 54.3969 21.4844 53.1608C21.4844 51.9247 22.4891 50.9199 23.7251 50.9199C24.9612 50.9199 25.9659 51.9247 25.9659 53.1608C25.9659 54.3969 24.9612 55.4016 23.7251 55.4016Z" fill="#662978"/>
<path d="M23.7251 46.4338C22.4891 46.4338 21.4844 45.4291 21.4844 44.193C21.4844 42.9569 22.4891 41.9521 23.7251 41.9521C24.9612 41.9521 25.9659 42.9569 25.9659 44.193C25.9659 45.4291 24.9612 46.4338 23.7251 46.4338Z" fill="#662978"/>
<path d="M23.7251 37.468C22.4891 37.468 21.4844 36.4633 21.4844 35.2272C21.4844 33.9911 22.4891 32.9863 23.7251 32.9863C24.9612 32.9863 25.9659 33.9911 25.9659 35.2272C25.9659 36.4633 24.9612 37.468 23.7251 37.468Z" fill="#662978"/>
<path d="M29.614 87.8033C28.444 87.8033 27.4922 86.8514 27.4922 85.6814C27.4922 84.5114 28.444 83.5596 29.614 83.5596C30.7839 83.5596 31.7358 84.5114 31.7358 85.6814C31.7358 86.8514 30.7839 87.8033 29.614 87.8033Z" fill="#662978"/>
<path d="M29.614 79.3238C28.444 79.3238 27.4922 78.3719 27.4922 77.2019C27.4922 76.0319 28.444 75.0801 29.614 75.0801C30.7839 75.0801 31.7358 76.0319 31.7358 77.2019C31.7358 78.3719 30.7839 79.3238 29.614 79.3238Z" fill="#662978"/>
<path d="M29.614 70.8404C28.444 70.8404 27.4922 69.8885 27.4922 68.7185C27.4922 67.5485 28.444 66.5967 29.614 66.5967C30.7839 66.5967 31.7358 67.5485 31.7358 68.7185C31.7358 69.8885 30.7839 70.8404 29.614 70.8404Z" fill="#662978"/>
<path d="M29.614 62.3502C28.444 62.3502 27.4922 61.3983 27.4922 60.2283C27.4922 59.0583 28.444 58.1064 29.614 58.1064C30.7839 58.1064 31.7358 59.0583 31.7358 60.2283C31.7358 61.3983 30.7839 62.3502 29.614 62.3502Z" fill="#662978"/>
<path d="M29.614 53.8707C28.444 53.8707 27.4922 52.9188 27.4922 51.7488C27.4922 50.5788 28.444 49.627 29.614 49.627C30.7839 49.627 31.7358 50.5788 31.7358 51.7488C31.7358 52.9188 30.7839 53.8707 29.614 53.8707Z" fill="#992479"/>
<path d="M29.614 45.3804C28.444 45.3804 27.4922 44.4286 27.4922 43.2586C27.4922 42.0886 28.444 41.1367 29.614 41.1367C30.7839 41.1367 31.7358 42.0886 31.7358 43.2586C31.7358 44.4286 30.7839 45.3804 29.614 45.3804Z" fill="#662978"/>
<path d="M29.614 36.8931C28.444 36.8931 27.4922 35.9413 27.4922 34.7713C27.4922 33.6013 28.444 32.6494 29.614 32.6494C30.7839 32.6494 31.7358 33.6013 31.7358 34.7713C31.7358 35.9413 30.7839 36.8931 29.614 36.8931Z" fill="#662978"/>
<path d="M35.0184 84.4296C33.9146 84.4296 33.0156 83.5306 33.0156 82.4267C33.0156 81.3228 33.9146 80.4238 35.0184 80.4238C36.1223 80.4238 37.0213 81.3228 37.0213 82.4267C37.0213 83.5306 36.1223 84.4296 35.0184 84.4296Z" fill="#992479"/>
<path d="M35.0184 76.411C33.9146 76.411 33.0156 75.512 33.0156 74.4081C33.0156 73.3043 33.9146 72.4053 35.0184 72.4053C36.1223 72.4053 37.0213 73.3043 37.0213 74.4081C37.0213 75.512 36.1223 76.411 35.0184 76.411Z" fill="#992479"/>
<path d="M35.0184 68.4061C33.9146 68.4061 33.0156 67.5072 33.0156 66.4033C33.0156 65.2994 33.9146 64.4004 35.0184 64.4004C36.1223 64.4004 37.0213 65.2994 37.0213 66.4033C37.0213 67.5072 36.1223 68.4061 35.0184 68.4061Z" fill="#992479"/>
<path d="M35.0184 60.4042C33.9146 60.4042 33.0156 59.5052 33.0156 58.4013C33.0156 57.2974 33.9146 56.3984 35.0184 56.3984C36.1223 56.3984 37.0213 57.2974 37.0213 58.4013C37.0213 59.5052 36.1223 60.4042 35.0184 60.4042Z" fill="#992479"/>
<path d="M35.0184 52.3925C33.9146 52.3925 33.0156 51.4935 33.0156 50.3896C33.0156 49.2857 33.9146 48.3867 35.0184 48.3867C36.1223 48.3867 37.0213 49.2857 37.0213 50.3896C37.0213 51.4935 36.1223 52.3925 35.0184 52.3925Z" fill="#662978"/>
<path d="M35.0184 44.3847C33.9146 44.3847 33.0156 43.4857 33.0156 42.3818C33.0156 41.2779 33.9146 40.3789 35.0184 40.3789C36.1223 40.3789 37.0213 41.2779 37.0213 42.3818C37.0213 43.4857 36.1223 44.3847 35.0184 44.3847Z" fill="#662978"/>
<path d="M35.0184 36.3827C33.9146 36.3827 33.0156 35.4837 33.0156 34.3798C33.0156 33.2759 33.9146 32.377 35.0184 32.377C36.1223 32.377 37.0213 33.2759 37.0213 34.3798C37.0213 35.4837 36.1223 36.3827 35.0184 36.3827Z" fill="#992479"/>
<path d="M40.4698 87.9514C39.432 87.9514 38.5859 87.1119 38.5859 86.0675C38.5859 85.0231 39.4254 84.1836 40.4698 84.1836C41.5142 84.1836 42.3536 85.0231 42.3536 86.0675C42.3536 87.1119 41.5142 87.9514 40.4698 87.9514Z" fill="#662978"/>
<path d="M40.4698 80.8996C39.432 80.8996 38.5859 80.0601 38.5859 79.0157C38.5859 77.9713 39.4254 77.1318 40.4698 77.1318C41.5142 77.1318 42.3536 77.9713 42.3536 79.0157C42.3536 80.0601 41.5142 80.8996 40.4698 80.8996Z" fill="#662978"/>
<path d="M40.4698 72.9016C39.432 72.9016 38.5859 72.0621 38.5859 71.0177C38.5859 69.9733 39.4254 69.1338 40.4698 69.1338C41.5142 69.1338 42.3536 69.9733 42.3536 71.0177C42.3536 72.0621 41.5142 72.9016 40.4698 72.9016Z" fill="#662978"/>
<path d="M40.4698 65.3713C39.432 65.3713 38.5859 64.5318 38.5859 63.4874C38.5859 62.443 39.4254 61.6035 40.4698 61.6035C41.5142 61.6035 42.3536 62.443 42.3536 63.4874C42.3536 64.5318 41.5142 65.3713 40.4698 65.3713Z" fill="#662978"/>
<path d="M40.4698 58.3264C39.432 58.3264 38.5859 57.4869 38.5859 56.4425C38.5859 55.3981 39.4254 54.5586 40.4698 54.5586C41.5142 54.5586 42.3536 55.3981 42.3536 56.4425C42.3536 57.4869 41.5142 58.3264 40.4698 58.3264Z" fill="#662978"/>
<path d="M40.4698 50.7932C39.432 50.7932 38.5859 49.9537 38.5859 48.9093C38.5859 47.8649 39.4254 47.0254 40.4698 47.0254C41.5142 47.0254 42.3536 47.8649 42.3536 48.9093C42.3536 49.9537 41.5142 50.7932 40.4698 50.7932Z" fill="#662978"/>
<path d="M40.4698 43.2668C39.432 43.2668 38.5859 42.4273 38.5859 41.3829C38.5859 40.3385 39.4254 39.499 40.4698 39.499C41.5142 39.499 42.3536 40.3385 42.3536 41.3829C42.3536 42.4273 41.5142 43.2668 40.4698 43.2668Z" fill="#662978"/>
<path d="M40.4698 35.7404C39.432 35.7404 38.5859 34.9009 38.5859 33.8565C38.5859 32.8121 39.4254 31.9727 40.4698 31.9727C41.5142 31.9727 42.3536 32.8121 42.3536 33.8565C42.3536 34.9009 41.5142 35.7404 40.4698 35.7404Z" fill="#662978"/>
<path d="M45.8899 84.4956C44.9182 84.4956 44.125 83.709 44.125 82.7307C44.125 81.7524 44.9116 80.9658 45.8899 80.9658C46.8681 80.9658 47.6547 81.7524 47.6547 82.7307C47.6547 83.709 46.8681 84.4956 45.8899 84.4956Z" fill="#662978"/>
<path d="M45.8899 77.4615C44.9182 77.4615 44.125 76.6748 44.125 75.6965C44.125 74.7182 44.9116 73.9316 45.8899 73.9316C46.8681 73.9316 47.6547 74.7182 47.6547 75.6965C47.6547 76.6748 46.8681 77.4615 45.8899 77.4615Z" fill="#662978"/>
<path d="M45.8899 70.4058C44.9182 70.4058 44.125 69.6192 44.125 68.6409C44.125 67.6626 44.9116 66.876 45.8899 66.876C46.8681 66.876 47.6547 67.6626 47.6547 68.6409C47.6547 69.6192 46.8681 70.4058 45.8899 70.4058Z" fill="#662978"/>
<path d="M45.8899 63.3579C44.9182 63.3579 44.125 62.5713 44.125 61.593C44.125 60.6147 44.9116 59.8281 45.8899 59.8281C46.8681 59.8281 47.6547 60.6147 47.6547 61.593C47.6547 62.5713 46.8681 63.3579 45.8899 63.3579Z" fill="#992479"/>
<path d="M45.8899 56.3032C44.9182 56.3032 44.125 55.5166 44.125 54.5383C44.125 53.56 44.9116 52.7734 45.8899 52.7734C46.8681 52.7734 47.6547 53.56 47.6547 54.5383C47.6547 55.5166 46.8681 56.3032 45.8899 56.3032Z" fill="#662978"/>
<path d="M45.8899 49.2622C44.9182 49.2622 44.125 48.4756 44.125 47.4973C44.125 46.519 44.9116 45.7324 45.8899 45.7324C46.8681 45.7324 47.6547 46.519 47.6547 47.4973C47.6547 48.4756 46.8681 49.2622 45.8899 49.2622Z" fill="#992479"/>
<path d="M45.8899 42.2066C44.9182 42.2066 44.125 41.42 44.125 40.4417C44.125 39.4634 44.9116 38.6768 45.8899 38.6768C46.8681 38.6768 47.6547 39.4634 47.6547 40.4417C47.6547 41.42 46.8681 42.2066 45.8899 42.2066Z" fill="#662978"/>
<path d="M45.8899 35.1558C44.9182 35.1558 44.125 34.3692 44.125 33.3909C44.125 32.4126 44.9116 31.626 45.8899 31.626C46.8681 31.626 47.6547 32.4126 47.6547 33.3909C47.6547 34.3692 46.8681 35.1558 45.8899 35.1558Z" fill="#992479"/>
<path d="M45.8899 28.104C44.9182 28.104 44.125 27.3174 44.125 26.3391C44.125 25.3608 44.9116 24.5742 45.8899 24.5742C46.8681 24.5742 47.6547 25.3608 47.6547 26.3391C47.6547 27.3174 46.8681 28.104 45.8899 28.104Z" fill="#662978"/>
<path d="M45.8899 21.0562C44.9182 21.0562 44.125 20.2696 44.125 19.2913C44.125 18.313 44.9116 17.5264 45.8899 17.5264C46.8681 17.5264 47.6547 18.313 47.6547 19.2913C47.6547 20.2696 46.8681 21.0562 45.8899 21.0562Z" fill="#992479"/>
<path d="M45.8899 14.0074C44.9182 14.0074 44.125 13.2207 44.125 12.2424C44.125 11.2641 44.9116 10.4775 45.8899 10.4775C46.8681 10.4775 47.6547 11.2641 47.6547 12.2424C47.6547 13.2207 46.8681 14.0074 45.8899 14.0074Z" fill="#662978"/>
<path d="M45.8899 5.99564C44.9182 5.99564 44.125 5.20903 44.125 4.23073C44.125 3.25243 44.9116 2.46582 45.8899 2.46582C46.8681 2.46582 47.6547 3.25243 47.6547 4.23073C47.6547 5.20903 46.8681 5.99564 45.8899 5.99564Z" fill="#662978"/>
<path d="M51.3177 87.1512C50.4122 87.1512 49.6719 86.4175 49.6719 85.5053C49.6719 84.5931 50.4056 83.8594 51.3177 83.8594C52.2299 83.8594 52.9636 84.5931 52.9636 85.5053C52.9636 86.4175 52.2299 87.1512 51.3177 87.1512Z" fill="#662978"/>
<path d="M51.3177 80.579C50.4122 80.579 49.6719 79.8452 49.6719 78.933C49.6719 78.0208 50.4056 77.2871 51.3177 77.2871C52.2299 77.2871 52.9636 78.0208 52.9636 78.933C52.9636 79.8452 52.2299 80.579 51.3177 80.579Z" fill="#992479"/>
<path d="M51.3177 74.0126C50.4122 74.0126 49.6719 73.2788 49.6719 72.3666C49.6719 71.4544 50.4056 70.7207 51.3177 70.7207C52.2299 70.7207 52.9636 71.4544 52.9636 72.3666C52.9636 73.2788 52.2299 74.0126 51.3177 74.0126Z" fill="#662978"/>
<path d="M51.3177 67.4422C50.4122 67.4422 49.6719 66.7085 49.6719 65.7963C49.6719 64.8841 50.4056 64.1504 51.3177 64.1504C52.2299 64.1504 52.9636 64.8841 52.9636 65.7963C52.9636 66.7085 52.2299 67.4422 51.3177 67.4422Z" fill="#662978"/>
<path d="M51.3177 60.8729C50.4122 60.8729 49.6719 60.1392 49.6719 59.227C49.6719 58.3148 50.4056 57.5811 51.3177 57.5811C52.2299 57.5811 52.9636 58.3148 52.9636 59.227C52.9636 60.1392 52.2299 60.8729 51.3177 60.8729Z" fill="#662978"/>
<path d="M51.3177 54.2928C50.4122 54.2928 49.6719 53.5591 49.6719 52.6469C49.6719 51.7347 50.4056 51.001 51.3177 51.001C52.2299 51.001 52.9636 51.7347 52.9636 52.6469C52.9636 53.5591 52.2299 54.2928 51.3177 54.2928Z" fill="#662978"/>
<path d="M51.3177 47.7333C50.4122 47.7333 49.6719 46.9995 49.6719 46.0873C49.6719 45.1751 50.4056 44.4414 51.3177 44.4414C52.2299 44.4414 52.9636 45.1751 52.9636 46.0873C52.9636 46.9995 52.2299 47.7333 51.3177 47.7333Z" fill="#662978"/>
<path d="M51.3177 41.1502C50.4122 41.1502 49.6719 40.4165 49.6719 39.5043C49.6719 38.5921 50.4056 37.8584 51.3177 37.8584C52.2299 37.8584 52.9636 38.5921 52.9636 39.5043C52.9636 40.4165 52.2299 41.1502 51.3177 41.1502Z" fill="#662978"/>
<path d="M51.3177 34.5838C50.4122 34.5838 49.6719 33.8501 49.6719 32.9379C49.6719 32.0257 50.4056 31.292 51.3177 31.292C52.2299 31.292 52.9636 32.0257 52.9636 32.9379C52.9636 33.8501 52.2299 34.5838 51.3177 34.5838Z" fill="#662978"/>
<path d="M51.3177 28.0145C50.4122 28.0145 49.6719 27.2808 49.6719 26.3686C49.6719 25.4564 50.4056 24.7227 51.3177 24.7227C52.2299 24.7227 52.9636 25.4564 52.9636 26.3686C52.9636 27.2808 52.2299 28.0145 51.3177 28.0145Z" fill="#662978"/>
<path d="M51.3177 21.4413C50.4122 21.4413 49.6719 20.7075 49.6719 19.7953C49.6719 18.8831 50.4056 18.1494 51.3177 18.1494C52.2299 18.1494 52.9636 18.8831 52.9636 19.7953C52.9636 20.7075 52.2299 21.4413 51.3177 21.4413Z" fill="#992479"/>
<path d="M51.3177 14.871C50.4122 14.871 49.6719 14.1372 49.6719 13.225C49.6719 12.3128 50.4056 11.5791 51.3177 11.5791C52.2299 11.5791 52.9636 12.3128 52.9636 13.225C52.9636 14.1372 52.2299 14.871 51.3177 14.871Z" fill="#992479"/>
<path d="M51.3177 7.8231C50.4122 7.8231 49.6719 7.08937 49.6719 6.17718C49.6719 5.26498 50.4056 4.53125 51.3177 4.53125C52.2299 4.53125 52.9636 5.26498 52.9636 6.17718C52.9636 7.08937 52.2299 7.8231 51.3177 7.8231Z" fill="#662978"/>
<path d="M56.2469 82.6793C55.4074 82.6793 54.7266 81.9985 54.7266 81.159C54.7266 80.3195 55.4074 79.6387 56.2469 79.6387C57.0863 79.6387 57.7671 80.3195 57.7671 81.159C57.7671 81.9985 57.0863 82.6793 56.2469 82.6793Z" fill="#662978"/>
<path d="M56.2469 76.5807C55.4074 76.5807 54.7266 75.8999 54.7266 75.0604C54.7266 74.2209 55.4074 73.54 56.2469 73.54C57.0863 73.54 57.7671 74.2209 57.7671 75.0604C57.7671 75.8999 57.0863 76.5807 56.2469 76.5807Z" fill="#662978"/>
<path d="M56.2469 70.483C55.4074 70.483 54.7266 69.8022 54.7266 68.9627C54.7266 68.1232 55.4074 67.4424 56.2469 67.4424C57.0863 67.4424 57.7671 68.1232 57.7671 68.9627C57.7671 69.8022 57.0863 70.483 56.2469 70.483Z" fill="#662978"/>
<path d="M56.2469 64.3952C55.4074 64.3952 54.7266 63.7143 54.7266 62.8748C54.7266 62.0353 55.4074 61.3545 56.2469 61.3545C57.0863 61.3545 57.7671 62.0353 57.7671 62.8748C57.7671 63.7143 57.0863 64.3952 56.2469 64.3952Z" fill="#992479"/>
<path d="M56.2469 58.3073C55.4074 58.3073 54.7266 57.6264 54.7266 56.7869C54.7266 55.9474 55.4074 55.2666 56.2469 55.2666C57.0863 55.2666 57.7671 55.9474 57.7671 56.7869C57.7671 57.6264 57.0863 58.3073 56.2469 58.3073Z" fill="#662978"/>
<path d="M56.2469 52.2086C55.4074 52.2086 54.7266 51.5278 54.7266 50.6883C54.7266 49.8488 55.4074 49.168 56.2469 49.168C57.0863 49.168 57.7671 49.8488 57.7671 50.6883C57.7671 51.5278 57.0863 52.2086 56.2469 52.2086Z" fill="#662978"/>
<path d="M56.2469 46.1247C55.4074 46.1247 54.7266 45.4438 54.7266 44.6043C54.7266 43.7648 55.4074 43.084 56.2469 43.084C57.0863 43.084 57.7671 43.7648 57.7671 44.6043C57.7671 45.4438 57.0863 46.1247 56.2469 46.1247Z" fill="#662978"/>
<path d="M56.2469 40.0329C55.4074 40.0329 54.7266 39.352 54.7266 38.5125C54.7266 37.673 55.4074 36.9922 56.2469 36.9922C57.0863 36.9922 57.7671 37.673 57.7671 38.5125C57.7671 39.352 57.0863 40.0329 56.2469 40.0329Z" fill="#992479"/>
<path d="M56.2469 33.9352C55.4074 33.9352 54.7266 33.2544 54.7266 32.4149C54.7266 31.5754 55.4074 30.8945 56.2469 30.8945C57.0863 30.8945 57.7671 31.5754 57.7671 32.4149C57.7671 33.2544 57.0863 33.9352 56.2469 33.9352Z" fill="#662978"/>
<path d="M56.2469 27.8444C55.4074 27.8444 54.7266 27.1635 54.7266 26.324C54.7266 25.4846 55.4074 24.8037 56.2469 24.8037C57.0863 24.8037 57.7671 25.4846 57.7671 26.324C57.7671 27.1635 57.0863 27.8444 56.2469 27.8444Z" fill="#662978"/>
<path d="M56.2469 21.7457C55.4074 21.7457 54.7266 21.0649 54.7266 20.2254C54.7266 19.3859 55.4074 18.7051 56.2469 18.7051C57.0863 18.7051 57.7671 19.3859 57.7671 20.2254C57.7671 21.0649 57.0863 21.7457 56.2469 21.7457Z" fill="#662978"/>
<path d="M56.2469 15.6579C55.4074 15.6579 54.7266 14.977 54.7266 14.1375C54.7266 13.298 55.4074 12.6172 56.2469 12.6172C57.0863 12.6172 57.7671 13.298 57.7671 14.1375C57.7671 14.977 57.0863 15.6579 56.2469 15.6579Z" fill="#662978"/>
<path d="M56.2469 9.56996C55.4074 9.56996 54.7266 8.88912 54.7266 8.04963C54.7266 7.21014 55.4074 6.5293 56.2469 6.5293C57.0863 6.5293 57.7671 7.21014 57.7671 8.04963C57.7671 8.88912 57.0863 9.56996 56.2469 9.56996Z" fill="#662978"/>
<path d="M61.1982 78.2099C60.4248 78.2099 59.7969 77.582 59.7969 76.8086C59.7969 76.0352 60.4248 75.4072 61.1982 75.4072C61.9715 75.4072 62.5995 76.0352 62.5995 76.8086C62.5995 77.582 61.9715 78.2099 61.1982 78.2099Z" fill="#662978"/>
<path d="M61.1982 72.5898C60.4248 72.5898 59.7969 71.9618 59.7969 71.1885C59.7969 70.4151 60.4248 69.7871 61.1982 69.7871C61.9715 69.7871 62.5995 70.4151 62.5995 71.1885C62.5995 71.9618 61.9715 72.5898 61.1982 72.5898Z" fill="#992479"/>
<path d="M61.1982 66.9765C60.4248 66.9765 59.7969 66.3486 59.7969 65.5752C59.7969 64.8018 60.4248 64.1738 61.1982 64.1738C61.9715 64.1738 62.5995 64.8018 62.5995 65.5752C62.5995 66.3486 61.9715 66.9765 61.1982 66.9765Z" fill="#662978"/>
<path d="M61.1982 61.3711C60.4248 61.3711 59.7969 60.7431 59.7969 59.9697C59.7969 59.1963 60.4248 58.5684 61.1982 58.5684C61.9715 58.5684 62.5995 59.1963 62.5995 59.9697C62.5995 60.7431 61.9715 61.3711 61.1982 61.3711Z" fill="#662978"/>
<path d="M61.1982 55.7578C60.4248 55.7578 59.7969 55.1298 59.7969 54.3564C59.7969 53.583 60.4248 52.9551 61.1982 52.9551C61.9715 52.9551 62.5995 53.583 62.5995 54.3564C62.5995 55.1298 61.9715 55.7578 61.1982 55.7578Z" fill="#992479"/>
<path d="M61.1982 50.1386C60.4248 50.1386 59.7969 49.5107 59.7969 48.7373C59.7969 47.9639 60.4248 47.3359 61.1982 47.3359C61.9715 47.3359 62.5995 47.9639 62.5995 48.7373C62.5995 49.5107 61.9715 50.1386 61.1982 50.1386Z" fill="#662978"/>
<path d="M61.1982 44.5185C60.4248 44.5185 59.7969 43.8906 59.7969 43.1172C59.7969 42.3438 60.4248 41.7158 61.1982 41.7158C61.9715 41.7158 62.5995 42.3438 62.5995 43.1172C62.5995 43.8906 61.9715 44.5185 61.1982 44.5185Z" fill="#992479"/>
<path d="M61.1982 38.9091C60.4248 38.9091 59.7969 38.2812 59.7969 37.5078C59.7969 36.7344 60.4248 36.1064 61.1982 36.1064C61.9715 36.1064 62.5995 36.7344 62.5995 37.5078C62.5995 38.2812 61.9715 38.9091 61.1982 38.9091Z" fill="#662978"/>
<path d="M61.1982 33.2998C60.4248 33.2998 59.7969 32.6718 59.7969 31.8984C59.7969 31.125 60.4248 30.4971 61.1982 30.4971C61.9715 30.4971 62.5995 31.125 62.5995 31.8984C62.5995 32.6718 61.9715 33.2998 61.1982 33.2998Z" fill="#662978"/>
<path d="M61.1982 27.6904C60.4248 27.6904 59.7969 27.0624 59.7969 26.289C59.7969 25.5157 60.4248 24.8877 61.1982 24.8877C61.9715 24.8877 62.5995 25.5157 62.5995 26.289C62.5995 27.0624 61.9715 27.6904 61.1982 27.6904Z" fill="#992479"/>
<path d="M61.1982 22.0673C60.4248 22.0673 59.7969 21.4394 59.7969 20.666C59.7969 19.8926 60.4248 19.2646 61.1982 19.2646C61.9715 19.2646 62.5995 19.8926 62.5995 20.666C62.5995 21.4394 61.9715 22.0673 61.1982 22.0673Z" fill="#662978"/>
<path d="M61.1982 16.4541C60.4248 16.4541 59.7969 15.8261 59.7969 15.0527C59.7969 14.2793 60.4248 13.6514 61.1982 13.6514C61.9715 13.6514 62.5995 14.2793 62.5995 15.0527C62.5995 15.8261 61.9715 16.4541 61.1982 16.4541Z" fill="#992479"/>
<path d="M61.1982 10.8447C60.4248 10.8447 59.7969 10.2167 59.7969 9.44334C59.7969 8.66996 60.4248 8.04199 61.1982 8.04199C61.9715 8.04199 62.5995 8.66996 62.5995 9.44334C62.5995 10.2167 61.9715 10.8447 61.1982 10.8447Z" fill="#662978"/>
<path d="M66.1183 73.6692C65.411 73.6692 64.8359 73.0941 64.8359 72.3869C64.8359 71.6796 65.411 71.1045 66.1183 71.1045C66.8255 71.1045 67.4006 71.6796 67.4006 72.3869C67.4006 73.0941 66.8255 73.6692 66.1183 73.6692Z" fill="#662978"/>
<path d="M66.1183 68.5315C65.411 68.5315 64.8359 67.9565 64.8359 67.2492C64.8359 66.5419 65.411 65.9668 66.1183 65.9668C66.8255 65.9668 67.4006 66.5419 67.4006 67.2492C67.4006 67.9565 66.8255 68.5315 66.1183 68.5315Z" fill="#662978"/>
<path d="M66.1183 63.3938C65.411 63.3938 64.8359 62.8188 64.8359 62.1115C64.8359 61.4042 65.411 60.8291 66.1183 60.8291C66.8255 60.8291 67.4006 61.4042 67.4006 62.1115C67.4006 62.8188 66.8255 63.3938 66.1183 63.3938Z" fill="#992479"/>
<path d="M66.1183 58.2591C65.411 58.2591 64.8359 57.684 64.8359 56.9767C64.8359 56.2694 65.411 55.6943 66.1183 55.6943C66.8255 55.6943 67.4006 56.2694 67.4006 56.9767C67.4006 57.684 66.8255 58.2591 66.1183 58.2591Z" fill="#662978"/>
<path d="M66.1183 53.1243C65.411 53.1243 64.8359 52.5492 64.8359 51.8419C64.8359 51.1346 65.411 50.5596 66.1183 50.5596C66.8255 50.5596 67.4006 51.1346 67.4006 51.8419C67.4006 52.5492 66.8255 53.1243 66.1183 53.1243Z" fill="#662978"/>
<path d="M66.1183 47.9934C65.411 47.9934 64.8359 47.4184 64.8359 46.7111C64.8359 46.0038 65.411 45.4287 66.1183 45.4287C66.8255 45.4287 67.4006 46.0038 67.4006 46.7111C67.4006 47.4184 66.8255 47.9934 66.1183 47.9934Z" fill="#992479"/>
<path d="M66.1183 42.8518C65.411 42.8518 64.8359 42.2768 64.8359 41.5695C64.8359 40.8622 65.411 40.2871 66.1183 40.2871C66.8255 40.2871 67.4006 40.8622 67.4006 41.5695C67.4006 42.2768 66.8255 42.8518 66.1183 42.8518Z" fill="#662978"/>
<path d="M66.1183 37.721C65.411 37.721 64.8359 37.1459 64.8359 36.4386C64.8359 35.7313 65.411 35.1562 66.1183 35.1562C66.8255 35.1562 67.4006 35.7313 67.4006 36.4386C67.4006 37.1459 66.8255 37.721 66.1183 37.721Z" fill="#662978"/>
<path d="M66.1183 32.5833C65.411 32.5833 64.8359 32.0082 64.8359 31.3009C64.8359 30.5936 65.411 30.0186 66.1183 30.0186C66.8255 30.0186 67.4006 30.5936 67.4006 31.3009C67.4006 32.0082 66.8255 32.5833 66.1183 32.5833Z" fill="#662978"/>
<path d="M66.1183 27.4524C65.411 27.4524 64.8359 26.8773 64.8359 26.1701C64.8359 25.4628 65.411 24.8877 66.1183 24.8877C66.8255 24.8877 67.4006 25.4628 67.4006 26.1701C67.4006 26.8773 66.8255 27.4524 66.1183 27.4524Z" fill="#662978"/>
<path d="M66.1183 22.3147C65.411 22.3147 64.8359 21.7397 64.8359 21.0324C64.8359 20.3251 65.411 19.75 66.1183 19.75C66.8255 19.75 67.4006 20.3251 67.4006 21.0324C67.4006 21.7397 66.8255 22.3147 66.1183 22.3147Z" fill="#992479"/>
<path d="M66.1183 17.1761C65.411 17.1761 64.8359 16.601 64.8359 15.8937C64.8359 15.1864 65.411 14.6113 66.1183 14.6113C66.8255 14.6113 67.4006 15.1864 67.4006 15.8937C67.4006 16.601 66.8255 17.1761 66.1183 17.1761Z" fill="#662978"/>
<path d="M66.1183 12.0452C65.411 12.0452 64.8359 11.4701 64.8359 10.7628C64.8359 10.0556 65.411 9.48047 66.1183 9.48047C66.8255 9.48047 67.4006 10.0556 67.4006 10.7628C67.4006 11.4701 66.8255 12.0452 66.1183 12.0452Z" fill="#662978"/>
<path d="M70.6748 69.4017H70.5492C69.941 69.4017 69.4453 68.906 69.4453 68.2978V68.1723C69.4453 67.5641 69.941 67.0684 70.5492 67.0684H70.6748C71.2829 67.0684 71.7786 67.5641 71.7786 68.1723V68.2978C71.7786 68.906 71.2829 69.4017 70.6748 69.4017Z" fill="#992479"/>
<path d="M70.6748 64.7455H70.5492C69.941 64.7455 69.4453 64.2497 69.4453 63.6416V63.516C69.4453 62.9079 69.941 62.4121 70.5492 62.4121H70.6748C71.2829 62.4121 71.7786 62.9079 71.7786 63.516V63.6416C71.7786 64.2497 71.2829 64.7455 70.6748 64.7455Z" fill="#662978"/>
<path d="M70.6087 60.0865C69.9675 60.0865 69.4453 59.5643 69.4453 58.9231C69.4453 58.282 69.9675 57.7598 70.6087 57.7598C71.2498 57.7598 71.772 58.282 71.772 58.9231C71.772 59.5643 71.2498 60.0865 70.6087 60.0865Z" fill="#662978"/>
<path d="M70.6087 55.4371C69.9675 55.4371 69.4453 54.9149 69.4453 54.2737C69.4453 53.6326 69.9675 53.1104 70.6087 53.1104C71.2498 53.1104 71.772 53.6326 71.772 54.2737C71.772 54.9149 71.2498 55.4371 70.6087 55.4371Z" fill="#992479"/>
<path d="M70.6087 50.774C69.9675 50.774 69.4453 50.2518 69.4453 49.6107C69.4453 48.9695 69.9675 48.4473 70.6087 48.4473C71.2498 48.4473 71.772 48.9695 71.772 49.6107C71.772 50.2518 71.2498 50.774 70.6087 50.774Z" fill="#662978"/>
<path d="M70.6087 46.1149C69.9675 46.1149 69.4453 45.5927 69.4453 44.9515C69.4453 44.3103 69.9675 43.7881 70.6087 43.7881C71.2498 43.7881 71.772 44.3103 71.772 44.9515C71.772 45.5927 71.2498 46.1149 70.6087 46.1149Z" fill="#662978"/>
<path d="M70.6087 41.4586C69.9675 41.4586 69.4453 40.9364 69.4453 40.2952C69.4453 39.654 69.9675 39.1318 70.6087 39.1318C71.2498 39.1318 71.772 39.654 71.772 40.2952C71.772 40.9364 71.2498 41.4586 70.6087 41.4586Z" fill="#992479"/>
<path d="M70.6087 36.7994C69.9675 36.7994 69.4453 36.2772 69.4453 35.636C69.4453 34.9949 69.9675 34.4727 70.6087 34.4727C71.2498 34.4727 71.772 34.9949 71.772 35.636C71.772 36.2772 71.2498 36.7994 70.6087 36.7994Z" fill="#662978"/>
<path d="M70.6087 32.1461C69.9675 32.1461 69.4453 31.6239 69.4453 30.9827C69.4453 30.3415 69.9675 29.8193 70.6087 29.8193C71.2498 29.8193 71.772 30.3415 71.772 30.9827C71.772 31.6239 71.2498 32.1461 70.6087 32.1461Z" fill="#992479"/>
<path d="M70.6087 27.4869C69.9675 27.4869 69.4453 26.9647 69.4453 26.3235C69.4453 25.6824 69.9675 25.1602 70.6087 25.1602C71.2498 25.1602 71.772 25.6824 71.772 26.3235C71.772 26.9647 71.2498 27.4869 70.6087 27.4869Z" fill="#662978"/>
<path d="M70.6087 22.8346C69.9675 22.8346 69.4453 22.3124 69.4453 21.6712C69.4453 21.03 69.9675 20.5078 70.6087 20.5078C71.2498 20.5078 71.772 21.03 71.772 21.6712C71.772 22.3124 71.2498 22.8346 70.6087 22.8346Z" fill="#662978"/>
<path d="M70.6087 18.1852C69.9675 18.1852 69.4453 17.663 69.4453 17.0218C69.4453 16.3806 69.9675 15.8584 70.6087 15.8584C71.2498 15.8584 71.772 16.3806 71.772 17.0218C71.772 17.663 71.2498 18.1852 70.6087 18.1852Z" fill="#662978"/>
<path d="M70.6087 13.5192C69.9675 13.5192 69.4453 12.997 69.4453 12.3558C69.4453 11.7146 69.9675 11.1924 70.6087 11.1924C71.2498 11.1924 71.772 11.7146 71.772 12.3558C71.772 12.997 71.2498 13.5192 70.6087 13.5192Z" fill="#992479"/>
<path d="M75.0444 60.7509C74.4693 60.7509 74 60.2816 74 59.7065C74 59.1314 74.4693 58.6621 75.0444 58.6621C75.6194 58.6621 76.0887 59.1314 76.0887 59.7065C76.0887 60.2816 75.6194 60.7509 75.0444 60.7509Z" fill="#662978"/>
<path d="M75.0444 56.5732C74.4693 56.5732 74 56.1039 74 55.5288C74 54.9537 74.4693 54.4844 75.0444 54.4844C75.6194 54.4844 76.0887 54.9537 76.0887 55.5288C76.0887 56.1039 75.6194 56.5732 75.0444 56.5732Z" fill="#662978"/>
<path d="M75.0444 52.3964C74.4693 52.3964 74 51.9271 74 51.352C74 50.7769 74.4693 50.3076 75.0444 50.3076C75.6194 50.3076 76.0887 50.7769 76.0887 51.352C76.0887 51.9271 75.6194 52.3964 75.0444 52.3964Z" fill="#662978"/>
<path d="M75.0444 48.2148C74.4693 48.2148 74 47.7455 74 47.1704C74 46.5953 74.4693 46.126 75.0444 46.126C75.6194 46.126 76.0887 46.5953 76.0887 47.1704C76.0887 47.7455 75.6194 48.2148 75.0444 48.2148Z" fill="#992479"/>
<path d="M75.0444 44.041C74.4693 44.041 74 43.5716 74 42.9966C74 42.4215 74.4693 41.9521 75.0444 41.9521C75.6194 41.9521 76.0887 42.4215 76.0887 42.9966C76.0887 43.5716 75.6194 44.041 75.0444 44.041Z" fill="#662978"/>
<path d="M75.0444 39.8632C74.4693 39.8632 74 39.3939 74 38.8188C74 38.2437 74.4693 37.7744 75.0444 37.7744C75.6194 37.7744 76.0887 38.2437 76.0887 38.8188C76.0887 39.3939 75.6194 39.8632 75.0444 39.8632Z" fill="#662978"/>
<path d="M75.0444 35.6855C74.4693 35.6855 74 35.2162 74 34.6411C74 34.066 74.4693 33.5967 75.0444 33.5967C75.6194 33.5967 76.0887 34.066 76.0887 34.6411C76.0887 35.2162 75.6194 35.6855 75.0444 35.6855Z" fill="#992479"/>
<path d="M75.0444 31.5038C74.4693 31.5038 74 31.0345 74 30.4594C74 29.8844 74.4693 29.415 75.0444 29.415C75.6194 29.415 76.0887 29.8844 76.0887 30.4594C76.0887 31.0345 75.6194 31.5038 75.0444 31.5038Z" fill="#662978"/>
<path d="M75.0444 27.33C74.4693 27.33 74 26.8607 74 26.2856C74 25.7105 74.4693 25.2412 75.0444 25.2412C75.6194 25.2412 76.0887 25.7105 76.0887 26.2856C76.0887 26.8607 75.6194 27.33 75.0444 27.33Z" fill="#992479"/>
<path d="M75.0444 23.1494C74.4693 23.1494 74 22.68 74 22.105C74 21.5299 74.4693 21.0605 75.0444 21.0605C75.6194 21.0605 76.0887 21.5299 76.0887 22.105C76.0887 22.68 75.6194 23.1494 75.0444 23.1494Z" fill="#662978"/>
<path d="M75.0444 18.9716C74.4693 18.9716 74 18.5023 74 17.9272C74 17.3521 74.4693 16.8828 75.0444 16.8828C75.6194 16.8828 76.0887 17.3521 76.0887 17.9272C76.0887 18.5023 75.6194 18.9716 75.0444 18.9716Z" fill="#992479"/>
<path d="M75.0444 14.7939C74.4693 14.7939 74 14.3246 74 13.7495C74 13.1744 74.4693 12.7051 75.0444 12.7051C75.6194 12.7051 76.0887 13.1744 76.0887 13.7495C76.0887 14.3246 75.6194 14.7939 75.0444 14.7939Z" fill="#662978"/>
<path d="M79.0738 49.3616C78.5649 49.3616 78.1484 48.9451 78.1484 48.4362C78.1484 47.9272 78.5649 47.5107 79.0738 47.5107C79.5828 47.5107 79.9992 47.9272 79.9992 48.4362C79.9992 48.9451 79.5828 49.3616 79.0738 49.3616Z" fill="#662978"/>
<path d="M79.0738 45.6663C78.5649 45.6663 78.1484 45.2498 78.1484 44.7409C78.1484 44.2319 78.5649 43.8154 79.0738 43.8154C79.5828 43.8154 79.9992 44.2319 79.9992 44.7409C79.9992 45.2498 79.5828 45.6663 79.0738 45.6663Z" fill="#662978"/>
<path d="M79.0738 41.9661C78.5649 41.9661 78.1484 41.5496 78.1484 41.0407C78.1484 40.5317 78.5649 40.1152 79.0738 40.1152C79.5828 40.1152 79.9992 40.5317 79.9992 41.0407C79.9992 41.5496 79.5828 41.9661 79.0738 41.9661Z" fill="#992479"/>
<path d="M79.0738 38.2708C78.5649 38.2708 78.1484 37.8543 78.1484 37.3453C78.1484 36.8364 78.5649 36.4199 79.0738 36.4199C79.5828 36.4199 79.9992 36.8364 79.9992 37.3453C79.9992 37.8543 79.5828 38.2708 79.0738 38.2708Z" fill="#662978"/>
<path d="M79.0738 34.5715C78.5649 34.5715 78.1484 34.1551 78.1484 33.6461C78.1484 33.1371 78.5649 32.7207 79.0738 32.7207C79.5828 32.7207 79.9992 33.1371 79.9992 33.6461C79.9992 34.1551 79.5828 34.5715 79.0738 34.5715Z" fill="#662978"/>
<path d="M79.0738 30.8616C78.5649 30.8616 78.1484 30.4451 78.1484 29.9362C78.1484 29.4272 78.5649 29.0107 79.0738 29.0107C79.5828 29.0107 79.9992 29.4272 79.9992 29.9362C79.9992 30.4451 79.5828 30.8616 79.0738 30.8616Z" fill="#992479"/>
<path d="M79.0738 27.1692C78.5649 27.1692 78.1484 26.7528 78.1484 26.2438C78.1484 25.7348 78.5649 25.3184 79.0738 25.3184C79.5828 25.3184 79.9992 25.7348 79.9992 26.2438C79.9992 26.7528 79.5828 27.1692 79.0738 27.1692Z" fill="#662978"/>
<path d="M79.0738 23.47C78.5649 23.47 78.1484 23.0535 78.1484 22.5446C78.1484 22.0356 78.5649 21.6191 79.0738 21.6191C79.5828 21.6191 79.9992 22.0356 79.9992 22.5446C79.9992 23.0535 79.5828 23.47 79.0738 23.47Z" fill="#992479"/>
<path d="M79.0738 19.7678C78.5649 19.7678 78.1484 19.3514 78.1484 18.8424C78.1484 18.3334 78.5649 17.917 79.0738 17.917C79.5828 17.917 79.9992 18.3334 79.9992 18.8424C79.9992 19.3514 79.5828 19.7678 79.0738 19.7678Z" fill="#662978"/>
<path d="M79.0738 16.0715C78.5649 16.0715 78.1484 15.6551 78.1484 15.1461C78.1484 14.6371 78.5649 14.2207 79.0738 14.2207C79.5828 14.2207 79.9992 14.6371 79.9992 15.1461C79.9992 15.6551 79.5828 16.0715 79.0738 16.0715Z" fill="#992479"/>
<path d="M3.12116 59.5286C1.68679 59.5286 0.523438 58.3652 0.523438 56.9308C0.523438 55.4964 1.68679 54.333 3.12116 54.333C4.55552 54.333 5.71886 55.4964 5.71886 56.9308C5.71886 58.3652 4.55552 59.5286 3.12116 59.5286Z" fill="#992479"/>
<path d="M40.4698 95.9631C39.432 95.9631 38.5859 95.1236 38.5859 94.0792C38.5859 93.0348 39.4254 92.1953 40.4698 92.1953C41.5142 92.1953 42.3536 93.0348 42.3536 94.0792C42.3536 95.1236 41.5142 95.9631 40.4698 95.9631Z" fill="#662978"/>
<path d="M35.0184 92.4276C33.9146 92.4276 33.0156 91.5286 33.0156 90.4247C33.0156 89.3209 33.9146 88.4219 35.0184 88.4219C36.1223 88.4219 37.0213 89.3209 37.0213 90.4247C37.0213 91.5286 36.1223 92.4276 35.0184 92.4276Z" fill="#992479"/>
<path d="M45.8899 91.5474C44.9182 91.5474 44.125 90.7608 44.125 89.7825C44.125 88.8042 44.9116 88.0176 45.8899 88.0176C46.8681 88.0176 47.6547 88.8042 47.6547 89.7825C47.6547 90.7608 46.8681 91.5474 45.8899 91.5474Z" fill="#992479"/>
<path d="M75.0444 64.9355C74.4693 64.9355 74 64.4662 74 63.8911C74 63.316 74.4693 62.8467 75.0444 62.8467C75.6194 62.8467 76.0887 63.316 76.0887 63.8911C76.0887 64.4662 75.6194 64.9355 75.0444 64.9355Z" fill="#992479"/>
<path d="M79.0738 53.5491C78.5649 53.5491 78.1484 53.1326 78.1484 52.6237C78.1484 52.1147 78.5649 51.6982 79.0738 51.6982C79.5828 51.6982 79.9992 52.1147 79.9992 52.6237C79.9992 53.1326 79.5828 53.5491 79.0738 53.5491Z" fill="#992479"/>
<path d="M79.0738 58.344C78.5649 58.344 78.1484 57.9276 78.1484 57.4186C78.1484 56.9096 78.5649 56.4932 79.0738 56.4932C79.5828 56.4932 79.9992 56.9096 79.9992 57.4186C79.9992 57.9276 79.5828 58.344 79.0738 58.344Z" fill="#662978"/>
<path d="M78.0895 61.7022C77.5805 61.7022 77.1641 61.2857 77.1641 60.7767C77.1641 60.2678 77.5805 59.8513 78.0895 59.8513C78.5984 59.8513 79.0148 60.2678 79.0148 60.7767C79.0148 61.2857 78.5984 61.7022 78.0895 61.7022Z" fill="#662978"/>
<path d="M2.67703 28.9616C1.1964 28.9616 0 27.7652 0 26.2845C0 24.8039 1.1964 23.6074 2.67703 23.6074C4.15766 23.6074 5.35406 24.8039 5.35406 26.2845C5.35406 27.7652 4.15766 28.9616 2.67703 28.9616Z" fill="#662978"/>
<path d="M2.67703 18.2478C1.1964 18.2478 0 17.0513 0 15.5707C0 14.09 1.1964 12.8936 2.67703 12.8936C4.15766 12.8936 5.35406 14.09 5.35406 15.5707C5.35406 17.0513 4.15766 18.2478 2.67703 18.2478Z" fill="#662978"/>
<path d="M9.91082 28.9126C8.5029 28.9126 7.35938 27.769 7.35938 26.3611C7.35938 24.9531 8.5029 23.8096 9.91082 23.8096C11.3187 23.8096 12.4623 24.9531 12.4623 26.3611C12.4623 27.769 11.3187 28.9126 9.91082 28.9126Z" fill="#662978"/>
<path d="M9.91082 18.7144C8.5029 18.7144 7.35938 17.5708 7.35938 16.1628C7.35938 14.7549 8.5029 13.6113 9.91082 13.6113C11.3187 13.6113 12.4623 14.7549 12.4623 16.1628C12.4623 17.5708 11.3187 18.7144 9.91082 18.7144Z" fill="#992479"/>
<path d="M17.1224 28.7996C15.7872 28.7996 14.7031 27.7155 14.7031 26.3802C14.7031 25.045 15.7872 23.9609 17.1224 23.9609C18.4576 23.9609 19.5416 25.045 19.5416 26.3802C19.5416 27.7155 18.4576 28.7996 17.1224 28.7996Z" fill="#992479"/>
<path d="M17.1224 19.1238C15.7872 19.1238 14.7031 18.0397 14.7031 16.7045C14.7031 15.3692 15.7872 14.2852 17.1224 14.2852C18.4576 14.2852 19.5416 15.3692 19.5416 16.7045C19.5416 18.0397 18.4576 19.1238 17.1224 19.1238Z" fill="#662978"/>
<path d="M17.1224 9.44409C15.7872 9.44409 14.7031 8.36003 14.7031 7.02478C14.7031 5.68953 15.7872 4.60547 17.1224 4.60547C18.4576 4.60547 19.5416 5.68953 19.5416 7.02478C19.5416 8.36003 18.4576 9.44409 17.1224 9.44409Z" fill="#662978"/>
<path d="M23.6843 28.7037C22.4218 28.7037 21.3906 27.6791 21.3906 26.4099C21.3906 25.1408 22.4152 24.1162 23.6843 24.1162C24.9534 24.1162 25.9779 25.1408 25.9779 26.4099C25.9779 27.6791 24.9534 28.7037 23.6843 28.7037Z" fill="#662978"/>
<path d="M23.6843 19.5396C22.4218 19.5396 21.3906 18.515 21.3906 17.2459C21.3906 15.9767 22.4152 14.9521 23.6843 14.9521C24.9534 14.9521 25.9779 15.9767 25.9779 17.2459C25.9779 18.515 24.9534 19.5396 23.6843 19.5396Z" fill="#662978"/>
<path d="M23.6843 10.3726C22.4218 10.3726 21.3906 9.34802 21.3906 8.07887C21.3906 6.80973 22.4152 5.78516 23.6843 5.78516C24.9534 5.78516 25.9779 6.80973 25.9779 8.07887C25.9779 9.34802 24.9534 10.3726 23.6843 10.3726Z" fill="#662978"/>
<path d="M29.599 28.6551C28.4026 28.6551 27.4375 27.69 27.4375 26.4935C27.4375 25.2971 28.4026 24.332 29.599 24.332C30.7954 24.332 31.7604 25.2971 31.7604 26.4935C31.7604 27.69 30.7954 28.6551 29.599 28.6551Z" fill="#992479"/>
<path d="M29.599 20.0066C28.4026 20.0066 27.4375 19.0415 27.4375 17.8451C27.4375 16.6487 28.4026 15.6836 29.599 15.6836C30.7954 15.6836 31.7604 16.6487 31.7604 17.8451C31.7604 19.0415 30.7954 20.0066 29.599 20.0066Z" fill="#662978"/>
<path d="M29.599 11.368C28.4026 11.368 27.4375 10.4029 27.4375 9.20644C27.4375 8.01 28.4026 7.04492 29.599 7.04492C30.7954 7.04492 31.7604 8.01 31.7604 9.20644C31.7604 10.4029 30.7954 11.368 29.599 11.368Z" fill="#992479"/>
<path d="M35.1386 28.4883C34.0149 28.4883 33.1094 27.5761 33.1094 26.459C33.1094 25.3419 34.0216 24.4297 35.1386 24.4297C36.2557 24.4297 37.1679 25.3419 37.1679 26.459C37.1679 27.5761 36.2557 28.4883 35.1386 28.4883Z" fill="#662978"/>
<path d="M35.1386 20.3545C34.0149 20.3545 33.1094 19.4423 33.1094 18.3252C33.1094 17.2081 34.0216 16.2959 35.1386 16.2959C36.2557 16.2959 37.1679 17.2081 37.1679 18.3252C37.1679 19.4423 36.2557 20.3545 35.1386 20.3545Z" fill="#992479"/>
<path d="M35.1386 12.2256C34.0149 12.2256 33.1094 11.3134 33.1094 10.1963C33.1094 9.07919 34.0216 8.16699 35.1386 8.16699C36.2557 8.16699 37.1679 9.07919 37.1679 10.1963C37.1679 11.3134 36.2557 12.2256 35.1386 12.2256Z" fill="#662978"/>
<path d="M35.1386 4.09574C34.0149 4.09574 33.1094 3.18354 33.1094 2.06642C33.1094 0.949309 34.0216 0.0371094 35.1386 0.0371094C36.2557 0.0371094 37.1679 0.949309 37.1679 2.06642C37.1679 3.18354 36.2557 4.09574 35.1386 4.09574Z" fill="#992479"/>
<path d="M40.3959 28.3719C39.3449 28.3719 38.4922 27.5192 38.4922 26.4682C38.4922 25.4172 39.3449 24.5645 40.3959 24.5645C41.4468 24.5645 42.2995 25.4172 42.2995 26.4682C42.2995 27.5192 41.4468 28.3719 40.3959 28.3719Z" fill="#662978"/>
<path d="M40.3959 20.7606C39.3449 20.7606 38.4922 19.9079 38.4922 18.8568C38.4922 17.8058 39.3449 16.9531 40.3959 16.9531C41.4468 16.9531 42.2995 17.8058 42.2995 18.8568C42.2995 19.9079 41.4468 20.7606 40.3959 20.7606Z" fill="#662978"/>
<path d="M40.3959 13.1434C39.3449 13.1434 38.4922 12.2907 38.4922 11.2397C38.4922 10.1886 39.3449 9.33594 40.3959 9.33594C41.4468 9.33594 42.2995 10.1886 42.2995 11.2397C42.2995 12.2907 41.4468 13.1434 40.3959 13.1434Z" fill="#662978"/>
<path d="M40.3959 5.52912C39.3449 5.52912 38.4922 4.67641 38.4922 3.6254C38.4922 2.57439 39.3449 1.72168 40.3959 1.72168C41.4468 1.72168 42.2995 2.57439 42.2995 3.6254C42.2995 4.67641 41.4468 5.52912 40.3959 5.52912Z" fill="#992479"/>
</svg>
