<svg width="223" height="60" viewBox="0 0 223 60" fill="none" xmlns="http://www.w3.org/2000/svg">
<path d="M1.65135 30.9579C0.755158 30.9579 0.0283203 30.2311 0.0283203 29.3349C0.0283203 28.4387 0.755158 27.7119 1.65135 27.7119C2.54754 27.7119 3.27438 28.4387 3.27438 29.3349C3.2753 30.2311 2.54846 30.9579 1.65135 30.9579Z" fill="#661D77"/>
<path d="M1.65135 24.4676C0.755158 24.4676 0.0283203 23.7408 0.0283203 22.8447C0.0283203 21.9485 0.755158 21.2217 1.65135 21.2217C2.54754 21.2217 3.27438 21.9485 3.27438 22.8447C3.2753 23.7408 2.54846 24.4676 1.65135 24.4676Z" fill="#9B0577"/>
<path d="M6.53619 42.6475C5.68119 42.6475 4.9873 41.9545 4.9873 41.0986C4.9873 40.2437 5.68028 39.5498 6.53619 39.5498C7.39119 39.5498 8.08507 40.2428 8.08507 41.0986C8.08507 41.9545 7.39119 42.6475 6.53619 42.6475Z" fill="#661D77"/>
<path d="M6.53619 36.4531C5.68119 36.4531 4.9873 35.7602 4.9873 34.9043C4.9873 34.0493 5.68028 33.3555 6.53619 33.3555C7.39119 33.3555 8.08507 34.0484 8.08507 34.9043C8.08507 35.7602 7.39119 36.4531 6.53619 36.4531Z" fill="#661D77"/>
<path d="M6.53619 30.2588C5.68119 30.2588 4.9873 29.5659 4.9873 28.71C4.9873 27.855 5.68028 27.1611 6.53619 27.1611C7.39119 27.1611 8.08507 27.8541 8.08507 28.71C8.08507 29.5659 7.39119 30.2588 6.53619 30.2588Z" fill="#661D77"/>
<path d="M6.53619 24.0659C5.68119 24.0659 4.9873 23.373 4.9873 22.5171C4.9873 21.6621 5.68028 20.9683 6.53619 20.9683C7.39119 20.9683 8.08507 21.6612 8.08507 22.5171C8.08507 23.3721 7.39119 24.0659 6.53619 24.0659Z" fill="#661D77"/>
<path d="M10.8185 47.3235C10.0047 47.3235 9.34473 46.6635 9.34473 45.8497C9.34473 45.036 10.0047 44.376 10.8185 44.376C11.6324 44.376 12.2924 45.036 12.2924 45.8497C12.2933 46.6635 11.6333 47.3235 10.8185 47.3235Z" fill="#661D77"/>
<path d="M10.8185 41.4251C10.0047 41.4251 9.34473 40.7651 9.34473 39.9513C9.34473 39.1375 10.0047 38.4775 10.8185 38.4775C11.6324 38.4775 12.2924 39.1375 12.2924 39.9513C12.2933 40.7651 11.6333 41.4251 10.8185 41.4251Z" fill="#661D77"/>
<path d="M10.8127 35.5286C9.99888 35.5286 9.33887 34.8686 9.33887 34.0548C9.33887 33.241 9.99888 32.5811 10.8127 32.5811C11.6265 32.5811 12.2865 33.241 12.2865 34.0548C12.2874 34.8695 11.6274 35.5286 10.8127 35.5286Z" fill="#9B0577"/>
<path d="M10.8185 29.6302C10.0047 29.6302 9.34473 28.9702 9.34473 28.1564C9.34473 27.3426 10.0047 26.6826 10.8185 26.6826C11.6324 26.6826 12.2924 27.3426 12.2924 28.1564C12.2933 28.9702 11.6333 29.6302 10.8185 29.6302Z" fill="#661D77"/>
<path d="M10.8185 23.7366C10.0047 23.7366 9.34473 23.0766 9.34473 22.2628C9.34473 21.4491 10.0047 20.7891 10.8185 20.7891C11.6324 20.7891 12.2924 21.4491 12.2924 22.2628C12.2933 23.0766 11.6333 23.7366 10.8185 23.7366Z" fill="#9B0577"/>
<path d="M14.8089 51.3647C14.0362 51.3647 13.4092 50.7386 13.4092 49.9651C13.4092 49.1925 14.0353 48.5654 14.8089 48.5654C15.5815 48.5654 16.2085 49.1916 16.2085 49.9651C16.2076 50.7386 15.5815 51.3647 14.8089 51.3647Z" fill="#9B0577"/>
<path d="M14.8089 45.767C14.0362 45.767 13.4092 45.1409 13.4092 44.3674C13.4092 43.5948 14.0353 42.9678 14.8089 42.9678C15.5815 42.9678 16.2085 43.5939 16.2085 44.3674C16.2076 45.14 15.5815 45.767 14.8089 45.767Z" fill="#9B0577"/>
<path d="M14.8089 40.1674C14.0362 40.1674 13.4092 39.5413 13.4092 38.7678C13.4092 37.9952 14.0353 37.3682 14.8089 37.3682C15.5815 37.3682 16.2085 37.9943 16.2085 38.7678C16.2076 39.5404 15.5815 40.1674 14.8089 40.1674Z" fill="#661D77"/>
<path d="M14.8089 34.5737C14.0362 34.5737 13.4092 33.9475 13.4092 33.174C13.4092 32.4015 14.0353 31.7744 14.8089 31.7744C15.5815 31.7744 16.2085 32.4005 16.2085 33.174C16.2076 33.9475 15.5815 34.5737 14.8089 34.5737Z" fill="#661D77"/>
<path d="M14.8089 28.975C14.0362 28.975 13.4092 28.3489 13.4092 27.5754C13.4092 26.8028 14.0353 26.1758 14.8089 26.1758C15.5815 26.1758 16.2085 26.8019 16.2085 27.5754C16.2076 28.3489 15.5815 28.975 14.8089 28.975Z" fill="#661D77"/>
<path d="M14.8089 23.3793C14.0362 23.3793 13.4092 22.7532 13.4092 21.9797C13.4092 21.2071 14.0353 20.5801 14.8089 20.5801C15.5815 20.5801 16.2085 21.2062 16.2085 21.9797C16.2076 22.7523 15.5815 23.3793 14.8089 23.3793Z" fill="#661D77"/>
<path d="M18.4916 54.8112C17.7602 54.8112 17.167 54.2181 17.167 53.4867C17.167 52.7553 17.7602 52.1621 18.4916 52.1621C19.223 52.1621 19.8162 52.7553 19.8162 53.4867C19.8162 54.219 19.223 54.8112 18.4916 54.8112Z" fill="#661D77"/>
<path d="M18.4896 49.5153C17.7582 49.5153 17.165 48.9222 17.165 48.1908C17.165 47.4594 17.7582 46.8662 18.4896 46.8662C19.2211 46.8662 19.8143 47.4594 19.8143 48.1908C19.8143 48.9222 19.2211 49.5153 18.4896 49.5153Z" fill="#661D77"/>
<path d="M18.4896 44.2175C17.7582 44.2175 17.165 43.6243 17.165 42.8929C17.165 42.1615 17.7582 41.5684 18.4896 41.5684C19.2211 41.5684 19.8143 42.1615 19.8143 42.8929C19.8143 43.6243 19.2211 44.2175 18.4896 44.2175Z" fill="#661D77"/>
<path d="M18.4916 38.9167C17.7602 38.9167 17.167 38.3235 17.167 37.5921C17.167 36.8607 17.7602 36.2676 18.4916 36.2676C19.223 36.2676 19.8162 36.8607 19.8162 37.5921C19.8162 38.3235 19.223 38.9167 18.4916 38.9167Z" fill="#661D77"/>
<path d="M18.4916 33.6179C17.7602 33.6179 17.167 33.0247 17.167 32.2933C17.167 31.5619 17.7602 30.9688 18.4916 30.9688C19.223 30.9688 19.8162 31.5619 19.8162 32.2933C19.8162 33.0247 19.223 33.6179 18.4916 33.6179Z" fill="#9B0577"/>
<path d="M18.4916 28.32C17.7602 28.32 17.167 27.7269 17.167 26.9955C17.167 26.2641 17.7602 25.6709 18.4916 25.6709C19.223 25.6709 19.8162 26.2641 19.8162 26.9955C19.8162 27.7269 19.223 28.32 18.4916 28.32Z" fill="#661D77"/>
<path d="M18.4896 23.0202C17.7582 23.0202 17.165 22.4271 17.165 21.6957C17.165 20.9643 17.7582 20.3711 18.4896 20.3711C19.2211 20.3711 19.8143 20.9643 19.8143 21.6957C19.8143 22.4271 19.2211 23.0202 18.4896 23.0202Z" fill="#661D77"/>
<path d="M21.8814 52.6894C21.1912 52.6894 20.6318 52.1301 20.6318 51.4399C20.6318 50.7497 21.1912 50.1904 21.8814 50.1904C22.5716 50.1904 23.1309 50.7497 23.1309 51.4399C23.1318 52.1301 22.5716 52.6894 21.8814 52.6894Z" fill="#9B0577"/>
<path d="M21.8814 47.6943C21.1912 47.6943 20.6318 47.135 20.6318 46.4448C20.6318 45.7546 21.1912 45.1953 21.8814 45.1953C22.5716 45.1953 23.1309 45.7546 23.1309 46.4448C23.1318 47.1341 22.5716 47.6943 21.8814 47.6943Z" fill="#9B0577"/>
<path d="M21.8794 42.6963C21.1892 42.6963 20.6299 42.137 20.6299 41.4468C20.6299 40.7566 21.1892 40.1973 21.8794 40.1973C22.5696 40.1973 23.129 40.7566 23.129 41.4468C23.1299 42.137 22.5696 42.6963 21.8794 42.6963Z" fill="#9B0577"/>
<path d="M21.8794 37.6982C21.1892 37.6982 20.6299 37.1389 20.6299 36.4487C20.6299 35.7585 21.1892 35.1992 21.8794 35.1992C22.5696 35.1992 23.129 35.7585 23.129 36.4487C23.1299 37.1389 22.5696 37.6982 21.8794 37.6982Z" fill="#9B0577"/>
<path d="M21.8814 32.6963C21.1912 32.6963 20.6318 32.137 20.6318 31.4468C20.6318 30.7566 21.1912 30.1973 21.8814 30.1973C22.5716 30.1973 23.1309 30.7566 23.1309 31.4468C23.1318 32.1361 22.5716 32.6963 21.8814 32.6963Z" fill="#661D77"/>
<path d="M21.8814 27.6963C21.1912 27.6963 20.6318 27.137 20.6318 26.4468C20.6318 25.7566 21.1912 25.1973 21.8814 25.1973C22.5716 25.1973 23.1309 25.7566 23.1309 26.4468C23.1318 27.137 22.5716 27.6963 21.8814 27.6963Z" fill="#661D77"/>
<path d="M21.8814 22.6963C21.1912 22.6963 20.6318 22.137 20.6318 21.4468C20.6318 20.7566 21.1912 20.1973 21.8814 20.1973C22.5716 20.1973 23.1309 20.7566 23.1309 21.4468C23.1318 22.137 22.5716 22.6963 21.8814 22.6963Z" fill="#9B0577"/>
<path d="M25.2662 54.8995C24.6172 54.8995 24.0908 54.3732 24.0908 53.7242C24.0908 53.0752 24.6172 52.5488 25.2662 52.5488C25.9152 52.5488 26.4416 53.0752 26.4416 53.7242C26.4407 54.3741 25.9152 54.8995 25.2662 54.8995Z" fill="#661D77"/>
<path d="M25.2662 50.4982C24.6172 50.4982 24.0908 49.9718 24.0908 49.3228C24.0908 48.6738 24.6172 48.1475 25.2662 48.1475C25.9152 48.1475 26.4416 48.6738 26.4416 49.3228C26.4407 49.9718 25.9152 50.4982 25.2662 50.4982Z" fill="#661D77"/>
<path d="M25.2662 45.5001C24.6172 45.5001 24.0908 44.9738 24.0908 44.3248C24.0908 43.6758 24.6172 43.1494 25.2662 43.1494C25.9152 43.1494 26.4416 43.6758 26.4416 44.3248C26.4407 44.9738 25.9152 45.5001 25.2662 45.5001Z" fill="#661D77"/>
<path d="M25.2662 40.798C24.6172 40.798 24.0908 40.2716 24.0908 39.6226C24.0908 38.9736 24.6172 38.4473 25.2662 38.4473C25.9152 38.4473 26.4416 38.9736 26.4416 39.6226C26.4407 40.2716 25.9152 40.798 25.2662 40.798Z" fill="#661D77"/>
<path d="M25.2662 36.3966C24.6172 36.3966 24.0908 35.8703 24.0908 35.2213C24.0908 34.5722 24.6172 34.0459 25.2662 34.0459C25.9152 34.0459 26.4416 34.5722 26.4416 35.2213C26.4407 35.8712 25.9152 36.3966 25.2662 36.3966Z" fill="#661D77"/>
<path d="M25.2662 31.6984C24.6172 31.6984 24.0908 31.172 24.0908 30.523C24.0908 29.874 24.6172 29.3477 25.2662 29.3477C25.9152 29.3477 26.4416 29.874 26.4416 30.523C26.4407 31.1729 25.9152 31.6984 25.2662 31.6984Z" fill="#661D77"/>
<path d="M25.2662 27.0001C24.6172 27.0001 24.0908 26.4738 24.0908 25.8248C24.0908 25.1758 24.6172 24.6494 25.2662 24.6494C25.9152 24.6494 26.4416 25.1758 26.4416 25.8248C26.4407 26.4738 25.9152 27.0001 25.2662 27.0001Z" fill="#661D77"/>
<path d="M25.2662 22.2999C24.6172 22.2999 24.0908 21.7736 24.0908 21.1246C24.0908 20.4756 24.6172 19.9492 25.2662 19.9492C25.9152 19.9492 26.4416 20.4756 26.4416 21.1246C26.4407 21.7736 25.9152 22.2999 25.2662 22.2999Z" fill="#661D77"/>
<path d="M28.654 52.7416C28.0462 52.7416 27.5537 52.2491 27.5537 51.6413C27.5537 51.0335 28.0462 50.541 28.654 50.541C29.2619 50.541 29.7544 51.0335 29.7544 51.6413C29.7544 52.2491 29.2619 52.7416 28.654 52.7416Z" fill="#661D77"/>
<path d="M28.656 48.3422C28.0482 48.3422 27.5557 47.8497 27.5557 47.2419C27.5557 46.6341 28.0482 46.1416 28.656 46.1416C29.2638 46.1416 29.7563 46.6341 29.7563 47.2419C29.7563 47.8497 29.2638 48.3422 28.656 48.3422Z" fill="#661D77"/>
<path d="M28.656 43.9438C28.0482 43.9438 27.5557 43.4513 27.5557 42.8435C27.5557 42.2356 28.0482 41.7432 28.656 41.7432C29.2638 41.7432 29.7563 42.2356 29.7563 42.8435C29.7563 43.4513 29.2638 43.9438 28.656 43.9438Z" fill="#661D77"/>
<path d="M28.654 39.5424C28.0462 39.5424 27.5537 39.0499 27.5537 38.4421C27.5537 37.8343 28.0462 37.3418 28.654 37.3418C29.2619 37.3418 29.7544 37.8343 29.7544 38.4421C29.7544 39.049 29.2619 39.5424 28.654 39.5424Z" fill="#9B0577"/>
<path d="M28.656 35.14C28.0482 35.14 27.5557 34.6476 27.5557 34.0397C27.5557 33.4319 28.0482 32.9395 28.656 32.9395C29.2638 32.9395 29.7563 33.4319 29.7563 34.0397C29.7563 34.6476 29.2638 35.14 28.656 35.14Z" fill="#661D77"/>
<path d="M28.656 30.7357C28.0482 30.7357 27.5557 30.2433 27.5557 29.6354C27.5557 29.0276 28.0482 28.5352 28.656 28.5352C29.2638 28.5352 29.7563 29.0276 29.7563 29.6354C29.7563 30.2433 29.2638 30.7357 28.656 30.7357Z" fill="#9B0577"/>
<path d="M28.656 26.3393C28.0482 26.3393 27.5557 25.8468 27.5557 25.239C27.5557 24.6311 28.0482 24.1387 28.656 24.1387C29.2638 24.1387 29.7563 24.6311 29.7563 25.239C29.7563 25.8468 29.2638 26.3393 28.656 26.3393Z" fill="#661D77"/>
<path d="M28.654 21.933C28.0462 21.933 27.5537 21.4405 27.5537 20.8327C27.5537 20.2249 28.0462 19.7324 28.654 19.7324C29.2619 19.7324 29.7544 20.2249 29.7544 20.8327C29.7544 21.4405 29.2619 21.933 28.654 21.933Z" fill="#9B0577"/>
<path d="M28.654 17.5336C28.0462 17.5336 27.5537 17.0411 27.5537 16.4333C27.5537 15.8255 28.0462 15.333 28.654 15.333C29.2619 15.333 29.7544 15.8255 29.7544 16.4333C29.7544 17.0402 29.2619 17.5336 28.654 17.5336Z" fill="#661D77"/>
<path d="M28.654 13.1313C28.0462 13.1313 27.5537 12.6388 27.5537 12.031C27.5537 11.4231 28.0462 10.9307 28.654 10.9307C29.2619 10.9307 29.7544 11.4231 29.7544 12.031C29.7544 12.6388 29.2619 13.1313 28.654 13.1313Z" fill="#9B0577"/>
<path d="M28.656 8.73086C28.0482 8.73086 27.5557 8.23838 27.5557 7.63057C27.5557 7.02275 28.0482 6.53027 28.656 6.53027C29.2638 6.53027 29.7563 7.02275 29.7563 7.63057C29.7563 8.23838 29.2638 8.73086 28.656 8.73086Z" fill="#661D77"/>
<path d="M28.654 3.72891C28.0462 3.72891 27.5537 3.23643 27.5537 2.62862C27.5537 2.0208 28.0462 1.52832 28.654 1.52832C29.2619 1.52832 29.7544 2.0208 29.7544 2.62862C29.7544 3.23643 29.2619 3.72891 28.654 3.72891Z" fill="#661D77"/>
<path d="M32.0389 54.3991C31.4722 54.3991 31.0127 53.9396 31.0127 53.3739C31.0127 52.8072 31.4722 52.3486 32.038 52.3486C32.6046 52.3486 33.0632 52.8082 33.0632 53.3739C33.0641 53.9396 32.6055 54.3991 32.0389 54.3991Z" fill="#661D77"/>
<path d="M32.0389 50.2946C31.4722 50.2946 31.0127 49.8351 31.0127 49.2694C31.0127 48.7027 31.4722 48.2441 32.038 48.2441C32.6046 48.2441 33.0632 48.7037 33.0632 49.2694C33.0641 49.8351 32.6055 50.2946 32.0389 50.2946Z" fill="#9B0577"/>
<path d="M32.0389 46.1921C31.4722 46.1921 31.0127 45.7325 31.0127 45.1668C31.0127 44.6002 31.4722 44.1416 32.038 44.1416C32.6046 44.1416 33.0632 44.6011 33.0632 45.1668C33.0641 45.7325 32.6055 46.1921 32.0389 46.1921Z" fill="#661D77"/>
<path d="M32.0389 42.0895C31.4722 42.0895 31.0127 41.63 31.0127 41.0643C31.0127 40.4977 31.4722 40.0391 32.038 40.0391C32.6046 40.0391 33.0632 40.4986 33.0632 41.0643C33.0641 41.63 32.6055 42.0895 32.0389 42.0895Z" fill="#661D77"/>
<path d="M32.0389 37.986C31.4722 37.986 31.0127 37.5265 31.0127 36.9608C31.0127 36.3942 31.4722 35.9355 32.038 35.9355C32.6046 35.9355 33.0632 36.3951 33.0632 36.9608C33.0641 37.5274 32.6055 37.986 32.0389 37.986Z" fill="#661D77"/>
<path d="M32.0389 33.8864C31.4722 33.8864 31.0127 33.4269 31.0127 32.8612C31.0127 32.2945 31.4722 31.8359 32.038 31.8359C32.6046 31.8359 33.0632 32.2955 33.0632 32.8612C33.0641 33.4278 32.6055 33.8864 32.0389 33.8864Z" fill="#661D77"/>
<path d="M32.0389 29.78C31.4722 29.78 31.0127 29.3204 31.0127 28.7547C31.0127 28.1881 31.4722 27.7295 32.038 27.7295C32.6046 27.7295 33.0632 28.189 33.0632 28.7547C33.0641 29.3214 32.6055 29.78 32.0389 29.78Z" fill="#661D77"/>
<path d="M32.0389 25.6784C31.4722 25.6784 31.0127 25.2189 31.0127 24.6532C31.0127 24.0865 31.4722 23.6279 32.038 23.6279C32.6046 23.6279 33.0632 24.0875 33.0632 24.6532C33.0641 25.2198 32.6055 25.6784 32.0389 25.6784Z" fill="#661D77"/>
<path d="M32.0389 21.5788C31.4722 21.5788 31.0127 21.1193 31.0127 20.5536C31.0127 19.9869 31.4722 19.5283 32.038 19.5283C32.6046 19.5283 33.0632 19.9878 33.0632 20.5536C33.0641 21.1202 32.6055 21.5788 32.0389 21.5788Z" fill="#661D77"/>
<path d="M32.0389 17.4753C31.4722 17.4753 31.0127 17.0157 31.0127 16.45C31.0127 15.8834 31.4722 15.4248 32.038 15.4248C32.6046 15.4248 33.0632 15.8843 33.0632 16.45C33.0641 17.0167 32.6055 17.4753 32.0389 17.4753Z" fill="#661D77"/>
<path d="M32.0389 13.3708C31.4722 13.3708 31.0127 12.9113 31.0127 12.3455C31.0127 11.7789 31.4722 11.3203 32.038 11.3203C32.6046 11.3203 33.0632 11.7798 33.0632 12.3455C33.0641 12.9122 32.6055 13.3708 32.0389 13.3708Z" fill="#9B0577"/>
<path d="M32.0389 9.26726C31.4722 9.26726 31.0127 8.80774 31.0127 8.24203C31.0127 7.67541 31.4722 7.2168 32.038 7.2168C32.6046 7.2168 33.0632 7.67632 33.0632 8.24203C33.0641 8.80774 32.6055 9.26726 32.0389 9.26726Z" fill="#9B0577"/>
<path d="M32.0389 4.86492C31.4722 4.86492 31.0127 4.4054 31.0127 3.83969C31.0127 3.27306 31.4722 2.81445 32.038 2.81445C32.6046 2.81445 33.0632 3.27398 33.0632 3.83969C33.0641 4.4054 32.6055 4.86492 32.0389 4.86492Z" fill="#661D77"/>
<path d="M35.1259 51.6024C34.6005 51.6024 34.1748 51.1767 34.1748 50.6513C34.1748 50.1259 34.6005 49.7002 35.1259 49.7002C35.6514 49.7002 36.077 50.1259 36.077 50.6513C36.0761 51.1767 35.6505 51.6024 35.1259 51.6024Z" fill="#661D77"/>
<path d="M35.1259 47.7987C34.6005 47.7987 34.1748 47.373 34.1748 46.8476C34.1748 46.3221 34.6005 45.8965 35.1259 45.8965C35.6514 45.8965 36.077 46.3221 36.077 46.8476C36.0761 47.3721 35.6505 47.7987 35.1259 47.7987Z" fill="#661D77"/>
<path d="M35.1259 43.9979C34.6005 43.9979 34.1748 43.5722 34.1748 43.0468C34.1748 42.5214 34.6005 42.0957 35.1259 42.0957C35.6514 42.0957 36.077 42.5214 36.077 43.0468C36.0761 43.5722 35.6505 43.9979 35.1259 43.9979Z" fill="#661D77"/>
<path d="M35.1259 40.1922C34.6005 40.1922 34.1748 39.7666 34.1748 39.2411C34.1748 38.7157 34.6005 38.29 35.1259 38.29C35.6514 38.29 36.077 38.7157 36.077 39.2411C36.0761 39.7666 35.6505 40.1922 35.1259 40.1922Z" fill="#9B0577"/>
<path d="M35.1259 36.3885C34.6005 36.3885 34.1748 35.9628 34.1748 35.4374C34.1748 34.912 34.6005 34.4863 35.1259 34.4863C35.6514 34.4863 36.077 34.912 36.077 35.4374C36.0761 35.9628 35.6505 36.3885 35.1259 36.3885Z" fill="#661D77"/>
<path d="M35.1259 32.5828C34.6005 32.5828 34.1748 32.1572 34.1748 31.6317C34.1748 31.1063 34.6005 30.6807 35.1259 30.6807C35.6514 30.6807 36.077 31.1063 36.077 31.6317C36.0761 32.1572 35.6505 32.5828 35.1259 32.5828Z" fill="#661D77"/>
<path d="M35.1259 28.7821C34.6005 28.7821 34.1748 28.3564 34.1748 27.831C34.1748 27.3055 34.6005 26.8799 35.1259 26.8799C35.6514 26.8799 36.077 27.3055 36.077 27.831C36.0761 28.3564 35.6505 28.7821 35.1259 28.7821Z" fill="#661D77"/>
<path d="M35.1259 24.9754C34.6005 24.9754 34.1748 24.5498 34.1748 24.0243C34.1748 23.4989 34.6005 23.0732 35.1259 23.0732C35.6514 23.0732 36.077 23.4989 36.077 24.0243C36.0761 24.5498 35.6505 24.9754 35.1259 24.9754Z" fill="#9B0577"/>
<path d="M35.1259 21.1717C34.6005 21.1717 34.1748 20.746 34.1748 20.2206C34.1748 19.6952 34.6005 19.2695 35.1259 19.2695C35.6514 19.2695 36.077 19.6952 36.077 20.2206C36.0761 20.746 35.6505 21.1717 35.1259 21.1717Z" fill="#661D77"/>
<path d="M35.1259 17.3719C34.6005 17.3719 34.1748 16.9462 34.1748 16.4208C34.1748 15.8954 34.6005 15.4697 35.1259 15.4697C35.6514 15.4697 36.077 15.8954 36.077 16.4208C36.0761 16.9462 35.6505 17.3719 35.1259 17.3719Z" fill="#661D77"/>
<path d="M35.1259 13.5633C34.6005 13.5633 34.1748 13.1377 34.1748 12.6122C34.1748 12.0868 34.6005 11.6611 35.1259 11.6611C35.6514 11.6611 36.077 12.0868 36.077 12.6122C36.0761 13.1377 35.6505 13.5633 35.1259 13.5633Z" fill="#661D77"/>
<path d="M35.1259 9.76057C34.6005 9.76057 34.1748 9.33492 34.1748 8.80948C34.1748 8.28405 34.6005 7.8584 35.1259 7.8584C35.6514 7.8584 36.077 8.28405 36.077 8.80948C36.0761 9.33492 35.6505 9.76057 35.1259 9.76057Z" fill="#661D77"/>
<path d="M35.1259 5.95686C34.6005 5.95686 34.1748 5.53121 34.1748 5.00577C34.1748 4.48034 34.6005 4.05469 35.1259 4.05469C35.6514 4.05469 36.077 4.48034 36.077 5.00577C36.0761 5.53121 35.6505 5.95686 35.1259 5.95686Z" fill="#661D77"/>
<path d="M38.211 48.8126C37.7268 48.8126 37.335 48.4199 37.335 47.9366C37.335 47.4523 37.7277 47.0605 38.211 47.0605C38.6953 47.0605 39.0871 47.4532 39.0871 47.9366C39.0871 48.4199 38.6953 48.8126 38.211 48.8126Z" fill="#661D77"/>
<path d="M38.211 45.3087C37.7268 45.3087 37.335 44.916 37.335 44.4327C37.335 43.9484 37.7277 43.5566 38.211 43.5566C38.6953 43.5566 39.0871 43.9493 39.0871 44.4327C39.0871 44.916 38.6953 45.3087 38.211 45.3087Z" fill="#9B0577"/>
<path d="M38.2149 41.8028C37.7307 41.8028 37.3389 41.4101 37.3389 40.9268C37.3389 40.4426 37.7316 40.0508 38.2149 40.0508C38.6992 40.0508 39.091 40.4435 39.091 40.9268C39.091 41.4101 38.6992 41.8028 38.2149 41.8028Z" fill="#661D77"/>
<path d="M38.211 38.3004C37.7268 38.3004 37.335 37.9077 37.335 37.4244C37.335 36.9401 37.7277 36.5483 38.211 36.5483C38.6953 36.5483 39.0871 36.941 39.0871 37.4244C39.0871 37.9077 38.6953 38.3004 38.211 38.3004Z" fill="#661D77"/>
<path d="M38.2149 34.7921C37.7307 34.7921 37.3389 34.3994 37.3389 33.9161C37.3389 33.4318 37.7316 33.04 38.2149 33.04C38.6992 33.04 39.091 33.4327 39.091 33.9161C39.091 34.3994 38.6992 34.7921 38.2149 34.7921Z" fill="#9B0577"/>
<path d="M38.211 31.2853C37.7268 31.2853 37.335 30.8926 37.335 30.4092C37.335 29.925 37.7277 29.5332 38.211 29.5332C38.6953 29.5332 39.0871 29.9259 39.0871 30.4092C39.0871 30.8926 38.6953 31.2853 38.211 31.2853Z" fill="#661D77"/>
<path d="M38.2149 27.7843C37.7307 27.7843 37.3389 27.3916 37.3389 26.9083C37.3389 26.424 37.7316 26.0322 38.2149 26.0322C38.6992 26.0322 39.091 26.4249 39.091 26.9083C39.091 27.3916 38.6992 27.7843 38.2149 27.7843Z" fill="#9B0577"/>
<path d="M38.211 24.2799C37.7268 24.2799 37.335 23.8872 37.335 23.4039C37.335 22.9196 37.7277 22.5278 38.211 22.5278C38.6953 22.5278 39.0871 22.9205 39.0871 23.4039C39.0871 23.8872 38.6953 24.2799 38.211 24.2799Z" fill="#661D77"/>
<path d="M38.211 20.7755C37.7268 20.7755 37.335 20.3828 37.335 19.8995C37.335 19.4152 37.7277 19.0234 38.211 19.0234C38.6953 19.0234 39.0871 19.4161 39.0871 19.8995C39.0871 20.3828 38.6953 20.7755 38.211 20.7755Z" fill="#661D77"/>
<path d="M38.2149 17.2706C37.7307 17.2706 37.3389 16.8779 37.3389 16.3946C37.3389 15.9103 37.7316 15.5186 38.2149 15.5186C38.6992 15.5186 39.091 15.9113 39.091 16.3946C39.091 16.8779 38.6992 17.2706 38.2149 17.2706Z" fill="#9B0577"/>
<path d="M38.211 13.7608C37.7268 13.7608 37.335 13.3681 37.335 12.8848C37.335 12.4006 37.7277 12.0088 38.211 12.0088C38.6953 12.0088 39.0871 12.4015 39.0871 12.8848C39.0871 13.3681 38.6953 13.7608 38.211 13.7608Z" fill="#661D77"/>
<path d="M38.2149 10.2628C37.7307 10.2628 37.3389 9.87009 37.3389 9.38677C37.3389 8.90253 37.7316 8.51074 38.2149 8.51074C38.6992 8.51074 39.091 8.90344 39.091 9.38677C39.091 9.87009 38.6992 10.2628 38.2149 10.2628Z" fill="#9B0577"/>
<path d="M38.211 6.75693C37.7268 6.75693 37.335 6.36423 37.335 5.88091C37.335 5.39667 37.7277 5.00488 38.211 5.00488C38.6953 5.00488 39.0871 5.39758 39.0871 5.88091C39.0871 6.36423 38.6953 6.75693 38.211 6.75693Z" fill="#661D77"/>
<path d="M41.3009 45.9788C40.8579 45.9788 40.499 45.6199 40.499 45.1769C40.499 44.7338 40.8579 44.375 41.3009 44.375C41.744 44.375 42.1028 44.7338 42.1028 45.1769C42.1028 45.6199 41.744 45.9788 41.3009 45.9788Z" fill="#661D77"/>
<path d="M41.3009 42.7727C40.8579 42.7727 40.499 42.4139 40.499 41.9708C40.499 41.5278 40.8579 41.1689 41.3009 41.1689C41.744 41.1689 42.1028 41.5278 42.1028 41.9708C42.1028 42.4139 41.744 42.7727 41.3009 42.7727Z" fill="#661D77"/>
<path d="M41.3009 39.5657C40.8579 39.5657 40.499 39.2068 40.499 38.7638C40.499 38.3207 40.8579 37.9619 41.3009 37.9619C41.744 37.9619 42.1028 38.3207 42.1028 38.7638C42.1028 39.2068 41.744 39.5657 41.3009 39.5657Z" fill="#9B0577"/>
<path d="M41.3009 36.3596C40.8579 36.3596 40.499 36.0008 40.499 35.5577C40.499 35.1147 40.8579 34.7559 41.3009 34.7559C41.744 34.7559 42.1028 35.1147 42.1028 35.5577C42.1028 36.0008 41.744 36.3596 41.3009 36.3596Z" fill="#661D77"/>
<path d="M41.3009 33.1536C40.8579 33.1536 40.499 32.7947 40.499 32.3517C40.499 31.9086 40.8579 31.5498 41.3009 31.5498C41.744 31.5498 42.1028 31.9086 42.1028 32.3517C42.1028 32.7947 41.744 33.1536 41.3009 33.1536Z" fill="#661D77"/>
<path d="M41.3009 29.9456C40.8579 29.9456 40.499 29.5867 40.499 29.1437C40.499 28.7006 40.8579 28.3418 41.3009 28.3418C41.744 28.3418 42.1028 28.7006 42.1028 29.1437C42.1028 29.5867 41.744 29.9456 41.3009 29.9456Z" fill="#9B0577"/>
<path d="M41.3009 26.7415C40.8579 26.7415 40.499 26.3826 40.499 25.9396C40.499 25.4965 40.8579 25.1377 41.3009 25.1377C41.744 25.1377 42.1028 25.4965 42.1028 25.9396C42.1028 26.3826 41.744 26.7415 41.3009 26.7415Z" fill="#661D77"/>
<path d="M41.3009 23.5364C40.8579 23.5364 40.499 23.1775 40.499 22.7345C40.499 22.2914 40.8579 21.9326 41.3009 21.9326C41.744 21.9326 42.1028 22.2914 42.1028 22.7345C42.1028 23.1775 41.744 23.5364 41.3009 23.5364Z" fill="#661D77"/>
<path d="M41.3009 20.3284C40.8579 20.3284 40.499 19.9695 40.499 19.5265C40.499 19.0834 40.8579 18.7246 41.3009 18.7246C41.744 18.7246 42.1028 19.0834 42.1028 19.5265C42.1028 19.9695 41.744 20.3284 41.3009 20.3284Z" fill="#661D77"/>
<path d="M41.3009 17.1243C40.8579 17.1243 40.499 16.7654 40.499 16.3224C40.499 15.8793 40.8579 15.5205 41.3009 15.5205C41.744 15.5205 42.1028 15.8793 42.1028 16.3224C42.1028 16.7654 41.744 17.1243 41.3009 17.1243Z" fill="#661D77"/>
<path d="M41.3009 13.9172C40.8579 13.9172 40.499 13.5584 40.499 13.1154C40.499 12.6723 40.8579 12.3135 41.3009 12.3135C41.744 12.3135 42.1028 12.6723 42.1028 13.1154C42.1028 13.5584 41.744 13.9172 41.3009 13.9172Z" fill="#9B0577"/>
<path d="M41.3009 10.7092C40.8579 10.7092 40.499 10.3504 40.499 9.90735C40.499 9.4643 40.8579 9.10547 41.3009 9.10547C41.744 9.10547 42.1028 9.4643 42.1028 9.90735C42.1028 10.3504 41.744 10.7092 41.3009 10.7092Z" fill="#661D77"/>
<path d="M41.3009 7.50512C40.8579 7.50512 40.499 7.14629 40.499 6.70325C40.499 6.2602 40.8579 5.90137 41.3009 5.90137C41.744 5.90137 42.1028 6.2602 42.1028 6.70325C42.1028 7.14629 41.744 7.50512 41.3009 7.50512Z" fill="#661D77"/>
<path d="M44.1187 43.3111H44.04C43.6601 43.3111 43.3525 43.0035 43.3525 42.6236V42.5449C43.3525 42.165 43.6601 41.8574 44.04 41.8574H44.1187C44.4986 41.8574 44.8062 42.165 44.8062 42.5449V42.6236C44.8062 43.0035 44.4986 43.3111 44.1187 43.3111Z" fill="#9B0577"/>
<path d="M44.1187 40.4087H44.04C43.6601 40.4087 43.3525 40.1011 43.3525 39.7213V39.6425C43.3525 39.2626 43.6601 38.9551 44.04 38.9551H44.1187C44.4986 38.9551 44.8062 39.2626 44.8062 39.6425V39.7213C44.8062 40.1011 44.4986 40.4087 44.1187 40.4087Z" fill="#661D77"/>
<path d="M44.0794 37.5005C43.6775 37.5005 43.3525 37.1755 43.3525 36.7737C43.3525 36.3718 43.6775 36.0469 44.0794 36.0469C44.4812 36.0469 44.8062 36.3718 44.8062 36.7737C44.8062 37.1755 44.4812 37.5005 44.0794 37.5005Z" fill="#661D77"/>
<path d="M44.0813 34.5894C43.6795 34.5894 43.3545 34.2644 43.3545 33.8626C43.3545 33.4607 43.6795 33.1357 44.0813 33.1357C44.4832 33.1357 44.8082 33.4607 44.8082 33.8626C44.8082 34.2644 44.4832 34.5894 44.0813 34.5894Z" fill="#9B0577"/>
<path d="M44.0813 31.6831C43.6795 31.6831 43.3545 31.3582 43.3545 30.9563C43.3545 30.5545 43.6795 30.2295 44.0813 30.2295C44.4832 30.2295 44.8082 30.5545 44.8082 30.9563C44.8082 31.3572 44.4832 31.6831 44.0813 31.6831Z" fill="#661D77"/>
<path d="M44.0794 28.7769C43.6775 28.7769 43.3525 28.4519 43.3525 28.0501C43.3525 27.6482 43.6775 27.3232 44.0794 27.3232C44.4812 27.3232 44.8062 27.6482 44.8062 28.0501C44.8062 28.451 44.4812 28.7769 44.0794 28.7769Z" fill="#661D77"/>
<path d="M44.0813 25.8716C43.6795 25.8716 43.3545 25.5466 43.3545 25.1448C43.3545 24.7429 43.6795 24.418 44.0813 24.418C44.4832 24.418 44.8082 24.7429 44.8082 25.1448C44.8082 25.5457 44.4832 25.8716 44.0813 25.8716Z" fill="#9B0577"/>
<path d="M44.0813 22.9644C43.6795 22.9644 43.3545 22.6394 43.3545 22.2376C43.3545 21.8357 43.6795 21.5107 44.0813 21.5107C44.4832 21.5107 44.8082 21.8357 44.8082 22.2376C44.8082 22.6385 44.4832 22.9644 44.0813 22.9644Z" fill="#661D77"/>
<path d="M44.0794 20.0572C43.6775 20.0572 43.3525 19.7322 43.3525 19.3303C43.3525 18.9285 43.6775 18.6035 44.0794 18.6035C44.4812 18.6035 44.8062 18.9285 44.8062 19.3303C44.8062 19.7313 44.4812 20.0572 44.0794 20.0572Z" fill="#9B0577"/>
<path d="M44.0794 17.1499C43.6775 17.1499 43.3525 16.825 43.3525 16.4231C43.3525 16.0213 43.6775 15.6963 44.0794 15.6963C44.4812 15.6963 44.8062 16.0213 44.8062 16.4231C44.8062 16.824 44.4812 17.1499 44.0794 17.1499Z" fill="#661D77"/>
<path d="M44.0813 14.2427C43.6795 14.2427 43.3545 13.9177 43.3545 13.5159C43.3545 13.114 43.6795 12.7891 44.0813 12.7891C44.4832 12.7891 44.8082 13.114 44.8082 13.5159C44.8082 13.9177 44.4832 14.2427 44.0813 14.2427Z" fill="#661D77"/>
<path d="M44.0794 11.3325C43.6775 11.3325 43.3525 11.0076 43.3525 10.6057C43.3525 10.2039 43.6775 9.87891 44.0794 9.87891C44.4812 9.87891 44.8062 10.2039 44.8062 10.6057C44.8062 11.0076 44.4812 11.3325 44.0794 11.3325Z" fill="#661D77"/>
<path d="M44.0794 8.42824C43.6775 8.42824 43.3525 8.10328 43.3525 7.70143C43.3525 7.29957 43.6775 6.97461 44.0794 6.97461C44.4812 6.97461 44.8062 7.29957 44.8062 7.70143C44.8062 8.10328 44.4812 8.42824 44.0794 8.42824Z" fill="#9B0577"/>
<path d="M46.8676 37.91C46.5069 37.91 46.2158 37.6179 46.2158 37.2582C46.2158 36.8985 46.5078 36.6064 46.8676 36.6064C47.2274 36.6064 47.5194 36.8985 47.5194 37.2582C47.5203 37.6179 47.2283 37.91 46.8676 37.91Z" fill="#661D77"/>
<path d="M46.8656 35.3035C46.505 35.3035 46.2139 35.0115 46.2139 34.6518C46.2139 34.292 46.5059 34 46.8656 34C47.2254 34 47.5174 34.292 47.5174 34.6518C47.5183 35.0124 47.2263 35.3035 46.8656 35.3035Z" fill="#661D77"/>
<path d="M46.8656 32.6961C46.505 32.6961 46.2139 32.4041 46.2139 32.0443C46.2139 31.6846 46.5059 31.3926 46.8656 31.3926C47.2254 31.3926 47.5174 31.6846 47.5174 32.0443C47.5183 32.4041 47.2263 32.6961 46.8656 32.6961Z" fill="#661D77"/>
<path d="M46.8676 30.0857C46.5069 30.0857 46.2158 29.7937 46.2158 29.434C46.2158 29.0742 46.5078 28.7822 46.8676 28.7822C47.2274 28.7822 47.5194 29.0742 47.5194 29.434C47.5203 29.7937 47.2283 30.0857 46.8676 30.0857Z" fill="#9B0577"/>
<path d="M46.8676 27.4793C46.5069 27.4793 46.2158 27.1873 46.2158 26.8275C46.2158 26.4678 46.5078 26.1758 46.8676 26.1758C47.2274 26.1758 47.5194 26.4678 47.5194 26.8275C47.5203 27.1873 47.2283 27.4793 46.8676 27.4793Z" fill="#661D77"/>
<path d="M46.8676 24.8689C46.5069 24.8689 46.2158 24.5769 46.2158 24.2172C46.2158 23.8574 46.5078 23.5654 46.8676 23.5654C47.2274 23.5654 47.5194 23.8574 47.5194 24.2172C47.5203 24.5769 47.2283 24.8689 46.8676 24.8689Z" fill="#661D77"/>
<path d="M46.8656 22.2644C46.505 22.2644 46.2139 21.9724 46.2139 21.6127C46.2139 21.2529 46.5059 20.9609 46.8656 20.9609C47.2254 20.9609 47.5174 21.2529 47.5174 21.6127C47.5183 21.9724 47.2263 22.2644 46.8656 22.2644Z" fill="#9B0577"/>
<path d="M46.8676 19.6541C46.5069 19.6541 46.2158 19.3621 46.2158 19.0023C46.2158 18.6426 46.5078 18.3506 46.8676 18.3506C47.2274 18.3506 47.5194 18.6426 47.5194 19.0023C47.5203 19.3621 47.2283 19.6541 46.8676 19.6541Z" fill="#661D77"/>
<path d="M46.8676 17.0452C46.5069 17.0452 46.2158 16.7532 46.2158 16.3935C46.2158 16.0337 46.5078 15.7417 46.8676 15.7417C47.2274 15.7417 47.5194 16.0337 47.5194 16.3935C47.5203 16.7532 47.2283 17.0452 46.8676 17.0452Z" fill="#9B0577"/>
<path d="M46.8676 14.4383C46.5069 14.4383 46.2158 14.1463 46.2158 13.7865C46.2158 13.4268 46.5078 13.1348 46.8676 13.1348C47.2274 13.1348 47.5194 13.4268 47.5194 13.7865C47.5203 14.1463 47.2283 14.4383 46.8676 14.4383Z" fill="#661D77"/>
<path d="M46.8676 11.8289C46.5069 11.8289 46.2158 11.5369 46.2158 11.1771C46.2158 10.8174 46.5078 10.5254 46.8676 10.5254C47.2274 10.5254 47.5194 10.8174 47.5194 11.1771C47.5203 11.5369 47.2283 11.8289 46.8676 11.8289Z" fill="#9B0577"/>
<path d="M46.8676 9.21855C46.5069 9.21855 46.2158 8.92654 46.2158 8.56679C46.2158 8.20705 46.5078 7.91504 46.8676 7.91504C47.2274 7.91504 47.5194 8.20705 47.5194 8.56679C47.5203 8.92654 47.2283 9.21855 46.8676 9.21855Z" fill="#661D77"/>
<path d="M49.354 30.8056C49.0354 30.8056 48.7764 30.5475 48.7764 30.228C48.7764 29.9094 49.0345 29.6504 49.354 29.6504C49.6726 29.6504 49.9316 29.9085 49.9316 30.228C49.9316 30.5466 49.6726 30.8056 49.354 30.8056Z" fill="#661D77"/>
<path d="M49.354 28.498C49.0354 28.498 48.7764 28.2399 48.7764 27.9204C48.7764 27.6018 49.0345 27.3428 49.354 27.3428C49.6726 27.3428 49.9316 27.6009 49.9316 27.9204C49.9316 28.2389 49.6726 28.498 49.354 28.498Z" fill="#661D77"/>
<path d="M49.3501 26.1865C49.0315 26.1865 48.7725 25.9283 48.7725 25.6089C48.7725 25.2903 49.0306 25.0312 49.3501 25.0312C49.6687 25.0312 49.9277 25.2894 49.9277 25.6089C49.9277 25.9283 49.6687 26.1865 49.3501 26.1865Z" fill="#9B0577"/>
<path d="M49.354 23.8754C49.0354 23.8754 48.7764 23.6173 48.7764 23.2978C48.7764 22.9793 49.0345 22.7202 49.354 22.7202C49.6726 22.7202 49.9316 22.9784 49.9316 23.2978C49.9316 23.6173 49.6726 23.8754 49.354 23.8754Z" fill="#661D77"/>
<path d="M49.354 21.5683C49.0354 21.5683 48.7764 21.3102 48.7764 20.9907C48.7764 20.6721 49.0345 20.4131 49.354 20.4131C49.6726 20.4131 49.9316 20.6712 49.9316 20.9907C49.9316 21.3102 49.6726 21.5683 49.354 21.5683Z" fill="#661D77"/>
<path d="M49.354 19.2573C49.0354 19.2573 48.7764 18.9991 48.7764 18.6797C48.7764 18.3611 49.0345 18.1021 49.354 18.1021C49.6726 18.1021 49.9316 18.3602 49.9316 18.6797C49.9316 18.9991 49.6726 19.2573 49.354 19.2573Z" fill="#9B0577"/>
<path d="M49.3501 16.9492C49.0315 16.9492 48.7725 16.691 48.7725 16.3716C48.7725 16.053 49.0306 15.7939 49.3501 15.7939C49.6687 15.7939 49.9277 16.0521 49.9277 16.3716C49.9277 16.6901 49.6687 16.9492 49.3501 16.9492Z" fill="#661D77"/>
<path d="M49.354 14.6376C49.0354 14.6376 48.7764 14.3795 48.7764 14.06C48.7764 13.7415 49.0345 13.4824 49.354 13.4824C49.6726 13.4824 49.9316 13.7406 49.9316 14.06C49.9316 14.3786 49.6726 14.6376 49.354 14.6376Z" fill="#9B0577"/>
<path d="M49.354 12.33C49.0354 12.33 48.7764 12.0719 48.7764 11.7524C48.7764 11.4339 49.0345 11.1748 49.354 11.1748C49.6726 11.1748 49.9316 11.4329 49.9316 11.7524C49.9316 12.0719 49.6726 12.33 49.354 12.33Z" fill="#661D77"/>
<path d="M49.3501 10.0185C49.0315 10.0185 48.7725 9.76036 48.7725 9.44089C48.7725 9.12234 49.0306 8.86328 49.3501 8.86328C49.6687 8.86328 49.9277 9.12142 49.9277 9.44089C49.9277 9.76036 49.6687 10.0185 49.3501 10.0185Z" fill="#9B0577"/>
<path d="M1.95408 37.1512C1.05789 37.1512 0.331055 36.4244 0.331055 35.5283C0.331055 34.6321 1.05789 33.9053 1.95408 33.9053C2.85028 33.9053 3.57712 34.6321 3.57712 35.5283C3.57712 36.4244 2.85028 37.1512 1.95408 37.1512Z" fill="#9B0577"/>
<path d="M25.2662 59.8995C24.6172 59.8995 24.0908 59.3732 24.0908 58.7242C24.0908 58.0752 24.6172 57.5488 25.2662 57.5488C25.9152 57.5488 26.4416 58.0752 26.4416 58.7242C26.4407 59.3732 25.9152 59.8995 25.2662 59.8995Z" fill="#661D77"/>
<path d="M21.8814 57.6933C21.1912 57.6933 20.6318 57.134 20.6318 56.4438C20.6318 55.7536 21.1912 55.1943 21.8814 55.1943C22.5716 55.1943 23.1309 55.7536 23.1309 56.4438C23.1318 57.134 22.5716 57.6933 21.8814 57.6933Z" fill="#9B0577"/>
<path d="M28.654 57.1449C28.0462 57.1449 27.5537 56.6524 27.5537 56.0446C27.5537 55.4368 28.0462 54.9443 28.654 54.9443C29.2619 54.9443 29.7544 55.4368 29.7544 56.0446C29.7544 56.6524 29.2619 57.1449 28.654 57.1449Z" fill="#9B0577"/>
<path d="M46.8676 40.5213C46.5069 40.5213 46.2158 40.2293 46.2158 39.8695C46.2158 39.5098 46.5078 39.2178 46.8676 39.2178C47.2274 39.2178 47.5194 39.5098 47.5194 39.8695C47.5203 40.2293 47.2283 40.5213 46.8676 40.5213Z" fill="#9B0577"/>
<path d="M49.3501 33.414C49.0315 33.414 48.7725 33.1559 48.7725 32.8364C48.7725 32.5178 49.0306 32.2588 49.3501 32.2588C49.6687 32.2588 49.9277 32.5169 49.9277 32.8364C49.9277 33.1559 49.6687 33.414 49.3501 33.414Z" fill="#9B0577"/>
<path d="M49.354 36.413C49.0354 36.413 48.7764 36.1549 48.7764 35.8354C48.7764 35.5169 49.0345 35.2578 49.354 35.2578C49.6726 35.2578 49.9316 35.516 49.9316 35.8354C49.9316 36.1549 49.6726 36.413 49.354 36.413Z" fill="#661D77"/>
<path d="M48.7524 38.5107C48.4339 38.5107 48.1748 38.2525 48.1748 37.9331C48.1748 37.6145 48.433 37.3555 48.7524 37.3555C49.071 37.3555 49.3301 37.6136 49.3301 37.9331C49.3301 38.2516 49.071 38.5107 48.7524 38.5107Z" fill="#661D77"/>
<path d="M1.67246 18.0597C0.748809 18.0597 0 17.3109 0 16.3873C0 15.4636 0.748809 14.7148 1.67246 14.7148C2.59612 14.7148 3.34493 15.4636 3.34493 16.3873C3.34493 17.3109 2.59612 18.0597 1.67246 18.0597Z" fill="#661D77"/>
<path d="M1.67246 11.3712C0.748809 11.3712 0 10.6224 0 9.69878C0 8.77515 0.748809 8.02637 1.67246 8.02637C2.59612 8.02637 3.34493 8.77515 3.34493 9.69878C3.34493 10.6224 2.59612 11.3712 1.67246 11.3712Z" fill="#661D77"/>
<path d="M6.1798 18.0323C5.301 18.0323 4.58789 17.3193 4.58789 16.4405C4.58789 15.5617 5.301 14.8486 6.1798 14.8486C7.0586 14.8486 7.77171 15.5617 7.77171 16.4405C7.77171 17.3193 7.05951 18.0323 6.1798 18.0323Z" fill="#661D77"/>
<path d="M6.1798 11.6632C5.301 11.6632 4.58789 10.9501 4.58789 10.0714C4.58789 9.19258 5.301 8.47949 6.1798 8.47949C7.0586 8.47949 7.77171 9.19258 7.77171 10.0714C7.77171 10.951 7.05951 11.6632 6.1798 11.6632Z" fill="#9B0577"/>
<path d="M10.693 17.9669C9.85813 17.9669 9.18164 17.2905 9.18164 16.4556C9.18164 15.6208 9.85813 14.9443 10.693 14.9443C11.5279 14.9443 12.2043 15.6208 12.2043 16.4556C12.2034 17.2905 11.5269 17.9669 10.693 17.9669Z" fill="#9B0577"/>
<path d="M10.693 11.9181C9.85813 11.9181 9.18164 11.2416 9.18164 10.4068C9.18164 9.57198 9.85813 8.89551 10.693 8.89551C11.5279 8.89551 12.2043 9.57198 12.2043 10.4068C12.2034 11.2416 11.5269 11.9181 10.693 11.9181Z" fill="#661D77"/>
<path d="M10.693 5.87612C9.85813 5.87612 9.18164 5.19965 9.18164 4.36482C9.18164 3.52999 9.85813 2.85352 10.693 2.85352C11.5279 2.85352 12.2043 3.52999 12.2043 4.36482C12.2034 5.19965 11.5269 5.87612 10.693 5.87612Z" fill="#661D77"/>
<path d="M14.7902 17.8996C14.0002 17.8996 13.3594 17.2588 13.3594 16.4688C13.3594 15.6789 14.0002 15.0381 14.7902 15.0381C15.5802 15.0381 16.221 15.6789 16.221 16.4688C16.221 17.2588 15.5802 17.8996 14.7902 17.8996Z" fill="#661D77"/>
<path d="M14.7902 12.1808C14.0002 12.1808 13.3594 11.5401 13.3594 10.7501C13.3594 9.96011 14.0002 9.31934 14.7902 9.31934C15.5802 9.31934 16.221 9.96011 16.221 10.7501C16.221 11.5401 15.5802 12.1808 14.7902 12.1808Z" fill="#661D77"/>
<path d="M14.7902 6.45818C14.0002 6.45818 13.3594 5.81741 13.3594 5.02743C13.3594 4.23745 14.0002 3.59668 14.7902 3.59668C15.5802 3.59668 16.221 4.23745 16.221 5.02743C16.221 5.81832 15.5802 6.45818 14.7902 6.45818Z" fill="#661D77"/>
<path d="M18.4685 17.8734C17.7233 17.8734 17.1191 17.2692 17.1191 16.5241C17.1191 15.779 17.7233 15.1748 18.4685 15.1748C19.2136 15.1748 19.8178 15.779 19.8178 16.5241C19.8187 17.2692 19.2145 17.8734 18.4685 17.8734Z" fill="#9B0577"/>
<path d="M18.4685 12.4759C17.7233 12.4759 17.1191 11.8717 17.1191 11.1266C17.1191 10.3815 17.7233 9.77734 18.4685 9.77734C19.2136 9.77734 19.8178 10.3815 19.8178 11.1266C19.8187 11.8717 19.2145 12.4759 18.4685 12.4759Z" fill="#661D77"/>
<path d="M18.4685 7.07649C17.7233 7.07649 17.1191 6.47233 17.1191 5.72721C17.1191 4.98209 17.7233 4.37793 18.4685 4.37793C19.2136 4.37793 19.8178 4.98209 19.8178 5.72721C19.8187 6.47233 19.2145 7.07649 18.4685 7.07649Z" fill="#9B0577"/>
<path d="M21.9485 17.764C21.2472 17.764 20.6797 17.1956 20.6797 16.4953C20.6797 15.7941 21.2482 15.2266 21.9485 15.2266C22.6497 15.2266 23.2172 15.795 23.2172 16.4953C23.2172 17.1965 22.6497 17.764 21.9485 17.764Z" fill="#661D77"/>
<path d="M21.9485 12.6888C21.2472 12.6888 20.6797 12.1204 20.6797 11.4201C20.6797 10.7189 21.2482 10.1514 21.9485 10.1514C22.6497 10.1514 23.2172 10.7198 23.2172 11.4201C23.2172 12.1204 22.6497 12.6888 21.9485 12.6888Z" fill="#9B0577"/>
<path d="M21.9485 7.61558C21.2472 7.61558 20.6797 7.04712 20.6797 6.34685C20.6797 5.64566 21.2482 5.07812 21.9485 5.07812C22.6497 5.07812 23.2172 5.64658 23.2172 6.34685C23.2172 7.04712 22.6497 7.61558 21.9485 7.61558Z" fill="#661D77"/>
<path d="M21.9485 2.53745C21.2472 2.53745 20.6797 1.969 20.6797 1.26873C20.6797 0.56754 21.2482 0 21.9485 0C22.6497 0 23.2172 0.568455 23.2172 1.26873C23.2172 1.969 22.6497 2.53745 21.9485 2.53745Z" fill="#9B0577"/>
<path d="M25.2116 17.6957C24.5553 17.6957 24.0234 17.1638 24.0234 16.5075C24.0234 15.8512 24.5553 15.3193 25.2116 15.3193C25.868 15.3193 26.3999 15.8512 26.3999 16.5075C26.3999 17.1638 25.868 17.6957 25.2116 17.6957Z" fill="#661D77"/>
<path d="M25.2116 12.9398C24.5553 12.9398 24.0234 12.408 24.0234 11.7516C24.0234 11.0953 24.5553 10.5635 25.2116 10.5635C25.868 10.5635 26.3999 11.0953 26.3999 11.7516C26.3999 12.408 25.868 12.9398 25.2116 12.9398Z" fill="#661D77"/>
<path d="M25.2116 8.18787C24.5553 8.18787 24.0234 7.65603 24.0234 6.9997C24.0234 6.34336 24.5553 5.81152 25.2116 5.81152C25.868 5.81152 26.3999 6.34336 26.3999 6.9997C26.3999 7.65603 25.868 8.18787 25.2116 8.18787Z" fill="#661D77"/>
<path d="M25.2116 3.43298C24.5553 3.43298 24.0234 2.90114 24.0234 2.24481C24.0234 1.58848 24.5553 1.05664 25.2116 1.05664C25.868 1.05664 26.3999 1.58848 26.3999 2.24481C26.3999 2.90114 25.868 3.43298 25.2116 3.43298Z" fill="#9B0577"/>
<path d="M69.5294 13.7759C69.4772 13.1234 69.2325 12.6144 68.7953 12.249C68.3646 11.8836 67.7089 11.7009 66.8279 11.7009C66.2668 11.7009 65.8068 11.7694 65.4479 11.9064C65.0955 12.0369 64.8345 12.2164 64.6648 12.4447C64.4952 12.6731 64.4071 12.9341 64.4006 13.2278C64.3875 13.4692 64.4299 13.6878 64.5278 13.8835C64.6322 14.0728 64.7953 14.2457 65.0172 14.4023C65.2391 14.5524 65.5229 14.6894 65.8687 14.8134C66.2146 14.9374 66.6257 15.0483 67.102 15.1462L68.7464 15.4985C69.8556 15.7334 70.8051 16.0434 71.5946 16.4284C72.3842 16.8134 73.0302 17.2669 73.5326 17.7889C74.035 18.3044 74.4037 18.8851 74.6386 19.5311C74.8801 20.1771 75.004 20.8818 75.0106 21.6453C75.004 22.9634 74.6745 24.0792 74.022 24.9927C73.3695 25.9063 72.4364 26.6012 71.2227 27.0775C70.0155 27.5539 68.5637 27.792 66.8671 27.792C65.1249 27.792 63.6045 27.5343 62.306 27.0188C61.014 26.5033 60.0091 25.7105 59.2913 24.6404C58.5801 23.5637 58.2212 22.1869 58.2147 20.5099H63.3826C63.4153 21.1233 63.5686 21.6388 63.8427 22.0564C64.1167 22.474 64.5017 22.7905 64.9976 23.0058C65.5001 23.2211 66.0971 23.3288 66.7888 23.3288C67.3695 23.3288 67.8557 23.257 68.2472 23.1135C68.6387 22.9699 68.9356 22.7709 69.1379 22.5164C69.3402 22.2619 69.4446 21.9715 69.4511 21.6453C69.4446 21.3386 69.3434 21.0711 69.1477 20.8427C68.9584 20.6078 68.6452 20.399 68.208 20.2163C67.7708 20.027 67.1803 19.8509 66.4364 19.6877L64.4397 19.2571C62.6649 18.8721 61.2652 18.2293 60.2407 17.3289C59.2228 16.4219 58.7171 15.1853 58.7236 13.6193C58.7171 12.3469 59.0564 11.2343 59.7416 10.2816C60.4332 9.32242 61.3892 8.57528 62.6094 8.04022C63.8361 7.50515 65.2423 7.23762 66.8279 7.23762C68.4462 7.23762 69.8459 7.50841 71.0269 8.05001C72.208 8.5916 73.1183 9.35505 73.7577 10.3404C74.4037 11.3191 74.73 12.4643 74.7365 13.7759H69.5294ZM86.9077 20.9797V12.523H92.3105V27.5571H87.1817V24.6991H87.0251C86.6989 25.6583 86.1279 26.4087 85.3122 26.9503C84.4966 27.4854 83.5276 27.7529 82.4053 27.7529C81.3547 27.7529 80.4346 27.5115 79.6451 27.0286C78.8621 26.5457 78.252 25.8801 77.8148 25.0319C77.3841 24.1836 77.1655 23.2113 77.159 22.1151V12.523H82.5619V20.9797C82.5684 21.7236 82.7576 22.3076 83.1296 22.7317C83.508 23.1559 84.0366 23.3679 84.7152 23.3679C85.1654 23.3679 85.5537 23.2733 85.8799 23.0841C86.2127 22.8883 86.4672 22.6143 86.6434 22.2619C86.8261 21.903 86.9142 21.4756 86.9077 20.9797ZM108.801 17.4169H103.828C103.802 17.1103 103.695 16.846 103.505 16.6241C103.316 16.4023 103.071 16.2326 102.771 16.1152C102.478 15.9912 102.151 15.9292 101.792 15.9292C101.329 15.9292 100.931 16.014 100.598 16.1837C100.266 16.3533 100.102 16.5948 100.109 16.908C100.102 17.1298 100.197 17.3354 100.393 17.5246C100.595 17.7138 100.983 17.8607 101.558 17.9651L104.611 18.5132C106.151 18.7938 107.296 19.2668 108.047 19.9324C108.804 20.5915 109.186 21.4756 109.192 22.5849C109.186 23.6551 108.866 24.5849 108.233 25.3744C107.606 26.1575 106.748 26.7643 105.659 27.195C104.575 27.6191 103.339 27.8312 101.949 27.8312C99.6522 27.8312 97.8545 27.3614 96.556 26.4217C95.264 25.4821 94.543 24.2423 94.3929 22.7024H99.7566C99.8284 23.1787 100.063 23.5474 100.461 23.8084C100.866 24.0629 101.375 24.1901 101.988 24.1901C102.484 24.1901 102.892 24.1053 103.212 23.9356C103.538 23.766 103.704 23.5245 103.711 23.2113C103.704 22.9242 103.561 22.6958 103.28 22.5262C103.006 22.3565 102.576 22.2195 101.988 22.1151L99.326 21.6453C97.7925 21.3778 96.6441 20.8688 95.8806 20.1184C95.1172 19.368 94.7387 18.4023 94.7453 17.2212C94.7387 16.1772 95.0128 15.293 95.5674 14.5687C96.1286 13.8379 96.9279 13.2832 97.9654 12.9048C99.0095 12.5198 100.246 12.3273 101.675 12.3273C103.848 12.3273 105.561 12.7775 106.814 13.678C108.073 14.5785 108.735 15.8248 108.801 17.4169ZM120.228 12.523V16.4382H110.323V12.523H120.228ZM112.241 8.92112H117.644V22.7219C117.644 22.9308 117.68 23.1069 117.752 23.2505C117.823 23.3875 117.934 23.4919 118.084 23.5637C118.234 23.629 118.427 23.6616 118.662 23.6616C118.825 23.6616 119.014 23.642 119.229 23.6029C119.451 23.5637 119.614 23.5311 119.719 23.505L120.502 27.3026C120.26 27.3744 119.915 27.4625 119.464 27.5669C119.021 27.6713 118.492 27.7398 117.879 27.7725C116.639 27.8377 115.598 27.7105 114.756 27.3907C113.915 27.0645 113.282 26.5522 112.858 25.854C112.433 25.1559 112.228 24.2815 112.241 23.2309V8.92112ZM126.622 27.792C125.663 27.792 124.814 27.6354 124.077 27.3222C123.346 27.0025 122.772 26.5196 122.354 25.8736C121.937 25.2276 121.728 24.4055 121.728 23.4071C121.728 22.5849 121.868 21.8835 122.149 21.3027C122.429 20.7154 122.821 20.2358 123.323 19.8639C123.826 19.492 124.41 19.2081 125.075 19.0124C125.747 18.8166 126.472 18.6894 127.248 18.6306C128.09 18.5654 128.765 18.4871 129.274 18.3957C129.79 18.2979 130.162 18.1641 130.39 17.9944C130.618 17.8182 130.733 17.5866 130.733 17.2995V17.2603C130.733 16.8688 130.583 16.5687 130.282 16.3599C129.982 16.1511 129.597 16.0467 129.127 16.0467C128.612 16.0467 128.191 16.1608 127.865 16.3892C127.545 16.6111 127.353 16.9537 127.287 17.4169H122.315C122.38 16.5034 122.671 15.6617 123.186 14.8917C123.708 14.1152 124.468 13.4953 125.467 13.032C126.465 12.5622 127.711 12.3273 129.206 12.3273C130.282 12.3273 131.248 12.4545 132.103 12.709C132.958 12.957 133.685 13.3061 134.286 13.7563C134.886 14.2 135.343 14.722 135.656 15.3224C135.976 15.9161 136.135 16.5621 136.135 17.2603V27.5571H131.085V25.443H130.968C130.667 26.0041 130.302 26.4576 129.871 26.8035C129.447 27.1493 128.961 27.4005 128.413 27.5571C127.871 27.7137 127.274 27.792 126.622 27.792ZM128.384 24.3859C128.795 24.3859 129.18 24.301 129.538 24.1314C129.904 23.9617 130.201 23.717 130.429 23.3973C130.658 23.0776 130.772 22.6893 130.772 22.2326V20.9797C130.628 21.0384 130.475 21.0939 130.312 21.1461C130.155 21.1983 129.985 21.2472 129.803 21.2929C129.627 21.3386 129.437 21.381 129.235 21.4202C129.039 21.4593 128.834 21.4952 128.618 21.5278C128.201 21.5931 127.858 21.7008 127.591 21.8508C127.33 21.9944 127.134 22.1738 127.003 22.3892C126.879 22.598 126.817 22.8329 126.817 23.0939C126.817 23.5115 126.964 23.8312 127.258 24.0531C127.552 24.2749 127.927 24.3859 128.384 24.3859ZM138.717 27.5571V12.523H144.12V27.5571H138.717ZM141.418 10.957C140.688 10.957 140.061 10.7156 139.539 10.2327C139.017 9.74982 138.756 9.16908 138.756 8.49046C138.756 7.81184 139.017 7.23109 139.539 6.74822C140.061 6.26536 140.688 6.02393 141.418 6.02393C142.156 6.02393 142.782 6.26536 143.298 6.74822C143.82 7.23109 144.081 7.81184 144.081 8.49046C144.081 9.16908 143.82 9.74982 143.298 10.2327C142.782 10.7156 142.156 10.957 141.418 10.957ZM152.276 19.1005V27.5571H146.873V12.523H152.002V15.3811H152.158C152.484 14.4284 153.059 13.6813 153.881 13.1397C154.71 12.5981 155.675 12.3273 156.778 12.3273C157.842 12.3273 158.765 12.572 159.548 13.0614C160.338 13.5442 160.948 14.2098 161.378 15.0581C161.815 15.9064 162.031 16.8754 162.024 17.9651V27.5571H156.621V19.1005C156.628 18.3566 156.439 17.7726 156.054 17.3484C155.675 16.9243 155.147 16.7122 154.468 16.7122C154.024 16.7122 153.636 16.8101 153.303 17.0059C152.977 17.1951 152.726 17.4691 152.55 17.828C152.373 18.1804 152.282 18.6045 152.276 19.1005ZM168.881 27.792C167.921 27.792 167.073 27.6354 166.336 27.3222C165.605 27.0025 165.031 26.5196 164.613 25.8736C164.196 25.2276 163.987 24.4055 163.987 23.4071C163.987 22.5849 164.127 21.8835 164.408 21.3027C164.688 20.7154 165.08 20.2358 165.582 19.8639C166.085 19.492 166.669 19.2081 167.334 19.0124C168.006 18.8166 168.731 18.6894 169.507 18.6306C170.349 18.5654 171.024 18.4871 171.533 18.3957C172.049 18.2979 172.421 18.1641 172.649 17.9944C172.877 17.8182 172.992 17.5866 172.992 17.2995V17.2603C172.992 16.8688 172.841 16.5687 172.541 16.3599C172.241 16.1511 171.856 16.0467 171.386 16.0467C170.871 16.0467 170.45 16.1608 170.124 16.3892C169.804 16.6111 169.611 16.9537 169.546 17.4169H164.574C164.639 16.5034 164.93 15.6617 165.445 14.8917C165.967 14.1152 166.727 13.4953 167.726 13.032C168.724 12.5622 169.97 12.3273 171.465 12.3273C172.541 12.3273 173.507 12.4545 174.362 12.709C175.217 12.957 175.944 13.3061 176.544 13.7563C177.145 14.2 177.602 14.722 177.915 15.3224C178.235 15.9161 178.394 16.5621 178.394 17.2603V27.5571H173.344V25.443H173.226C172.926 26.0041 172.561 26.4576 172.13 26.8035C171.706 27.1493 171.22 27.4005 170.672 27.5571C170.13 27.7137 169.533 27.792 168.881 27.792ZM170.642 24.3859C171.054 24.3859 171.439 24.301 171.797 24.1314C172.163 23.9617 172.46 23.717 172.688 23.3973C172.916 23.0776 173.031 22.6893 173.031 22.2326V20.9797C172.887 21.0384 172.734 21.0939 172.571 21.1461C172.414 21.1983 172.244 21.2472 172.062 21.2929C171.885 21.3386 171.696 21.381 171.494 21.4202C171.298 21.4593 171.093 21.4952 170.877 21.5278C170.46 21.5931 170.117 21.7008 169.85 21.8508C169.589 21.9944 169.393 22.1738 169.262 22.3892C169.138 22.598 169.076 22.8329 169.076 23.0939C169.076 23.5115 169.223 23.8312 169.517 24.0531C169.81 24.2749 170.186 24.3859 170.642 24.3859ZM180.898 27.5571V7.51168H186.301V15.1462H186.379C186.575 14.6372 186.862 14.1707 187.24 13.7465C187.619 13.3159 188.088 12.9733 188.65 12.7188C189.211 12.4578 189.863 12.3273 190.607 12.3273C191.599 12.3273 192.542 12.5916 193.436 13.1201C194.336 13.6486 195.067 14.4806 195.628 15.616C196.196 16.7514 196.48 18.2261 196.48 20.0401C196.48 21.7758 196.209 23.2146 195.667 24.3565C195.132 25.4984 194.415 26.35 193.514 26.9111C192.62 27.4723 191.638 27.7529 190.568 27.7529C189.863 27.7529 189.234 27.6387 188.679 27.4103C188.131 27.1754 187.661 26.8589 187.269 26.4609C186.885 26.0563 186.588 25.5996 186.379 25.0906H186.261V27.5571H180.898ZM186.183 20.0401C186.183 20.7709 186.278 21.4039 186.467 21.9389C186.663 22.4675 186.937 22.8786 187.289 23.1722C187.648 23.4593 188.075 23.6029 188.571 23.6029C189.067 23.6029 189.488 23.4626 189.834 23.182C190.186 22.8949 190.454 22.487 190.637 21.9585C190.826 21.4234 190.92 20.784 190.92 20.0401C190.92 19.2962 190.826 18.66 190.637 18.1315C190.454 17.5964 190.186 17.1886 189.834 16.908C189.488 16.6209 189.067 16.4773 188.571 16.4773C188.075 16.4773 187.648 16.6209 187.289 16.908C186.937 17.1886 186.663 17.5964 186.467 18.1315C186.278 18.66 186.183 19.2962 186.183 20.0401ZM204.144 7.51168V27.5571H198.741V7.51168H204.144ZM214.1 27.8312C212.495 27.8312 211.112 27.5245 209.95 26.9111C208.795 26.2912 207.905 25.4038 207.278 24.2488C206.658 23.0874 206.348 21.6975 206.348 20.0792C206.348 18.5262 206.662 17.169 207.288 16.0075C207.914 14.846 208.799 13.9423 209.941 13.2963C211.082 12.6503 212.43 12.3273 213.983 12.3273C215.118 12.3273 216.146 12.5035 217.066 12.8558C217.986 13.2082 218.772 13.7204 219.425 14.3925C220.077 15.0581 220.58 15.8672 220.932 16.8199C221.285 17.7726 221.461 18.846 221.461 20.0401V21.2929H208.032V18.3174H216.489C216.482 17.8868 216.371 17.5083 216.156 17.182C215.947 16.8493 215.663 16.5915 215.304 16.4088C214.952 16.2196 214.551 16.125 214.1 16.125C213.663 16.125 213.262 16.2196 212.896 16.4088C212.531 16.5915 212.237 16.846 212.016 17.1723C211.8 17.4985 211.686 17.8802 211.673 18.3174V21.5278C211.673 22.0107 211.774 22.4414 211.976 22.8198C212.179 23.1983 212.469 23.4952 212.848 23.7105C213.226 23.9258 213.683 24.0335 214.218 24.0335C214.59 24.0335 214.929 23.9813 215.236 23.8769C215.549 23.7725 215.816 23.6224 216.038 23.4267C216.26 23.2244 216.423 22.983 216.528 22.7024H221.461C221.291 23.7464 220.89 24.6534 220.257 25.4234C219.624 26.1868 218.785 26.7806 217.741 27.2048C216.704 27.6224 215.49 27.8312 214.1 27.8312Z" fill="#282752"/>
<path d="M58.9488 55.8994V43.371H66.4609V44.7168H60.4659V48.9501H65.8981V50.2959H60.4659V55.8994H58.9488ZM71.991 56.0952C71.1427 56.0952 70.3985 55.8933 69.7582 55.4895C69.122 55.0858 68.6244 54.521 68.2655 53.795C67.9107 53.0691 67.7333 52.2208 67.7333 51.2502C67.7333 50.2714 67.9107 49.417 68.2655 48.687C68.6244 47.957 69.122 47.3901 69.7582 46.9864C70.3985 46.5826 71.1427 46.3808 71.991 46.3808C72.8393 46.3808 73.5815 46.5826 74.2177 46.9864C74.858 47.3901 75.3556 47.957 75.7104 48.687C76.0693 49.417 76.2487 50.2714 76.2487 51.2502C76.2487 52.2208 76.0693 53.0691 75.7104 53.795C75.3556 54.521 74.858 55.0858 74.2177 55.4895C73.5815 55.8933 72.8393 56.0952 71.991 56.0952ZM71.991 54.7983C72.6354 54.7983 73.1656 54.6331 73.5815 54.3028C73.9975 53.9724 74.3054 53.5381 74.5053 52.9998C74.7051 52.4614 74.805 51.8783 74.805 51.2502C74.805 50.6221 74.7051 50.0369 74.5053 49.4945C74.3054 48.9521 73.9975 48.5137 73.5815 48.1793C73.1656 47.8449 72.6354 47.6776 71.991 47.6776C71.3467 47.6776 70.8165 47.8449 70.4005 48.1793C69.9845 48.5137 69.6766 48.9521 69.4768 49.4945C69.2769 50.0369 69.177 50.6221 69.177 51.2502C69.177 51.8783 69.2769 52.4614 69.4768 52.9998C69.6766 53.5381 69.9845 53.9724 70.4005 54.3028C70.8165 54.6331 71.3467 54.7983 71.991 54.7983ZM78.4525 55.8994V46.5031H79.8473V47.9223H79.9451C80.1164 47.4574 80.4264 47.0802 80.875 46.7906C81.3236 46.5011 81.8293 46.3563 82.3921 46.3563C82.4981 46.3563 82.6307 46.3583 82.7897 46.3624C82.9488 46.3665 83.0691 46.3726 83.1507 46.3808V47.8489C83.1017 47.8367 82.9896 47.8183 82.8142 47.7939C82.6429 47.7653 82.4614 47.7511 82.2698 47.7511C81.813 47.7511 81.4052 47.8469 81.0463 48.0386C80.6915 48.2262 80.4101 48.4872 80.2021 48.8216C79.9982 49.1519 79.8962 49.5292 79.8962 49.9533V55.8994H78.4525ZM84.862 55.8994V46.5031H86.2568V47.9713H86.3791C86.5749 47.4697 86.8909 47.0802 87.3273 46.8029C87.7637 46.5215 88.2877 46.3808 88.8995 46.3808C89.5194 46.3808 90.0353 46.5215 90.4472 46.8029C90.8632 47.0802 91.1874 47.4697 91.4198 47.9713H91.5177C91.7583 47.486 92.1193 47.1006 92.6005 46.8151C93.0817 46.5255 93.6588 46.3808 94.3317 46.3808C95.1718 46.3808 95.859 46.6438 96.3933 47.1699C96.9275 47.6919 97.1946 48.5055 97.1946 49.6107V55.8994H95.7509V49.6107C95.7509 48.9174 95.5613 48.4219 95.182 48.1242C94.8027 47.8265 94.3562 47.6776 93.8423 47.6776C93.1816 47.6776 92.6698 47.8775 92.3069 48.2772C91.9439 48.6727 91.7624 49.1744 91.7624 49.782V55.8994H90.2942V49.4639C90.2942 48.9297 90.1209 48.4994 89.7743 48.1732C89.4276 47.8428 88.981 47.6776 88.4345 47.6776C88.0594 47.6776 87.7086 47.7776 87.3824 47.9774C87.0602 48.1772 86.7992 48.4546 86.5993 48.8094C86.4036 49.1601 86.3057 49.5659 86.3057 50.0267V55.8994H84.862ZM104.875 55.8994V43.371H109.255C110.128 43.371 110.848 43.5219 111.415 43.8237C111.981 44.1214 112.403 44.5231 112.681 45.0288C112.958 45.5304 113.097 46.0871 113.097 46.6989C113.097 47.2372 113.001 47.6817 112.809 48.0325C112.622 48.3832 112.373 48.6605 112.063 48.8644C111.757 49.0683 111.425 49.2192 111.066 49.3171V49.4395C111.449 49.4639 111.835 49.5985 112.222 49.8432C112.609 50.0879 112.934 50.4386 113.195 50.8954C113.456 51.3522 113.586 51.9109 113.586 52.5716C113.586 53.1996 113.443 53.7644 113.158 54.2661C112.872 54.7677 112.422 55.1653 111.806 55.459C111.19 55.7526 110.389 55.8994 109.402 55.8994H104.875ZM106.392 54.5536H109.402C110.393 54.5536 111.096 54.3619 111.512 53.9786C111.932 53.5911 112.142 53.1221 112.142 52.5716C112.142 52.1474 112.034 51.7559 111.818 51.397C111.602 51.0341 111.294 50.7445 110.895 50.5283C110.495 50.3081 110.022 50.198 109.475 50.198H106.392V54.5536ZM106.392 48.8767H109.206C109.663 48.8767 110.075 48.7869 110.442 48.6075C110.813 48.428 111.107 48.1752 111.323 47.8489C111.543 47.5227 111.653 47.1393 111.653 46.6989C111.653 46.1483 111.461 45.6813 111.078 45.298C110.695 44.9106 110.087 44.7168 109.255 44.7168H106.392V48.8767ZM121.805 52.0577V46.5031H123.249V55.8994H121.805V54.3089H121.707C121.487 54.786 121.144 55.1918 120.679 55.5263C120.214 55.8566 119.627 56.0218 118.917 56.0218C118.33 56.0218 117.808 55.8933 117.351 55.6364C116.895 55.3754 116.536 54.9838 116.275 54.4618C116.014 53.9357 115.883 53.273 115.883 52.4737V46.5031H117.327V52.3758C117.327 53.0609 117.519 53.6074 117.902 54.0153C118.289 54.4231 118.783 54.627 119.382 54.627C119.741 54.627 120.106 54.5352 120.477 54.3517C120.853 54.1682 121.167 53.8868 121.419 53.5075C121.676 53.1282 121.805 52.645 121.805 52.0577ZM125.893 55.8994V46.5031H127.337V55.8994H125.893ZM126.627 44.9371C126.346 44.9371 126.103 44.8412 125.899 44.6495C125.699 44.4579 125.599 44.2274 125.599 43.9583C125.599 43.6891 125.699 43.4587 125.899 43.267C126.103 43.0753 126.346 42.9795 126.627 42.9795C126.908 42.9795 127.149 43.0753 127.349 43.267C127.553 43.4587 127.655 43.6891 127.655 43.9583C127.655 44.2274 127.553 44.4579 127.349 44.6495C127.149 44.8412 126.908 44.9371 126.627 44.9371ZM131.424 43.371V55.8994H129.981V43.371H131.424ZM137.617 56.0952C136.834 56.0952 136.143 55.8974 135.543 55.5018C134.944 55.1021 134.475 54.5393 134.136 53.8134C133.798 53.0834 133.628 52.2208 133.628 51.2257C133.628 50.2388 133.798 49.3824 134.136 48.6564C134.475 47.9305 134.946 47.3697 135.549 46.9741C136.153 46.5786 136.85 46.3808 137.641 46.3808C138.253 46.3808 138.736 46.4827 139.091 46.6866C139.45 46.8865 139.723 47.1148 139.911 47.3718C140.102 47.6246 140.251 47.8326 140.357 47.9958H140.48V43.371H141.923V55.8994H140.529V54.4557H140.357C140.251 54.627 140.1 54.8431 139.905 55.1042C139.709 55.3611 139.43 55.5915 139.067 55.7954C138.704 55.9953 138.22 56.0952 137.617 56.0952ZM137.813 54.7983C138.392 54.7983 138.881 54.6474 139.281 54.3456C139.68 54.0397 139.984 53.6176 140.192 53.0793C140.4 52.5369 140.504 51.9109 140.504 51.2013C140.504 50.4998 140.402 49.886 140.198 49.3599C139.994 48.8298 139.693 48.4179 139.293 48.1242C138.893 47.8265 138.4 47.6776 137.813 47.6776C137.201 47.6776 136.691 47.8347 136.283 48.1487C135.879 48.4586 135.576 48.8807 135.372 49.415C135.172 49.9452 135.072 50.5406 135.072 51.2013C135.072 51.8701 135.174 52.4778 135.378 53.0242C135.586 53.5667 135.892 53.9989 136.295 54.3211C136.703 54.6392 137.209 54.7983 137.813 54.7983ZM148.708 56.0952C147.802 56.0952 147.021 55.8953 146.365 55.4957C145.712 55.0919 145.208 54.5291 144.854 53.8073C144.503 53.0813 144.328 52.2371 144.328 51.2747C144.328 50.3122 144.503 49.4639 144.854 48.7298C145.208 47.9917 145.702 47.4166 146.334 47.0047C146.97 46.5888 147.713 46.3808 148.561 46.3808C149.05 46.3808 149.533 46.4623 150.011 46.6255C150.488 46.7886 150.922 47.0537 151.314 47.4207C151.705 47.7837 152.017 48.2649 152.25 48.8644C152.482 49.4639 152.598 50.2021 152.598 51.0789V51.6907H145.355V50.4427H151.13C151.13 49.9125 151.024 49.4395 150.812 49.0235C150.604 48.6075 150.306 48.2792 149.919 48.0386C149.536 47.798 149.083 47.6776 148.561 47.6776C147.986 47.6776 147.488 47.8204 147.068 48.1059C146.652 48.3873 146.332 48.7543 146.108 49.207C145.883 49.6597 145.771 50.145 145.771 50.6629V51.4949C145.771 52.2045 145.894 52.8061 146.138 53.2995C146.387 53.7889 146.732 54.1621 147.172 54.419C147.613 54.6719 148.124 54.7983 148.708 54.7983C149.087 54.7983 149.429 54.7453 149.735 54.6392C150.045 54.5291 150.312 54.366 150.537 54.1498C150.761 53.9296 150.934 53.6564 151.057 53.3301L152.451 53.7216C152.305 54.1947 152.058 54.6107 151.711 54.9696C151.365 55.3244 150.936 55.6017 150.427 55.8015C149.917 55.9973 149.344 56.0952 148.708 56.0952ZM154.794 55.8994V46.5031H156.189V47.9223H156.287C156.458 47.4574 156.768 47.0802 157.217 46.7906C157.666 46.5011 158.171 46.3563 158.734 46.3563C158.84 46.3563 158.973 46.3583 159.132 46.3624C159.291 46.3665 159.411 46.3726 159.493 46.3808V47.8489C159.444 47.8367 159.331 47.8183 159.156 47.7939C158.985 47.7653 158.803 47.7511 158.612 47.7511C158.155 47.7511 157.747 47.8469 157.388 48.0386C157.033 48.2262 156.752 48.4872 156.544 48.8216C156.34 49.1519 156.238 49.5292 156.238 49.9533V55.8994H154.794Z" fill="#9B0577"/>
</svg>
