<svg width="195" height="194" viewBox="0 0 195 194" fill="none" xmlns="http://www.w3.org/2000/svg">
<g filter="url(#filter0_dd_44_7974)">
<rect x="12" y="2" width="170.398" height="170" rx="16" fill="white"/>
<path d="M98.6283 42.6795C81.7198 51.3309 65.7479 61.6583 50.959 73.5386C50.6386 73.8097 50.3675 74.1301 50.1703 74.4998C49.9978 74.8695 49.8745 75.2886 49.8499 75.6829C49.8252 76.0773 49.8992 76.5209 50.0471 76.9153C50.195 77.3097 50.4168 77.6547 50.7126 77.9505L60.2021 87.3906C60.7197 87.9082 61.3852 88.204 62.0999 88.2533C62.8147 88.3026 63.5295 88.0808 64.0964 87.6125C77.9979 76.5702 92.9839 67.0069 108.833 59.021C109.202 58.8238 109.547 58.5527 109.819 58.2323C110.09 57.9119 110.287 57.5175 110.385 57.1231C110.484 56.7041 110.509 56.2851 110.435 55.8661C110.385 55.4224 110.213 55.0281 109.991 54.683L102.399 43.6161C101.98 43.0246 101.389 42.6056 100.699 42.433C99.9839 42.2852 99.2445 42.3591 98.6283 42.6795Z" fill="#4EAC7D"/>
<path d="M132.645 92.2213C119.359 99.4185 106.666 107.676 94.7112 116.894C94.3662 117.165 94.095 117.485 93.8978 117.855C93.7007 118.225 93.5774 118.644 93.5528 119.063C93.5281 119.482 93.6021 119.901 93.75 120.295C93.8978 120.69 94.1443 121.035 94.4401 121.33L103.954 130.795C104.447 131.288 105.137 131.609 105.827 131.633C106.542 131.682 107.232 131.461 107.799 131.042C118.916 122.587 130.673 115.045 142.997 108.464C143.366 108.267 143.687 107.996 143.933 107.676C144.18 107.355 144.377 106.961 144.476 106.566C144.574 106.172 144.574 105.753 144.5 105.334C144.426 104.915 144.254 104.545 144.032 104.2L136.44 93.1333C136.021 92.5418 135.405 92.1228 134.69 91.9502C134.025 91.7777 133.285 91.8763 132.645 92.2213Z" fill="#4EAC7D"/>
<path d="M96.0654 78.7639C88.0548 83.8413 80.2907 89.3378 72.8223 95.2039C72.5019 95.4751 72.2308 95.7955 72.0336 96.1652C71.8364 96.5349 71.7378 96.9539 71.7132 97.3729C71.6885 97.7919 71.7625 98.211 71.9104 98.6053C72.0582 98.9997 72.2801 99.3448 72.5758 99.6405L82.09 109.081C82.6076 109.574 83.2731 109.894 83.9879 109.919C84.7027 109.968 85.4175 109.746 85.9844 109.302C92.7133 104.102 99.6394 99.2215 106.787 94.711C107.132 94.4891 107.403 94.218 107.625 93.8729C107.847 93.5525 107.995 93.1828 108.069 92.7884C108.143 92.3941 108.143 91.9997 108.069 91.6054C107.995 91.211 107.823 90.8413 107.601 90.5209L100.058 79.5526C99.6394 78.9364 98.9739 78.4927 98.2344 78.3448C97.495 78.2463 96.7063 78.3695 96.0654 78.7639Z" fill="#4EAC7D"/>
</g>
<defs>
<filter id="filter0_dd_44_7974" x="0" y="0" width="194.398" height="194" filterUnits="userSpaceOnUse" color-interpolation-filters="sRGB">
<feFlood flood-opacity="0" result="BackgroundImageFix"/>
<feColorMatrix in="SourceAlpha" type="matrix" values="0 0 0 0 0 0 0 0 0 0 0 0 0 0 0 0 0 0 127 0" result="hardAlpha"/>
<feMorphology radius="3" operator="erode" in="SourceAlpha" result="effect1_dropShadow_44_7974"/>
<feOffset dy="10"/>
<feGaussianBlur stdDeviation="7.5"/>
<feComposite in2="hardAlpha" operator="out"/>
<feColorMatrix type="matrix" values="0 0 0 0 0 0 0 0 0 0 0 0 0 0 0 0 0 0 0.05 0"/>
<feBlend mode="normal" in2="BackgroundImageFix" result="effect1_dropShadow_44_7974"/>
<feColorMatrix in="SourceAlpha" type="matrix" values="0 0 0 0 0 0 0 0 0 0 0 0 0 0 0 0 0 0 127 0" result="hardAlpha"/>
<feMorphology radius="2" operator="erode" in="SourceAlpha" result="effect2_dropShadow_44_7974"/>
<feOffset dy="4"/>
<feGaussianBlur stdDeviation="3"/>
<feComposite in2="hardAlpha" operator="out"/>
<feColorMatrix type="matrix" values="0 0 0 0 0 0 0 0 0 0 0 0 0 0 0 0 0 0 0.05 0"/>
<feBlend mode="normal" in2="effect1_dropShadow_44_7974" result="effect2_dropShadow_44_7974"/>
<feBlend mode="normal" in="SourceGraphic" in2="effect2_dropShadow_44_7974" result="shape"/>
</filter>
</defs>
</svg>
