<svg width="195" height="194" viewBox="0 0 195 194" fill="none" xmlns="http://www.w3.org/2000/svg">
<g filter="url(#filter0_dd_44_8054)">
<rect x="12.3984" y="2" width="170.398" height="170" rx="16" fill="white"/>
<path d="M145.955 89.2493C145.96 88.493 145.569 87.7891 144.924 87.3936H144.913L144.873 87.3711L111.36 67.5323C111.215 67.4345 111.065 67.3451 110.91 67.2646C109.616 66.597 108.079 66.597 106.785 67.2646C106.63 67.3452 106.48 67.4345 106.335 67.5323L72.8231 87.3711L72.7827 87.3936C71.7584 88.0306 71.4444 89.3774 72.0813 90.4017C72.269 90.7035 72.5275 90.9549 72.8344 91.1342L106.347 110.973C106.492 111.07 106.642 111.159 106.797 111.241C108.091 111.908 109.628 111.908 110.922 111.241C111.076 111.159 111.226 111.07 111.372 110.973L144.884 91.1342C145.553 90.7438 145.962 90.0243 145.955 89.2493Z" fill="#0A2767"/>
<path d="M76.7287 76.0031H98.721V96.1636H76.7287V76.0031ZM141.455 55.5097V46.2876C141.508 43.9818 139.683 42.0692 137.377 42.0139H80.3071C78.0015 42.0692 76.1766 43.9818 76.2294 46.2876V55.5097L109.967 64.5069L141.455 55.5097Z" fill="#0364B8"/>
<path d="M76.2283 55.5093H98.7198V75.753H76.2283V55.5093Z" fill="#0078D4"/>
<path d="M121.208 55.5093H98.7168V75.753L121.208 95.9967H141.451V75.753L121.208 55.5093Z" fill="#28A8EA"/>
<path d="M98.7168 75.7534H121.208V95.9971H98.7168V75.7534Z" fill="#0078D4"/>
<path d="M98.7168 95.9973H121.208V116.241H98.7168V95.9973Z" fill="#0364B8"/>
<path d="M76.7324 96.1636H98.7247V114.491H76.7324V96.1636Z" fill="#14447D"/>
<path d="M121.213 95.9973H141.455V116.241H121.213V95.9973Z" fill="#0078D4"/>
<path d="M144.928 91.0105L144.886 91.033L111.373 109.882C111.227 109.972 111.079 110.058 110.923 110.134C110.354 110.405 109.736 110.558 109.106 110.584L107.275 109.513C107.121 109.436 106.97 109.349 106.825 109.255L72.8631 89.8701H72.8474L71.7363 89.2493V127.406C71.7537 129.952 73.8307 132.002 76.3763 131.986H141.39C141.429 131.986 141.462 131.968 141.503 131.968C142.041 131.934 142.571 131.823 143.077 131.64C143.296 131.547 143.508 131.437 143.709 131.311C143.86 131.226 144.119 131.039 144.119 131.039C145.271 130.186 145.953 128.84 145.959 127.406V89.2493C145.958 89.9791 145.564 90.652 144.928 91.0105Z" fill="url(#paint0_linear_44_8054)"/>
<path opacity="0.5" d="M144.158 89.0987V91.438L109.117 115.566L72.8376 89.886C72.8376 89.8736 72.8275 89.8635 72.8151 89.8635L69.4863 87.8616V86.1746L70.8583 86.1521L73.7597 87.8166L73.8272 87.8391L74.0746 87.9966C74.0746 87.9966 108.172 107.453 108.262 107.498L109.566 108.263C109.679 108.218 109.791 108.173 109.926 108.128C109.994 108.083 143.776 89.0762 143.776 89.0762L144.158 89.0987Z" fill="#0A2767"/>
<path d="M144.928 91.0105L144.886 91.0352L111.373 109.884C111.227 109.974 111.079 110.06 110.923 110.136C109.622 110.772 108.1 110.772 106.798 110.136C106.644 110.06 106.494 109.976 106.349 109.884L72.8362 91.0352L72.7957 91.0105C72.1487 90.6596 71.743 89.9853 71.7363 89.2493V127.406C71.7524 129.952 73.8288 132.002 76.3739 131.986C76.3739 131.986 76.374 131.986 76.3741 131.986H141.321C143.866 132.002 145.942 129.952 145.959 127.407C145.959 127.407 145.959 127.407 145.959 127.406V89.2493C145.958 89.9791 145.564 90.652 144.928 91.0105Z" fill="#1490DF"/>
<path opacity="0.1" d="M111.858 109.605L111.356 109.886C111.211 109.979 111.061 110.064 110.906 110.141C110.354 110.412 109.753 110.571 109.139 110.608L121.889 125.688L144.131 131.048C144.741 130.587 145.225 129.982 145.541 129.287L111.858 109.605Z" fill="black"/>
<path opacity="0.05" d="M114.13 108.328L111.356 109.887C111.211 109.98 111.061 110.065 110.906 110.141C110.354 110.413 109.753 110.572 109.139 110.609L115.112 127.081L144.138 131.042C145.281 130.183 145.954 128.837 145.955 127.407V126.914L114.13 108.328Z" fill="black"/>
<path d="M76.4371 131.986H141.314C142.312 131.991 143.286 131.676 144.092 131.086L107.273 109.518C107.118 109.44 106.968 109.354 106.823 109.259L72.8609 89.8746H72.8451L71.7363 89.2493V127.276C71.7338 129.875 73.8384 131.983 76.4371 131.986C76.437 131.986 76.437 131.986 76.4371 131.986Z" fill="#28A8EA"/>
<path opacity="0.1" d="M103.225 64.1313V112.109C103.221 113.791 102.198 115.303 100.638 115.933C100.155 116.14 99.6345 116.248 99.1086 116.248H71.7363V62.2576H76.2347V60.0083H99.1086C101.381 60.0169 103.22 61.8589 103.225 64.1313Z" fill="black"/>
<path opacity="0.2" d="M100.975 66.3802V114.358C100.981 114.901 100.866 115.439 100.638 115.932C100.013 117.472 98.5209 118.482 96.8594 118.49H71.7363V62.2573H96.8594C97.5121 62.2507 98.1552 62.4135 98.7262 62.7296C100.105 63.4243 100.975 64.8363 100.975 66.3802Z" fill="black"/>
<path opacity="0.2" d="M100.975 66.3802V109.859C100.964 112.131 99.1306 113.972 96.8595 113.991H71.7363V62.2573H96.8594C97.5121 62.2507 98.1552 62.4135 98.7262 62.7296C100.105 63.4243 100.975 64.8363 100.975 66.3802Z" fill="black"/>
<path opacity="0.2" d="M98.7262 66.38V109.859C98.7238 112.134 96.885 113.98 94.6103 113.991H71.7363V62.2571H94.6102C96.8847 62.2583 98.7274 64.1032 98.7262 66.3778C98.7262 66.3786 98.7262 66.3793 98.7262 66.38Z" fill="black"/>
<path d="M53.359 62.2578H94.5951C96.872 62.2578 98.7178 64.1038 98.7178 66.3808V107.619C98.7178 109.897 96.872 111.742 94.5951 111.742H53.359C51.0821 111.742 49.2363 109.896 49.2363 107.619V66.3808C49.2363 64.1038 51.0822 62.2578 53.359 62.2578Z" fill="url(#paint1_linear_44_8054)"/>
<path d="M62.127 79.5504C63.1431 77.3853 64.7832 75.5735 66.8367 74.3478C69.1109 73.0457 71.7002 72.3965 74.3197 72.4718C76.7475 72.4192 79.1431 73.0346 81.2449 74.251C83.221 75.4295 84.8125 77.1564 85.8264 79.2219C86.9305 81.498 87.4807 84.0029 87.4323 86.5322C87.4858 89.1755 86.9197 91.7946 85.7792 94.1798C84.7412 96.3192 83.0991 98.1076 81.0559 99.3239C78.8731 100.578 76.3886 101.209 73.8721 101.15C71.3925 101.21 68.9441 100.588 66.794 99.3509C64.8008 98.1708 63.1892 96.4421 62.1517 94.3709C61.0411 92.1278 60.4843 89.6511 60.5279 87.1484C60.4816 84.5276 61.0283 81.9302 62.127 79.5504ZM67.1471 91.7641C67.6888 93.1328 68.6076 94.3198 69.7966 95.1875C71.0077 96.034 72.4579 96.4707 73.935 96.4336C75.5081 96.4958 77.0587 96.0442 78.3524 95.147C79.5264 94.282 80.4209 93.0918 80.9254 91.7235C81.4893 90.1955 81.7676 88.5769 81.7464 86.9483C81.7638 85.3041 81.5022 83.669 80.9726 82.1123C80.5049 80.7069 79.6392 79.4676 78.4806 78.5449C77.2193 77.6052 75.6729 77.1286 74.1015 77.1954C72.5923 77.1563 71.1096 77.5964 69.8663 78.4527C68.6572 79.324 67.721 80.5216 67.1673 81.9054C65.939 85.0772 65.9327 88.5923 67.1493 91.7685L67.1471 91.7641Z" fill="#F8F9FB"/>
<path d="M121.213 55.5093H141.455V75.753H121.213V55.5093Z" fill="#50D9FF"/>
</g>
<defs>
<filter id="filter0_dd_44_8054" x="0.398438" y="0" width="194.398" height="194" filterUnits="userSpaceOnUse" color-interpolation-filters="sRGB">
<feFlood flood-opacity="0" result="BackgroundImageFix"/>
<feColorMatrix in="SourceAlpha" type="matrix" values="0 0 0 0 0 0 0 0 0 0 0 0 0 0 0 0 0 0 127 0" result="hardAlpha"/>
<feMorphology radius="3" operator="erode" in="SourceAlpha" result="effect1_dropShadow_44_8054"/>
<feOffset dy="10"/>
<feGaussianBlur stdDeviation="7.5"/>
<feComposite in2="hardAlpha" operator="out"/>
<feColorMatrix type="matrix" values="0 0 0 0 0 0 0 0 0 0 0 0 0 0 0 0 0 0 0.05 0"/>
<feBlend mode="normal" in2="BackgroundImageFix" result="effect1_dropShadow_44_8054"/>
<feColorMatrix in="SourceAlpha" type="matrix" values="0 0 0 0 0 0 0 0 0 0 0 0 0 0 0 0 0 0 127 0" result="hardAlpha"/>
<feMorphology radius="2" operator="erode" in="SourceAlpha" result="effect2_dropShadow_44_8054"/>
<feOffset dy="4"/>
<feGaussianBlur stdDeviation="3"/>
<feComposite in2="hardAlpha" operator="out"/>
<feColorMatrix type="matrix" values="0 0 0 0 0 0 0 0 0 0 0 0 0 0 0 0 0 0 0.05 0"/>
<feBlend mode="normal" in2="effect1_dropShadow_44_8054" result="effect2_dropShadow_44_8054"/>
<feBlend mode="normal" in="SourceGraphic" in2="effect2_dropShadow_44_8054" result="shape"/>
</filter>
<linearGradient id="paint0_linear_44_8054" x1="108.847" y1="89.2493" x2="108.847" y2="131.986" gradientUnits="userSpaceOnUse">
<stop stop-color="#35B8F1"/>
<stop offset="1" stop-color="#28A8EA"/>
</linearGradient>
<linearGradient id="paint1_linear_44_8054" x1="57.8323" y1="59.0362" x2="90.1249" y2="114.962" gradientUnits="userSpaceOnUse">
<stop stop-color="#1784D9"/>
<stop offset="0.5" stop-color="#107AD5"/>
<stop offset="1" stop-color="#0A63C9"/>
</linearGradient>
</defs>
</svg>
