<svg width="195" height="194" viewBox="0 0 195 194" fill="none" xmlns="http://www.w3.org/2000/svg">
<g filter="url(#filter0_dd_44_8029)">
<rect x="12" y="2" width="170.398" height="170" rx="16" fill="white"/>
<path d="M85.9827 68.3436V95.1166C85.9827 95.5918 85.9827 96.067 85.9827 96.5135C86.072 99.1876 87.3795 100.525 90.0839 100.554C92.7276 100.584 95.3427 100.554 97.9578 100.554C99.1171 100.554 100.246 100.554 101.405 100.554C102.207 100.554 102.297 100.406 101.88 99.6931C100.693 97.6138 99.9191 95.3845 99.8888 92.948C99.8584 88.016 101.404 83.7968 105.801 81.0923C108.118 79.6668 110.705 79.4882 113.348 79.6668C117.36 79.9348 120.183 82.014 122.203 85.3133C123.153 86.8584 123.541 88.6108 123.807 90.3649C124.312 93.4855 123.687 96.4259 122.262 99.2196C122.083 99.5768 121.876 99.9324 121.608 100.408C121.905 100.466 122.232 100.527 122.53 100.527C126.215 100.527 129.898 100.557 133.583 100.527C134.296 100.497 135.039 100.379 135.723 100.111C137.031 99.6644 137.476 98.5355 137.715 97.3476C137.834 96.6348 137.893 95.8917 137.863 95.179C137.863 91.9994 137.893 88.8501 137.863 85.6705C137.863 84.8684 138.101 84.4219 138.874 84.0664C140.776 83.1447 142.618 82.105 144.49 81.1244C144.697 81.0047 144.937 80.9171 145.262 80.7671C145.292 81.094 145.292 81.3316 145.292 81.5389C145.292 86.6495 145.351 91.7601 145.262 96.8707C145.203 100.02 144.192 102.844 141.755 105.013C140.062 106.499 138.101 107.449 135.843 107.508C130.227 107.628 124.641 107.656 119.025 107.656C116.737 107.656 114.449 107.33 112.16 107.299C110.823 107.269 109.517 107.506 108.179 107.596C107.852 107.626 107.525 107.655 107.198 107.655C101.404 107.655 95.6106 107.685 89.816 107.655C87.4688 107.655 85.2109 107.239 83.1907 105.872C80.5756 104.12 79.1787 101.683 78.7929 98.5928C78.6732 97.5531 78.6143 96.4832 78.6446 95.4435C78.6446 87.9554 78.6446 80.4672 78.6446 73.0094C78.6446 72.6522 78.7929 72.1484 79.0305 71.9984C81.258 70.8088 83.5462 69.6495 85.9827 68.3436ZM107.02 91.6977C107.257 95.4418 108.534 98.0569 111.476 99.6611C111.744 99.7807 112.041 99.7807 112.278 99.6611C113.17 99.0073 114.181 98.3838 114.863 97.5514C116.855 95.0846 117.507 92.3212 116.26 89.2916C115.696 87.7161 114.268 86.6478 112.605 86.4978C110.555 86.2906 108.713 86.7658 107.791 88.845C107.346 89.8847 107.198 91.044 107.02 91.6977Z" fill="#4EA8A6"/>
<path d="M48.8398 107.685C49.374 106.615 49.8795 105.635 50.3546 104.684C50.9191 103.614 51.4836 102.544 52.0194 101.446C52.2266 100.881 52.7911 100.554 53.3859 100.613C56.2082 100.644 59.0609 100.644 61.9136 100.613C64.2304 100.613 65.3897 99.4844 65.479 97.1961C65.6576 93.0359 63.9928 89.767 60.6953 87.3018C60.1898 86.916 59.6557 86.5891 59.0609 86.1425L61.4974 81.9536C61.7939 81.4195 62.1208 80.914 62.4191 80.3781C62.6263 80.0209 62.8656 80.0209 63.1621 80.2299C65.2414 81.5964 67.2027 83.1129 68.8085 85.0439C71.0664 87.7483 72.4329 91.0459 72.7598 94.5524C72.9973 96.7513 72.908 98.9502 72.4632 101.119C71.8398 103.972 70.2643 106.14 67.4117 107.092C66.2524 107.449 65.0342 107.657 63.8159 107.657C58.9733 107.716 54.1003 107.687 49.256 107.687C49.1667 107.714 49.0774 107.714 48.8398 107.685Z" fill="#4EA8A6"/>
<path d="M141.755 66.2931C144.161 66.2931 145.558 67.7489 145.558 70.1854C145.558 72.7416 144.251 74.0778 141.755 74.0778C139.378 74.0778 137.774 72.563 137.863 70.0961C137.952 67.69 139.319 66.2931 141.755 66.2931Z" fill="#4EA8A6"/>
<path d="M58.8793 70.0961C58.8793 67.7489 60.3655 66.2931 62.7716 66.2931C65.1778 66.2931 66.546 67.7186 66.546 70.1854C66.546 72.8292 65.2384 74.0188 62.7716 74.0475C60.3065 74.0778 58.8507 72.5916 58.8793 70.0961Z" fill="#4EA8A6"/>
<path d="M115.786 71.0769C115.727 71.5824 115.667 72.0879 115.549 72.5917C115.222 73.6617 114.538 74.4638 113.38 74.671C111.805 74.9676 110.201 75.0569 109.013 73.7207C107.825 72.3828 107.795 70.7197 108.418 69.1746C108.952 67.808 110.17 67.0953 111.657 67.1829C112.518 67.1829 113.35 67.3901 114.123 67.7474C115.431 68.4028 115.817 69.6497 115.786 71.0769Z" fill="#4EA8A6"/>
</g>
<defs>
<filter id="filter0_dd_44_8029" x="0" y="0" width="194.398" height="194" filterUnits="userSpaceOnUse" color-interpolation-filters="sRGB">
<feFlood flood-opacity="0" result="BackgroundImageFix"/>
<feColorMatrix in="SourceAlpha" type="matrix" values="0 0 0 0 0 0 0 0 0 0 0 0 0 0 0 0 0 0 127 0" result="hardAlpha"/>
<feMorphology radius="3" operator="erode" in="SourceAlpha" result="effect1_dropShadow_44_8029"/>
<feOffset dy="10"/>
<feGaussianBlur stdDeviation="7.5"/>
<feComposite in2="hardAlpha" operator="out"/>
<feColorMatrix type="matrix" values="0 0 0 0 0 0 0 0 0 0 0 0 0 0 0 0 0 0 0.05 0"/>
<feBlend mode="normal" in2="BackgroundImageFix" result="effect1_dropShadow_44_8029"/>
<feColorMatrix in="SourceAlpha" type="matrix" values="0 0 0 0 0 0 0 0 0 0 0 0 0 0 0 0 0 0 127 0" result="hardAlpha"/>
<feMorphology radius="2" operator="erode" in="SourceAlpha" result="effect2_dropShadow_44_8029"/>
<feOffset dy="4"/>
<feGaussianBlur stdDeviation="3"/>
<feComposite in2="hardAlpha" operator="out"/>
<feColorMatrix type="matrix" values="0 0 0 0 0 0 0 0 0 0 0 0 0 0 0 0 0 0 0.05 0"/>
<feBlend mode="normal" in2="effect1_dropShadow_44_8029" result="effect2_dropShadow_44_8029"/>
<feBlend mode="normal" in="SourceGraphic" in2="effect2_dropShadow_44_8029" result="shape"/>
</filter>
</defs>
</svg>
