<svg width="195" height="194" viewBox="0 0 195 194" fill="none" xmlns="http://www.w3.org/2000/svg">
<g filter="url(#filter0_dd_44_7979)">
<rect x="12" y="2" width="170.398" height="170" rx="16" fill="white"/>
<path d="M114.484 45.1475L111.261 53.2172L111.046 53.7677L82.998 50.7601L95.4284 38.6399H99.7256C106.601 38.6399 111.511 38.8234 111.941 39.0069C113.136 39.4992 113.964 40.3272 114.488 41.5849C114.98 42.753 114.98 43.9481 114.488 45.1431L114.484 45.1475Z" fill="#1947BA"/>
<path d="M105.889 66.7161L101.654 77.3951C100.826 79.4181 99.385 80.4027 97.2051 80.4027C95.0252 80.4027 93.5839 79.4226 92.7558 77.3951L91.7441 74.8171L95.0565 72.9149L105.889 66.7161Z" fill="#0E1D61"/>
<path d="M110.892 54.1088L106.076 66.1663L100.333 69.4783L94.872 72.6113L91.5909 74.4822L82.3521 51.3473L82.6609 51.0698L110.892 54.1088Z" fill="#00BAB3"/>
<path d="M132.62 133.087C132.097 133.883 131.394 134.47 130.534 134.837C129.921 135.02 114.084 135.146 94.416 135.114L101.905 128.454H110.159L132.62 133.055V133.087Z" fill="#0E1D61"/>
<path d="M71.4813 98.6272L80.5635 122.071L61.6919 118.204V103.721L61.8128 103.416L71.4813 98.6272Z" fill="#0E1D61"/>
<path d="M71.3812 98.2918L67.6973 100.1L62.0215 102.924L67.6973 88.7183L71.3812 98.2918Z" fill="#00BAB3"/>
<path d="M81.5198 123.486L81.5511 123.544L81.6406 123.79L81.672 123.853H87.5358L82.1643 122.747L81.5198 123.486Z" fill="#00BAB3"/>
<path d="M83.3479 128.333L83.4106 128.485L83.3479 128.333Z" fill="url(#paint0_linear_44_7979)"/>
<path d="M101.325 128.484L93.8366 135.144H85.9809L83.4026 128.515H101.325V128.484Z" fill="#00BAB3"/>
<path d="M81.2394 123.853H61.6919V118.576L63.5629 118.943L80.7202 122.47L81.0872 123.392L81.1186 123.513L81.2081 123.79L81.2394 123.821V123.853Z" fill="#1947BA"/>
<path d="M83.0081 128.391L83.0395 128.485L82.9768 128.391H83.0081Z" fill="url(#paint1_linear_44_7979)"/>
<path d="M83.0516 128.485L85.6299 135.113C79.5826 135.113 74.4573 135.051 70.7466 135.019C65.1916 134.957 64.1487 134.867 64.0278 134.836C63.0162 134.406 62.2463 133.699 61.7271 132.719V128.485H83.0561H83.0516Z" fill="#1947BA"/>
<path d="M85.7033 135.298H85.672L85.6138 135.114L85.7033 135.298Z" fill="url(#paint2_linear_44_7979)"/>
<path d="M81.6878 123.854L81.6565 123.791L81.6878 123.854Z" fill="#CBC8C7"/>
<path d="M83.0631 128.391L83.0944 128.485L83.0317 128.391H83.0631Z" fill="#CBC8C7"/>
<path d="M85.6333 135.114L85.7228 135.297H85.6915L85.6333 135.114Z" fill="#CBC8C7"/>
<path d="M83.4692 128.485L83.4066 128.333L83.3752 128.239L83.4066 128.333L83.4692 128.485Z" fill="#CBC8C7"/>
<path d="M89.9973 89.0535L71.7076 98.1347L69.4382 92.2134L67.9028 88.2255L74.3799 72.0235C75.208 70.0005 76.6493 69.0159 78.8292 69.0159C81.0091 69.0159 82.4504 69.996 83.2785 72.0235L83.5561 72.6994C83.8336 73.4378 85.4584 77.457 88.1576 84.2377L90.0913 89.0535H89.9973Z" fill="#0E1D61"/>
<path d="M69.4107 92.2136L71.6802 98.135L69.3794 92.2136H69.4107ZM69.4107 92.2136L71.6802 98.135L69.3794 92.2136H69.4107ZM69.4107 92.2136L71.6802 98.135L69.3794 92.2136H69.4107ZM69.4107 92.2136L71.6802 98.135L69.3794 92.2136H69.4107Z" fill="#CBC8C7"/>
<path d="M131.825 101.483L121.606 110.532L106.293 95.8656L122.497 77.8241L131.579 100.655C131.579 100.655 131.611 100.807 131.642 100.901C131.642 100.963 131.642 101.022 131.673 101.053V101.174C131.673 101.174 131.767 101.389 131.794 101.483H131.825Z" fill="#00BAB3"/>
<path d="M106.608 123.853H89.3298L82.4588 122.439H82.4275L106.089 96.1128L121.37 110.78L106.608 123.853Z" fill="#0E1D61"/>
<path d="M122.377 77.4577L106.084 95.6245L105.838 95.902L82.0243 122.412L81.7468 122.72L81.3484 123.15L81.1336 122.599L81.0127 122.291V122.197H80.9814L78.3717 115.479L76.8051 111.428L71.8052 98.5113L90.1262 89.4301L92.6105 95.6916C93.4699 97.8086 95.0366 98.8828 97.306 98.9141C99.3293 98.9141 100.806 97.9608 101.724 96.184L111.33 72.0958C112.158 70.0728 113.599 69.0881 115.779 69.0881C117.959 69.0881 119.4 70.0683 120.229 72.0958C120.506 72.7716 120.779 73.4475 121.025 74.1188L122.377 77.5248V77.4622V77.4577Z" fill="#1947BA"/>
<path d="M80.9859 122.165L78.4121 115.443L80.9859 122.165Z" fill="#CBC8C7"/>
<path d="M132.638 121.552V123.853H107.137L121.622 111.025L121.9 110.779L131.935 101.882C132.396 104.737 132.674 111.361 132.701 121.521L132.638 121.552Z" fill="#1947BA"/>
<path d="M132.102 101.206C132.102 101.206 132.165 101.39 132.165 101.515L132.102 101.206Z" fill="#CBC8C7"/>
<path d="M132.675 128.486V132.72L112.021 128.486H132.706H132.675Z" fill="#1947BA"/>
<path d="M95.1435 38.7656L87.7175 38.8238L86.3343 38.8551L84.5259 38.9178L83.483 38.9804L82.928 39.0386L82.5922 39.07L82.3774 39.1326L82.0685 39.2848L81.8223 39.4101L81.7015 39.4683L81.5806 39.5623L81.3926 39.6831L81.2091 39.8398L81.0569 39.9606L80.9047 40.1441L80.748 40.2963L80.5959 40.4843L80.475 40.6051L80.3497 40.7573L80.1975 41.0348L80.0453 41.281L79.92 41.5585L79.7991 41.8628L79.7364 42.015L79.6782 42.2925L79.6156 42.5073L79.5842 42.7221L79.5529 42.8743L79.5216 43.0578L79.4902 43.304V43.5501V43.7023L79.5216 43.8903L79.5529 44.132L79.5842 44.32L79.6156 44.5616L79.6782 44.7765L79.7678 45.054L79.9826 45.5776L80.2915 46.2803L82.252 51.1901L95.1435 38.7656Z" fill="#C2D501"/>
</g>
<defs>
<filter id="filter0_dd_44_7979" x="0" y="0" width="194.398" height="194" filterUnits="userSpaceOnUse" color-interpolation-filters="sRGB">
<feFlood flood-opacity="0" result="BackgroundImageFix"/>
<feColorMatrix in="SourceAlpha" type="matrix" values="0 0 0 0 0 0 0 0 0 0 0 0 0 0 0 0 0 0 127 0" result="hardAlpha"/>
<feMorphology radius="3" operator="erode" in="SourceAlpha" result="effect1_dropShadow_44_7979"/>
<feOffset dy="10"/>
<feGaussianBlur stdDeviation="7.5"/>
<feComposite in2="hardAlpha" operator="out"/>
<feColorMatrix type="matrix" values="0 0 0 0 0 0 0 0 0 0 0 0 0 0 0 0 0 0 0.05 0"/>
<feBlend mode="normal" in2="BackgroundImageFix" result="effect1_dropShadow_44_7979"/>
<feColorMatrix in="SourceAlpha" type="matrix" values="0 0 0 0 0 0 0 0 0 0 0 0 0 0 0 0 0 0 127 0" result="hardAlpha"/>
<feMorphology radius="2" operator="erode" in="SourceAlpha" result="effect2_dropShadow_44_7979"/>
<feOffset dy="4"/>
<feGaussianBlur stdDeviation="3"/>
<feComposite in2="hardAlpha" operator="out"/>
<feColorMatrix type="matrix" values="0 0 0 0 0 0 0 0 0 0 0 0 0 0 0 0 0 0 0.05 0"/>
<feBlend mode="normal" in2="effect1_dropShadow_44_7979" result="effect2_dropShadow_44_7979"/>
<feBlend mode="normal" in="SourceGraphic" in2="effect2_dropShadow_44_7979" result="shape"/>
</filter>
<linearGradient id="paint0_linear_44_7979" x1="83.3479" y1="128.409" x2="83.4106" y2="128.409" gradientUnits="userSpaceOnUse">
<stop stop-color="white"/>
<stop offset="1" stop-color="#E6E5E5"/>
</linearGradient>
<linearGradient id="paint1_linear_44_7979" x1="82.9768" y1="128.44" x2="83.0395" y2="128.44" gradientUnits="userSpaceOnUse">
<stop stop-color="white"/>
<stop offset="1" stop-color="#E6E5E5"/>
</linearGradient>
<linearGradient id="paint2_linear_44_7979" x1="85.6138" y1="135.204" x2="85.7033" y2="135.204" gradientUnits="userSpaceOnUse">
<stop stop-color="white"/>
<stop offset="1" stop-color="#E6E5E5"/>
</linearGradient>
</defs>
</svg>
