<svg width="1920" height="224" viewBox="0 0 1920 224" fill="none" xmlns="http://www.w3.org/2000/svg">
<g clip-path="url(#clip0_44_1638)">
<path opacity="0.2" d="M-916.364 -292H-960V-248.4M-916.364 -292V-248.4M-916.364 -292H-872.727M-916.364 -248.4H-960M-916.364 -248.4V-204.8M-916.364 -248.4H-872.727M-960 -248.4V-204.8M-916.364 -204.8H-960M-916.364 -204.8V-161.2M-916.364 -204.8H-872.727M-960 -204.8V-161.2M-916.364 -161.2H-960M-916.364 -161.2V-117.6M-916.364 -161.2H-872.727M-960 -161.2V-117.6M-916.364 -117.6H-960M-916.364 -117.6V-74M-916.364 -117.6H-872.727M-960 -117.6V-74M-916.364 -74H-960M-916.364 -74V-30.4M-916.364 -74H-872.727M-960 -74V-30.4M-916.364 -30.4H-960M-916.364 -30.4V13.2M-916.364 -30.4H-872.727M-960 -30.4V13.2M-916.364 13.2H-960M-916.364 13.2V56.8M-916.364 13.2H-872.727M-960 13.2V56.8M-916.364 56.8H-960M-916.364 56.8V100.4M-916.364 56.8H-872.727M-960 56.8V100.4M-916.364 100.4H-960M-916.364 100.4V144M-916.364 100.4H-872.727M-960 100.4V144M-916.364 144H-960M-916.364 144V187.6M-916.364 144H-872.727M-960 144V187.6M-916.364 187.6H-960M-916.364 187.6V231.2M-916.364 187.6H-872.727M-960 187.6V231.2M-916.364 231.2H-960M-916.364 231.2V274.8M-916.364 231.2H-872.727M-960 231.2V274.8M-916.364 274.8H-960M-916.364 274.8V318.4M-916.364 274.8H-872.727M-960 274.8V318.4M-916.364 318.4H-960M-916.364 318.4V362M-916.364 318.4H-872.727M-960 318.4V362M-916.364 362H-960M-916.364 362V405.6M-916.364 362H-872.727M-960 362V405.6M-916.364 405.6H-960M-916.364 405.6V449.2M-916.364 405.6H-872.727M-960 405.6V449.2M-916.364 449.2H-960M-916.364 449.2V492.8M-916.364 449.2H-872.727M-960 449.2V492.8M-916.364 492.8H-960M-916.364 492.8V536.4M-916.364 492.8H-872.727M-960 492.8V536.4M-916.364 536.4H-960M-916.364 536.4V580M-916.364 536.4H-872.727M-960 536.4V580H-916.364M-916.364 580H-872.727M-872.727 -292V-248.4M-872.727 -292H-829.091M-872.727 -248.4V-204.8M-872.727 -248.4H-829.091M-872.727 -204.8V-161.2M-872.727 -204.8H-829.091M-872.727 -161.2V-117.6M-872.727 -161.2H-829.091M-872.727 -117.6V-74M-872.727 -117.6H-829.091M-872.727 -74V-30.4M-872.727 -74H-829.091M-872.727 -30.4V13.2M-872.727 -30.4H-829.091M-872.727 13.2V56.8M-872.727 13.2H-829.091M-872.727 56.8V100.4M-872.727 56.8H-829.091M-872.727 100.4V144M-872.727 100.4H-829.091M-872.727 144V187.6M-872.727 144H-829.091M-872.727 187.6V231.2M-872.727 187.6H-829.091M-872.727 231.2V274.8M-872.727 231.2H-829.091M-872.727 274.8V318.4M-872.727 274.8H-829.091M-872.727 318.4V362M-872.727 318.4H-829.091M-872.727 362V405.6M-872.727 362H-829.091M-872.727 405.6V449.2M-872.727 405.6H-829.091M-872.727 449.2V492.8M-872.727 449.2H-829.091M-872.727 492.8V536.4M-872.727 492.8H-829.091M-872.727 536.4V580M-872.727 536.4H-829.091M-872.727 580H-829.091M-829.091 -292V-248.4M-829.091 -292H-785.455M-829.091 -248.4V-204.8M-829.091 -248.4H-785.455M-829.091 -204.8V-161.2M-829.091 -204.8H-785.455M-829.091 -161.2V-117.6M-829.091 -161.2H-785.455M-829.091 -117.6V-74M-829.091 -117.6H-785.455M-829.091 -74V-30.4M-829.091 -74H-785.455M-829.091 -30.4V13.2M-829.091 -30.4H-785.455M-829.091 13.2V56.8M-829.091 13.2H-785.455M-829.091 56.8V100.4M-829.091 56.8H-785.455M-829.091 100.4V144M-829.091 100.4H-785.455M-829.091 144V187.6M-829.091 144H-785.455M-829.091 187.6V231.2M-829.091 187.6H-785.455M-829.091 231.2V274.8M-829.091 231.2H-785.455M-829.091 274.8V318.4M-829.091 274.8H-785.455M-829.091 318.4V362M-829.091 318.4H-785.455M-829.091 362V405.6M-829.091 362H-785.455M-829.091 405.6V449.2M-829.091 405.6H-785.455M-829.091 449.2V492.8M-829.091 449.2H-785.455M-829.091 492.8V536.4M-829.091 492.8H-785.455M-829.091 536.4V580M-829.091 536.4H-785.455M-829.091 580H-785.455M-785.455 -292V-248.4M-785.455 -292H-741.818M-785.455 -248.4V-204.8M-785.455 -248.4H-741.818M-785.455 -204.8V-161.2M-785.455 -204.8H-741.818M-785.455 -161.2V-117.6M-785.455 -161.2H-741.818M-785.455 -117.6V-74M-785.455 -117.6H-741.818M-785.455 -74V-30.4M-785.455 -74H-741.818M-785.455 -30.4V13.2M-785.455 -30.4H-741.818M-785.455 13.2V56.8M-785.455 13.2H-741.818M-785.455 56.8V100.4M-785.455 56.8H-741.818M-785.455 100.4V144M-785.455 100.4H-741.818M-785.455 144V187.6M-785.455 144H-741.818M-785.455 187.6V231.2M-785.455 187.6H-741.818M-785.455 231.2V274.8M-785.455 231.2H-741.818M-785.455 274.8V318.4M-785.455 274.8H-741.818M-785.455 318.4V362M-785.455 318.4H-741.818M-785.455 362V405.6M-785.455 362H-741.818M-785.455 405.6V449.2M-785.455 405.6H-741.818M-785.455 449.2V492.8M-785.455 449.2H-741.818M-785.455 492.8V536.4M-785.455 492.8H-741.818M-785.455 536.4V580M-785.455 536.4H-741.818M-785.455 580H-741.818M-741.818 -292V-248.4M-741.818 -292H-698.182M-741.818 -248.4V-204.8M-741.818 -248.4H-698.182M-741.818 -204.8V-161.2M-741.818 -204.8H-698.182M-741.818 -161.2V-117.6M-741.818 -161.2H-698.182M-741.818 -117.6V-74M-741.818 -117.6H-698.182M-741.818 -74V-30.4M-741.818 -74H-698.182M-741.818 -30.4V13.2M-741.818 -30.4H-698.182M-741.818 13.2V56.8M-741.818 13.2H-698.182M-741.818 56.8V100.4M-741.818 56.8H-698.182M-741.818 100.4V144M-741.818 100.4H-698.182M-741.818 144V187.6M-741.818 144H-698.182M-741.818 187.6V231.2M-741.818 187.6H-698.182M-741.818 231.2V274.8M-741.818 231.2H-698.182M-741.818 274.8V318.4M-741.818 274.8H-698.182M-741.818 318.4V362M-741.818 318.4H-698.182M-741.818 362V405.6M-741.818 362H-698.182M-741.818 405.6V449.2M-741.818 405.6H-698.182M-741.818 449.2V492.8M-741.818 449.2H-698.182M-741.818 492.8V536.4M-741.818 492.8H-698.182M-741.818 536.4V580M-741.818 536.4H-698.182M-741.818 580H-698.182M-698.182 -292V-248.4M-698.182 -292H-654.545M-698.182 -248.4V-204.8M-698.182 -248.4H-654.545M-698.182 -204.8V-161.2M-698.182 -204.8H-654.545M-698.182 -161.2V-117.6M-698.182 -161.2H-654.545M-698.182 -117.6V-74M-698.182 -117.6H-654.545M-698.182 -74V-30.4M-698.182 -74H-654.545M-698.182 -30.4V13.2M-698.182 -30.4H-654.545M-698.182 13.2V56.8M-698.182 13.2H-654.545M-698.182 56.8V100.4M-698.182 56.8H-654.545M-698.182 100.4V144M-698.182 100.4H-654.545M-698.182 144V187.6M-698.182 144H-654.545M-698.182 187.6V231.2M-698.182 187.6H-654.545M-698.182 231.2V274.8M-698.182 231.2H-654.545M-698.182 274.8V318.4M-698.182 274.8H-654.545M-698.182 318.4V362M-698.182 318.4H-654.545M-698.182 362V405.6M-698.182 362H-654.545M-698.182 405.6V449.2M-698.182 405.6H-654.545M-698.182 449.2V492.8M-698.182 449.2H-654.545M-698.182 492.8V536.4M-698.182 492.8H-654.545M-698.182 536.4V580M-698.182 536.4H-654.545M-698.182 580H-654.545M-654.545 -292V-248.4M-654.545 -292H-610.909M-654.545 -248.4V-204.8M-654.545 -248.4H-610.909M-654.545 -204.8V-161.2M-654.545 -204.8H-610.909M-654.545 -161.2V-117.6M-654.545 -161.2H-610.909M-654.545 -117.6V-74M-654.545 -117.6H-610.909M-654.545 -74V-30.4M-654.545 -74H-610.909M-654.545 -30.4V13.2M-654.545 -30.4H-610.909M-654.545 13.2V56.8M-654.545 13.2H-610.909M-654.545 56.8V100.4M-654.545 56.8H-610.909M-654.545 100.4V144M-654.545 100.4H-610.909M-654.545 144V187.6M-654.545 144H-610.909M-654.545 187.6V231.2M-654.545 187.6H-610.909M-654.545 231.2V274.8M-654.545 231.2H-610.909M-654.545 274.8V318.4M-654.545 274.8H-610.909M-654.545 318.4V362M-654.545 318.4H-610.909M-654.545 362V405.6M-654.545 362H-610.909M-654.545 405.6V449.2M-654.545 405.6H-610.909M-654.545 449.2V492.8M-654.545 449.2H-610.909M-654.545 492.8V536.4M-654.545 492.8H-610.909M-654.545 536.4V580M-654.545 536.4H-610.909M-654.545 580H-610.909M-610.909 -292V-248.4M-610.909 -292H-567.273M-610.909 -248.4V-204.8M-610.909 -248.4H-567.273M-610.909 -204.8V-161.2M-610.909 -204.8H-567.273M-610.909 -161.2V-117.6M-610.909 -161.2H-567.273M-610.909 -117.6V-74M-610.909 -117.6H-567.273M-610.909 -74V-30.4M-610.909 -74H-567.273M-610.909 -30.4V13.2M-610.909 -30.4H-567.273M-610.909 13.2V56.8M-610.909 13.2H-567.273M-610.909 56.8V100.4M-610.909 56.8H-567.273M-610.909 100.4V144M-610.909 100.4H-567.273M-610.909 144V187.6M-610.909 144H-567.273M-610.909 187.6V231.2M-610.909 187.6H-567.273M-610.909 231.2V274.8M-610.909 231.2H-567.273M-610.909 274.8V318.4M-610.909 274.8H-567.273M-610.909 318.4V362M-610.909 318.4H-567.273M-610.909 362V405.6M-610.909 362H-567.273M-610.909 405.6V449.2M-610.909 405.6H-567.273M-610.909 449.2V492.8M-610.909 449.2H-567.273M-610.909 492.8V536.4M-610.909 492.8H-567.273M-610.909 536.4V580M-610.909 536.4H-567.273M-610.909 580H-567.273M-567.273 -292V-248.4M-567.273 -292H-523.636M-567.273 -248.4V-204.8M-567.273 -248.4H-523.636M-567.273 -204.8V-161.2M-567.273 -204.8H-523.636M-567.273 -161.2V-117.6M-567.273 -161.2H-523.636M-567.273 -117.6V-74M-567.273 -117.6H-523.636M-567.273 -74V-30.4M-567.273 -74H-523.636M-567.273 -30.4V13.2M-567.273 -30.4H-523.636M-567.273 13.2V56.8M-567.273 13.2H-523.636M-567.273 56.8V100.4M-567.273 56.8H-523.636M-567.273 100.4V144M-567.273 100.4H-523.636M-567.273 144V187.6M-567.273 144H-523.636M-567.273 187.6V231.2M-567.273 187.6H-523.636M-567.273 231.2V274.8M-567.273 231.2H-523.636M-567.273 274.8V318.4M-567.273 274.8H-523.636M-567.273 318.4V362M-567.273 318.4H-523.636M-567.273 362V405.6M-567.273 362H-523.636M-567.273 405.6V449.2M-567.273 405.6H-523.636M-567.273 449.2V492.8M-567.273 449.2H-523.636M-567.273 492.8V536.4M-567.273 492.8H-523.636M-567.273 536.4V580M-567.273 536.4H-523.636M-567.273 580H-523.636M-523.636 -292V-248.4M-523.636 -292H-480M-523.636 -248.4V-204.8M-523.636 -248.4H-480M-523.636 -204.8V-161.2M-523.636 -204.8H-480M-523.636 -161.2V-117.6M-523.636 -161.2H-480M-523.636 -117.6V-74M-523.636 -117.6H-480M-523.636 -74V-30.4M-523.636 -74H-480M-523.636 -30.4V13.2M-523.636 -30.4H-480M-523.636 13.2V56.8M-523.636 13.2H-480M-523.636 56.8V100.4M-523.636 56.8H-480M-523.636 100.4V144M-523.636 100.4H-480M-523.636 144V187.6M-523.636 144H-480M-523.636 187.6V231.2M-523.636 187.6H-480M-523.636 231.2V274.8M-523.636 231.2H-480M-523.636 274.8V318.4M-523.636 274.8H-480M-523.636 318.4V362M-523.636 318.4H-480M-523.636 362V405.6M-523.636 362H-480M-523.636 405.6V449.2M-523.636 405.6H-480M-523.636 449.2V492.8M-523.636 449.2H-480M-523.636 492.8V536.4M-523.636 492.8H-480M-523.636 536.4V580M-523.636 536.4H-480M-523.636 580H-480M-480 -292V-248.4M-480 -292H-436.364M-480 -248.4V-204.8M-480 -248.4H-436.364M-480 -204.8V-161.2M-480 -204.8H-436.364M-480 -161.2V-117.6M-480 -161.2H-436.364M-480 -117.6V-74M-480 -117.6H-436.364M-480 -74V-30.4M-480 -74H-436.364M-480 -30.4V13.2M-480 -30.4H-436.364M-480 13.2V56.8M-480 13.2H-436.364M-480 56.8V100.4M-480 56.8H-436.364M-480 100.4V144M-480 100.4H-436.364M-480 144V187.6M-480 144H-436.364M-480 187.6V231.2M-480 187.6H-436.364M-480 231.2V274.8M-480 231.2H-436.364M-480 274.8V318.4M-480 274.8H-436.364M-480 318.4V362M-480 318.4H-436.364M-480 362V405.6M-480 362H-436.364M-480 405.6V449.2M-480 405.6H-436.364M-480 449.2V492.8M-480 449.2H-436.364M-480 492.8V536.4M-480 492.8H-436.364M-480 536.4V580M-480 536.4H-436.364M-480 580H-436.364M-436.364 -292V-248.4M-436.364 -292H-392.727M-436.364 -248.4V-204.8M-436.364 -248.4H-392.727M-436.364 -204.8V-161.2M-436.364 -204.8H-392.727M-436.364 -161.2V-117.6M-436.364 -161.2H-392.727M-436.364 -117.6V-74M-436.364 -117.6H-392.727M-436.364 -74V-30.4M-436.364 -74H-392.727M-436.364 -30.4V13.2M-436.364 -30.4H-392.727M-436.364 13.2V56.8M-436.364 13.2H-392.727M-436.364 56.8V100.4M-436.364 56.8H-392.727M-436.364 100.4V144M-436.364 100.4H-392.727M-436.364 144V187.6M-436.364 144H-392.727M-436.364 187.6V231.2M-436.364 187.6H-392.727M-436.364 231.2V274.8M-436.364 231.2H-392.727M-436.364 274.8V318.4M-436.364 274.8H-392.727M-436.364 318.4V362M-436.364 318.4H-392.727M-436.364 362V405.6M-436.364 362H-392.727M-436.364 405.6V449.2M-436.364 405.6H-392.727M-436.364 449.2V492.8M-436.364 449.2H-392.727M-436.364 492.8V536.4M-436.364 492.8H-392.727M-436.364 536.4V580M-436.364 536.4H-392.727M-436.364 580H-392.727M-392.727 -292V-248.4M-392.727 -292H-349.091M-392.727 -248.4V-204.8M-392.727 -248.4H-349.091M-392.727 -204.8V-161.2M-392.727 -204.8H-349.091M-392.727 -161.2V-117.6M-392.727 -161.2H-349.091M-392.727 -117.6V-74M-392.727 -117.6H-349.091M-392.727 -74V-30.4M-392.727 -74H-349.091M-392.727 -30.4V13.2M-392.727 -30.4H-349.091M-392.727 13.2V56.8M-392.727 13.2H-349.091M-392.727 56.8V100.4M-392.727 56.8H-349.091M-392.727 100.4V144M-392.727 100.4H-349.091M-392.727 144V187.6M-392.727 144H-349.091M-392.727 187.6V231.2M-392.727 187.6H-349.091M-392.727 231.2V274.8M-392.727 231.2H-349.091M-392.727 274.8V318.4M-392.727 274.8H-349.091M-392.727 318.4V362M-392.727 318.4H-349.091M-392.727 362V405.6M-392.727 362H-349.091M-392.727 405.6V449.2M-392.727 405.6H-349.091M-392.727 449.2V492.8M-392.727 449.2H-349.091M-392.727 492.8V536.4M-392.727 492.8H-349.091M-392.727 536.4V580M-392.727 536.4H-349.091M-392.727 580H-349.091M-349.091 -292V-248.4M-349.091 -292H-305.455M-349.091 -248.4V-204.8M-349.091 -248.4H-305.455M-349.091 -204.8V-161.2M-349.091 -204.8H-305.455M-349.091 -161.2V-117.6M-349.091 -161.2H-305.455M-349.091 -117.6V-74M-349.091 -117.6H-305.455M-349.091 -74V-30.4M-349.091 -74H-305.455M-349.091 -30.4V13.2M-349.091 -30.4H-305.455M-349.091 13.2V56.8M-349.091 13.2H-305.455M-349.091 56.8V100.4M-349.091 56.8H-305.455M-349.091 100.4V144M-349.091 100.4H-305.455M-349.091 144V187.6M-349.091 144H-305.455M-349.091 187.6V231.2M-349.091 187.6H-305.455M-349.091 231.2V274.8M-349.091 231.2H-305.455M-349.091 274.8V318.4M-349.091 274.8H-305.455M-349.091 318.4V362M-349.091 318.4H-305.455M-349.091 362V405.6M-349.091 362H-305.455M-349.091 405.6V449.2M-349.091 405.6H-305.455M-349.091 449.2V492.8M-349.091 449.2H-305.455M-349.091 492.8V536.4M-349.091 492.8H-305.455M-349.091 536.4V580M-349.091 536.4H-305.455M-349.091 580H-305.455M-305.455 -292V-248.4M-305.455 -292H-261.818M-305.455 -248.4V-204.8M-305.455 -248.4H-261.818M-305.455 -204.8V-161.2M-305.455 -204.8H-261.818M-305.455 -161.2V-117.6M-305.455 -161.2H-261.818M-305.455 -117.6V-74M-305.455 -117.6H-261.818M-305.455 -74V-30.4M-305.455 -74H-261.818M-305.455 -30.4V13.2M-305.455 -30.4H-261.818M-305.455 13.2V56.8M-305.455 13.2H-261.818M-305.455 56.8V100.4M-305.455 56.8H-261.818M-305.455 100.4V144M-305.455 100.4H-261.818M-305.455 144V187.6M-305.455 144H-261.818M-305.455 187.6V231.2M-305.455 187.6H-261.818M-305.455 231.2V274.8M-305.455 231.2H-261.818M-305.455 274.8V318.4M-305.455 274.8H-261.818M-305.455 318.4V362M-305.455 318.4H-261.818M-305.455 362V405.6M-305.455 362H-261.818M-305.455 405.6V449.2M-305.455 405.6H-261.818M-305.455 449.2V492.8M-305.455 449.2H-261.818M-305.455 492.8V536.4M-305.455 492.8H-261.818M-305.455 536.4V580M-305.455 536.4H-261.818M-305.455 580H-261.818M-261.818 -292V-248.4M-261.818 -292H-218.182M-261.818 -248.4V-204.8M-261.818 -248.4H-218.182M-261.818 -204.8V-161.2M-261.818 -204.8H-218.182M-261.818 -161.2V-117.6M-261.818 -161.2H-218.182M-261.818 -117.6V-74M-261.818 -117.6H-218.182M-261.818 -74V-30.4M-261.818 -74H-218.182M-261.818 -30.4V13.2M-261.818 -30.4H-218.182M-261.818 13.2V56.8M-261.818 13.2H-218.182M-261.818 56.8V100.4M-261.818 56.8H-218.182M-261.818 100.4V144M-261.818 100.4H-218.182M-261.818 144V187.6M-261.818 144H-218.182M-261.818 187.6V231.2M-261.818 187.6H-218.182M-261.818 231.2V274.8M-261.818 231.2H-218.182M-261.818 274.8V318.4M-261.818 274.8H-218.182M-261.818 318.4V362M-261.818 318.4H-218.182M-261.818 362V405.6M-261.818 362H-218.182M-261.818 405.6V449.2M-261.818 405.6H-218.182M-261.818 449.2V492.8M-261.818 449.2H-218.182M-261.818 492.8V536.4M-261.818 492.8H-218.182M-261.818 536.4V580M-261.818 536.4H-218.182M-261.818 580H-218.182M-218.182 -292V-248.4M-218.182 -292H-174.545M-218.182 -248.4V-204.8M-218.182 -248.4H-174.545M-218.182 -204.8V-161.2M-218.182 -204.8H-174.545M-218.182 -161.2V-117.6M-218.182 -161.2H-174.545M-218.182 -117.6V-74M-218.182 -117.6H-174.545M-218.182 -74V-30.4M-218.182 -74H-174.545M-218.182 -30.4V13.2M-218.182 -30.4H-174.545M-218.182 13.2V56.8M-218.182 13.2H-174.545M-218.182 56.8V100.4M-218.182 56.8H-174.545M-218.182 100.4V144M-218.182 100.4H-174.545M-218.182 144V187.6M-218.182 144H-174.545M-218.182 187.6V231.2M-218.182 187.6H-174.545M-218.182 231.2V274.8M-218.182 231.2H-174.545M-218.182 274.8V318.4M-218.182 274.8H-174.545M-218.182 318.4V362M-218.182 318.4H-174.545M-218.182 362V405.6M-218.182 362H-174.545M-218.182 405.6V449.2M-218.182 405.6H-174.545M-218.182 449.2V492.8M-218.182 449.2H-174.545M-218.182 492.8V536.4M-218.182 492.8H-174.545M-218.182 536.4V580M-218.182 536.4H-174.545M-218.182 580H-174.545M-174.545 -292V-248.4M-174.545 -292H-130.909M-174.545 -248.4V-204.8M-174.545 -248.4H-130.909M-174.545 -204.8V-161.2M-174.545 -204.8H-130.909M-174.545 -161.2V-117.6M-174.545 -161.2H-130.909M-174.545 -117.6V-74M-174.545 -117.6H-130.909M-174.545 -74V-30.4M-174.545 -74H-130.909M-174.545 -30.4V13.2M-174.545 -30.4H-130.909M-174.545 13.2V56.8M-174.545 13.2H-130.909M-174.545 56.8V100.4M-174.545 56.8H-130.909M-174.545 100.4V144M-174.545 100.4H-130.909M-174.545 144V187.6M-174.545 144H-130.909M-174.545 187.6V231.2M-174.545 187.6H-130.909M-174.545 231.2V274.8M-174.545 231.2H-130.909M-174.545 274.8V318.4M-174.545 274.8H-130.909M-174.545 318.4V362M-174.545 318.4H-130.909M-174.545 362V405.6M-174.545 362H-130.909M-174.545 405.6V449.2M-174.545 405.6H-130.909M-174.545 449.2V492.8M-174.545 449.2H-130.909M-174.545 492.8V536.4M-174.545 492.8H-130.909M-174.545 536.4V580M-174.545 536.4H-130.909M-174.545 580H-130.909M-130.909 -292V-248.4M-130.909 -292H-87.2727M-130.909 -248.4V-204.8M-130.909 -248.4H-87.2727M-130.909 -204.8V-161.2M-130.909 -204.8H-87.2727M-130.909 -161.2V-117.6M-130.909 -161.2H-87.2727M-130.909 -117.6V-74M-130.909 -117.6H-87.2727M-130.909 -74V-30.4M-130.909 -74H-87.2727M-130.909 -30.4V13.2M-130.909 -30.4H-87.2727M-130.909 13.2V56.8M-130.909 13.2H-87.2727M-130.909 56.8V100.4M-130.909 56.8H-87.2727M-130.909 100.4V144M-130.909 100.4H-87.2727M-130.909 144V187.6M-130.909 144H-87.2727M-130.909 187.6V231.2M-130.909 187.6H-87.2727M-130.909 231.2V274.8M-130.909 231.2H-87.2727M-130.909 274.8V318.4M-130.909 274.8H-87.2727M-130.909 318.4V362M-130.909 318.4H-87.2727M-130.909 362V405.6M-130.909 362H-87.2727M-130.909 405.6V449.2M-130.909 405.6H-87.2727M-130.909 449.2V492.8M-130.909 449.2H-87.2727M-130.909 492.8V536.4M-130.909 492.8H-87.2727M-130.909 536.4V580M-130.909 536.4H-87.2727M-130.909 580H-87.2727M-87.2727 -292V-248.4M-87.2727 -292H-43.6363M-87.2727 -248.4V-204.8M-87.2727 -248.4H-43.6363M-87.2727 -204.8V-161.2M-87.2727 -204.8H-43.6363M-87.2727 -161.2V-117.6M-87.2727 -161.2H-43.6363M-87.2727 -117.6V-74M-87.2727 -117.6H-43.6363M-87.2727 -74V-30.4M-87.2727 -74H-43.6363M-87.2727 -30.4V13.2M-87.2727 -30.4H-43.6363M-87.2727 13.2V56.8M-87.2727 13.2H-43.6363M-87.2727 56.8V100.4M-87.2727 56.8H-43.6363M-87.2727 100.4V144M-87.2727 100.4H-43.6363M-87.2727 144V187.6M-87.2727 144H-43.6363M-87.2727 187.6V231.2M-87.2727 187.6H-43.6363M-87.2727 231.2V274.8M-87.2727 231.2H-43.6363M-87.2727 274.8V318.4M-87.2727 274.8H-43.6363M-87.2727 318.4V362M-87.2727 318.4H-43.6363M-87.2727 362V405.6M-87.2727 362H-43.6363M-87.2727 405.6V449.2M-87.2727 405.6H-43.6363M-87.2727 449.2V492.8M-87.2727 449.2H-43.6363M-87.2727 492.8V536.4M-87.2727 492.8H-43.6363M-87.2727 536.4V580M-87.2727 536.4H-43.6363M-87.2727 580H-43.6363M-43.6363 -292V-248.4M-43.6363 -292H2.86102e-05M-43.6363 -248.4V-204.8M-43.6363 -248.4H2.86102e-05M-43.6363 -204.8V-161.2M-43.6363 -204.8H2.86102e-05M-43.6363 -161.2V-117.6M-43.6363 -161.2H2.86102e-05M-43.6363 -117.6V-74M-43.6363 -117.6H2.86102e-05M-43.6363 -74V-30.4M-43.6363 -74H2.86102e-05M-43.6363 -30.4V13.2M-43.6363 -30.4H2.86102e-05M-43.6363 13.2V56.8M-43.6363 13.2H2.86102e-05M-43.6363 56.8V100.4M-43.6363 56.8H2.86102e-05M-43.6363 100.4V144M-43.6363 100.4H2.86102e-05M-43.6363 144V187.6M-43.6363 144H2.86102e-05M-43.6363 187.6V231.2M-43.6363 187.6H2.86102e-05M-43.6363 231.2V274.8M-43.6363 231.2H2.86102e-05M-43.6363 274.8V318.4M-43.6363 274.8H2.86102e-05M-43.6363 318.4V362M-43.6363 318.4H2.86102e-05M-43.6363 362V405.6M-43.6363 362H2.86102e-05M-43.6363 405.6V449.2M-43.6363 405.6H2.86102e-05M-43.6363 449.2V492.8M-43.6363 449.2H2.86102e-05M-43.6363 492.8V536.4M-43.6363 492.8H2.86102e-05M-43.6363 536.4V580M-43.6363 536.4H2.86102e-05M-43.6363 580H2.86102e-05M2.86102e-05 -292V-248.4M2.86102e-05 -292H43.6364M2.86102e-05 -248.4V-204.8M2.86102e-05 -248.4H43.6364M2.86102e-05 -204.8V-161.2M2.86102e-05 -204.8H43.6364M2.86102e-05 -161.2V-117.6M2.86102e-05 -161.2H43.6364M2.86102e-05 -117.6V-74M2.86102e-05 -117.6H43.6364M2.86102e-05 -74V-30.4M2.86102e-05 -74H43.6364M2.86102e-05 -30.4V13.2M2.86102e-05 -30.4H43.6364M2.86102e-05 13.2V56.8M2.86102e-05 13.2H43.6364M2.86102e-05 56.8V100.4M2.86102e-05 56.8H43.6364M2.86102e-05 100.4V144M2.86102e-05 100.4H43.6364M2.86102e-05 144V187.6M2.86102e-05 144H43.6364M2.86102e-05 187.6V231.2M2.86102e-05 187.6H43.6364M2.86102e-05 231.2V274.8M2.86102e-05 231.2H43.6364M2.86102e-05 274.8V318.4M2.86102e-05 274.8H43.6364M2.86102e-05 318.4V362M2.86102e-05 318.4H43.6364M2.86102e-05 362V405.6M2.86102e-05 362H43.6364M2.86102e-05 405.6V449.2M2.86102e-05 405.6H43.6364M2.86102e-05 449.2V492.8M2.86102e-05 449.2H43.6364M2.86102e-05 492.8V536.4M2.86102e-05 492.8H43.6364M2.86102e-05 536.4V580M2.86102e-05 536.4H43.6364M2.86102e-05 580H43.6364M43.6364 -292V-248.4M43.6364 -292H87.2728M43.6364 -248.4V-204.8M43.6364 -248.4H87.2728M43.6364 -204.8V-161.2M43.6364 -204.8H87.2728M43.6364 -161.2V-117.6M43.6364 -161.2H87.2728M43.6364 -117.6V-74M43.6364 -117.6H87.2728M43.6364 -74V-30.4M43.6364 -74H87.2728M43.6364 -30.4V13.2M43.6364 -30.4H87.2728M43.6364 13.2V56.8M43.6364 13.2H87.2728M43.6364 56.8V100.4M43.6364 56.8H87.2728M43.6364 100.4V144M43.6364 100.4H87.2728M43.6364 144V187.6M43.6364 144H87.2728M43.6364 187.6V231.2M43.6364 187.6H87.2728M43.6364 231.2V274.8M43.6364 231.2H87.2728M43.6364 274.8V318.4M43.6364 274.8H87.2728M43.6364 318.4V362M43.6364 318.4H87.2728M43.6364 362V405.6M43.6364 362H87.2728M43.6364 405.6V449.2M43.6364 405.6H87.2728M43.6364 449.2V492.8M43.6364 449.2H87.2728M43.6364 492.8V536.4M43.6364 492.8H87.2728M43.6364 536.4V580M43.6364 536.4H87.2728M43.6364 580H87.2728M87.2728 -292V-248.4M87.2728 -292H130.909M87.2728 -248.4V-204.8M87.2728 -248.4H130.909M87.2728 -204.8V-161.2M87.2728 -204.8H130.909M87.2728 -161.2V-117.6M87.2728 -161.2H130.909M87.2728 -117.6V-74M87.2728 -117.6H130.909M87.2728 -74V-30.4M87.2728 -74H130.909M87.2728 -30.4V13.2M87.2728 -30.4H130.909M87.2728 13.2V56.8M87.2728 13.2H130.909M87.2728 56.8V100.4M87.2728 56.8H130.909M87.2728 100.4V144M87.2728 100.4H130.909M87.2728 144V187.6M87.2728 144H130.909M87.2728 187.6V231.2M87.2728 187.6H130.909M87.2728 231.2V274.8M87.2728 231.2H130.909M87.2728 274.8V318.4M87.2728 274.8H130.909M87.2728 318.4V362M87.2728 318.4H130.909M87.2728 362V405.6M87.2728 362H130.909M87.2728 405.6V449.2M87.2728 405.6H130.909M87.2728 449.2V492.8M87.2728 449.2H130.909M87.2728 492.8V536.4M87.2728 492.8H130.909M87.2728 536.4V580M87.2728 536.4H130.909M87.2728 580H130.909M130.909 -292V-248.4M130.909 -292H174.545M130.909 -248.4V-204.8M130.909 -248.4H174.545M130.909 -204.8V-161.2M130.909 -204.8H174.545M130.909 -161.2V-117.6M130.909 -161.2H174.545M130.909 -117.6V-74M130.909 -117.6H174.545M130.909 -74V-30.4M130.909 -74H174.545M130.909 -30.4V13.2M130.909 -30.4H174.545M130.909 13.2V56.8M130.909 13.2H174.545M130.909 56.8V100.4M130.909 56.8H174.545M130.909 100.4V144M130.909 100.4H174.545M130.909 144V187.6M130.909 144H174.545M130.909 187.6V231.2M130.909 187.6H174.545M130.909 231.2V274.8M130.909 231.2H174.545M130.909 274.8V318.4M130.909 274.8H174.545M130.909 318.4V362M130.909 318.4H174.545M130.909 362V405.6M130.909 362H174.545M130.909 405.6V449.2M130.909 405.6H174.545M130.909 449.2V492.8M130.909 449.2H174.545M130.909 492.8V536.4M130.909 492.8H174.545M130.909 536.4V580M130.909 536.4H174.545M130.909 580H174.545M174.545 -292V-248.4M174.545 -292H218.182M174.545 -248.4V-204.8M174.545 -248.4H218.182M174.545 -204.8V-161.2M174.545 -204.8H218.182M174.545 -161.2V-117.6M174.545 -161.2H218.182M174.545 -117.6V-74M174.545 -117.6H218.182M174.545 -74V-30.4M174.545 -74H218.182M174.545 -30.4V13.2M174.545 -30.4H218.182M174.545 13.2V56.8M174.545 13.2H218.182M174.545 56.8V100.4M174.545 56.8H218.182M174.545 100.4V144M174.545 100.4H218.182M174.545 144V187.6M174.545 144H218.182M174.545 187.6V231.2M174.545 187.6H218.182M174.545 231.2V274.8M174.545 231.2H218.182M174.545 274.8V318.4M174.545 274.8H218.182M174.545 318.4V362M174.545 318.4H218.182M174.545 362V405.6M174.545 362H218.182M174.545 405.6V449.2M174.545 405.6H218.182M174.545 449.2V492.8M174.545 449.2H218.182M174.545 492.8V536.4M174.545 492.8H218.182M174.545 536.4V580M174.545 536.4H218.182M174.545 580H218.182M218.182 -292V-248.4M218.182 -292H261.818M218.182 -248.4V-204.8M218.182 -248.4H261.818M218.182 -204.8V-161.2M218.182 -204.8H261.818M218.182 -161.2V-117.6M218.182 -161.2H261.818M218.182 -117.6V-74M218.182 -117.6H261.818M218.182 -74V-30.4M218.182 -74H261.818M218.182 -30.4V13.2M218.182 -30.4H261.818M218.182 13.2V56.8M218.182 13.2H261.818M218.182 56.8V100.4M218.182 56.8H261.818M218.182 100.4V144M218.182 100.4H261.818M218.182 144V187.6M218.182 144H261.818M218.182 187.6V231.2M218.182 187.6H261.818M218.182 231.2V274.8M218.182 231.2H261.818M218.182 274.8V318.4M218.182 274.8H261.818M218.182 318.4V362M218.182 318.4H261.818M218.182 362V405.6M218.182 362H261.818M218.182 405.6V449.2M218.182 405.6H261.818M218.182 449.2V492.8M218.182 449.2H261.818M218.182 492.8V536.4M218.182 492.8H261.818M218.182 536.4V580M218.182 536.4H261.818M218.182 580H261.818M261.818 -292V-248.4M261.818 -292H305.455M261.818 -248.4V-204.8M261.818 -248.4H305.455M261.818 -204.8V-161.2M261.818 -204.8H305.455M261.818 -161.2V-117.6M261.818 -161.2H305.455M261.818 -117.6V-74M261.818 -117.6H305.455M261.818 -74V-30.4M261.818 -74H305.455M261.818 -30.4V13.2M261.818 -30.4H305.455M261.818 13.2V56.8M261.818 13.2H305.455M261.818 56.8V100.4M261.818 56.8H305.455M261.818 100.4V144M261.818 100.4H305.455M261.818 144V187.6M261.818 144H305.455M261.818 187.6V231.2M261.818 187.6H305.455M261.818 231.2V274.8M261.818 231.2H305.455M261.818 274.8V318.4M261.818 274.8H305.455M261.818 318.4V362M261.818 318.4H305.455M261.818 362V405.6M261.818 362H305.455M261.818 405.6V449.2M261.818 405.6H305.455M261.818 449.2V492.8M261.818 449.2H305.455M261.818 492.8V536.4M261.818 492.8H305.455M261.818 536.4V580M261.818 536.4H305.455M261.818 580H305.455M305.455 -292V-248.4M305.455 -292H349.091M305.455 -248.4V-204.8M305.455 -248.4H349.091M305.455 -204.8V-161.2M305.455 -204.8H349.091M305.455 -161.2V-117.6M305.455 -161.2H349.091M305.455 -117.6V-74M305.455 -117.6H349.091M305.455 -74V-30.4M305.455 -74H349.091M305.455 -30.4V13.2M305.455 -30.4H349.091M305.455 13.2V56.8M305.455 13.2H349.091M305.455 56.8V100.4M305.455 56.8H349.091M305.455 100.4V144M305.455 100.4H349.091M305.455 144V187.6M305.455 144H349.091M305.455 187.6V231.2M305.455 187.6H349.091M305.455 231.2V274.8M305.455 231.2H349.091M305.455 274.8V318.4M305.455 274.8H349.091M305.455 318.4V362M305.455 318.4H349.091M305.455 362V405.6M305.455 362H349.091M305.455 405.6V449.2M305.455 405.6H349.091M305.455 449.2V492.8M305.455 449.2H349.091M305.455 492.8V536.4M305.455 492.8H349.091M305.455 536.4V580M305.455 536.4H349.091M305.455 580H349.091M349.091 -292V-248.4M349.091 -292H392.727M349.091 -248.4V-204.8M349.091 -248.4H392.727M349.091 -204.8V-161.2M349.091 -204.8H392.727M349.091 -161.2V-117.6M349.091 -161.2H392.727M349.091 -117.6V-74M349.091 -117.6H392.727M349.091 -74V-30.4M349.091 -74H392.727M349.091 -30.4V13.2M349.091 -30.4H392.727M349.091 13.2V56.8M349.091 13.2H392.727M349.091 56.8V100.4M349.091 56.8H392.727M349.091 100.4V144M349.091 100.4H392.727M349.091 144V187.6M349.091 144H392.727M349.091 187.6V231.2M349.091 187.6H392.727M349.091 231.2V274.8M349.091 231.2H392.727M349.091 274.8V318.4M349.091 274.8H392.727M349.091 318.4V362M349.091 318.4H392.727M349.091 362V405.6M349.091 362H392.727M349.091 405.6V449.2M349.091 405.6H392.727M349.091 449.2V492.8M349.091 449.2H392.727M349.091 492.8V536.4M349.091 492.8H392.727M349.091 536.4V580M349.091 536.4H392.727M349.091 580H392.727M392.727 -292V-248.4M392.727 -292H436.364M392.727 -248.4V-204.8M392.727 -248.4H436.364M392.727 -204.8V-161.2M392.727 -204.8H436.364M392.727 -161.2V-117.6M392.727 -161.2H436.364M392.727 -117.6V-74M392.727 -117.6H436.364M392.727 -74V-30.4M392.727 -74H436.364M392.727 -30.4V13.2M392.727 -30.4H436.364M392.727 13.2V56.8M392.727 13.2H436.364M392.727 56.8V100.4M392.727 56.8H436.364M392.727 100.4V144M392.727 100.4H436.364M392.727 144V187.6M392.727 144H436.364M392.727 187.6V231.2M392.727 187.6H436.364M392.727 231.2V274.8M392.727 231.2H436.364M392.727 274.8V318.4M392.727 274.8H436.364M392.727 318.4V362M392.727 318.4H436.364M392.727 362V405.6M392.727 362H436.364M392.727 405.6V449.2M392.727 405.6H436.364M392.727 449.2V492.8M392.727 449.2H436.364M392.727 492.8V536.4M392.727 492.8H436.364M392.727 536.4V580M392.727 536.4H436.364M392.727 580H436.364M436.364 -292V-248.4M436.364 -292H480M436.364 -248.4V-204.8M436.364 -248.4H480M436.364 -204.8V-161.2M436.364 -204.8H480M436.364 -161.2V-117.6M436.364 -161.2H480M436.364 -117.6V-74M436.364 -117.6H480M436.364 -74V-30.4M436.364 -74H480M436.364 -30.4V13.2M436.364 -30.4H480M436.364 13.2V56.8M436.364 13.2H480M436.364 56.8V100.4M436.364 56.8H480M436.364 100.4V144M436.364 100.4H480M436.364 144V187.6M436.364 144H480M436.364 187.6V231.2M436.364 187.6H480M436.364 231.2V274.8M436.364 231.2H480M436.364 274.8V318.4M436.364 274.8H480M436.364 318.4V362M436.364 318.4H480M436.364 362V405.6M436.364 362H480M436.364 405.6V449.2M436.364 405.6H480M436.364 449.2V492.8M436.364 449.2H480M436.364 492.8V536.4M436.364 492.8H480M436.364 536.4V580M436.364 536.4H480M436.364 580H480M480 -292V-248.4M480 -292H523.636M480 -248.4V-204.8M480 -248.4H523.636M480 -204.8V-161.2M480 -204.8H523.636M480 -161.2V-117.6M480 -161.2H523.636M480 -117.6V-74M480 -117.6H523.636M480 -74V-30.4M480 -74H523.636M480 -30.4V13.2M480 -30.4H523.636M480 13.2V56.8M480 13.2H523.636M480 56.8V100.4M480 56.8H523.636M480 100.4V144M480 100.4H523.636M480 144V187.6M480 144H523.636M480 187.6V231.2M480 187.6H523.636M480 231.2V274.8M480 231.2H523.636M480 274.8V318.4M480 274.8H523.636M480 318.4V362M480 318.4H523.636M480 362V405.6M480 362H523.636M480 405.6V449.2M480 405.6H523.636M480 449.2V492.8M480 449.2H523.636M480 492.8V536.4M480 492.8H523.636M480 536.4V580M480 536.4H523.636M480 580H523.636M523.636 -292V-248.4M523.636 -292H567.273M523.636 -248.4V-204.8M523.636 -248.4H567.273M523.636 -204.8V-161.2M523.636 -204.8H567.273M523.636 -161.2V-117.6M523.636 -161.2H567.273M523.636 -117.6V-74M523.636 -117.6H567.273M523.636 -74V-30.4M523.636 -74H567.273M523.636 -30.4V13.2M523.636 -30.4H567.273M523.636 13.2V56.8M523.636 13.2H567.273M523.636 56.8V100.4M523.636 56.8H567.273M523.636 100.4V144M523.636 100.4H567.273M523.636 144V187.6M523.636 144H567.273M523.636 187.6V231.2M523.636 187.6H567.273M523.636 231.2V274.8M523.636 231.2H567.273M523.636 274.8V318.4M523.636 274.8H567.273M523.636 318.4V362M523.636 318.4H567.273M523.636 362V405.6M523.636 362H567.273M523.636 405.6V449.2M523.636 405.6H567.273M523.636 449.2V492.8M523.636 449.2H567.273M523.636 492.8V536.4M523.636 492.8H567.273M523.636 536.4V580M523.636 536.4H567.273M523.636 580H567.273M567.273 -292V-248.4M567.273 -292H610.909M567.273 -248.4V-204.8M567.273 -248.4H610.909M567.273 -204.8V-161.2M567.273 -204.8H610.909M567.273 -161.2V-117.6M567.273 -161.2H610.909M567.273 -117.6V-74M567.273 -117.6H610.909M567.273 -74V-30.4M567.273 -74H610.909M567.273 -30.4V13.2M567.273 -30.4H610.909M567.273 13.2V56.8M567.273 13.2H610.909M567.273 56.8V100.4M567.273 56.8H610.909M567.273 100.4V144M567.273 100.4H610.909M567.273 144V187.6M567.273 144H610.909M567.273 187.6V231.2M567.273 187.6H610.909M567.273 231.2V274.8M567.273 231.2H610.909M567.273 274.8V318.4M567.273 274.8H610.909M567.273 318.4V362M567.273 318.4H610.909M567.273 362V405.6M567.273 362H610.909M567.273 405.6V449.2M567.273 405.6H610.909M567.273 449.2V492.8M567.273 449.2H610.909M567.273 492.8V536.4M567.273 492.8H610.909M567.273 536.4V580M567.273 536.4H610.909M567.273 580H610.909M610.909 -292V-248.4M610.909 -292H654.546M610.909 -248.4V-204.8M610.909 -248.4H654.546M610.909 -204.8V-161.2M610.909 -204.8H654.546M610.909 -161.2V-117.6M610.909 -161.2H654.546M610.909 -117.6V-74M610.909 -117.6H654.546M610.909 -74V-30.4M610.909 -74H654.546M610.909 -30.4V13.2M610.909 -30.4H654.546M610.909 13.2V56.8M610.909 13.2H654.546M610.909 56.8V100.4M610.909 56.8H654.546M610.909 100.4V144M610.909 100.4H654.546M610.909 144V187.6M610.909 144H654.546M610.909 187.6V231.2M610.909 187.6H654.546M610.909 231.2V274.8M610.909 231.2H654.546M610.909 274.8V318.4M610.909 274.8H654.546M610.909 318.4V362M610.909 318.4H654.546M610.909 362V405.6M610.909 362H654.546M610.909 405.6V449.2M610.909 405.6H654.546M610.909 449.2V492.8M610.909 449.2H654.546M610.909 492.8V536.4M610.909 492.8H654.546M610.909 536.4V580M610.909 536.4H654.546M610.909 580H654.546M654.546 -292V-248.4M654.546 -292H698.182M654.546 -248.4V-204.8M654.546 -248.4H698.182M654.546 -204.8V-161.2M654.546 -204.8H698.182M654.546 -161.2V-117.6M654.546 -161.2H698.182M654.546 -117.6V-74M654.546 -117.6H698.182M654.546 -74V-30.4M654.546 -74H698.182M654.546 -30.4V13.2M654.546 -30.4H698.182M654.546 13.2V56.8M654.546 13.2H698.182M654.546 56.8V100.4M654.546 56.8H698.182M654.546 100.4V144M654.546 100.4H698.182M654.546 144V187.6M654.546 144H698.182M654.546 187.6V231.2M654.546 187.6H698.182M654.546 231.2V274.8M654.546 231.2H698.182M654.546 274.8V318.4M654.546 274.8H698.182M654.546 318.4V362M654.546 318.4H698.182M654.546 362V405.6M654.546 362H698.182M654.546 405.6V449.2M654.546 405.6H698.182M654.546 449.2V492.8M654.546 449.2H698.182M654.546 492.8V536.4M654.546 492.8H698.182M654.546 536.4V580M654.546 536.4H698.182M654.546 580H698.182M698.182 -292V-248.4M698.182 -292H741.818M698.182 -248.4V-204.8M698.182 -248.4H741.818M698.182 -204.8V-161.2M698.182 -204.8H741.818M698.182 -161.2V-117.6M698.182 -161.2H741.818M698.182 -117.6V-74M698.182 -117.6H741.818M698.182 -74V-30.4M698.182 -74H741.818M698.182 -30.4V13.2M698.182 -30.4H741.818M698.182 13.2V56.8M698.182 13.2H741.818M698.182 56.8V100.4M698.182 56.8H741.818M698.182 100.4V144M698.182 100.4H741.818M698.182 144V187.6M698.182 144H741.818M698.182 187.6V231.2M698.182 187.6H741.818M698.182 231.2V274.8M698.182 231.2H741.818M698.182 274.8V318.4M698.182 274.8H741.818M698.182 318.4V362M698.182 318.4H741.818M698.182 362V405.6M698.182 362H741.818M698.182 405.6V449.2M698.182 405.6H741.818M698.182 449.2V492.8M698.182 449.2H741.818M698.182 492.8V536.4M698.182 492.8H741.818M698.182 536.4V580M698.182 536.4H741.818M698.182 580H741.818M741.818 -292V-248.4M741.818 -292H785.455M741.818 -248.4V-204.8M741.818 -248.4H785.455M741.818 -204.8V-161.2M741.818 -204.8H785.455M741.818 -161.2V-117.6M741.818 -161.2H785.455M741.818 -117.6V-74M741.818 -117.6H785.455M741.818 -74V-30.4M741.818 -74H785.455M741.818 -30.4V13.2M741.818 -30.4H785.455M741.818 13.2V56.8M741.818 13.2H785.455M741.818 56.8V100.4M741.818 56.8H785.455M741.818 100.4V144M741.818 100.4H785.455M741.818 144V187.6M741.818 144H785.455M741.818 187.6V231.2M741.818 187.6H785.455M741.818 231.2V274.8M741.818 231.2H785.455M741.818 274.8V318.4M741.818 274.8H785.455M741.818 318.4V362M741.818 318.4H785.455M741.818 362V405.6M741.818 362H785.455M741.818 405.6V449.2M741.818 405.6H785.455M741.818 449.2V492.8M741.818 449.2H785.455M741.818 492.8V536.4M741.818 492.8H785.455M741.818 536.4V580M741.818 536.4H785.455M741.818 580H785.455M785.455 -292V-248.4M785.455 -292H829.091M785.455 -248.4V-204.8M785.455 -248.4H829.091M785.455 -204.8V-161.2M785.455 -204.8H829.091M785.455 -161.2V-117.6M785.455 -161.2H829.091M785.455 -117.6V-74M785.455 -117.6H829.091M785.455 -74V-30.4M785.455 -74H829.091M785.455 -30.4V13.2M785.455 -30.4H829.091M785.455 13.2V56.8M785.455 13.2H829.091M785.455 56.8V100.4M785.455 56.8H829.091M785.455 100.4V144M785.455 100.4H829.091M785.455 144V187.6M785.455 144H829.091M785.455 187.6V231.2M785.455 187.6H829.091M785.455 231.2V274.8M785.455 231.2H829.091M785.455 274.8V318.4M785.455 274.8H829.091M785.455 318.4V362M785.455 318.4H829.091M785.455 362V405.6M785.455 362H829.091M785.455 405.6V449.2M785.455 405.6H829.091M785.455 449.2V492.8M785.455 449.2H829.091M785.455 492.8V536.4M785.455 492.8H829.091M785.455 536.4V580M785.455 536.4H829.091M785.455 580H829.091M829.091 -292V-248.4M829.091 -292H872.727M829.091 -248.4V-204.8M829.091 -248.4H872.727M829.091 -204.8V-161.2M829.091 -204.8H872.727M829.091 -161.2V-117.6M829.091 -161.2H872.727M829.091 -117.6V-74M829.091 -117.6H872.727M829.091 -74V-30.4M829.091 -74H872.727M829.091 -30.4V13.2M829.091 -30.4H872.727M829.091 13.2V56.8M829.091 13.2H872.727M829.091 56.8V100.4M829.091 56.8H872.727M829.091 100.4V144M829.091 100.4H872.727M829.091 144V187.6M829.091 144H872.727M829.091 187.6V231.2M829.091 187.6H872.727M829.091 231.2V274.8M829.091 231.2H872.727M829.091 274.8V318.4M829.091 274.8H872.727M829.091 318.4V362M829.091 318.4H872.727M829.091 362V405.6M829.091 362H872.727M829.091 405.6V449.2M829.091 405.6H872.727M829.091 449.2V492.8M829.091 449.2H872.727M829.091 492.8V536.4M829.091 492.8H872.727M829.091 536.4V580M829.091 536.4H872.727M829.091 580H872.727M872.727 -292V-248.4M872.727 -292H916.364M872.727 -248.4V-204.8M872.727 -248.4H916.364M872.727 -204.8V-161.2M872.727 -204.8H916.364M872.727 -161.2V-117.6M872.727 -161.2H916.364M872.727 -117.6V-74M872.727 -117.6H916.364M872.727 -74V-30.4M872.727 -74H916.364M872.727 -30.4V13.2M872.727 -30.4H916.364M872.727 13.2V56.8M872.727 13.2H916.364M872.727 56.8V100.4M872.727 56.8H916.364M872.727 100.4V144M872.727 100.4H916.364M872.727 144V187.6M872.727 144H916.364M872.727 187.6V231.2M872.727 187.6H916.364M872.727 231.2V274.8M872.727 231.2H916.364M872.727 274.8V318.4M872.727 274.8H916.364M872.727 318.4V362M872.727 318.4H916.364M872.727 362V405.6M872.727 362H916.364M872.727 405.6V449.2M872.727 405.6H916.364M872.727 449.2V492.8M872.727 449.2H916.364M872.727 492.8V536.4M872.727 492.8H916.364M872.727 536.4V580M872.727 536.4H916.364M872.727 580H916.364M916.364 -292V-248.4M916.364 -292H960V-248.4M916.364 -248.4V-204.8M916.364 -248.4H960M916.364 -204.8V-161.2M916.364 -204.8H960M916.364 -161.2V-117.6M916.364 -161.2H960M916.364 -117.6V-74M916.364 -117.6H960M916.364 -74V-30.4M916.364 -74H960M916.364 -30.4V13.2M916.364 -30.4H960M916.364 13.2V56.8M916.364 13.2H960M916.364 56.8V100.4M916.364 56.8H960M916.364 100.4V144M916.364 100.4H960M916.364 144V187.6M916.364 144H960M916.364 187.6V231.2M916.364 187.6H960M916.364 231.2V274.8M916.364 231.2H960M916.364 274.8V318.4M916.364 274.8H960M916.364 318.4V362M916.364 318.4H960M916.364 362V405.6M916.364 362H960M916.364 405.6V449.2M916.364 405.6H960M916.364 449.2V492.8M916.364 449.2H960M916.364 492.8V536.4M916.364 492.8H960M916.364 536.4V580M916.364 536.4H960M916.364 580H960V536.4M960 -248.4V-204.8M960 -204.8V-161.2M960 -161.2V-117.6M960 -117.6V-74M960 -74V-30.4M960 -30.4V13.2M960 13.2V56.8M960 56.8V100.4M960 100.4V144M960 144V187.6M960 187.6V231.2M960 231.2V274.8M960 274.8V318.4M960 318.4V362M960 362V405.6M960 405.6V449.2M960 449.2V492.8M960 492.8V536.4" stroke="url(#paint0_radial_44_1638)" stroke-width="0.804612"/>
<path opacity="0.2" d="M1098.64 -324H1055V-280.4M1098.64 -324V-280.4M1098.64 -324H1142.27M1098.64 -280.4H1055M1098.64 -280.4V-236.8M1098.64 -280.4H1142.27M1055 -280.4V-236.8M1098.64 -236.8H1055M1098.64 -236.8V-193.2M1098.64 -236.8H1142.27M1055 -236.8V-193.2M1098.64 -193.2H1055M1098.64 -193.2V-149.6M1098.64 -193.2H1142.27M1055 -193.2V-149.6M1098.64 -149.6H1055M1098.64 -149.6V-106M1098.64 -149.6H1142.27M1055 -149.6V-106M1098.64 -106H1055M1098.64 -106V-62.4M1098.64 -106H1142.27M1055 -106V-62.4M1098.64 -62.4H1055M1098.64 -62.4V-18.8M1098.64 -62.4H1142.27M1055 -62.4V-18.8M1098.64 -18.8H1055M1098.64 -18.8V24.8M1098.64 -18.8H1142.27M1055 -18.8V24.8M1098.64 24.8H1055M1098.64 24.8V68.4M1098.64 24.8H1142.27M1055 24.8V68.4M1098.64 68.4H1055M1098.64 68.4V112M1098.64 68.4H1142.27M1055 68.4V112M1098.64 112H1055M1098.64 112V155.6M1098.64 112H1142.27M1055 112V155.6M1098.64 155.6H1055M1098.64 155.6V199.2M1098.64 155.6H1142.27M1055 155.6V199.2M1098.64 199.2H1055M1098.64 199.2V242.8M1098.64 199.2H1142.27M1055 199.2V242.8M1098.64 242.8H1055M1098.64 242.8V286.4M1098.64 242.8H1142.27M1055 242.8V286.4M1098.64 286.4H1055M1098.64 286.4V330M1098.64 286.4H1142.27M1055 286.4V330M1098.64 330H1055M1098.64 330V373.6M1098.64 330H1142.27M1055 330V373.6M1098.64 373.6H1055M1098.64 373.6V417.2M1098.64 373.6H1142.27M1055 373.6V417.2M1098.64 417.2H1055M1098.64 417.2V460.8M1098.64 417.2H1142.27M1055 417.2V460.8M1098.64 460.8H1055M1098.64 460.8V504.4M1098.64 460.8H1142.27M1055 460.8V504.4M1098.64 504.4H1055M1098.64 504.4V548M1098.64 504.4H1142.27M1055 504.4V548H1098.64M1098.64 548H1142.27M1142.27 -324V-280.4M1142.27 -324H1185.91M1142.27 -280.4V-236.8M1142.27 -280.4H1185.91M1142.27 -236.8V-193.2M1142.27 -236.8H1185.91M1142.27 -193.2V-149.6M1142.27 -193.2H1185.91M1142.27 -149.6V-106M1142.27 -149.6H1185.91M1142.27 -106V-62.4M1142.27 -106H1185.91M1142.27 -62.4V-18.8M1142.27 -62.4H1185.91M1142.27 -18.8V24.8M1142.27 -18.8H1185.91M1142.27 24.8V68.4M1142.27 24.8H1185.91M1142.27 68.4V112M1142.27 68.4H1185.91M1142.27 112V155.6M1142.27 112H1185.91M1142.27 155.6V199.2M1142.27 155.6H1185.91M1142.27 199.2V242.8M1142.27 199.2H1185.91M1142.27 242.8V286.4M1142.27 242.8H1185.91M1142.27 286.4V330M1142.27 286.4H1185.91M1142.27 330V373.6M1142.27 330H1185.91M1142.27 373.6V417.2M1142.27 373.6H1185.91M1142.27 417.2V460.8M1142.27 417.2H1185.91M1142.27 460.8V504.4M1142.27 460.8H1185.91M1142.27 504.4V548M1142.27 504.4H1185.91M1142.27 548H1185.91M1185.91 -324V-280.4M1185.91 -324H1229.55M1185.91 -280.4V-236.8M1185.91 -280.4H1229.55M1185.91 -236.8V-193.2M1185.91 -236.8H1229.55M1185.91 -193.2V-149.6M1185.91 -193.2H1229.55M1185.91 -149.6V-106M1185.91 -149.6H1229.55M1185.91 -106V-62.4M1185.91 -106H1229.55M1185.91 -62.4V-18.8M1185.91 -62.4H1229.55M1185.91 -18.8V24.8M1185.91 -18.8H1229.55M1185.91 24.8V68.4M1185.91 24.8H1229.55M1185.91 68.4V112M1185.91 68.4H1229.55M1185.91 112V155.6M1185.91 112H1229.55M1185.91 155.6V199.2M1185.91 155.6H1229.55M1185.91 199.2V242.8M1185.91 199.2H1229.55M1185.91 242.8V286.4M1185.91 242.8H1229.55M1185.91 286.4V330M1185.91 286.4H1229.55M1185.91 330V373.6M1185.91 330H1229.55M1185.91 373.6V417.2M1185.91 373.6H1229.55M1185.91 417.2V460.8M1185.91 417.2H1229.55M1185.91 460.8V504.4M1185.91 460.8H1229.55M1185.91 504.4V548M1185.91 504.4H1229.55M1185.91 548H1229.55M1229.55 -324V-280.4M1229.55 -324H1273.18M1229.55 -280.4V-236.8M1229.55 -280.4H1273.18M1229.55 -236.8V-193.2M1229.55 -236.8H1273.18M1229.55 -193.2V-149.6M1229.55 -193.2H1273.18M1229.55 -149.6V-106M1229.55 -149.6H1273.18M1229.55 -106V-62.4M1229.55 -106H1273.18M1229.55 -62.4V-18.8M1229.55 -62.4H1273.18M1229.55 -18.8V24.8M1229.55 -18.8H1273.18M1229.55 24.8V68.4M1229.55 24.8H1273.18M1229.55 68.4V112M1229.55 68.4H1273.18M1229.55 112V155.6M1229.55 112H1273.18M1229.55 155.6V199.2M1229.55 155.6H1273.18M1229.55 199.2V242.8M1229.55 199.2H1273.18M1229.55 242.8V286.4M1229.55 242.8H1273.18M1229.55 286.4V330M1229.55 286.4H1273.18M1229.55 330V373.6M1229.55 330H1273.18M1229.55 373.6V417.2M1229.55 373.6H1273.18M1229.55 417.2V460.8M1229.55 417.2H1273.18M1229.55 460.8V504.4M1229.55 460.8H1273.18M1229.55 504.4V548M1229.55 504.4H1273.18M1229.55 548H1273.18M1273.18 -324V-280.4M1273.18 -324H1316.82M1273.18 -280.4V-236.8M1273.18 -280.4H1316.82M1273.18 -236.8V-193.2M1273.18 -236.8H1316.82M1273.18 -193.2V-149.6M1273.18 -193.2H1316.82M1273.18 -149.6V-106M1273.18 -149.6H1316.82M1273.18 -106V-62.4M1273.18 -106H1316.82M1273.18 -62.4V-18.8M1273.18 -62.4H1316.82M1273.18 -18.8V24.8M1273.18 -18.8H1316.82M1273.18 24.8V68.4M1273.18 24.8H1316.82M1273.18 68.4V112M1273.18 68.4H1316.82M1273.18 112V155.6M1273.18 112H1316.82M1273.18 155.6V199.2M1273.18 155.6H1316.82M1273.18 199.2V242.8M1273.18 199.2H1316.82M1273.18 242.8V286.4M1273.18 242.8H1316.82M1273.18 286.4V330M1273.18 286.4H1316.82M1273.18 330V373.6M1273.18 330H1316.82M1273.18 373.6V417.2M1273.18 373.6H1316.82M1273.18 417.2V460.8M1273.18 417.2H1316.82M1273.18 460.8V504.4M1273.18 460.8H1316.82M1273.18 504.4V548M1273.18 504.4H1316.82M1273.18 548H1316.82M1316.82 -324V-280.4M1316.82 -324H1360.45M1316.82 -280.4V-236.8M1316.82 -280.4H1360.45M1316.82 -236.8V-193.2M1316.82 -236.8H1360.45M1316.82 -193.2V-149.6M1316.82 -193.2H1360.45M1316.82 -149.6V-106M1316.82 -149.6H1360.45M1316.82 -106V-62.4M1316.82 -106H1360.45M1316.82 -62.4V-18.8M1316.82 -62.4H1360.45M1316.82 -18.8V24.8M1316.82 -18.8H1360.45M1316.82 24.8V68.4M1316.82 24.8H1360.45M1316.82 68.4V112M1316.82 68.4H1360.45M1316.82 112V155.6M1316.82 112H1360.45M1316.82 155.6V199.2M1316.82 155.6H1360.45M1316.82 199.2V242.8M1316.82 199.2H1360.45M1316.82 242.8V286.4M1316.82 242.8H1360.45M1316.82 286.4V330M1316.82 286.4H1360.45M1316.82 330V373.6M1316.82 330H1360.45M1316.82 373.6V417.2M1316.82 373.6H1360.45M1316.82 417.2V460.8M1316.82 417.2H1360.45M1316.82 460.8V504.4M1316.82 460.8H1360.45M1316.82 504.4V548M1316.82 504.4H1360.45M1316.82 548H1360.45M1360.45 -324V-280.4M1360.45 -324H1404.09M1360.45 -280.4V-236.8M1360.45 -280.4H1404.09M1360.45 -236.8V-193.2M1360.45 -236.8H1404.09M1360.45 -193.2V-149.6M1360.45 -193.2H1404.09M1360.45 -149.6V-106M1360.45 -149.6H1404.09M1360.45 -106V-62.4M1360.45 -106H1404.09M1360.45 -62.4V-18.8M1360.45 -62.4H1404.09M1360.45 -18.8V24.8M1360.45 -18.8H1404.09M1360.45 24.8V68.4M1360.45 24.8H1404.09M1360.45 68.4V112M1360.45 68.4H1404.09M1360.45 112V155.6M1360.45 112H1404.09M1360.45 155.6V199.2M1360.45 155.6H1404.09M1360.45 199.2V242.8M1360.45 199.2H1404.09M1360.45 242.8V286.4M1360.45 242.8H1404.09M1360.45 286.4V330M1360.45 286.4H1404.09M1360.45 330V373.6M1360.45 330H1404.09M1360.45 373.6V417.2M1360.45 373.6H1404.09M1360.45 417.2V460.8M1360.45 417.2H1404.09M1360.45 460.8V504.4M1360.45 460.8H1404.09M1360.45 504.4V548M1360.45 504.4H1404.09M1360.45 548H1404.09M1404.09 -324V-280.4M1404.09 -324H1447.73M1404.09 -280.4V-236.8M1404.09 -280.4H1447.73M1404.09 -236.8V-193.2M1404.09 -236.8H1447.73M1404.09 -193.2V-149.6M1404.09 -193.2H1447.73M1404.09 -149.6V-106M1404.09 -149.6H1447.73M1404.09 -106V-62.4M1404.09 -106H1447.73M1404.09 -62.4V-18.8M1404.09 -62.4H1447.73M1404.09 -18.8V24.8M1404.09 -18.8H1447.73M1404.09 24.8V68.4M1404.09 24.8H1447.73M1404.09 68.4V112M1404.09 68.4H1447.73M1404.09 112V155.6M1404.09 112H1447.73M1404.09 155.6V199.2M1404.09 155.6H1447.73M1404.09 199.2V242.8M1404.09 199.2H1447.73M1404.09 242.8V286.4M1404.09 242.8H1447.73M1404.09 286.4V330M1404.09 286.4H1447.73M1404.09 330V373.6M1404.09 330H1447.73M1404.09 373.6V417.2M1404.09 373.6H1447.73M1404.09 417.2V460.8M1404.09 417.2H1447.73M1404.09 460.8V504.4M1404.09 460.8H1447.73M1404.09 504.4V548M1404.09 504.4H1447.73M1404.09 548H1447.73M1447.73 -324V-280.4M1447.73 -324H1491.36M1447.73 -280.4V-236.8M1447.73 -280.4H1491.36M1447.73 -236.8V-193.2M1447.73 -236.8H1491.36M1447.73 -193.2V-149.6M1447.73 -193.2H1491.36M1447.73 -149.6V-106M1447.73 -149.6H1491.36M1447.73 -106V-62.4M1447.73 -106H1491.36M1447.73 -62.4V-18.8M1447.73 -62.4H1491.36M1447.73 -18.8V24.8M1447.73 -18.8H1491.36M1447.73 24.8V68.4M1447.73 24.8H1491.36M1447.73 68.4V112M1447.73 68.4H1491.36M1447.73 112V155.6M1447.73 112H1491.36M1447.73 155.6V199.2M1447.73 155.6H1491.36M1447.73 199.2V242.8M1447.73 199.2H1491.36M1447.73 242.8V286.4M1447.73 242.8H1491.36M1447.73 286.4V330M1447.73 286.4H1491.36M1447.73 330V373.6M1447.73 330H1491.36M1447.73 373.6V417.2M1447.73 373.6H1491.36M1447.73 417.2V460.8M1447.73 417.2H1491.36M1447.73 460.8V504.4M1447.73 460.8H1491.36M1447.73 504.4V548M1447.73 504.4H1491.36M1447.73 548H1491.36M1491.36 -324V-280.4M1491.36 -324H1535M1491.36 -280.4V-236.8M1491.36 -280.4H1535M1491.36 -236.8V-193.2M1491.36 -236.8H1535M1491.36 -193.2V-149.6M1491.36 -193.2H1535M1491.36 -149.6V-106M1491.36 -149.6H1535M1491.36 -106V-62.4M1491.36 -106H1535M1491.36 -62.4V-18.8M1491.36 -62.4H1535M1491.36 -18.8V24.8M1491.36 -18.8H1535M1491.36 24.8V68.4M1491.36 24.8H1535M1491.36 68.4V112M1491.36 68.4H1535M1491.36 112V155.6M1491.36 112H1535M1491.36 155.6V199.2M1491.36 155.6H1535M1491.36 199.2V242.8M1491.36 199.2H1535M1491.36 242.8V286.4M1491.36 242.8H1535M1491.36 286.4V330M1491.36 286.4H1535M1491.36 330V373.6M1491.36 330H1535M1491.36 373.6V417.2M1491.36 373.6H1535M1491.36 417.2V460.8M1491.36 417.2H1535M1491.36 460.8V504.4M1491.36 460.8H1535M1491.36 504.4V548M1491.36 504.4H1535M1491.36 548H1535M1535 -324V-280.4M1535 -324H1578.64M1535 -280.4V-236.8M1535 -280.4H1578.64M1535 -236.8V-193.2M1535 -236.8H1578.64M1535 -193.2V-149.6M1535 -193.2H1578.64M1535 -149.6V-106M1535 -149.6H1578.64M1535 -106V-62.4M1535 -106H1578.64M1535 -62.4V-18.8M1535 -62.4H1578.64M1535 -18.8V24.8M1535 -18.8H1578.64M1535 24.8V68.4M1535 24.8H1578.64M1535 68.4V112M1535 68.4H1578.64M1535 112V155.6M1535 112H1578.64M1535 155.6V199.2M1535 155.6H1578.64M1535 199.2V242.8M1535 199.2H1578.64M1535 242.8V286.4M1535 242.8H1578.64M1535 286.4V330M1535 286.4H1578.64M1535 330V373.6M1535 330H1578.64M1535 373.6V417.2M1535 373.6H1578.64M1535 417.2V460.8M1535 417.2H1578.64M1535 460.8V504.4M1535 460.8H1578.64M1535 504.4V548M1535 504.4H1578.64M1535 548H1578.64M1578.64 -324V-280.4M1578.64 -324H1622.27M1578.64 -280.4V-236.8M1578.64 -280.4H1622.27M1578.64 -236.8V-193.2M1578.64 -236.8H1622.27M1578.64 -193.2V-149.6M1578.64 -193.2H1622.27M1578.64 -149.6V-106M1578.64 -149.6H1622.27M1578.64 -106V-62.4M1578.64 -106H1622.27M1578.64 -62.4V-18.8M1578.64 -62.4H1622.27M1578.64 -18.8V24.8M1578.64 -18.8H1622.27M1578.64 24.8V68.4M1578.64 24.8H1622.27M1578.64 68.4V112M1578.64 68.4H1622.27M1578.64 112V155.6M1578.64 112H1622.27M1578.64 155.6V199.2M1578.64 155.6H1622.27M1578.64 199.2V242.8M1578.64 199.2H1622.27M1578.64 242.8V286.4M1578.64 242.8H1622.27M1578.64 286.4V330M1578.64 286.4H1622.27M1578.64 330V373.6M1578.64 330H1622.27M1578.64 373.6V417.2M1578.64 373.6H1622.27M1578.64 417.2V460.8M1578.64 417.2H1622.27M1578.64 460.8V504.4M1578.64 460.8H1622.27M1578.64 504.4V548M1578.64 504.4H1622.27M1578.64 548H1622.27M1622.27 -324V-280.4M1622.27 -324H1665.91M1622.27 -280.4V-236.8M1622.27 -280.4H1665.91M1622.27 -236.8V-193.2M1622.27 -236.8H1665.91M1622.27 -193.2V-149.6M1622.27 -193.2H1665.91M1622.27 -149.6V-106M1622.27 -149.6H1665.91M1622.27 -106V-62.4M1622.27 -106H1665.91M1622.27 -62.4V-18.8M1622.27 -62.4H1665.91M1622.27 -18.8V24.8M1622.27 -18.8H1665.91M1622.27 24.8V68.4M1622.27 24.8H1665.91M1622.27 68.4V112M1622.27 68.4H1665.91M1622.27 112V155.6M1622.27 112H1665.91M1622.27 155.6V199.2M1622.27 155.6H1665.91M1622.27 199.2V242.8M1622.27 199.2H1665.91M1622.27 242.8V286.4M1622.27 242.8H1665.91M1622.27 286.4V330M1622.27 286.4H1665.91M1622.27 330V373.6M1622.27 330H1665.91M1622.27 373.6V417.2M1622.27 373.6H1665.91M1622.27 417.2V460.8M1622.27 417.2H1665.91M1622.27 460.8V504.4M1622.27 460.8H1665.91M1622.27 504.4V548M1622.27 504.4H1665.91M1622.27 548H1665.91M1665.91 -324V-280.4M1665.91 -324H1709.55M1665.91 -280.4V-236.8M1665.91 -280.4H1709.55M1665.91 -236.8V-193.2M1665.91 -236.8H1709.55M1665.91 -193.2V-149.6M1665.91 -193.2H1709.55M1665.91 -149.6V-106M1665.91 -149.6H1709.55M1665.91 -106V-62.4M1665.91 -106H1709.55M1665.91 -62.4V-18.8M1665.91 -62.4H1709.55M1665.91 -18.8V24.8M1665.91 -18.8H1709.55M1665.91 24.8V68.4M1665.91 24.8H1709.55M1665.91 68.4V112M1665.91 68.4H1709.55M1665.91 112V155.6M1665.91 112H1709.55M1665.91 155.6V199.2M1665.91 155.6H1709.55M1665.91 199.2V242.8M1665.91 199.2H1709.55M1665.91 242.8V286.4M1665.91 242.8H1709.55M1665.91 286.4V330M1665.91 286.4H1709.55M1665.91 330V373.6M1665.91 330H1709.55M1665.91 373.6V417.2M1665.91 373.6H1709.55M1665.91 417.2V460.8M1665.91 417.2H1709.55M1665.91 460.8V504.4M1665.91 460.8H1709.55M1665.91 504.4V548M1665.91 504.4H1709.55M1665.91 548H1709.55M1709.55 -324V-280.4M1709.55 -324H1753.18M1709.55 -280.4V-236.8M1709.55 -280.4H1753.18M1709.55 -236.8V-193.2M1709.55 -236.8H1753.18M1709.55 -193.2V-149.6M1709.55 -193.2H1753.18M1709.55 -149.6V-106M1709.55 -149.6H1753.18M1709.55 -106V-62.4M1709.55 -106H1753.18M1709.55 -62.4V-18.8M1709.55 -62.4H1753.18M1709.55 -18.8V24.8M1709.55 -18.8H1753.18M1709.55 24.8V68.4M1709.55 24.8H1753.18M1709.55 68.4V112M1709.55 68.4H1753.18M1709.55 112V155.6M1709.55 112H1753.18M1709.55 155.6V199.2M1709.55 155.6H1753.18M1709.55 199.2V242.8M1709.55 199.2H1753.18M1709.55 242.8V286.4M1709.55 242.8H1753.18M1709.55 286.4V330M1709.55 286.4H1753.18M1709.55 330V373.6M1709.55 330H1753.18M1709.55 373.6V417.2M1709.55 373.6H1753.18M1709.55 417.2V460.8M1709.55 417.2H1753.18M1709.55 460.8V504.4M1709.55 460.8H1753.18M1709.55 504.4V548M1709.55 504.4H1753.18M1709.55 548H1753.18M1753.18 -324V-280.4M1753.18 -324H1796.82M1753.18 -280.4V-236.8M1753.18 -280.4H1796.82M1753.18 -236.8V-193.2M1753.18 -236.8H1796.82M1753.18 -193.2V-149.6M1753.18 -193.2H1796.82M1753.18 -149.6V-106M1753.18 -149.6H1796.82M1753.18 -106V-62.4M1753.18 -106H1796.82M1753.18 -62.4V-18.8M1753.18 -62.4H1796.82M1753.18 -18.8V24.8M1753.18 -18.8H1796.82M1753.18 24.8V68.4M1753.18 24.8H1796.82M1753.18 68.4V112M1753.18 68.4H1796.82M1753.18 112V155.6M1753.18 112H1796.82M1753.18 155.6V199.2M1753.18 155.6H1796.82M1753.18 199.2V242.8M1753.18 199.2H1796.82M1753.18 242.8V286.4M1753.18 242.8H1796.82M1753.18 286.4V330M1753.18 286.4H1796.82M1753.18 330V373.6M1753.18 330H1796.82M1753.18 373.6V417.2M1753.18 373.6H1796.82M1753.18 417.2V460.8M1753.18 417.2H1796.82M1753.18 460.8V504.4M1753.18 460.8H1796.82M1753.18 504.4V548M1753.18 504.4H1796.82M1753.18 548H1796.82M1796.82 -324V-280.4M1796.82 -324H1840.45M1796.82 -280.4V-236.8M1796.82 -280.4H1840.45M1796.82 -236.8V-193.2M1796.82 -236.8H1840.45M1796.82 -193.2V-149.6M1796.82 -193.2H1840.45M1796.82 -149.6V-106M1796.82 -149.6H1840.45M1796.82 -106V-62.4M1796.82 -106H1840.45M1796.82 -62.4V-18.8M1796.82 -62.4H1840.45M1796.82 -18.8V24.8M1796.82 -18.8H1840.45M1796.82 24.8V68.4M1796.82 24.8H1840.45M1796.82 68.4V112M1796.82 68.4H1840.45M1796.82 112V155.6M1796.82 112H1840.45M1796.82 155.6V199.2M1796.82 155.6H1840.45M1796.82 199.2V242.8M1796.82 199.2H1840.45M1796.82 242.8V286.4M1796.82 242.8H1840.45M1796.82 286.4V330M1796.82 286.4H1840.45M1796.82 330V373.6M1796.82 330H1840.45M1796.82 373.6V417.2M1796.82 373.6H1840.45M1796.82 417.2V460.8M1796.82 417.2H1840.45M1796.82 460.8V504.4M1796.82 460.8H1840.45M1796.82 504.4V548M1796.82 504.4H1840.45M1796.82 548H1840.45M1840.45 -324V-280.4M1840.45 -324H1884.09M1840.45 -280.4V-236.8M1840.45 -280.4H1884.09M1840.45 -236.8V-193.2M1840.45 -236.8H1884.09M1840.45 -193.2V-149.6M1840.45 -193.2H1884.09M1840.45 -149.6V-106M1840.45 -149.6H1884.09M1840.45 -106V-62.4M1840.45 -106H1884.09M1840.45 -62.4V-18.8M1840.45 -62.4H1884.09M1840.45 -18.8V24.8M1840.45 -18.8H1884.09M1840.45 24.8V68.4M1840.45 24.8H1884.09M1840.45 68.4V112M1840.45 68.4H1884.09M1840.45 112V155.6M1840.45 112H1884.09M1840.45 155.6V199.2M1840.45 155.6H1884.09M1840.45 199.2V242.8M1840.45 199.2H1884.09M1840.45 242.8V286.4M1840.45 242.8H1884.09M1840.45 286.4V330M1840.45 286.4H1884.09M1840.45 330V373.6M1840.45 330H1884.09M1840.45 373.6V417.2M1840.45 373.6H1884.09M1840.45 417.2V460.8M1840.45 417.2H1884.09M1840.45 460.8V504.4M1840.45 460.8H1884.09M1840.45 504.4V548M1840.45 504.4H1884.09M1840.45 548H1884.09M1884.09 -324V-280.4M1884.09 -324H1927.73M1884.09 -280.4V-236.8M1884.09 -280.4H1927.73M1884.09 -236.8V-193.2M1884.09 -236.8H1927.73M1884.09 -193.2V-149.6M1884.09 -193.2H1927.73M1884.09 -149.6V-106M1884.09 -149.6H1927.73M1884.09 -106V-62.4M1884.09 -106H1927.73M1884.09 -62.4V-18.8M1884.09 -62.4H1927.73M1884.09 -18.8V24.8M1884.09 -18.8H1927.73M1884.09 24.8V68.4M1884.09 24.8H1927.73M1884.09 68.4V112M1884.09 68.4H1927.73M1884.09 112V155.6M1884.09 112H1927.73M1884.09 155.6V199.2M1884.09 155.6H1927.73M1884.09 199.2V242.8M1884.09 199.2H1927.73M1884.09 242.8V286.4M1884.09 242.8H1927.73M1884.09 286.4V330M1884.09 286.4H1927.73M1884.09 330V373.6M1884.09 330H1927.73M1884.09 373.6V417.2M1884.09 373.6H1927.73M1884.09 417.2V460.8M1884.09 417.2H1927.73M1884.09 460.8V504.4M1884.09 460.8H1927.73M1884.09 504.4V548M1884.09 504.4H1927.73M1884.09 548H1927.73M1927.73 -324V-280.4M1927.73 -324H1971.36M1927.73 -280.4V-236.8M1927.73 -280.4H1971.36M1927.73 -236.8V-193.2M1927.73 -236.8H1971.36M1927.73 -193.2V-149.6M1927.73 -193.2H1971.36M1927.73 -149.6V-106M1927.73 -149.6H1971.36M1927.73 -106V-62.4M1927.73 -106H1971.36M1927.73 -62.4V-18.8M1927.73 -62.4H1971.36M1927.73 -18.8V24.8M1927.73 -18.8H1971.36M1927.73 24.8V68.4M1927.73 24.8H1971.36M1927.73 68.4V112M1927.73 68.4H1971.36M1927.73 112V155.6M1927.73 112H1971.36M1927.73 155.6V199.2M1927.73 155.6H1971.36M1927.73 199.2V242.8M1927.73 199.2H1971.36M1927.73 242.8V286.4M1927.73 242.8H1971.36M1927.73 286.4V330M1927.73 286.4H1971.36M1927.73 330V373.6M1927.73 330H1971.36M1927.73 373.6V417.2M1927.73 373.6H1971.36M1927.73 417.2V460.8M1927.73 417.2H1971.36M1927.73 460.8V504.4M1927.73 460.8H1971.36M1927.73 504.4V548M1927.73 504.4H1971.36M1927.73 548H1971.36M1971.36 -324V-280.4M1971.36 -324H2015M1971.36 -280.4V-236.8M1971.36 -280.4H2015M1971.36 -236.8V-193.2M1971.36 -236.8H2015M1971.36 -193.2V-149.6M1971.36 -193.2H2015M1971.36 -149.6V-106M1971.36 -149.6H2015M1971.36 -106V-62.4M1971.36 -106H2015M1971.36 -62.4V-18.8M1971.36 -62.4H2015M1971.36 -18.8V24.8M1971.36 -18.8H2015M1971.36 24.8V68.4M1971.36 24.8H2015M1971.36 68.4V112M1971.36 68.4H2015M1971.36 112V155.6M1971.36 112H2015M1971.36 155.6V199.2M1971.36 155.6H2015M1971.36 199.2V242.8M1971.36 199.2H2015M1971.36 242.8V286.4M1971.36 242.8H2015M1971.36 286.4V330M1971.36 286.4H2015M1971.36 330V373.6M1971.36 330H2015M1971.36 373.6V417.2M1971.36 373.6H2015M1971.36 417.2V460.8M1971.36 417.2H2015M1971.36 460.8V504.4M1971.36 460.8H2015M1971.36 504.4V548M1971.36 504.4H2015M1971.36 548H2015M2015 -324V-280.4M2015 -324H2058.64M2015 -280.4V-236.8M2015 -280.4H2058.64M2015 -236.8V-193.2M2015 -236.8H2058.64M2015 -193.2V-149.6M2015 -193.2H2058.64M2015 -149.6V-106M2015 -149.6H2058.64M2015 -106V-62.4M2015 -106H2058.64M2015 -62.4V-18.8M2015 -62.4H2058.64M2015 -18.8V24.8M2015 -18.8H2058.64M2015 24.8V68.4M2015 24.8H2058.64M2015 68.4V112M2015 68.4H2058.64M2015 112V155.6M2015 112H2058.64M2015 155.6V199.2M2015 155.6H2058.64M2015 199.2V242.8M2015 199.2H2058.64M2015 242.8V286.4M2015 242.8H2058.64M2015 286.4V330M2015 286.4H2058.64M2015 330V373.6M2015 330H2058.64M2015 373.6V417.2M2015 373.6H2058.64M2015 417.2V460.8M2015 417.2H2058.64M2015 460.8V504.4M2015 460.8H2058.64M2015 504.4V548M2015 504.4H2058.64M2015 548H2058.64M2058.64 -324V-280.4M2058.64 -324H2102.27M2058.64 -280.4V-236.8M2058.64 -280.4H2102.27M2058.64 -236.8V-193.2M2058.64 -236.8H2102.27M2058.64 -193.2V-149.6M2058.64 -193.2H2102.27M2058.64 -149.6V-106M2058.64 -149.6H2102.27M2058.64 -106V-62.4M2058.64 -106H2102.27M2058.64 -62.4V-18.8M2058.64 -62.4H2102.27M2058.64 -18.8V24.8M2058.64 -18.8H2102.27M2058.64 24.8V68.4M2058.64 24.8H2102.27M2058.64 68.4V112M2058.64 68.4H2102.27M2058.64 112V155.6M2058.64 112H2102.27M2058.64 155.6V199.2M2058.64 155.6H2102.27M2058.64 199.2V242.8M2058.64 199.2H2102.27M2058.64 242.8V286.4M2058.64 242.8H2102.27M2058.64 286.4V330M2058.64 286.4H2102.27M2058.64 330V373.6M2058.64 330H2102.27M2058.64 373.6V417.2M2058.64 373.6H2102.27M2058.64 417.2V460.8M2058.64 417.2H2102.27M2058.64 460.8V504.4M2058.64 460.8H2102.27M2058.64 504.4V548M2058.64 504.4H2102.27M2058.64 548H2102.27M2102.27 -324V-280.4M2102.27 -324H2145.91M2102.27 -280.4V-236.8M2102.27 -280.4H2145.91M2102.27 -236.8V-193.2M2102.27 -236.8H2145.91M2102.27 -193.2V-149.6M2102.27 -193.2H2145.91M2102.27 -149.6V-106M2102.27 -149.6H2145.91M2102.27 -106V-62.4M2102.27 -106H2145.91M2102.27 -62.4V-18.8M2102.27 -62.4H2145.91M2102.27 -18.8V24.8M2102.27 -18.8H2145.91M2102.27 24.8V68.4M2102.27 24.8H2145.91M2102.27 68.4V112M2102.27 68.4H2145.91M2102.27 112V155.6M2102.27 112H2145.91M2102.27 155.6V199.2M2102.27 155.6H2145.91M2102.27 199.2V242.8M2102.27 199.2H2145.91M2102.27 242.8V286.4M2102.27 242.8H2145.91M2102.27 286.4V330M2102.27 286.4H2145.91M2102.27 330V373.6M2102.27 330H2145.91M2102.27 373.6V417.2M2102.27 373.6H2145.91M2102.27 417.2V460.8M2102.27 417.2H2145.91M2102.27 460.8V504.4M2102.27 460.8H2145.91M2102.27 504.4V548M2102.27 504.4H2145.91M2102.27 548H2145.91M2145.91 -324V-280.4M2145.91 -324H2189.55M2145.91 -280.4V-236.8M2145.91 -280.4H2189.55M2145.91 -236.8V-193.2M2145.91 -236.8H2189.55M2145.91 -193.2V-149.6M2145.91 -193.2H2189.55M2145.91 -149.6V-106M2145.91 -149.6H2189.55M2145.91 -106V-62.4M2145.91 -106H2189.55M2145.91 -62.4V-18.8M2145.91 -62.4H2189.55M2145.91 -18.8V24.8M2145.91 -18.8H2189.55M2145.91 24.8V68.4M2145.91 24.8H2189.55M2145.91 68.4V112M2145.91 68.4H2189.55M2145.91 112V155.6M2145.91 112H2189.55M2145.91 155.6V199.2M2145.91 155.6H2189.55M2145.91 199.2V242.8M2145.91 199.2H2189.55M2145.91 242.8V286.4M2145.91 242.8H2189.55M2145.91 286.4V330M2145.91 286.4H2189.55M2145.91 330V373.6M2145.91 330H2189.55M2145.91 373.6V417.2M2145.91 373.6H2189.55M2145.91 417.2V460.8M2145.91 417.2H2189.55M2145.91 460.8V504.4M2145.91 460.8H2189.55M2145.91 504.4V548M2145.91 504.4H2189.55M2145.91 548H2189.55M2189.55 -324V-280.4M2189.55 -324H2233.18M2189.55 -280.4V-236.8M2189.55 -280.4H2233.18M2189.55 -236.8V-193.2M2189.55 -236.8H2233.18M2189.55 -193.2V-149.6M2189.55 -193.2H2233.18M2189.55 -149.6V-106M2189.55 -149.6H2233.18M2189.55 -106V-62.4M2189.55 -106H2233.18M2189.55 -62.4V-18.8M2189.55 -62.4H2233.18M2189.55 -18.8V24.8M2189.55 -18.8H2233.18M2189.55 24.8V68.4M2189.55 24.8H2233.18M2189.55 68.4V112M2189.55 68.4H2233.18M2189.55 112V155.6M2189.55 112H2233.18M2189.55 155.6V199.2M2189.55 155.6H2233.18M2189.55 199.2V242.8M2189.55 199.2H2233.18M2189.55 242.8V286.4M2189.55 242.8H2233.18M2189.55 286.4V330M2189.55 286.4H2233.18M2189.55 330V373.6M2189.55 330H2233.18M2189.55 373.6V417.2M2189.55 373.6H2233.18M2189.55 417.2V460.8M2189.55 417.2H2233.18M2189.55 460.8V504.4M2189.55 460.8H2233.18M2189.55 504.4V548M2189.55 504.4H2233.18M2189.55 548H2233.18M2233.18 -324V-280.4M2233.18 -324H2276.82M2233.18 -280.4V-236.8M2233.18 -280.4H2276.82M2233.18 -236.8V-193.2M2233.18 -236.8H2276.82M2233.18 -193.2V-149.6M2233.18 -193.2H2276.82M2233.18 -149.6V-106M2233.18 -149.6H2276.82M2233.18 -106V-62.4M2233.18 -106H2276.82M2233.18 -62.4V-18.8M2233.18 -62.4H2276.82M2233.18 -18.8V24.8M2233.18 -18.8H2276.82M2233.18 24.8V68.4M2233.18 24.8H2276.82M2233.18 68.4V112M2233.18 68.4H2276.82M2233.18 112V155.6M2233.18 112H2276.82M2233.18 155.6V199.2M2233.18 155.6H2276.82M2233.18 199.2V242.8M2233.18 199.2H2276.82M2233.18 242.8V286.4M2233.18 242.8H2276.82M2233.18 286.4V330M2233.18 286.4H2276.82M2233.18 330V373.6M2233.18 330H2276.82M2233.18 373.6V417.2M2233.18 373.6H2276.82M2233.18 417.2V460.8M2233.18 417.2H2276.82M2233.18 460.8V504.4M2233.18 460.8H2276.82M2233.18 504.4V548M2233.18 504.4H2276.82M2233.18 548H2276.82M2276.82 -324V-280.4M2276.82 -324H2320.45M2276.82 -280.4V-236.8M2276.82 -280.4H2320.45M2276.82 -236.8V-193.2M2276.82 -236.8H2320.45M2276.82 -193.2V-149.6M2276.82 -193.2H2320.45M2276.82 -149.6V-106M2276.82 -149.6H2320.45M2276.82 -106V-62.4M2276.82 -106H2320.45M2276.82 -62.4V-18.8M2276.82 -62.4H2320.45M2276.82 -18.8V24.8M2276.82 -18.8H2320.45M2276.82 24.8V68.4M2276.82 24.8H2320.45M2276.82 68.4V112M2276.82 68.4H2320.45M2276.82 112V155.6M2276.82 112H2320.45M2276.82 155.6V199.2M2276.82 155.6H2320.45M2276.82 199.2V242.8M2276.82 199.2H2320.45M2276.82 242.8V286.4M2276.82 242.8H2320.45M2276.82 286.4V330M2276.82 286.4H2320.45M2276.82 330V373.6M2276.82 330H2320.45M2276.82 373.6V417.2M2276.82 373.6H2320.45M2276.82 417.2V460.8M2276.82 417.2H2320.45M2276.82 460.8V504.4M2276.82 460.8H2320.45M2276.82 504.4V548M2276.82 504.4H2320.45M2276.82 548H2320.45M2320.45 -324V-280.4M2320.45 -324H2364.09M2320.45 -280.4V-236.8M2320.45 -280.4H2364.09M2320.45 -236.8V-193.2M2320.45 -236.8H2364.09M2320.45 -193.2V-149.6M2320.45 -193.2H2364.09M2320.45 -149.6V-106M2320.45 -149.6H2364.09M2320.45 -106V-62.4M2320.45 -106H2364.09M2320.45 -62.4V-18.8M2320.45 -62.4H2364.09M2320.45 -18.8V24.8M2320.45 -18.8H2364.09M2320.45 24.8V68.4M2320.45 24.8H2364.09M2320.45 68.4V112M2320.45 68.4H2364.09M2320.45 112V155.6M2320.45 112H2364.09M2320.45 155.6V199.2M2320.45 155.6H2364.09M2320.45 199.2V242.8M2320.45 199.2H2364.09M2320.45 242.8V286.4M2320.45 242.8H2364.09M2320.45 286.4V330M2320.45 286.4H2364.09M2320.45 330V373.6M2320.45 330H2364.09M2320.45 373.6V417.2M2320.45 373.6H2364.09M2320.45 417.2V460.8M2320.45 417.2H2364.09M2320.45 460.8V504.4M2320.45 460.8H2364.09M2320.45 504.4V548M2320.45 504.4H2364.09M2320.45 548H2364.09M2364.09 -324V-280.4M2364.09 -324H2407.73M2364.09 -280.4V-236.8M2364.09 -280.4H2407.73M2364.09 -236.8V-193.2M2364.09 -236.8H2407.73M2364.09 -193.2V-149.6M2364.09 -193.2H2407.73M2364.09 -149.6V-106M2364.09 -149.6H2407.73M2364.09 -106V-62.4M2364.09 -106H2407.73M2364.09 -62.4V-18.8M2364.09 -62.4H2407.73M2364.09 -18.8V24.8M2364.09 -18.8H2407.73M2364.09 24.8V68.4M2364.09 24.8H2407.73M2364.09 68.4V112M2364.09 68.4H2407.73M2364.09 112V155.6M2364.09 112H2407.73M2364.09 155.6V199.2M2364.09 155.6H2407.73M2364.09 199.2V242.8M2364.09 199.2H2407.73M2364.09 242.8V286.4M2364.09 242.8H2407.73M2364.09 286.4V330M2364.09 286.4H2407.73M2364.09 330V373.6M2364.09 330H2407.73M2364.09 373.6V417.2M2364.09 373.6H2407.73M2364.09 417.2V460.8M2364.09 417.2H2407.73M2364.09 460.8V504.4M2364.09 460.8H2407.73M2364.09 504.4V548M2364.09 504.4H2407.73M2364.09 548H2407.73M2407.73 -324V-280.4M2407.73 -324H2451.36M2407.73 -280.4V-236.8M2407.73 -280.4H2451.36M2407.73 -236.8V-193.2M2407.73 -236.8H2451.36M2407.73 -193.2V-149.6M2407.73 -193.2H2451.36M2407.73 -149.6V-106M2407.73 -149.6H2451.36M2407.73 -106V-62.4M2407.73 -106H2451.36M2407.73 -62.4V-18.8M2407.73 -62.4H2451.36M2407.73 -18.8V24.8M2407.73 -18.8H2451.36M2407.73 24.8V68.4M2407.73 24.8H2451.36M2407.73 68.4V112M2407.73 68.4H2451.36M2407.73 112V155.6M2407.73 112H2451.36M2407.73 155.6V199.2M2407.73 155.6H2451.36M2407.73 199.2V242.8M2407.73 199.2H2451.36M2407.73 242.8V286.4M2407.73 242.8H2451.36M2407.73 286.4V330M2407.73 286.4H2451.36M2407.73 330V373.6M2407.73 330H2451.36M2407.73 373.6V417.2M2407.73 373.6H2451.36M2407.73 417.2V460.8M2407.73 417.2H2451.36M2407.73 460.8V504.4M2407.73 460.8H2451.36M2407.73 504.4V548M2407.73 504.4H2451.36M2407.73 548H2451.36M2451.36 -324V-280.4M2451.36 -324H2495M2451.36 -280.4V-236.8M2451.36 -280.4H2495M2451.36 -236.8V-193.2M2451.36 -236.8H2495M2451.36 -193.2V-149.6M2451.36 -193.2H2495M2451.36 -149.6V-106M2451.36 -149.6H2495M2451.36 -106V-62.4M2451.36 -106H2495M2451.36 -62.4V-18.8M2451.36 -62.4H2495M2451.36 -18.8V24.8M2451.36 -18.8H2495M2451.36 24.8V68.4M2451.36 24.8H2495M2451.36 68.4V112M2451.36 68.4H2495M2451.36 112V155.6M2451.36 112H2495M2451.36 155.6V199.2M2451.36 155.6H2495M2451.36 199.2V242.8M2451.36 199.2H2495M2451.36 242.8V286.4M2451.36 242.8H2495M2451.36 286.4V330M2451.36 286.4H2495M2451.36 330V373.6M2451.36 330H2495M2451.36 373.6V417.2M2451.36 373.6H2495M2451.36 417.2V460.8M2451.36 417.2H2495M2451.36 460.8V504.4M2451.36 460.8H2495M2451.36 504.4V548M2451.36 504.4H2495M2451.36 548H2495M2495 -324V-280.4M2495 -324H2538.64M2495 -280.4V-236.8M2495 -280.4H2538.64M2495 -236.8V-193.2M2495 -236.8H2538.64M2495 -193.2V-149.6M2495 -193.2H2538.64M2495 -149.6V-106M2495 -149.6H2538.64M2495 -106V-62.4M2495 -106H2538.64M2495 -62.4V-18.8M2495 -62.4H2538.64M2495 -18.8V24.8M2495 -18.8H2538.64M2495 24.8V68.4M2495 24.8H2538.64M2495 68.4V112M2495 68.4H2538.64M2495 112V155.6M2495 112H2538.64M2495 155.6V199.2M2495 155.6H2538.64M2495 199.2V242.8M2495 199.2H2538.64M2495 242.8V286.4M2495 242.8H2538.64M2495 286.4V330M2495 286.4H2538.64M2495 330V373.6M2495 330H2538.64M2495 373.6V417.2M2495 373.6H2538.64M2495 417.2V460.8M2495 417.2H2538.64M2495 460.8V504.4M2495 460.8H2538.64M2495 504.4V548M2495 504.4H2538.64M2495 548H2538.64M2538.64 -324V-280.4M2538.64 -324H2582.27M2538.64 -280.4V-236.8M2538.64 -280.4H2582.27M2538.64 -236.8V-193.2M2538.64 -236.8H2582.27M2538.64 -193.2V-149.6M2538.64 -193.2H2582.27M2538.64 -149.6V-106M2538.64 -149.6H2582.27M2538.64 -106V-62.4M2538.64 -106H2582.27M2538.64 -62.4V-18.8M2538.64 -62.4H2582.27M2538.64 -18.8V24.8M2538.64 -18.8H2582.27M2538.64 24.8V68.4M2538.64 24.8H2582.27M2538.64 68.4V112M2538.64 68.4H2582.27M2538.64 112V155.6M2538.64 112H2582.27M2538.64 155.6V199.2M2538.64 155.6H2582.27M2538.64 199.2V242.8M2538.64 199.2H2582.27M2538.64 242.8V286.4M2538.64 242.8H2582.27M2538.64 286.4V330M2538.64 286.4H2582.27M2538.64 330V373.6M2538.64 330H2582.27M2538.64 373.6V417.2M2538.64 373.6H2582.27M2538.64 417.2V460.8M2538.64 417.2H2582.27M2538.64 460.8V504.4M2538.64 460.8H2582.27M2538.64 504.4V548M2538.64 504.4H2582.27M2538.64 548H2582.27M2582.27 -324V-280.4M2582.27 -324H2625.91M2582.27 -280.4V-236.8M2582.27 -280.4H2625.91M2582.27 -236.8V-193.2M2582.27 -236.8H2625.91M2582.27 -193.2V-149.6M2582.27 -193.2H2625.91M2582.27 -149.6V-106M2582.27 -149.6H2625.91M2582.27 -106V-62.4M2582.27 -106H2625.91M2582.27 -62.4V-18.8M2582.27 -62.4H2625.91M2582.27 -18.8V24.8M2582.27 -18.8H2625.91M2582.27 24.8V68.4M2582.27 24.8H2625.91M2582.27 68.4V112M2582.27 68.4H2625.91M2582.27 112V155.6M2582.27 112H2625.91M2582.27 155.6V199.2M2582.27 155.6H2625.91M2582.27 199.2V242.8M2582.27 199.2H2625.91M2582.27 242.8V286.4M2582.27 242.8H2625.91M2582.27 286.4V330M2582.27 286.4H2625.91M2582.27 330V373.6M2582.27 330H2625.91M2582.27 373.6V417.2M2582.27 373.6H2625.91M2582.27 417.2V460.8M2582.27 417.2H2625.91M2582.27 460.8V504.4M2582.27 460.8H2625.91M2582.27 504.4V548M2582.27 504.4H2625.91M2582.27 548H2625.91M2625.91 -324V-280.4M2625.91 -324H2669.55M2625.91 -280.4V-236.8M2625.91 -280.4H2669.55M2625.91 -236.8V-193.2M2625.91 -236.8H2669.55M2625.91 -193.2V-149.6M2625.91 -193.2H2669.55M2625.91 -149.6V-106M2625.91 -149.6H2669.55M2625.91 -106V-62.4M2625.91 -106H2669.55M2625.91 -62.4V-18.8M2625.91 -62.4H2669.55M2625.91 -18.8V24.8M2625.91 -18.8H2669.55M2625.91 24.8V68.4M2625.91 24.8H2669.55M2625.91 68.4V112M2625.91 68.4H2669.55M2625.91 112V155.6M2625.91 112H2669.55M2625.91 155.6V199.2M2625.91 155.6H2669.55M2625.91 199.2V242.8M2625.91 199.2H2669.55M2625.91 242.8V286.4M2625.91 242.8H2669.55M2625.91 286.4V330M2625.91 286.4H2669.55M2625.91 330V373.6M2625.91 330H2669.55M2625.91 373.6V417.2M2625.91 373.6H2669.55M2625.91 417.2V460.8M2625.91 417.2H2669.55M2625.91 460.8V504.4M2625.91 460.8H2669.55M2625.91 504.4V548M2625.91 504.4H2669.55M2625.91 548H2669.55M2669.55 -324V-280.4M2669.55 -324H2713.18M2669.55 -280.4V-236.8M2669.55 -280.4H2713.18M2669.55 -236.8V-193.2M2669.55 -236.8H2713.18M2669.55 -193.2V-149.6M2669.55 -193.2H2713.18M2669.55 -149.6V-106M2669.55 -149.6H2713.18M2669.55 -106V-62.4M2669.55 -106H2713.18M2669.55 -62.4V-18.8M2669.55 -62.4H2713.18M2669.55 -18.8V24.8M2669.55 -18.8H2713.18M2669.55 24.8V68.4M2669.55 24.8H2713.18M2669.55 68.4V112M2669.55 68.4H2713.18M2669.55 112V155.6M2669.55 112H2713.18M2669.55 155.6V199.2M2669.55 155.6H2713.18M2669.55 199.2V242.8M2669.55 199.2H2713.18M2669.55 242.8V286.4M2669.55 242.8H2713.18M2669.55 286.4V330M2669.55 286.4H2713.18M2669.55 330V373.6M2669.55 330H2713.18M2669.55 373.6V417.2M2669.55 373.6H2713.18M2669.55 417.2V460.8M2669.55 417.2H2713.18M2669.55 460.8V504.4M2669.55 460.8H2713.18M2669.55 504.4V548M2669.55 504.4H2713.18M2669.55 548H2713.18M2713.18 -324V-280.4M2713.18 -324H2756.82M2713.18 -280.4V-236.8M2713.18 -280.4H2756.82M2713.18 -236.8V-193.2M2713.18 -236.8H2756.82M2713.18 -193.2V-149.6M2713.18 -193.2H2756.82M2713.18 -149.6V-106M2713.18 -149.6H2756.82M2713.18 -106V-62.4M2713.18 -106H2756.82M2713.18 -62.4V-18.8M2713.18 -62.4H2756.82M2713.18 -18.8V24.8M2713.18 -18.8H2756.82M2713.18 24.8V68.4M2713.18 24.8H2756.82M2713.18 68.4V112M2713.18 68.4H2756.82M2713.18 112V155.6M2713.18 112H2756.82M2713.18 155.6V199.2M2713.18 155.6H2756.82M2713.18 199.2V242.8M2713.18 199.2H2756.82M2713.18 242.8V286.4M2713.18 242.8H2756.82M2713.18 286.4V330M2713.18 286.4H2756.82M2713.18 330V373.6M2713.18 330H2756.82M2713.18 373.6V417.2M2713.18 373.6H2756.82M2713.18 417.2V460.8M2713.18 417.2H2756.82M2713.18 460.8V504.4M2713.18 460.8H2756.82M2713.18 504.4V548M2713.18 504.4H2756.82M2713.18 548H2756.82M2756.82 -324V-280.4M2756.82 -324H2800.45M2756.82 -280.4V-236.8M2756.82 -280.4H2800.45M2756.82 -236.8V-193.2M2756.82 -236.8H2800.45M2756.82 -193.2V-149.6M2756.82 -193.2H2800.45M2756.82 -149.6V-106M2756.82 -149.6H2800.45M2756.82 -106V-62.4M2756.82 -106H2800.45M2756.82 -62.4V-18.8M2756.82 -62.4H2800.45M2756.82 -18.8V24.8M2756.82 -18.8H2800.45M2756.82 24.8V68.4M2756.82 24.8H2800.45M2756.82 68.4V112M2756.82 68.4H2800.45M2756.82 112V155.6M2756.82 112H2800.45M2756.82 155.6V199.2M2756.82 155.6H2800.45M2756.82 199.2V242.8M2756.82 199.2H2800.45M2756.82 242.8V286.4M2756.82 242.8H2800.45M2756.82 286.4V330M2756.82 286.4H2800.45M2756.82 330V373.6M2756.82 330H2800.45M2756.82 373.6V417.2M2756.82 373.6H2800.45M2756.82 417.2V460.8M2756.82 417.2H2800.45M2756.82 460.8V504.4M2756.82 460.8H2800.45M2756.82 504.4V548M2756.82 504.4H2800.45M2756.82 548H2800.45M2800.45 -324V-280.4M2800.45 -324H2844.09M2800.45 -280.4V-236.8M2800.45 -280.4H2844.09M2800.45 -236.8V-193.2M2800.45 -236.8H2844.09M2800.45 -193.2V-149.6M2800.45 -193.2H2844.09M2800.45 -149.6V-106M2800.45 -149.6H2844.09M2800.45 -106V-62.4M2800.45 -106H2844.09M2800.45 -62.4V-18.8M2800.45 -62.4H2844.09M2800.45 -18.8V24.8M2800.45 -18.8H2844.09M2800.45 24.8V68.4M2800.45 24.8H2844.09M2800.45 68.4V112M2800.45 68.4H2844.09M2800.45 112V155.6M2800.45 112H2844.09M2800.45 155.6V199.2M2800.45 155.6H2844.09M2800.45 199.2V242.8M2800.45 199.2H2844.09M2800.45 242.8V286.4M2800.45 242.8H2844.09M2800.45 286.4V330M2800.45 286.4H2844.09M2800.45 330V373.6M2800.45 330H2844.09M2800.45 373.6V417.2M2800.45 373.6H2844.09M2800.45 417.2V460.8M2800.45 417.2H2844.09M2800.45 460.8V504.4M2800.45 460.8H2844.09M2800.45 504.4V548M2800.45 504.4H2844.09M2800.45 548H2844.09M2844.09 -324V-280.4M2844.09 -324H2887.73M2844.09 -280.4V-236.8M2844.09 -280.4H2887.73M2844.09 -236.8V-193.2M2844.09 -236.8H2887.73M2844.09 -193.2V-149.6M2844.09 -193.2H2887.73M2844.09 -149.6V-106M2844.09 -149.6H2887.73M2844.09 -106V-62.4M2844.09 -106H2887.73M2844.09 -62.4V-18.8M2844.09 -62.4H2887.73M2844.09 -18.8V24.8M2844.09 -18.8H2887.73M2844.09 24.8V68.4M2844.09 24.8H2887.73M2844.09 68.4V112M2844.09 68.4H2887.73M2844.09 112V155.6M2844.09 112H2887.73M2844.09 155.6V199.2M2844.09 155.6H2887.73M2844.09 199.2V242.8M2844.09 199.2H2887.73M2844.09 242.8V286.4M2844.09 242.8H2887.73M2844.09 286.4V330M2844.09 286.4H2887.73M2844.09 330V373.6M2844.09 330H2887.73M2844.09 373.6V417.2M2844.09 373.6H2887.73M2844.09 417.2V460.8M2844.09 417.2H2887.73M2844.09 460.8V504.4M2844.09 460.8H2887.73M2844.09 504.4V548M2844.09 504.4H2887.73M2844.09 548H2887.73M2887.73 -324V-280.4M2887.73 -324H2931.36M2887.73 -280.4V-236.8M2887.73 -280.4H2931.36M2887.73 -236.8V-193.2M2887.73 -236.8H2931.36M2887.73 -193.2V-149.6M2887.73 -193.2H2931.36M2887.73 -149.6V-106M2887.73 -149.6H2931.36M2887.73 -106V-62.4M2887.73 -106H2931.36M2887.73 -62.4V-18.8M2887.73 -62.4H2931.36M2887.73 -18.8V24.8M2887.73 -18.8H2931.36M2887.73 24.8V68.4M2887.73 24.8H2931.36M2887.73 68.4V112M2887.73 68.4H2931.36M2887.73 112V155.6M2887.73 112H2931.36M2887.73 155.6V199.2M2887.73 155.6H2931.36M2887.73 199.2V242.8M2887.73 199.2H2931.36M2887.73 242.8V286.4M2887.73 242.8H2931.36M2887.73 286.4V330M2887.73 286.4H2931.36M2887.73 330V373.6M2887.73 330H2931.36M2887.73 373.6V417.2M2887.73 373.6H2931.36M2887.73 417.2V460.8M2887.73 417.2H2931.36M2887.73 460.8V504.4M2887.73 460.8H2931.36M2887.73 504.4V548M2887.73 504.4H2931.36M2887.73 548H2931.36M2931.36 -324V-280.4M2931.36 -324H2975V-280.4M2931.36 -280.4V-236.8M2931.36 -280.4H2975M2931.36 -236.8V-193.2M2931.36 -236.8H2975M2931.36 -193.2V-149.6M2931.36 -193.2H2975M2931.36 -149.6V-106M2931.36 -149.6H2975M2931.36 -106V-62.4M2931.36 -106H2975M2931.36 -62.4V-18.8M2931.36 -62.4H2975M2931.36 -18.8V24.8M2931.36 -18.8H2975M2931.36 24.8V68.4M2931.36 24.8H2975M2931.36 68.4V112M2931.36 68.4H2975M2931.36 112V155.6M2931.36 112H2975M2931.36 155.6V199.2M2931.36 155.6H2975M2931.36 199.2V242.8M2931.36 199.2H2975M2931.36 242.8V286.4M2931.36 242.8H2975M2931.36 286.4V330M2931.36 286.4H2975M2931.36 330V373.6M2931.36 330H2975M2931.36 373.6V417.2M2931.36 373.6H2975M2931.36 417.2V460.8M2931.36 417.2H2975M2931.36 460.8V504.4M2931.36 460.8H2975M2931.36 504.4V548M2931.36 504.4H2975M2931.36 548H2975V504.4M2975 -280.4V-236.8M2975 -236.8V-193.2M2975 -193.2V-149.6M2975 -149.6V-106M2975 -106V-62.4M2975 -62.4V-18.8M2975 -18.8V24.8M2975 24.8V68.4M2975 68.4V112M2975 112V155.6M2975 155.6V199.2M2975 199.2V242.8M2975 242.8V286.4M2975 286.4V330M2975 330V373.6M2975 373.6V417.2M2975 417.2V460.8M2975 460.8V504.4" stroke="url(#paint1_radial_44_1638)" stroke-width="0.804612"/>
</g>
<defs>
<radialGradient id="paint0_radial_44_1638" cx="0" cy="0" r="1" gradientUnits="userSpaceOnUse" gradientTransform="translate(-4.06561e-05 144) rotate(-90) scale(360.5 1197.18)">
<stop stop-color="#242677"/>
<stop offset="1" stop-color="#242677" stop-opacity="0"/>
</radialGradient>
<radialGradient id="paint1_radial_44_1638" cx="0" cy="0" r="1" gradientUnits="userSpaceOnUse" gradientTransform="translate(2015 112) rotate(-90) scale(360.5 1197.18)">
<stop stop-color="#242677"/>
<stop offset="1" stop-color="#242677" stop-opacity="0"/>
</radialGradient>
<clipPath id="clip0_44_1638">
<rect width="1920" height="224" fill="white"/>
</clipPath>
</defs>
</svg>
